<?xml version="1.0" encoding="utf-8"?>
<!-- Generator: Adobe Illustrator 26.5.0, SVG Export Plug-In . SVG Version: 6.00 Build 0)  -->
<svg version="1.1" id="Layer_1" xmlns="http://www.w3.org/2000/svg" xmlns:xlink="http://www.w3.org/1999/xlink" x="0px" y="0px"
	 viewBox="0 0 296.47 310.18" style="enable-background:new 0 0 296.47 310.18;" xml:space="preserve">
<style type="text/css">
	.st0{fill:#FFFFFF;}
	.st1{fill:url(#SVGID_1_);}
	.st2{fill:none;stroke:#42210B;stroke-width:5;stroke-linecap:round;stroke-linejoin:round;stroke-miterlimit:10;}
	.st3{fill:#FFFFFF;stroke:#42210B;stroke-width:5;stroke-miterlimit:10;}
	.st4{fill:#333333;}
	.st5{fill:#42210B;}
	.st6{fill:url(#SVGID_00000083786372856581947220000014266027233937004462_);}
	.st7{fill:url(#SVGID_00000169538041338930589570000012335783558670365094_);}
	.st8{fill:url(#SVGID_00000124870435819452561580000002197555279401766070_);}
	.st9{fill:#FCBF95;}
	.st10{fill:url(#SVGID_00000181786847445687758110000013848255510164924323_);}
	.st11{fill:#FF9D5A;}
	.st12{fill:#303047;}
	.st13{fill:url(#SVGID_00000137841333744094457070000002477329045945383354_);}
	.st14{fill:url(#SVGID_00000157298911541264069100000015243671501659201717_);}
	.st15{fill:url(#SVGID_00000142865585150143406870000009391182942742930599_);}
	.st16{clip-path:url(#SVGID_00000182519527553270855260000009827150030102344327_);}
	.st17{fill:#772C29;}
	.st18{fill:#F7C4A6;}
	.st19{fill:#E6A486;}
	.st20{fill:#F15A24;}
	.st21{fill:#C1272D;}
	.st22{fill:#CF7D73;}
	.st23{fill:#581C2C;}
	.st24{fill:#8B3B29;}
	.st25{clip-path:url(#SVGID_00000049206342054583574280000016916198253956876442_);}
	.st26{clip-path:url(#SVGID_00000046332942252178204870000001490647014982297529_);}
	.st27{clip-path:url(#SVGID_00000070096365780121822650000003147216382214484908_);}
	.st28{fill:#0C0C0C;}
	.st29{fill:#575757;}
	.st30{fill:#201D1E;}
	.st31{fill:#DB262D;}
	
		.st32{fill:url(#SVGID_00000039831810428745424390000014079973294378909580_);stroke:#2A6880;stroke-width:0.2596;stroke-miterlimit:10;}
	
		.st33{fill:url(#SVGID_00000158739549408220795940000015309552629930866873_);stroke:#2A6880;stroke-width:0.2596;stroke-miterlimit:10;}
	
		.st34{fill:url(#SVGID_00000059294549798014144470000011405393360927073938_);stroke:#2A6880;stroke-width:0.2596;stroke-miterlimit:10;}
	.st35{fill:#343433;}
	.st36{fill:#1C1B17;}
	.st37{fill:#4B443F;}
	.st38{fill:#B9272A;}
	.st39{fill:#264A90;}
	.st40{fill:#D41F26;}
	.st41{fill:#E66725;}
	.st42{clip-path:url(#SVGID_00000109006666954143431610000000089035170298941628_);}
	.st43{fill:#EF8C71;}
	.st44{fill:#EF8C73;}
	.st45{fill:#828080;}
	.st46{fill:none;}
	.st47{fill:none;stroke:#42210B;stroke-miterlimit:10;}
	.st48{clip-path:url(#SVGID_00000109003763538902693050000006115370795198845624_);}
	.st49{clip-path:url(#SVGID_00000171721633962823409840000000341225617166938519_);}
	.st50{fill:#FBB617;}
</style>
<g>
	<path class="st0" d="M283.26,310.18H13.21c-7.3,0-13.21-5.92-13.21-13.21V13.21C0,5.92,5.92,0,13.21,0h270.05
		c7.3,0,13.21,5.92,13.21,13.21v283.75C296.47,304.26,290.56,310.18,283.26,310.18z"/>
</g>
<g>
	<defs>
		<path id="SVGID_00000088836774909709308990000015807830654382896266_" d="M283.26,310.18H13.21c-7.3,0-13.21-5.92-13.21-13.21
			V13.21C0,5.92,5.92,0,13.21,0h270.05c7.3,0,13.21,5.92,13.21,13.21v283.75C296.47,304.26,290.56,310.18,283.26,310.18z"/>
	</defs>
	<clipPath id="SVGID_00000000928389659227823230000014174049134615651516_">
		<use xlink:href="#SVGID_00000088836774909709308990000015807830654382896266_"  style="overflow:visible;"/>
	</clipPath>
	<g style="clip-path:url(#SVGID_00000000928389659227823230000014174049134615651516_);">
		<g>
			<path class="st17" d="M217.5,216.75c-7.81-23.47,0-38.6-6.25-87.04c-6.25-48.44-49.99-56.77-63.27-52.98
				c-0.03,0.01-0.06,0.02-0.09,0.03c-0.03-0.01-0.06-0.02-0.09-0.03c-13.28-3.78-57.02,4.54-63.27,52.98
				c-6.25,48.44,1.56,63.57-6.25,87.04c-7.81,23.46-29.48,67.33-11.23,86.65c5.04,5.34,33.17,8.9,80.83,8.9s75.79-3.56,80.83-8.9
				C246.99,284.08,225.31,240.22,217.5,216.75z"/>
			<g>
				<g>
					<g>
						<g>
							<path class="st18" d="M28.11,365.36H72c3.01-27.91,7.73-74.83,7.29-91.44c-0.63-24.25-3.03-56.07-3.03-56.07
								s-25.95,10.19-38.02,31.21c-12.07,21.01-12.29,46.51-11.88,76.68C26.56,340.17,28.11,365.36,28.11,365.36z"/>
						</g>
						<path class="st19" d="M79.29,273.92c-0.63-24.25-3.03-56.07-3.03-56.07s-25.95,10.19-38.02,31.21
							c-8.6,14.96-11.17,32.21-11.8,51.78c8.16,2.44,22.19,7.81,26.75,16.91c5.35,10.7,7.92,31.31,7.4,47.61H72
							C75.01,337.45,79.73,290.53,79.29,273.92z"/>
					</g>
					<g>
						<g>
							<path class="st18" d="M268.36,365.36h-43.89c-3.01-27.91-7.73-74.83-7.29-91.44c0.63-24.25,3.03-56.07,3.03-56.07
								s25.95,10.19,38.02,31.21c12.08,21.01,12.29,46.51,11.88,76.68C269.92,340.17,268.36,365.36,268.36,365.36z"/>
						</g>
						<path class="st19" d="M217.18,273.92c0.63-24.25,3.03-56.07,3.03-56.07s25.95,10.19,38.02,31.21
							c8.6,14.96,11.17,32.21,11.8,51.78c-8.16,2.44-22.19,7.81-26.75,16.91c-5.35,10.7-7.92,31.31-7.4,47.61h-11.41
							C221.46,337.45,216.75,290.53,217.18,273.92z"/>
					</g>
				</g>
				<g>
					<path class="st20" d="M273.81,296.6c0,0-3.5-27.39-13.4-50.11c-9.91-22.72-37.03-29.87-48.1-32.49
						c-12.44-2.95-43.38-9.18-64.07-9.18c-20.69,0-51.63,6.23-64.07,9.18c-11.07,2.63-38.2,9.77-48.1,32.49
						c-9.91,22.73-13.4,50.11-13.4,50.11l40.21,11.66c0,0-0.58,32.05,2.55,57.11h165.63c3.13-25.06,2.55-57.11,2.55-57.11
						L273.81,296.6z"/>
					<path class="st21" d="M176.47,345.19c-32.68,12.5-77.06,17.42-111.15,19.3c0.03,0.29,0.07,0.58,0.1,0.87h165.63
						c3.13-25.06,2.55-57.11,2.55-57.11l0.1-0.03c-3.22-30.45-10.71-42.97-10.71-42.97S237.32,321.93,176.47,345.19z"/>
				</g>
			</g>
			<g>
				<g>
					<path class="st18" d="M201.54,215.86c-2.41-3.49-20.1-8.07-27.44-9.04l-7.51-35.06h-36.7l-7.51,35.06
						c-7.34,0.97-25.02,5.55-27.44,9.04c-2.42,3.49,6.34,19.69,18.52,27.57c7.02,4.54,21.56,11.49,34.78,11.49
						c13.23,0,27.76-6.95,34.79-11.49C195.2,235.54,203.96,219.35,201.54,215.86z"/>
					<path class="st19" d="M166.59,171.76h-36.7l-7.51,35.06c-2.43,0.32-9.75,1.98-9.75,1.98s0.24,21.26,35.63,21.26
						c35.39,0,35.62-21.25,35.62-21.25s-7.33-1.66-9.76-1.98L166.59,171.76z"/>
				</g>
				<g>
					<path class="st19" d="M103.49,159.07c0,0-8.23-11.02-11.15,0.07c-1.81,6.89-0.12,13.65,3.02,17.9
						c1.91,2.59,9.49,6.49,9.49,6.49L103.49,159.07z"/>
					<path class="st19" d="M192.99,159.07c0,0,8.23-11.02,11.15,0.07c1.81,6.89,0.12,13.65-3.02,17.9
						c-1.91,2.59-9.49,6.49-9.49,6.49L192.99,159.07z"/>
				</g>
				<path class="st18" d="M148.24,71.37c-47.5,0-54.69,63.84-52.3,84.72c2.39,20.88,6.86,29.69,14.87,38.27
					c5.06,5.42,21.73,14.13,37.43,14.13c15.7,0,32.37-8.71,37.43-14.13c8.01-8.58,12.49-17.39,14.87-38.27
					C202.94,135.21,195.75,71.37,148.24,71.37z"/>
				<g>
					<g>
						<path class="st22" d="M140.73,180.49c2.79,5.93,8.66,7.73,14.23,4.33c-1.06,1.13-2.42,1.98-3.92,2.53
							C146.6,189.18,139.25,186.06,140.73,180.49L140.73,180.49z"/>
					</g>
					<g>
						<g>
							<path class="st23" d="M165.17,169.5c0,3.29,2.66,5.95,5.94,5.95c3.28,0.01,5.94-2.65,5.94-5.93c0-3.29-2.65-5.94-5.92-5.94
								C167.84,163.57,165.18,166.22,165.17,169.5z"/>
							<path class="st23" d="M131.32,169.5c0,3.29-2.65,5.95-5.94,5.95c-3.28,0.01-5.93-2.65-5.94-5.93c0-3.29,2.65-5.94,5.93-5.94
								C128.66,163.57,131.31,166.22,131.32,169.5z"/>
						</g>
						<g>
							<g>
								<g>
									<path class="st24" d="M179.11,157.29c-2.58-0.77-5.28-1.26-7.98-1.28c-3.12-0.02-6.34,0.34-9.14,1.75
										c-0.3,0.15-0.25,0.7,0.1,0.76c1.14,0.19,2.25,0.28,3.41,0.22c1.84-0.1,3.69-0.32,5.54-0.33c2.5-0.01,5.07,0.4,7.52,0.89
										C179.86,159.56,180.41,157.68,179.11,157.29L179.11,157.29z"/>
								</g>
							</g>
							<g>
								<g>
									<path class="st24" d="M117.65,159.33c2.34-0.19,4.71-0.37,7.05-0.44c1.89-0.05,3.78,0.12,5.67,0.07
										c0.85-0.02,1.66-0.06,2.5-0.17c0.51-0.07,1-0.19,1.51-0.28c0.34-0.06,0.41-0.6,0.1-0.76c-1.28-0.63-2.6-0.87-4.01-1.04
										c-1.91-0.24-3.86-0.28-5.78-0.21c-2.46,0.09-4.9,0.35-7.33,0.78C116.23,157.49,116.48,159.43,117.65,159.33L117.65,159.33z
										"/>
								</g>
							</g>
						</g>
					</g>
					<g>
						<path class="st22" d="M136.36,193.35c3.96,0.53,7.91,1.23,11.84,1.03c3.41-0.33,6.97-0.37,10.33-1.12
							c0.46-0.14,0.94-0.28,1.25-0.7c-0.07,0.55-0.55,0.95-0.97,1.26C151.99,197.59,143.01,197.36,136.36,193.35L136.36,193.35z"/>
					</g>
				</g>
			</g>
			<g>
				<path class="st24" d="M211.07,117.91c-2.39-15.51-10.85-29.41-20.88-38.78c-11.71-10.93-22.67-6.56-22.67-6.56
					s-0.6-6.56-20.28-7.16c-19.68-0.6-34.35,3.5-53.09,31.62c-6.34,9.52-11.11,31.54-11.93,49.51c-0.23,5.06-0.89,46.53-1.19,50.71
					c-0.3,4.18-0.6,10.55-3.28,13.72c-3.28,3.88-4.77,6.26-4.77,6.26s7.76,3.58,15.51,1.79c7.75-1.79,10.14-8.05,10.14-8.05
					s-3.88-22.07-4.47-29.83c-0.6-7.75-1.14-16.34,4.18-20.28c6.16-4.58,16.47-12.18,24.84-15.59c16.11-6.56,32.43-20.8,32.43-20.8
					s9.87,15.08,17.87,20.8c8.35,5.96,16.74,12.41,19.11,20.96c-0.76,8.89-5.15,25.18-8.35,32.81
					c-10.16,24.21-12.47,66.15-12.2,78.71c0.27,12.56,33.08,25.68,42.03,10.17C223,272.41,213.46,133.42,211.07,117.91z"/>
				<path class="st18" d="M167.34,75.93c0,0-8.04,15.47-9.9,25.37c-1.56,8.32-1.86,22.89-1.86,22.89s8.2-11.91,10.52-19.8
					C168.42,96.5,167.34,75.93,167.34,75.93z"/>
			</g>
		</g>
	</g>
</g>
</svg>
