<?xml version="1.0" encoding="utf-8"?>
<!-- Generator: Adobe Illustrator 26.5.0, SVG Export Plug-In . SVG Version: 6.00 Build 0)  -->
<svg version="1.1" id="Layer_1" xmlns="http://www.w3.org/2000/svg" xmlns:xlink="http://www.w3.org/1999/xlink" x="0px" y="0px"
	 viewBox="0 0 296.47 310.18" style="enable-background:new 0 0 296.47 310.18;" xml:space="preserve">
<style type="text/css">
	.st0{fill:#FFFFFF;}
	.st1{fill:url(#SVGID_1_);}
	.st2{fill:none;stroke:#42210B;stroke-width:5;stroke-linecap:round;stroke-linejoin:round;stroke-miterlimit:10;}
	.st3{fill:#FFFFFF;stroke:#42210B;stroke-width:5;stroke-miterlimit:10;}
	.st4{fill:#333333;}
	.st5{fill:#42210B;}
	.st6{fill:url(#SVGID_00000066517054166660453740000011629224490038606731_);}
	.st7{fill:url(#SVGID_00000147184194565115322170000008600530573725056646_);}
	.st8{fill:url(#SVGID_00000090289151234396211880000008328950846617610160_);}
	.st9{fill:#FCBF95;}
	.st10{fill:url(#SVGID_00000134219481678899876790000009511822562117310386_);}
	.st11{fill:#FF9D5A;}
	.st12{fill:#303047;}
	.st13{fill:url(#SVGID_00000038387556546886019480000016613492540768040639_);}
	.st14{fill:url(#SVGID_00000025413308678393788390000006505204830227239574_);}
	.st15{fill:url(#SVGID_00000139279292788671130400000010600238605843796125_);}
	.st16{clip-path:url(#SVGID_00000000189575766997755090000017164131956757217461_);}
	.st17{fill:#772C29;}
	.st18{fill:#F7C4A6;}
	.st19{fill:#E6A486;}
	.st20{fill:#F15A24;}
	.st21{fill:#C1272D;}
	.st22{fill:#CF7D73;}
	.st23{fill:#581C2C;}
	.st24{fill:#8B3B29;}
	.st25{clip-path:url(#SVGID_00000088834792122443095260000000917332759315495583_);}
	.st26{clip-path:url(#SVGID_00000002377877043795944650000016924023865093079966_);}
	.st27{clip-path:url(#SVGID_00000126314192020277502170000005688075423660649859_);}
	.st28{fill:#0C0C0C;}
	.st29{fill:#575757;}
	.st30{fill:#201D1E;}
	.st31{fill:#DB262D;}
	
		.st32{fill:url(#SVGID_00000021113472054082208140000011196129758855985070_);stroke:#2A6880;stroke-width:0.2596;stroke-miterlimit:10;}
	
		.st33{fill:url(#SVGID_00000011017990742961706510000008863640421901569466_);stroke:#2A6880;stroke-width:0.2596;stroke-miterlimit:10;}
	
		.st34{fill:url(#SVGID_00000033328192169470786230000006599804056624041880_);stroke:#2A6880;stroke-width:0.2596;stroke-miterlimit:10;}
	.st35{fill:#343433;}
	.st36{fill:#1C1B17;}
	.st37{fill:#4B443F;}
	.st38{fill:#B9272A;}
	.st39{fill:#264A90;}
	.st40{fill:#D41F26;}
	.st41{fill:#E66725;}
	.st42{clip-path:url(#SVGID_00000178925805959613798710000004909183256007556762_);}
	.st43{fill:#EF8C71;}
	.st44{fill:#EF8C73;}
	.st45{fill:#828080;}
	.st46{fill:none;}
	.st47{fill:none;stroke:#42210B;stroke-miterlimit:10;}
	.st48{clip-path:url(#SVGID_00000161612868722079559470000009040806590277501314_);}
	.st49{clip-path:url(#SVGID_00000066500838122050378450000000390176408893597070_);}
	.st50{fill:#FBB617;}
</style>
<g>
	<path class="st0" d="M283.26,310.18H13.21c-7.3,0-13.21-5.92-13.21-13.21V13.21C0,5.92,5.92,0,13.21,0h270.05
		c7.3,0,13.21,5.92,13.21,13.21v283.75C296.47,304.26,290.56,310.18,283.26,310.18z"/>
</g>
<g>
	<defs>
		<path id="SVGID_00000022523208920410206460000005006964051174782365_" d="M283.26,310.18H13.21c-7.3,0-13.21-5.92-13.21-13.21
			V13.21C0,5.92,5.92,0,13.21,0h270.05c7.3,0,13.21,5.92,13.21,13.21v283.75C296.47,304.26,290.56,310.18,283.26,310.18z"/>
	</defs>
	<clipPath id="SVGID_00000181773154769205254630000005210363322760143759_">
		<use xlink:href="#SVGID_00000022523208920410206460000005006964051174782365_"  style="overflow:visible;"/>
	</clipPath>
	<g style="clip-path:url(#SVGID_00000181773154769205254630000005210363322760143759_);">
		<g>
			<path class="st17" d="M217.56,207.64c-7.82-23.49,0-38.64-6.25-87.12c-6.25-48.48-50.03-56.82-63.32-53.03
				c-0.03,0.01-0.06,0.02-0.09,0.03c-0.03-0.01-0.06-0.02-0.09-0.03c-13.29-3.79-57.07,4.55-63.32,53.03
				c-6.25,48.48,1.56,63.63-6.25,87.12c-7.82,23.48-29.51,67.39-11.24,86.72c5.05,5.34,33.2,8.91,80.9,8.91
				c47.7,0,75.85-3.57,80.9-8.91C247.07,275.03,225.38,231.12,217.56,207.64z"/>
			<g>
				<g>
					<g>
						<g>
							<path class="st18" d="M28.01,356.37h43.92c3.01-27.93,7.73-74.89,7.3-91.52c-0.63-24.27-3.03-56.12-3.03-56.12
								s-25.97,10.2-38.05,31.24c-12.08,21.03-12.3,46.55-11.89,76.75C26.45,331.16,28.01,356.37,28.01,356.37z"/>
						</g>
						<path class="st19" d="M79.23,264.85c-0.63-24.27-3.03-56.12-3.03-56.12s-25.97,10.2-38.05,31.24
							c-8.61,14.98-11.18,32.24-11.81,51.83c8.17,2.44,22.21,7.81,26.77,16.93c5.36,10.71,7.93,31.33,7.41,47.65h11.42
							C74.95,328.44,79.66,281.48,79.23,264.85z"/>
					</g>
					<g>
						<g>
							<path class="st18" d="M268.47,356.37h-43.92c-3.01-27.93-7.73-74.89-7.3-91.52c0.63-24.27,3.03-56.12,3.03-56.12
								s25.97,10.2,38.06,31.24c12.09,21.03,12.29,46.55,11.89,76.75C270.03,331.16,268.47,356.37,268.47,356.37z"/>
						</g>
						<path class="st19" d="M217.24,264.85c0.63-24.27,3.03-56.12,3.03-56.12s25.97,10.2,38.06,31.24
							c8.6,14.98,11.18,32.24,11.81,51.83c-8.17,2.44-22.21,7.81-26.77,16.93c-5.35,10.71-7.93,31.33-7.4,47.65h-11.42
							C221.53,328.44,216.81,281.48,217.24,264.85z"/>
					</g>
				</g>
				<g>
					<path class="st20" d="M273.92,287.55c0,0-3.5-27.41-13.41-50.16c-9.91-22.74-37.07-29.89-48.15-32.52
						c-12.45-2.96-43.42-9.19-64.12-9.19s-51.67,6.23-64.12,9.19c-11.08,2.63-38.23,9.78-48.14,32.52
						c-9.92,22.75-13.42,50.16-13.42,50.16l40.24,11.67c0,0-0.58,32.08,2.55,57.16h165.77c3.14-25.08,2.55-57.16,2.55-57.16
						L273.92,287.55z"/>
					<path class="st21" d="M176.5,336.19c-32.71,12.51-77.13,17.43-111.25,19.32c0.03,0.29,0.07,0.58,0.1,0.87h165.77
						c3.14-25.08,2.55-57.16,2.55-57.16l0.11-0.03c-3.22-30.48-10.72-43.01-10.72-43.01S237.4,312.9,176.5,336.19z"/>
				</g>
			</g>
			<g>
				<g>
					<path class="st18" d="M201.59,206.74c-2.42-3.49-20.12-8.07-27.46-9.04l-7.52-35.09h-36.74l-7.52,35.09
						c-7.35,0.97-25.05,5.55-27.47,9.04c-2.42,3.5,6.35,19.7,18.54,27.59c7.03,4.55,21.58,11.5,34.81,11.5
						c13.24,0,27.79-6.96,34.82-11.5C195.24,226.44,204.01,210.23,201.59,206.74z"/>
					<path class="st19" d="M166.6,162.6h-36.74l-7.52,35.09c-2.43,0.32-9.76,1.98-9.76,1.98s0.24,21.27,35.66,21.27
						c35.42,0,35.65-21.27,35.65-21.27s-7.34-1.66-9.77-1.98L166.6,162.6z"/>
				</g>
				<g>
					<path class="st19" d="M103.45,149.9c0,0-8.24-11.03-11.16,0.07c-1.81,6.9-0.12,13.66,3.02,17.91c1.92,2.59,9.5,6.5,9.5,6.5
						L103.45,149.9z"/>
					<path class="st19" d="M193.03,149.9c0,0,8.24-11.03,11.16,0.07c1.81,6.9,0.12,13.66-3.02,17.91c-1.92,2.59-9.5,6.5-9.5,6.5
						L193.03,149.9z"/>
				</g>
				<path class="st18" d="M148.24,62.12c-47.55,0-54.74,63.9-52.35,84.8c2.39,20.9,6.87,29.71,14.89,38.3
					c5.07,5.42,21.75,14.14,37.47,14.14c15.72,0,32.4-8.72,37.47-14.14c8.02-8.59,12.5-17.4,14.89-38.3
					C202.98,126.02,195.79,62.12,148.24,62.12z"/>
				<g>
					<g>
						<path class="st22" d="M140.72,171.34c2.79,5.93,8.67,7.74,14.24,4.33c-1.06,1.13-2.42,1.98-3.93,2.53
							C146.6,180.04,139.24,176.91,140.72,171.34L140.72,171.34z"/>
					</g>
					<g>
						<g>
							<path class="st23" d="M165.18,160.34c0,3.29,2.66,5.95,5.94,5.95c3.29,0.01,5.95-2.66,5.95-5.94
								c0.01-3.29-2.65-5.94-5.92-5.95C167.86,154.41,165.19,157.06,165.18,160.34z"/>
							<path class="st23" d="M131.3,160.34c0,3.29-2.66,5.95-5.94,5.95c-3.28,0.01-5.94-2.66-5.95-5.94c0-3.29,2.65-5.94,5.93-5.95
								C128.64,154.41,131.3,157.06,131.3,160.34z"/>
						</g>
						<g>
							<g>
								<g>
									<path class="st24" d="M178.86,148.08c-2.75-0.14-5.49-0.14-8.24-0.12c-1.79,0.01-3.59-0.39-5.34-0.73
										c-0.71-0.14-1.44-0.24-2.16-0.25c-0.42,0-0.92,0.05-1.31,0.23c-0.33,0.14-0.23,0.69,0.1,0.76
										c0.42,0.09,0.86,0.42,1.24,0.61c0.67,0.34,1.35,0.63,2.07,0.87c1.77,0.6,3.62,0.94,5.5,0.9c2.72-0.05,5.43-0.08,8.15-0.19
										C180.2,150.11,180.2,148.15,178.86,148.08L178.86,148.08z"/>
								</g>
							</g>
							<g>
								<g>
									<path class="st24" d="M117.35,150.13c2.42,0.69,5.06,0.92,7.54,0.43c0.87-0.17,1.64-0.51,2.43-0.88
										c0.92-0.43,1.91-0.74,2.87-1.07c0.82-0.28,1.65-0.54,2.47-0.82c0.46-0.16,0.94-0.38,1.42-0.47
										c0.34-0.07,0.41-0.61,0.1-0.76c-1.25-0.59-2.69-0.48-4.02-0.26c-0.96,0.16-1.86,0.4-2.77,0.75
										c-0.87,0.34-1.68,0.82-2.58,1.07c-1.49,0.41-3.04,0.32-4.56,0.24c-0.61-0.03-1.23-0.09-1.84-0.17
										c0.26,0.03-0.22-0.04-0.3-0.05c-0.07-0.01-0.14-0.02-0.21-0.04C116.6,147.87,116.04,149.76,117.35,150.13L117.35,150.13z"
										/>
								</g>
							</g>
						</g>
					</g>
					<g>
						<path class="st22" d="M137.48,184.53c3.24-0.5,7.79-0.76,11.07-1.04c3.75-0.31,7.56-0.24,11.24,0.72
							c-1.87,0.42-3.71,0.67-5.55,0.88C148.65,185.77,142.92,186.18,137.48,184.53L137.48,184.53z"/>
					</g>
				</g>
			</g>
			<path class="st24" d="M156.8,66.58c1.19-0.89,8.33-0.06,9.36-0.59s-6.19-9.2-18.16-9.56c-19.7-0.6-35.13,3.23-53.89,31.38
				c-6.35,9.52-11.12,31.57-11.94,49.56c-0.23,5.07-0.89,46.57-1.19,50.75c-0.3,4.18-0.6,10.56-3.28,13.73
				c-3.28,3.88-4.78,6.27-4.78,6.27s7.76,3.58,15.52,1.79c7.76-1.79,10.15-8.06,10.15-8.06s-3.88-22.09-4.48-29.86
				c-0.6-7.76-1.14-16.35,4.18-20.3c6.17-4.58,14.22-11.4,22.31-15.44c14.34-7.17,27.24-16.25,29.63-19.12s-8.26-2.7-6.39-4.83
				c1.98-2.25,7.35-0.43,7.98-3.3c0.64-2.87-8.31-3.6-6.57-5.54c1.73-1.92,7.39,0.96,8.48-2.11c1.09-3.07-7.84-3.42-5.99-5.56
				c1.74-2.02,8.7-0.87,9.42-2.11c0.71-1.25-8.79-6.14-6.41-8.13c2.2-1.84,7.44-0.37,8.08-2.99c0.65-2.62-5.82-4.1-3.9-5.95
				c1.76-1.69,5.49-1.38,6.77-1.38c1.28,0,2.25-1.03,2.4-1.79C164.24,72.68,153.78,68.84,156.8,66.58z"/>
			<path class="st24" d="M211.13,108.7c-2.39-15.52-9.74-30.79-20.9-38.81c-9.42-6.77-21.21-4.22-21.53-2.95s5.42,2.23,4.78,4.78
				c-0.64,2.55-4.75,1.29-5.4,1.6s-1.31,0.99,0.13,2.24c1.44,1.25,4.95,2.21,5.63,4.18c0.71,2.05-4.32,2.2-5.53,2.5
				c-1.21,0.3-1.28,2.68-0.13,3.72c1.15,1.04,6.09,0.94,7.23,3.62c1.14,2.67-5.61,2.21-6.4,4.12c-0.79,1.91,4.08,3.48,4.63,5.74
				c0.56,2.27-7.29-1.25-7.5,1.91s4.63,4.26,5.11,6.21c0.53,2.15-8.07,1.71-8.02,3.96c0.04,2.25,5.14,2.65,5.63,4.64
				c0.57,2.31-6.87,0.64-7.18,3.98c-0.32,3.35,7.86,11.06,12.91,14.66c8.36,5.97,17.4,12.95,18.02,22.25
				c0.62,9.3-2.87,29.86-6.07,37.5c-10.16,24.24-14.77,61.55-14.5,74.12c0.27,12.57,33.11,25.71,42.07,10.18
				C223.07,263.35,213.51,124.23,211.13,108.7z"/>
		</g>
	</g>
</g>
</svg>
