<?xml version="1.0" encoding="utf-8"?>
<!-- Generator: Adobe Illustrator 26.5.0, SVG Export Plug-In . SVG Version: 6.00 Build 0)  -->
<svg version="1.1" id="Layer_1" xmlns="http://www.w3.org/2000/svg" xmlns:xlink="http://www.w3.org/1999/xlink" x="0px" y="0px"
	 viewBox="0 0 296.47 310.18" style="enable-background:new 0 0 296.47 310.18;" xml:space="preserve">
<style type="text/css">
	.st0{fill:#FFFFFF;}
	.st1{fill:url(#SVGID_1_);}
	.st2{fill:none;stroke:#42210B;stroke-width:5;stroke-linecap:round;stroke-linejoin:round;stroke-miterlimit:10;}
	.st3{fill:#FFFFFF;stroke:#42210B;stroke-width:5;stroke-miterlimit:10;}
	.st4{fill:#333333;}
	.st5{fill:#42210B;}
	.st6{fill:url(#SVGID_00000142893076363019053470000002233665770167575949_);}
	.st7{fill:url(#SVGID_00000109737031964810788640000005900020618014295720_);}
	.st8{fill:url(#SVGID_00000054978012038389509350000007236900960118775218_);}
	.st9{fill:#FCBF95;}
	.st10{fill:url(#SVGID_00000101091533653676882590000018415506630106020530_);}
	.st11{fill:#FF9D5A;}
	.st12{fill:#303047;}
	.st13{fill:url(#SVGID_00000166637022906070746910000004543941409997986467_);}
	.st14{fill:url(#SVGID_00000171721645212711472520000000091051265210219681_);}
	.st15{fill:url(#SVGID_00000074432897213003253120000012975606626393021881_);}
	.st16{clip-path:url(#SVGID_00000046310187966877091160000003246073256779495315_);}
	.st17{fill:#772C29;}
	.st18{fill:#F7C4A6;}
	.st19{fill:#E6A486;}
	.st20{fill:#F15A24;}
	.st21{fill:#C1272D;}
	.st22{fill:#CF7D73;}
	.st23{fill:#581C2C;}
	.st24{fill:#8B3B29;}
	.st25{clip-path:url(#SVGID_00000119078842258789935260000006443866649709032074_);}
	.st26{clip-path:url(#SVGID_00000165200267278117925280000006727872707248207803_);}
	.st27{clip-path:url(#SVGID_00000034785257889843729480000007950120344354367376_);}
	.st28{fill:#0C0C0C;}
	.st29{fill:#575757;}
	.st30{fill:#201D1E;}
	.st31{fill:#DB262D;}
	
		.st32{fill:url(#SVGID_00000163762655780672922680000001360005601961124788_);stroke:#2A6880;stroke-width:0.2596;stroke-miterlimit:10;}
	
		.st33{fill:url(#SVGID_00000173877212210527453680000013586775644133670052_);stroke:#2A6880;stroke-width:0.2596;stroke-miterlimit:10;}
	
		.st34{fill:url(#SVGID_00000165956167966663461450000005097836979070050751_);stroke:#2A6880;stroke-width:0.2596;stroke-miterlimit:10;}
	.st35{fill:#343433;}
	.st36{fill:#1C1B17;}
	.st37{fill:#4B443F;}
	.st38{fill:#B9272A;}
	.st39{fill:#264A90;}
	.st40{fill:#D41F26;}
	.st41{fill:#E66725;}
	.st42{clip-path:url(#SVGID_00000157992416878190984290000013551063191739799461_);}
	.st43{fill:#EF8C71;}
	.st44{fill:#EF8C73;}
	.st45{fill:#828080;}
	.st46{fill:none;}
	.st47{fill:none;stroke:#42210B;stroke-miterlimit:10;}
	.st48{clip-path:url(#SVGID_00000168118307526302735670000017825672334255685546_);}
	.st49{clip-path:url(#SVGID_00000080921998024351375350000001353630903326614416_);}
	.st50{fill:#FBB617;}
</style>
<g>
	<path class="st0" d="M283.26,310.18H13.21c-7.3,0-13.21-5.92-13.21-13.21V13.21C0,5.92,5.92,0,13.21,0h270.05
		c7.3,0,13.21,5.92,13.21,13.21v283.75C296.47,304.26,290.56,310.18,283.26,310.18z"/>
</g>
<g>
	<defs>
		<path id="SVGID_00000080921512682173712520000003072924727030637186_" d="M283.26,310.18H13.21c-7.3,0-13.21-5.92-13.21-13.21
			V13.21C0,5.92,5.92,0,13.21,0h270.05c7.3,0,13.21,5.92,13.21,13.21v283.75C296.47,304.26,290.56,310.18,283.26,310.18z"/>
	</defs>
	<clipPath id="SVGID_00000064353919456315100450000012027362429962287787_">
		<use xlink:href="#SVGID_00000080921512682173712520000003072924727030637186_"  style="overflow:visible;"/>
	</clipPath>
	<g style="clip-path:url(#SVGID_00000064353919456315100450000012027362429962287787_);">
		<g>
			<path class="st17" d="M214.5,207.63c-7.44-23.49,0-38.64-5.95-87.12c-5.95-48.49-47.59-56.82-60.23-53.04
				c-0.03,0.01-0.06,0.02-0.08,0.03c-0.02-0.01-0.06-0.02-0.08-0.03c-12.64-3.79-54.28,4.55-60.23,53.04
				c-5.95,48.48,1.49,63.64-5.95,87.12c-7.44,23.49-28.07,67.4-10.69,86.73c4.8,5.34,31.58,8.91,76.95,8.91
				c45.38,0,72.15-3.57,76.96-8.91C242.57,275.02,221.93,231.11,214.5,207.63z"/>
			<g>
				<g>
					<g>
						<g>
							<path class="st18" d="M28,356.37h43.93c3.01-27.93,7.73-74.9,7.3-91.53c-0.63-24.28-3.03-56.13-3.03-56.13
								s-25.97,10.2-38.06,31.24c-12.09,21.03-12.3,46.55-11.89,76.76C26.44,331.16,28,356.37,28,356.37z"/>
						</g>
						<path class="st19" d="M79.22,264.84c-0.63-24.28-3.03-56.13-3.03-56.13s-25.97,10.2-38.06,31.24
							c-8.61,14.98-11.18,32.24-11.81,51.83c8.17,2.44,22.21,7.81,26.77,16.93c5.36,10.71,7.93,31.34,7.41,47.65h11.42
							C74.94,328.44,79.66,281.47,79.22,264.84z"/>
					</g>
					<g>
						<g>
							<path class="st18" d="M268.48,356.37h-43.93c-3.01-27.93-7.73-74.9-7.3-91.53c0.63-24.28,3.03-56.13,3.03-56.13
								s25.98,10.2,38.06,31.24c12.09,21.03,12.3,46.55,11.89,76.76C270.04,331.16,268.48,356.37,268.48,356.37z"/>
						</g>
						<path class="st19" d="M217.25,264.84c0.63-24.28,3.03-56.13,3.03-56.13s25.98,10.2,38.06,31.24
							c8.6,14.98,11.18,32.24,11.81,51.83c-8.17,2.44-22.21,7.81-26.77,16.93c-5.36,10.71-7.93,31.34-7.41,47.65h-11.42
							C221.53,328.44,216.81,281.47,217.25,264.84z"/>
					</g>
				</g>
				<g>
					<path class="st20" d="M273.93,287.55c0,0-3.5-27.41-13.42-50.16c-9.92-22.75-37.07-29.9-48.15-32.53
						c-12.45-2.96-43.42-9.19-64.13-9.19c-20.71,0-51.68,6.23-64.13,9.19c-11.08,2.63-38.23,9.78-48.15,32.53
						c-9.92,22.75-13.42,50.16-13.42,50.16l40.25,11.67c0,0-0.58,32.08,2.55,57.16h165.79c3.14-25.08,2.55-57.16,2.55-57.16
						L273.93,287.55z"/>
					<path class="st21" d="M176.5,336.19c-32.72,12.51-77.14,17.44-111.26,19.32c0.03,0.29,0.07,0.58,0.1,0.87h165.79
						c3.14-25.08,2.55-57.16,2.55-57.16l0.1-0.03c-3.22-30.48-10.72-43.01-10.72-43.01S237.41,312.9,176.5,336.19z"/>
				</g>
			</g>
			<g>
				<g>
					<path class="st18" d="M201.59,206.73c-2.42-3.49-20.12-8.07-27.47-9.04l-7.52-35.09h-36.74l-7.52,35.09
						c-7.35,0.97-25.05,5.55-27.47,9.04c-2.42,3.5,6.35,19.71,18.54,27.6c7.03,4.55,21.58,11.51,34.82,11.51
						c13.24,0,27.79-6.96,34.82-11.51C195.24,226.43,204.02,210.22,201.59,206.73z"/>
					<path class="st19" d="M166.6,162.59h-36.74l-7.52,35.09c-2.43,0.32-9.76,1.98-9.76,1.98s0.24,21.28,35.66,21.28
						c35.42,0,35.65-21.28,35.65-21.28s-7.34-1.66-9.77-1.98L166.6,162.59z"/>
				</g>
				<g>
					<path class="st19" d="M103.45,149.89c0,0-8.24-11.04-11.16,0.07c-1.81,6.9-0.12,13.66,3.02,17.91c1.92,2.59,9.5,6.5,9.5,6.5
						L103.45,149.89z"/>
					<path class="st19" d="M193.04,149.89c0,0,8.24-11.04,11.16,0.07c1.81,6.9,0.12,13.66-3.02,17.91c-1.92,2.59-9.5,6.5-9.5,6.5
						L193.04,149.89z"/>
				</g>
				<path class="st18" d="M148.24,62.09c-47.55,0-54.74,63.91-52.36,84.8c2.39,20.9,6.87,29.72,14.89,38.3
					c5.07,5.42,21.75,14.14,37.47,14.14s32.4-8.72,37.47-14.14c8.02-8.59,12.5-17.41,14.89-38.3
					C202.99,126,195.79,62.09,148.24,62.09z"/>
				<g>
					<g>
						<path class="st22" d="M140.72,171.32c2.79,5.93,8.67,7.74,14.25,4.33c-1.06,1.13-2.42,1.98-3.93,2.53
							C146.59,180.03,139.24,176.9,140.72,171.32L140.72,171.32z"/>
					</g>
					<g>
						<g>
							<path class="st23" d="M165.18,160.32c0,3.29,2.66,5.95,5.95,5.95c3.29,0.01,5.95-2.66,5.95-5.94c0-3.29-2.65-5.94-5.92-5.95
								C167.86,154.39,165.2,157.04,165.18,160.32z"/>
							<path class="st23" d="M131.3,160.32c0,3.29-2.66,5.95-5.94,5.95c-3.28,0.01-5.94-2.66-5.95-5.94c0-3.29,2.65-5.94,5.93-5.95
								C128.64,154.39,131.29,157.04,131.3,160.32z"/>
						</g>
						<g>
							<g>
								<g>
									<path class="st24" d="M179.82,149.41c-2.47-0.73-5.01-1.2-7.59-1.4c-0.45-0.03-0.89-0.06-1.34-0.07
										c-0.15,0-0.31,0-0.46-0.01c-0.23-0.01-0.08,0.01-0.31-0.05c-0.64-0.17-1.09-0.36-1.67-0.7c-1.22-0.7-2.33-1.56-3.53-2.29
										c-0.52-0.31-1.06-0.62-1.64-0.81c-0.31-0.11-0.72-0.25-1.05-0.13c-0.35,0.13-0.43,0.7,0,0.8c0.02,0,0.04,0.01,0.13,0.1
										c0.12,0.12,0.23,0.26,0.34,0.4c0.35,0.44,0.72,0.88,1.11,1.29c0.98,1.02,2.13,1.98,3.35,2.69
										c0.61,0.35,1.26,0.66,1.93,0.86c0.72,0.22,1.44,0.23,2.18,0.25c1.7,0.05,3.36,0.33,5.04,0.57c0.99,0.14,1.98,0.3,2.96,0.5
										C180.58,151.69,181.12,149.79,179.82,149.41L179.82,149.41z"/>
								</g>
							</g>
							<g>
								<g>
									<path class="st24" d="M118.04,151.45c2.59,0.11,5.32-0.18,7.75-1.11c1.82-0.7,3.56-1.74,5.14-2.86
										c0.71-0.5,1.39-1.01,2.05-1.57c0.28-0.24,0.75-0.76,1.11-0.84c0.44-0.1,0.34-0.66,0-0.8c-0.39-0.16-0.95-0.08-1.35,0.01
										c-0.77,0.17-1.51,0.5-2.21,0.86c-1.75,0.89-3.39,2.04-5.19,2.82c-1.52,0.66-3.19,0.89-4.82,1.14
										c-0.78,0.12-1.63,0.23-2.48,0.26C116.7,149.43,116.7,151.4,118.04,151.45L118.04,151.45z"/>
								</g>
							</g>
						</g>
					</g>
					<g>
						<path class="st22" d="M139.07,189.93c3.85-7.9,14.27-9.92,19.76-2.55c-1.72-0.89-3.42-1.58-5.15-2.02
							C148.24,183.75,143.2,186.44,139.07,189.93L139.07,189.93z"/>
					</g>
				</g>
			</g>
			<path class="st24" d="M155.33,65.96c0.32-1.91,2.87-1.28,2.87-3.51c0-2.23-6.06-5.74-9.88-6.05c-3.82-0.32-13.21,1.93-19.44,4.46
				C117.71,65.41,107,73.96,95.22,91.95c-6.22,9.48-10.42,30.95-11.23,48.87c-0.23,5.05-0.99,42.57-1.29,46.73
				c-0.29,4.16-0.58,10.52-3.21,13.68c-3.22,3.86-4.68,6.24-4.68,6.24s7.6,3.57,15.2,1.78c7.6-1.78,8.72-8.14,8.72-8.14
				s-2.22-14.8-2.81-22.53c-0.58-7.73,0.6-22.24,3.73-27.31c3.13-5.06,12.96-11.41,18.03-14.9c5.07-3.49,15.34-10.5,17.89-14.65
				c2.55-4.14,2.92-4.69,4.78-7.97c1.86-3.28,6.22-5.81,7.01-7.97c1.28-3.51-0.99-5.28-0.96-7.65c0.03-2.37,2.25-3.19,3.19-4.78
				c0.94-1.59-1.59-3.82-0.64-6.69c0.96-2.87,3.5-2.55,4.14-5.1c0.64-2.55-2.84-3.9-0.96-5.74c1.72-1.69,2.55-2.23,2.87-4.46
				C155.33,69.15,155.01,67.88,155.33,65.96z"/>
			<path class="st24" d="M209.42,110.26c-2.39-15.53-5.65-28.63-16.81-36.65c-9.42-6.77-18.8-5.1-19.12-3.82s4.46,2.87,4.46,4.78
				c0,1.91-2.87,1.27-4.14,2.23c-1.28,0.96-0.81,2.57,0.63,3.82c1.45,1.25,3.19,2.87,2.55,4.78c-0.64,1.91-1.59,2.23-2.87,2.87
				c-1.27,0.64-1.91,1.91-0.64,3.51c1.27,1.59,3.51,4.14,2.55,6.05s-2.55,2.55-3.82,3.51c-1.28,0.96-1.91,3.5-0.32,5.74
				c1.59,2.23,4.14,4.46,3.5,6.37c-0.63,1.91-3.82,3.5-2.87,7.65c0.96,4.14,4.79,7.81,8.93,12.43c8.29,9.24,10.21,15.88,10.83,25.18
				c0.62,9.3-2.31,29.96-3.19,37.28c-0.88,7.33-7.01,59.27-5.42,74.57c1.3,12.51,20.08,10.52,28.68,0.96
				C224.36,258.19,211.81,125.79,209.42,110.26z"/>
		</g>
	</g>
</g>
</svg>
