<?xml version="1.0" encoding="utf-8"?>
<!-- Generator: Adobe Illustrator 26.5.0, SVG Export Plug-In . SVG Version: 6.00 Build 0)  -->
<svg version="1.1" id="Layer_1" xmlns="http://www.w3.org/2000/svg" xmlns:xlink="http://www.w3.org/1999/xlink" x="0px" y="0px"
	 viewBox="0 0 296.47 310.18" style="enable-background:new 0 0 296.47 310.18;" xml:space="preserve">
<style type="text/css">
	.st0{fill:#FFFFFF;}
	.st1{fill:url(#SVGID_1_);}
	.st2{fill:none;stroke:#42210B;stroke-width:5;stroke-linecap:round;stroke-linejoin:round;stroke-miterlimit:10;}
	.st3{fill:#FFFFFF;stroke:#42210B;stroke-width:5;stroke-miterlimit:10;}
	.st4{fill:#333333;}
	.st5{fill:#42210B;}
	.st6{fill:url(#SVGID_00000098917572501289311230000017571516171195217081_);}
	.st7{fill:url(#SVGID_00000042717995678021929010000003974299658404167839_);}
	.st8{fill:url(#SVGID_00000042705981324842004130000000819318821864763583_);}
	.st9{fill:#FCBF95;}
	.st10{fill:url(#SVGID_00000081622885460834096140000008330196786455221389_);}
	.st11{fill:#FF9D5A;}
	.st12{fill:#303047;}
	.st13{fill:url(#SVGID_00000182490445943057967090000017910921249268074421_);}
	.st14{fill:url(#SVGID_00000183245668906008618160000014948769060905766058_);}
	.st15{fill:url(#SVGID_00000093156625265366597840000011469734259323610525_);}
	.st16{clip-path:url(#SVGID_00000034801175455845782600000005191137139059819957_);}
	.st17{fill:#772C29;}
	.st18{fill:#F7C4A6;}
	.st19{fill:#E6A486;}
	.st20{fill:#F15A24;}
	.st21{fill:#C1272D;}
	.st22{fill:#CF7D73;}
	.st23{fill:#581C2C;}
	.st24{fill:#8B3B29;}
	.st25{clip-path:url(#SVGID_00000160893242267953754850000013176311033169715849_);}
	.st26{clip-path:url(#SVGID_00000093134847707661021660000001992689557771917219_);}
	.st27{clip-path:url(#SVGID_00000013169054054359340230000017531812026666519430_);}
	.st28{fill:#0C0C0C;}
	.st29{fill:#575757;}
	.st30{fill:#201D1E;}
	.st31{fill:#DB262D;}
	
		.st32{fill:url(#SVGID_00000018223001999144626050000002078239705398671021_);stroke:#2A6880;stroke-width:0.2596;stroke-miterlimit:10;}
	
		.st33{fill:url(#SVGID_00000012466558018295439100000006373380991947631807_);stroke:#2A6880;stroke-width:0.2596;stroke-miterlimit:10;}
	
		.st34{fill:url(#SVGID_00000156583954594838626050000014627006258607334314_);stroke:#2A6880;stroke-width:0.2596;stroke-miterlimit:10;}
	.st35{fill:#343433;}
	.st36{fill:#1C1B17;}
	.st37{fill:#4B443F;}
	.st38{fill:#B9272A;}
	.st39{fill:#264A90;}
	.st40{fill:#D41F26;}
	.st41{fill:#E66725;}
	.st42{clip-path:url(#SVGID_00000033369309910503181690000008169478524467798455_);}
	.st43{fill:#EF8C71;}
	.st44{fill:#EF8C73;}
	.st45{fill:#828080;}
	.st46{fill:none;}
	.st47{fill:none;stroke:#42210B;stroke-miterlimit:10;}
	.st48{clip-path:url(#SVGID_00000168817563213184997720000017344163226978603421_);}
	.st49{clip-path:url(#SVGID_00000022562122303071251460000016701232166061690767_);}
	.st50{fill:#FBB617;}
</style>
<g>
	<path class="st0" d="M283.26,310.18H13.21c-7.3,0-13.21-5.92-13.21-13.21V13.21C0,5.92,5.92,0,13.21,0h270.05
		c7.3,0,13.21,5.92,13.21,13.21v283.75C296.47,304.26,290.56,310.18,283.26,310.18z"/>
</g>
<g>
	<defs>
		<path id="SVGID_00000173148616391908186340000016540294227190417832_" d="M283.26,310.18H13.21c-7.3,0-13.21-5.92-13.21-13.21
			V13.21C0,5.92,5.92,0,13.21,0h270.05c7.3,0,13.21,5.92,13.21,13.21v283.75C296.47,304.26,290.56,310.18,283.26,310.18z"/>
	</defs>
	<clipPath id="SVGID_00000056416314809761753290000014221324279929241268_">
		<use xlink:href="#SVGID_00000173148616391908186340000016540294227190417832_"  style="overflow:visible;"/>
	</clipPath>
	<g style="clip-path:url(#SVGID_00000056416314809761753290000014221324279929241268_);">
		<g>
			<path class="st17" d="M217.5,211.57c-7.81-23.47,0-38.6-6.25-87.04c-6.25-48.44-49.99-56.77-63.27-52.98
				c-0.03,0.01-0.06,0.02-0.09,0.03c-0.03-0.01-0.06-0.02-0.09-0.03c-13.28-3.78-57.02,4.54-63.27,52.98
				c-6.25,48.44,1.56,63.57-6.25,87.04c-7.81,23.46-29.48,67.33-11.23,86.65c5.04,5.34,33.17,8.9,80.83,8.9
				c47.66,0,75.79-3.56,80.83-8.9C246.99,278.9,225.31,235.03,217.5,211.57z"/>
			<g>
				<g>
					<g>
						<g>
							<path class="st18" d="M28.11,360.18H72c3.01-27.91,7.73-74.83,7.29-91.44c-0.63-24.25-3.03-56.07-3.03-56.07
								s-25.95,10.19-38.02,31.21c-12.07,21.01-12.29,46.51-11.88,76.68C26.56,334.99,28.11,360.18,28.11,360.18z"/>
						</g>
						<path class="st19" d="M79.29,268.73c-0.63-24.25-3.03-56.07-3.03-56.07s-25.95,10.19-38.02,31.21
							c-8.6,14.96-11.17,32.21-11.8,51.78c8.16,2.44,22.19,7.81,26.75,16.91c5.35,10.7,7.92,31.31,7.4,47.61H72
							C75.01,332.27,79.73,285.35,79.29,268.73z"/>
					</g>
					<g>
						<g>
							<path class="st18" d="M268.36,360.18h-43.89c-3.01-27.91-7.73-74.83-7.29-91.44c0.63-24.25,3.03-56.07,3.03-56.07
								s25.95,10.19,38.02,31.21c12.07,21.01,12.28,46.51,11.88,76.68C269.92,334.99,268.36,360.18,268.36,360.18z"/>
						</g>
						<path class="st19" d="M217.18,268.73c0.63-24.25,3.03-56.07,3.03-56.07s25.95,10.19,38.02,31.21
							c8.6,14.96,11.17,32.21,11.8,51.78c-8.16,2.44-22.19,7.81-26.75,16.91c-5.35,10.7-7.92,31.31-7.4,47.61h-11.41
							C221.46,332.27,216.75,285.35,217.18,268.73z"/>
					</g>
				</g>
				<g>
					<path class="st20" d="M273.81,291.42c0,0-3.5-27.39-13.4-50.11c-9.91-22.72-37.03-29.87-48.1-32.49
						c-12.44-2.95-43.38-9.18-64.07-9.18s-51.63,6.23-64.07,9.18c-11.07,2.63-38.19,9.77-48.1,32.49
						c-9.91,22.73-13.4,50.11-13.4,50.11l40.21,11.66c0,0-0.58,32.05,2.55,57.11h165.63c3.14-25.06,2.55-57.11,2.55-57.11
						L273.81,291.42z"/>
					<path class="st21" d="M176.47,340.01c-32.68,12.5-77.06,17.42-111.15,19.3c0.03,0.29,0.07,0.58,0.1,0.87h165.63
						c3.14-25.06,2.55-57.11,2.55-57.11l0.11-0.03c-3.22-30.45-10.71-42.97-10.71-42.97S237.32,316.74,176.47,340.01z"/>
				</g>
			</g>
			<g>
				<g>
					<path class="st18" d="M201.54,210.67c-2.42-3.49-20.1-8.07-27.44-9.04l-7.51-35.06h-36.7l-7.51,35.06
						c-7.34,0.97-25.03,5.55-27.44,9.04c-2.42,3.49,6.34,19.69,18.52,27.57c7.02,4.54,21.55,11.49,34.78,11.49
						c13.23,0,27.76-6.95,34.79-11.49C195.2,230.36,203.96,214.17,201.54,210.67z"/>
					<path class="st19" d="M166.59,166.58h-36.7l-7.51,35.06c-2.43,0.32-9.75,1.98-9.75,1.98s0.24,21.26,35.63,21.26
						c35.39,0,35.61-21.25,35.61-21.25s-7.33-1.66-9.76-1.98L166.59,166.58z"/>
				</g>
				<g>
					<path class="st19" d="M103.49,153.89c0,0-8.23-11.02-11.15,0.07c-1.81,6.89-0.12,13.65,3.02,17.9
						c1.91,2.59,9.49,6.49,9.49,6.49L103.49,153.89z"/>
					<path class="st19" d="M192.99,153.89c0,0,8.23-11.02,11.15,0.07c1.81,6.89,0.12,13.65-3.02,17.9
						c-1.91,2.59-9.49,6.49-9.49,6.49L192.99,153.89z"/>
				</g>
				<path class="st18" d="M148.24,66.18c-47.5,0-54.69,63.84-52.31,84.72c2.39,20.88,6.86,29.69,14.87,38.27
					c5.06,5.42,21.73,14.13,37.43,14.13c15.7,0,32.37-8.71,37.43-14.13c8.01-8.58,12.49-17.39,14.87-38.27
					C202.94,130.03,195.75,66.18,148.24,66.18z"/>
				<g>
					<g>
						<path class="st22" d="M140.73,175.3c2.79,5.93,8.66,7.73,14.23,4.33c-1.06,1.13-2.42,1.98-3.92,2.53
							C146.6,184,139.25,180.88,140.73,175.3L140.73,175.3z"/>
					</g>
					<g>
						<g>
							<path class="st23" d="M165.17,164.32c0,3.29,2.66,5.95,5.94,5.95c3.28,0.01,5.94-2.65,5.94-5.93
								c0.01-3.29-2.65-5.94-5.92-5.94C167.84,158.39,165.18,161.04,165.17,164.32z"/>
							<path class="st23" d="M131.32,164.32c0,3.29-2.65,5.95-5.94,5.95c-3.28,0.01-5.94-2.65-5.95-5.93c0-3.29,2.65-5.94,5.93-5.94
								C128.66,158.39,131.31,161.04,131.32,164.32z"/>
						</g>
						<g>
							<g>
								<g>
									<path class="st24" d="M179.36,152.21c-1.75-0.84-3.57-1.55-5.44-2.07c-1.37-0.38-2.8-0.71-4.23-0.76
										c-1.72-0.06-3.34,0.39-4.86,1.15c-0.36,0.18-0.72,0.37-1.05,0.6c-0.16,0.11-0.34,0.22-0.49,0.36
										c-0.02,0.01-0.27,0.29-0.08,0.12c0.19-0.16-0.11,0.05-0.16,0.08c-0.37,0.26-0.66,0.67-1.06,0.88
										c-0.4,0.21-0.16,0.73,0.21,0.77c0.86,0.1,1.89-0.28,2.69-0.55c1.41-0.49,2.89-0.98,4.4-1.02c2.46-0.06,4.97,0.92,7.33,1.67
										c0.65,0.21,1.3,0.42,1.94,0.67C179.65,154.53,180.42,152.72,179.36,152.21L179.36,152.21z"/>
								</g>
							</g>
							<g>
								<g>
									<path class="st24" d="M117.93,154.11c1.64-0.62,3.34-1.15,5.04-1.62c1.24-0.35,2.5-0.66,3.76-0.71
										c1.46-0.06,2.97,0.34,4.34,0.82c0.64,0.22,1.28,0.44,1.93,0.61c0.39,0.1,0.88,0.19,1.29,0.14
										c0.37-0.04,0.61-0.56,0.21-0.77c-0.31-0.17-0.53-0.47-0.8-0.69c-0.13-0.11-0.28-0.21-0.43-0.3
										c-0.16-0.1,0.05,0.08,0.07,0.09c-0.09-0.08-0.15-0.18-0.24-0.26c-0.27-0.24-0.61-0.44-0.93-0.62
										c-1.53-0.84-3.12-1.37-4.88-1.42c-2.67-0.08-5.53,0.85-7.97,1.86c-0.74,0.31-1.48,0.62-2.2,0.97
										C116.07,152.72,116.82,154.53,117.93,154.11L117.93,154.11z"/>
								</g>
							</g>
						</g>
					</g>
					<g>
						<path class="st22" d="M136.36,188.17c7.32,3.49,14.4,3.34,21.42-0.64c0.96-0.53,1.87-1.15,2.89-1.67
							c-0.7,0.87-1.45,1.74-2.28,2.53C152.29,194.11,142.19,194.37,136.36,188.17L136.36,188.17z"/>
					</g>
				</g>
			</g>
			<path class="st24" d="M211.07,112.72c-2.39-15.51-10.84-29.41-20.88-38.78c-11.72-10.93-22.67-6.56-22.67-6.56
				s-0.6-6.56-20.28-7.16c-19.68-0.6-34.35,3.5-53.09,31.62c-6.34,9.52-11.11,31.54-11.93,49.51c-0.23,5.06-0.89,46.53-1.19,50.71
				c-0.3,4.18-0.6,10.55-3.28,13.72c-3.28,3.88-4.77,6.26-4.77,6.26s7.76,3.58,15.51,1.79c7.75-1.79,10.14-8.05,10.14-8.05
				s-3.88-22.07-4.48-29.83c-0.59-7.75-1.13-16.34,4.18-20.28c6.16-4.58,18.03-9.86,26.4-13.27c16.11-6.56,30.87-23.12,30.87-23.12
				s6.91,15.76,14.91,21.48c8.35,5.96,19.7,11.73,22.07,20.28c-0.76,8.89-5.15,25.18-8.35,32.81
				c-10.16,24.21-12.47,66.15-12.2,78.71c0.27,12.56,33.08,25.68,42.03,10.17C223,267.23,213.46,128.23,211.07,112.72z"/>
			<path class="st18" d="M166.72,71.62c0,0-3.49,10.59-5.08,18.91s-4.2,22.28-4.2,22.28s4.86-10.66,7.36-18.49
				C167.3,86.49,166.72,71.62,166.72,71.62z"/>
		</g>
	</g>
</g>
</svg>
