<?xml version="1.0" encoding="utf-8"?>
<!-- Generator: Adobe Illustrator 26.5.0, SVG Export Plug-In . SVG Version: 6.00 Build 0)  -->
<svg version="1.1" id="Layer_1" xmlns="http://www.w3.org/2000/svg" xmlns:xlink="http://www.w3.org/1999/xlink" x="0px" y="0px"
	 viewBox="0 0 335.24 356.71" style="enable-background:new 0 0 335.24 356.71;" xml:space="preserve">
<style type="text/css">
	.st0{fill:#FFFFFF;}
	.st1{fill:url(#SVGID_1_);}
	.st2{fill:none;stroke:#42210B;stroke-width:5;stroke-linecap:round;stroke-linejoin:round;stroke-miterlimit:10;}
	.st3{fill:#FFFFFF;stroke:#42210B;stroke-width:5;stroke-miterlimit:10;}
	.st4{fill:#333333;}
	.st5{fill:#42210B;}
	.st6{fill:url(#SVGID_00000117660970639828778820000008319179434380251788_);}
	.st7{fill:url(#SVGID_00000122695554317711939020000000539093615907009693_);}
	.st8{fill:url(#SVGID_00000088129732744025442500000001865814006853668231_);}
	.st9{fill:#FCBF95;}
	.st10{fill:url(#SVGID_00000171718277716694453480000007931695179713334948_);}
	.st11{fill:#FF9D5A;}
	.st12{fill:#303047;}
	.st13{fill:url(#SVGID_00000126294239043494379310000005235433864507218841_);}
	.st14{fill:url(#SVGID_00000042013509127706146720000012765385963444501133_);}
	.st15{fill:url(#SVGID_00000176005136008323679970000000714098038715294355_);}
	.st16{clip-path:url(#SVGID_00000103969307627093178870000015131050405606066592_);}
	.st17{fill:#772C29;}
	.st18{fill:#F7C4A6;}
	.st19{fill:#E6A486;}
	.st20{fill:#F15A24;}
	.st21{fill:#C1272D;}
	.st22{fill:#CF7D73;}
	.st23{fill:#581C2C;}
	.st24{fill:#8B3B29;}
	.st25{clip-path:url(#SVGID_00000144323311236748465470000008107614060808173758_);}
	.st26{clip-path:url(#SVGID_00000023995036623981079920000005390333273831277441_);}
	.st27{clip-path:url(#SVGID_00000020389143112427422830000007177546631288487855_);}
	.st28{fill:#0C0C0C;}
	.st29{fill:#575757;}
	.st30{fill:#201D1E;}
	.st31{fill:#DB262D;}
	
		.st32{fill:url(#SVGID_00000075144363665028456510000016065010745903176358_);stroke:#2A6880;stroke-width:0.2596;stroke-miterlimit:10;}
	
		.st33{fill:url(#SVGID_00000040546803017890621690000018055712544811615386_);stroke:#2A6880;stroke-width:0.2596;stroke-miterlimit:10;}
	
		.st34{fill:url(#SVGID_00000083080007516721149390000015547550129596632470_);stroke:#2A6880;stroke-width:0.2596;stroke-miterlimit:10;}
	.st35{fill:#343433;}
	.st36{fill:#1C1B17;}
	.st37{fill:#4B443F;}
	.st38{fill:#B9272A;}
	.st39{fill:#264A90;}
	.st40{fill:#D41F26;}
	.st41{fill:#E66725;}
	.st42{clip-path:url(#SVGID_00000111150242023246889610000004672310575387227310_);}
	.st43{fill:#EF8C71;}
	.st44{fill:#EF8C73;}
	.st45{fill:#828080;}
	.st46{fill:none;}
	.st47{fill:none;stroke:#42210B;stroke-miterlimit:10;}
	.st48{clip-path:url(#SVGID_00000056414145666339238690000012309548028307992448_);}
	.st49{clip-path:url(#SVGID_00000044175987511806488040000008180875193684255162_);}
	.st50{fill:#FBB617;}
</style>
<g>
	<g>
		<path class="st0" d="M50.28,0h234.69c27.77,0,50.28,22.51,50.28,50.28v256.15c0,27.77-22.51,50.28-50.28,50.28H50.28
			C22.51,356.71,0,334.2,0,306.43V50.28C0,22.51,22.51,0,50.28,0z"/>
	</g>
	<radialGradient id="SVGID_1_" cx="167.6187" cy="177.5272" r="119.2645" gradientUnits="userSpaceOnUse">
		<stop  offset="0" style="stop-color:#68320E"/>
		<stop  offset="1" style="stop-color:#481D0D"/>
	</radialGradient>
	<path class="st1" d="M167.67,291.96c-39.77,0-79.54,0-119.3,0c-5.23,0-5.31-0.03-3.62-5.11c3.76-11.28,10.54-19.85,21.74-24.72
		c13.26-5.76,27.35-8.42,41.33-11.55c4.32-0.97,8.61-2.07,12.94-3.02c6.37-1.4,10.64-5.37,13.3-11.09
		c3.84-8.25,4.44-17.07,4.04-26.01c-0.06-1.37-0.27-2.64-2.18-2.47c-7.1,0.65-13.91,0-19.24-5.43c-6.11-6.21-7.8-14.26-8.8-22.5
		c-1.83-15.13-0.42-30.21,1.19-45.25c1.12-10.49,2.06-21.02,4.28-31.36c1.27-5.9,3.37-11.49,6.9-16.47
		c4.66-6.57,10.91-10.33,19.03-10.7c1.35-0.06,2.42-0.16,3.4-1.35c9.26-11.29,21.57-13.37,35.04-11.03
		c24.56,4.27,40.17,19.92,44.72,45.89c3.36,19.12,5.64,38.43,5.79,57.91c0.06,7.98-0.43,15.91-2.83,23.59
		c-3.83,12.26-11.1,17.52-23.85,16.73c-3.82-0.24-4.64,0.99-4.62,4.42c0.06,7.88,0.6,15.62,3.73,22.98
		c2.72,6.4,7.23,10.56,14.15,12.28c13.78,3.43,27.84,5.66,41.42,9.87c5.23,1.62,10.36,3.51,15.25,6
		c10.17,5.17,16.03,13.74,19.54,24.29c1.13,3.41,0.12,4.16-3.28,4.15C247.72,291.92,207.69,291.95,167.67,291.96z"/>
</g>
</svg>
