<?xml version="1.0" encoding="utf-8"?>
<!-- Generator: Adobe Illustrator 26.5.0, SVG Export Plug-In . SVG Version: 6.00 Build 0)  -->
<svg version="1.1" id="Layer_1" xmlns="http://www.w3.org/2000/svg" xmlns:xlink="http://www.w3.org/1999/xlink" x="0px" y="0px"
	 viewBox="0 0 335.24 356.71" style="enable-background:new 0 0 335.24 356.71;" xml:space="preserve">
<style type="text/css">
	.st0{fill:#FFFFFF;}
	.st1{fill:url(#SVGID_1_);}
	.st2{fill:none;stroke:#42210B;stroke-width:5;stroke-linecap:round;stroke-linejoin:round;stroke-miterlimit:10;}
	.st3{fill:#FFFFFF;stroke:#42210B;stroke-width:5;stroke-miterlimit:10;}
	.st4{fill:#333333;}
	.st5{fill:#42210B;}
	.st6{fill:url(#SVGID_00000080190708928161824700000015434933709004713357_);}
	.st7{fill:url(#SVGID_00000129178631969761241220000002079641960528110009_);}
	.st8{fill:url(#SVGID_00000129886861140970496870000004234635306484931244_);}
	.st9{fill:#FCBF95;}
	.st10{fill:url(#SVGID_00000137830578543012625820000014916544213922206907_);}
	.st11{fill:#FF9D5A;}
	.st12{fill:#303047;}
	.st13{fill:url(#SVGID_00000031896451706025449370000009946002829019419051_);}
	.st14{fill:url(#SVGID_00000181078189467329087110000018200373813832651659_);}
	.st15{fill:url(#SVGID_00000166639406149215373520000011757225574679135124_);}
	.st16{clip-path:url(#SVGID_00000073704102172670826500000004229117101852160391_);}
	.st17{fill:#772C29;}
	.st18{fill:#F7C4A6;}
	.st19{fill:#E6A486;}
	.st20{fill:#F15A24;}
	.st21{fill:#C1272D;}
	.st22{fill:#CF7D73;}
	.st23{fill:#581C2C;}
	.st24{fill:#8B3B29;}
	.st25{clip-path:url(#SVGID_00000130619855694125450540000003871318272470236041_);}
	.st26{clip-path:url(#SVGID_00000156566768619302418730000014477981217994113437_);}
	.st27{clip-path:url(#SVGID_00000085956829019177271010000005178697617575212419_);}
	.st28{fill:#0C0C0C;}
	.st29{fill:#575757;}
	.st30{fill:#201D1E;}
	.st31{fill:#DB262D;}
	
		.st32{fill:url(#SVGID_00000127007226918380507830000005194653000758793382_);stroke:#2A6880;stroke-width:0.2596;stroke-miterlimit:10;}
	
		.st33{fill:url(#SVGID_00000058579329577945414520000010942600568249821588_);stroke:#2A6880;stroke-width:0.2596;stroke-miterlimit:10;}
	
		.st34{fill:url(#SVGID_00000012452267631431744590000016778681477420850609_);stroke:#2A6880;stroke-width:0.2596;stroke-miterlimit:10;}
	.st35{fill:#343433;}
	.st36{fill:#1C1B17;}
	.st37{fill:#4B443F;}
	.st38{fill:#B9272A;}
	.st39{fill:#264A90;}
	.st40{fill:#D41F26;}
	.st41{fill:#E66725;}
	.st42{clip-path:url(#SVGID_00000141417597019020770970000012945248589781635717_);}
	.st43{fill:#EF8C71;}
	.st44{fill:#EF8C73;}
	.st45{fill:#828080;}
	.st46{fill:none;}
	.st47{fill:none;stroke:#42210B;stroke-miterlimit:10;}
	.st48{clip-path:url(#SVGID_00000123417296867733062040000003048915465133993362_);}
	.st49{clip-path:url(#SVGID_00000099622685141591709960000009203824143393771656_);}
	.st50{fill:#FBB617;}
</style>
<g>
	<g>
		<path class="st0" d="M50.28,0h234.69c27.77,0,50.28,22.51,50.28,50.28v256.15c0,27.77-22.51,50.28-50.28,50.28H50.28
			C22.51,356.71,0,334.2,0,306.43V50.28C0,22.51,22.51,0,50.28,0z"/>
	</g>
	<radialGradient id="SVGID_1_" cx="167.6187" cy="182.7694" r="116.7801" gradientUnits="userSpaceOnUse">
		<stop  offset="0" style="stop-color:#68320E"/>
		<stop  offset="1" style="stop-color:#481D0D"/>
	</radialGradient>
	<path class="st1" d="M167.61,291.97c-40.07,0-80.14,0-120.22,0c-4.09,0-4.09-0.01-3.06-4.08c0.83-3.26,1.75-6.5,2.46-9.79
		c1.26-5.81,4.73-9.44,10.24-11.58c21.18-8.22,42.29-16.62,63.49-24.8c2.58-1,3.86-2.35,4.3-5.02c0.58-3.43,1.74-6.78,2.2-10.22
		c0.46-3.39,2.03-5.17,5.45-5.12c3.21,0.04,4.02-1.42,4.16-4.61c0.38-8.79-0.49-17.07-5.05-24.94c-2.7-4.64-4.14-9.98-4.69-15.44
		c-0.08-0.81,0-1.8-1.04-2.09c-4.06-1.14-5.41-4.61-6.56-8.01c-1.77-5.25-2.99-10.66-3.53-16.18c-0.29-2.92-0.19-5.86,2.92-7.55
		c1.52-0.83,0.71-2.11,0.57-3.21c-1.12-9.32-2.25-18.62-1.11-28.05c0.59-4.86,2.54-8.73,6.54-11.51c1.58-1.1,2.29-2.47,2.69-4.39
		c1.96-9.52,7.45-16,16.99-18.66c17.48-4.88,34.84-4.23,51.66,2.45c11.39,4.52,19.13,13.08,23.22,24.75
		c0.56,1.59,1.01,3.19,0.57,4.94c-2.63,10.36-0.83,21.1-2.62,31.54c-0.14,0.83-0.13,1.68,0.84,2.16c2.72,1.36,3.03,3.86,2.87,6.48
		c-0.4,6.78-1.97,13.3-4.44,19.61c-0.66,1.69-1.49,3.72-3.11,4.29c-3.41,1.19-3.5,3.94-4.07,6.67c-1.33,6.4-3.78,12.44-6.83,18.17
		c-1.76,3.31-2.7,6.61-2.38,10.33c0.14,1.67,0.02,3.37,0.02,5.05c0,7.04-0.02,7.13,6.61,8.63c1.65,0.38,2.12,1.23,2.43,2.6
		c0.95,4.22,2.08,8.41,2.85,12.66c0.44,2.42,1.58,3.66,3.87,4.56c20.46,8.09,40.82,16.41,61.32,24.41
		c6.42,2.51,10.43,6.55,11.63,13.4c0.54,3.07,1.25,6.15,2.28,9.09c1.1,3.13-0.13,3.53-2.89,3.51c-15.52-0.09-31.05-0.05-46.57-0.05
		C216.95,291.97,192.28,291.97,167.61,291.97z"/>
</g>
</svg>
