<?xml version="1.0" encoding="utf-8"?>
<!-- Generator: Adobe Illustrator 26.5.0, SVG Export Plug-In . SVG Version: 6.00 Build 0)  -->
<svg version="1.1" id="Layer_1" xmlns="http://www.w3.org/2000/svg" xmlns:xlink="http://www.w3.org/1999/xlink" x="0px" y="0px"
	 viewBox="0 0 400 400" style="enable-background:new 0 0 400 400;" xml:space="preserve">
<style type="text/css">
	.st0{fill:#FFFFFF;}
	.st1{fill:url(#SVGID_1_);}
	.st2{fill:none;stroke:#42210B;stroke-width:5;stroke-linecap:round;stroke-linejoin:round;stroke-miterlimit:10;}
	.st3{fill:#FFFFFF;stroke:#42210B;stroke-width:5;stroke-miterlimit:10;}
	.st4{fill:#333333;}
	.st5{fill:#42210B;}
	.st6{fill:url(#SVGID_00000013897887277506844930000000035672803135766950_);}
	.st7{fill:url(#SVGID_00000152949150119437029330000010405647273268475824_);}
	.st8{fill:url(#SVGID_00000036952804215492899890000007909660265873703073_);}
	.st9{fill:#FCBF95;}
	.st10{fill:url(#SVGID_00000067946381051005343490000015684874384056449964_);}
	.st11{fill:#FF9D5A;}
	.st12{fill:#303047;}
	.st13{fill:url(#SVGID_00000070815576494103088690000016572866870183121055_);}
	.st14{fill:url(#SVGID_00000040536675279085515030000010680495734908833675_);}
	.st15{fill:url(#SVGID_00000036965247566841491580000015637754742825740167_);}
	.st16{clip-path:url(#SVGID_00000015354632036285193740000003768950891483587998_);}
	.st17{fill:#772C29;}
	.st18{fill:#F7C4A6;}
	.st19{fill:#E6A486;}
	.st20{fill:#F15A24;}
	.st21{fill:#C1272D;}
	.st22{fill:#CF7D73;}
	.st23{fill:#581C2C;}
	.st24{fill:#8B3B29;}
	.st25{clip-path:url(#SVGID_00000157275663402086747480000011515554054754544802_);}
	.st26{clip-path:url(#SVGID_00000134958440684673782950000004499442910046274484_);}
	.st27{clip-path:url(#SVGID_00000050642590147036177270000010443304508610391971_);}
	.st28{fill:#0C0C0C;}
	.st29{fill:#575757;}
	.st30{fill:#201D1E;}
	.st31{fill:#DB262D;}
	
		.st32{fill:url(#SVGID_00000120528236143631794060000008558873045985407371_);stroke:#2A6880;stroke-width:0.2596;stroke-miterlimit:10;}
	
		.st33{fill:url(#SVGID_00000013194608850842267650000014217693178582645656_);stroke:#2A6880;stroke-width:0.2596;stroke-miterlimit:10;}
	
		.st34{fill:url(#SVGID_00000151545317279427441640000013430366902228195239_);stroke:#2A6880;stroke-width:0.2596;stroke-miterlimit:10;}
	.st35{fill:#343433;}
	.st36{fill:#1C1B17;}
	.st37{fill:#4B443F;}
	.st38{fill:#B9272A;}
	.st39{fill:#264A90;}
	.st40{fill:#D41F26;}
	.st41{fill:#E66725;}
	.st42{clip-path:url(#SVGID_00000170973508939015322060000018152576501013294724_);}
	.st43{fill:#EF8C71;}
	.st44{fill:#EF8C73;}
	.st45{fill:#828080;}
	.st46{fill:none;}
	.st47{fill:none;stroke:#42210B;stroke-miterlimit:10;}
	.st48{clip-path:url(#SVGID_00000059284545910861815940000000908087669584435119_);}
	.st49{clip-path:url(#SVGID_00000072263637232483286700000014927488379675158656_);}
	.st50{fill:#FBB617;}
</style>
<g>
	<g>
		<path class="st5" d="M181.28,365.91C95.11,365.91,25,295.81,25,209.63S95.11,53.35,181.28,53.35s156.28,70.11,156.28,156.28
			S267.45,365.91,181.28,365.91z M181.28,75.82c-73.79,0-133.82,60.03-133.82,133.82s60.03,133.82,133.82,133.82
			S315.1,283.42,315.1,209.63S255.07,75.82,181.28,75.82z"/>
	</g>
	<g>
		<path class="st4" d="M138.85,238.8c8.74-42.57,30.87-77.11,63.16-105.72c47.73-42.27,101.88-73.77,161.16-96.76
			c1.53-0.59,3.03-1.32,4.6-1.75c2.78-0.76,5.7-1.03,6.89,2.35c1.1,3.11-0.63,5.21-3.38,6.59c-7.33,3.69-14.74,7.26-21.98,11.13
			C307.54,76.95,271,105.7,240.44,142.1c-19.43,23.14-26.58,50.47-29.52,79.51c-1.55,15.29-3.16,30.54-8.81,45.01
			c-6.87,17.57-18.1,24.53-35.45,22.05c-17.46-2.5-26.63-12.93-28.35-31.73C137.76,250.85,138.3,244.9,138.85,238.8z"/>
	</g>
</g>
</svg>
