<?xml version="1.0" encoding="utf-8"?>
<!-- Generator: Adobe Illustrator 26.5.0, SVG Export Plug-In . SVG Version: 6.00 Build 0)  -->
<svg version="1.1" id="Layer_1" xmlns="http://www.w3.org/2000/svg" xmlns:xlink="http://www.w3.org/1999/xlink" x="0px" y="0px"
	 viewBox="0 0 296.47 310.18" style="enable-background:new 0 0 296.47 310.18;" xml:space="preserve">
<style type="text/css">
	.st0{fill:#FFFFFF;}
	.st1{fill:url(#SVGID_1_);}
	.st2{fill:none;stroke:#42210B;stroke-width:5;stroke-linecap:round;stroke-linejoin:round;stroke-miterlimit:10;}
	.st3{fill:#FFFFFF;stroke:#42210B;stroke-width:5;stroke-miterlimit:10;}
	.st4{fill:#333333;}
	.st5{fill:#42210B;}
	.st6{fill:url(#SVGID_00000134210172488283484000000000970230147310100395_);}
	.st7{fill:url(#SVGID_00000150080746338416056690000002441007980838589874_);}
	.st8{fill:url(#SVGID_00000060711626184485616960000007525842191767708862_);}
	.st9{fill:#FCBF95;}
	.st10{fill:url(#SVGID_00000170984840287873375430000013170565431355483836_);}
	.st11{fill:#FF9D5A;}
	.st12{fill:#303047;}
	.st13{fill:url(#SVGID_00000074434103522765860550000005897999255916792215_);}
	.st14{fill:url(#SVGID_00000000223071395062850290000016074331644694606211_);}
	.st15{fill:url(#SVGID_00000048463251832911725650000002313970608698532234_);}
	.st16{clip-path:url(#SVGID_00000057832668584474755400000012994010484380662961_);}
	.st17{fill:#772C29;}
	.st18{fill:#F7C4A6;}
	.st19{fill:#E6A486;}
	.st20{fill:#F15A24;}
	.st21{fill:#C1272D;}
	.st22{fill:#CF7D73;}
	.st23{fill:#581C2C;}
	.st24{fill:#8B3B29;}
	.st25{clip-path:url(#SVGID_00000136369530119835968050000004955768565626187422_);}
	.st26{clip-path:url(#SVGID_00000018233219408908629500000015256070700069205681_);}
	.st27{clip-path:url(#SVGID_00000152253475197803656030000014420715625082096042_);}
	.st28{fill:#0C0C0C;}
	.st29{fill:#575757;}
	.st30{fill:#201D1E;}
	.st31{fill:#DB262D;}
	
		.st32{fill:url(#SVGID_00000158020370437849040720000012175600092402157491_);stroke:#2A6880;stroke-width:0.2596;stroke-miterlimit:10;}
	
		.st33{fill:url(#SVGID_00000077314851109986749700000016818153712024254368_);stroke:#2A6880;stroke-width:0.2596;stroke-miterlimit:10;}
	
		.st34{fill:url(#SVGID_00000149370918360658767500000017146104049479783041_);stroke:#2A6880;stroke-width:0.2596;stroke-miterlimit:10;}
	.st35{fill:#343433;}
	.st36{fill:#1C1B17;}
	.st37{fill:#4B443F;}
	.st38{fill:#B9272A;}
	.st39{fill:#264A90;}
	.st40{fill:#D41F26;}
	.st41{fill:#E66725;}
	.st42{clip-path:url(#SVGID_00000095308846206235254860000002836358642162428842_);}
	.st43{fill:#EF8C71;}
	.st44{fill:#EF8C73;}
	.st45{fill:#828080;}
	.st46{fill:none;}
	.st47{fill:none;stroke:#42210B;stroke-miterlimit:10;}
	.st48{clip-path:url(#SVGID_00000058589057599351439080000016264780695253347739_);}
	.st49{clip-path:url(#SVGID_00000168828663369230094270000013343982916764344966_);}
	.st50{fill:#FBB617;}
</style>
<g>
	<path class="st0" d="M283.26,310.18H13.21c-7.3,0-13.21-5.92-13.21-13.21V13.21C0,5.92,5.92,0,13.21,0h270.05
		c7.3,0,13.21,5.92,13.21,13.21v283.75C296.47,304.26,290.56,310.18,283.26,310.18z"/>
</g>
<g>
	<g id="XMLID_00000112603324218212000040000012660858199061845637_">
		<g>
			<path class="st9" d="M197.83,177.79c0,0-0.09,23.86-11.47,42.39c-7.2,11.78-18.96,21.4-38.12,21.4
				c-19.15,0-30.91-9.62-38.12-21.38c-11.37-18.53-11.47-42.41-11.47-42.41c-9.22-0.73-24.52-22.58-11.61-34.48
				c1.91-1.76,4.09-1.9,5.88-1.57l0.01-0.11c0,0-10.88-72.81,55.31-72.81s55.31,72.81,55.31,72.81l0.01,0.11
				c1.79-0.33,3.82-0.03,5.89,1.57C220.79,152.07,207.05,177.06,197.83,177.79z"/>
			<radialGradient id="SVGID_1_" cx="148.2373" cy="265.1875" r="96.7297" gradientUnits="userSpaceOnUse">
				<stop  offset="0" style="stop-color:#68320E"/>
				<stop  offset="1" style="stop-color:#481D0D"/>
			</radialGradient>
			<path class="st1" d="M277.42,310.18H148.24H19.05c0,0,10.08-46.33,32.7-64.91c22.62-18.56,58.37-25.07,58.37-25.07
				s4.93,34.42,38.12,34.42s38.14-34.42,38.14-34.42s35.74,6.51,58.37,25.07C267.36,263.84,277.42,310.18,277.42,310.18z"/>
			<path class="st11" d="M186.36,220.19l0.01,0.01c0,0-4.95,34.42-38.14,34.42s-38.12-34.42-38.12-34.42
				c7.22,11.77,18.97,21.38,38.12,21.38C167.41,241.58,179.16,231.97,186.36,220.19z"/>
			<path class="st11" d="M148.24,184.07c0,0,10.15,21.85,9.96,24.51c-0.19,2.68-6,4.43-9.96,4.43c-3.95,0-9.76-1.75-9.95-4.43
				C138.1,205.91,148.24,184.07,148.24,184.07z"/>
		</g>
	</g>
	<path class="st12" d="M101.31,149.06h1.4c-2.35-11.51-5.58-35.65,6.25-44.06c6.98-4.96,16.2-6.81,25.38,3.98
		c3.51,4.12,7.3,7.47,12.87,7.47l0.92,0.01c5.57-0.1,9.3-3.51,12.73-7.69c8.99-10.95,18.24-9.26,25.31-4.42
		c12.25,8.39,8.92,34.34,6.76,45.54h0.98c2.24-3.34,5.61-5.8,7.67-7.11c0.51-0.31,1.06-0.56,1.62-0.76c0.92-0.31,1.9-0.4,2.87-0.26
		c0.29,0.05,0.57,0.11,0.8,0.2c0,0,0.02-0.17,0.07-0.51c0-0.08,0.01-0.16,0.04-0.27c0.01-0.11,0.02-0.21,0.03-0.33
		c0.69-6.31,3.16-39.02-16.13-60.44c-0.03-0.04-0.05-0.07-0.08-0.09c-9.06-9.01-22.81-15.22-43.59-14.85v-0.02
		c-20.79,0-34.42,6.45-43.32,15.61c-0.03,0.03-0.05,0.05-0.08,0.09c-18.92,21.75-15.98,53.59-15.19,59.89
		c0.01,0.12,0.03,0.23,0.04,0.33c0.03,0.11,0.04,0.19,0.04,0.27c0.05,0.33,0.08,0.5,0.08,0.5c0.23-0.09,0.5-0.16,0.8-0.21
		c0.97-0.16,1.95-0.08,2.88,0.21c0.56,0.19,1.11,0.42,1.63,0.73C96.01,144.05,99.05,146.17,101.31,149.06z"/>
	<path class="st12" d="M132.48,185.16c-4.17,3.9-10.69,4.07-15.03,0.33c-0.78-0.67-1.93,0.46-1.14,1.14
		c5.02,4.32,12.46,4.2,17.31-0.33C134.38,185.58,133.24,184.45,132.48,185.16z"/>
	<path class="st12" d="M130.18,171.31c-4.07,0.24-7.96,1.23-11.68,2.91c-1.16,0.52-1.52,2.29-0.87,3.3c0.77,1.19,2.07,1.42,3.3,0.87
		c0.04-0.02,0.19-0.09,0.31-0.14c0.17-0.08,0.36-0.15,0.54-0.22c0.42-0.16,0.84-0.32,1.27-0.46c0.79-0.27,1.6-0.51,2.41-0.71
		c0.81-0.2,1.64-0.37,2.47-0.5c0.1-0.02,0.2-0.03,0.3-0.04c0.2-0.02,0.4-0.05,0.59-0.07c0.45-0.05,0.9-0.08,1.35-0.11
		c1.26-0.07,2.48-1.06,2.41-2.41C132.54,172.48,131.53,171.23,130.18,171.31z"/>
	<path class="st12" d="M163.57,185.16c4.17,3.9,10.69,4.07,15.03,0.33c0.78-0.67,1.93,0.46,1.14,1.14
		c-5.02,4.32-12.46,4.2-17.31-0.33C161.67,185.58,162.81,184.45,163.57,185.16z"/>
	<path class="st12" d="M165.18,171.31c4.07,0.24,7.96,1.23,11.68,2.91c1.16,0.52,1.52,2.29,0.87,3.3c-0.77,1.19-2.07,1.42-3.3,0.87
		c-0.04-0.02-0.19-0.09-0.31-0.14c-0.17-0.08-0.36-0.15-0.54-0.22c-0.42-0.16-0.84-0.32-1.27-0.46c-0.79-0.27-1.6-0.51-2.41-0.71
		c-0.81-0.2-1.64-0.37-2.47-0.5c-0.1-0.02-0.2-0.03-0.3-0.04c-0.2-0.02-0.4-0.05-0.59-0.07c-0.45-0.05-0.9-0.08-1.35-0.11
		c-1.26-0.07-2.48-1.06-2.41-2.41C162.82,172.48,163.83,171.23,165.18,171.31z"/>
	<path class="st12" d="M151.66,220.11c-2.53-0.41-5.07-0.34-7.57,0.26c-0.82,0.2-1.39,1.17-1.12,1.98c0.28,0.85,1.1,1.34,1.98,1.12
		c0.53-0.13,1.08-0.27,1.63-0.32c0,0,0,0,0,0c0.03,0,0.07-0.01,0.08-0.01c0.13-0.01,0.25-0.03,0.38-0.04
		c0.28-0.02,0.55-0.04,0.83-0.05c0.53-0.02,1.06-0.02,1.59,0.01c0.25,0.01,0.51,0.03,0.76,0.06c0.12,0.01,0.26,0.02,0.38,0.04
		c-0.43-0.09,0.12,0.02,0.2,0.03c0.44,0.07,0.84,0.07,1.24-0.16c0.33-0.2,0.65-0.58,0.74-0.96
		C152.96,221.32,152.54,220.26,151.66,220.11z"/>
	<ellipse class="st9" cx="147.9" cy="87.95" rx="29.25" ry="15.98"/>
</g>
</svg>
