<?xml version="1.0" encoding="utf-8"?>
<!-- Generator: Adobe Illustrator 26.5.0, SVG Export Plug-In . SVG Version: 6.00 Build 0)  -->
<svg version="1.1" id="Layer_1" xmlns="http://www.w3.org/2000/svg" xmlns:xlink="http://www.w3.org/1999/xlink" x="0px" y="0px"
	 viewBox="0 0 296.47 310.18" style="enable-background:new 0 0 296.47 310.18;" xml:space="preserve">
<style type="text/css">
	.st0{fill:#FFFFFF;}
	.st1{fill:url(#SVGID_1_);}
	.st2{fill:none;stroke:#42210B;stroke-width:5;stroke-linecap:round;stroke-linejoin:round;stroke-miterlimit:10;}
	.st3{fill:#FFFFFF;stroke:#42210B;stroke-width:5;stroke-miterlimit:10;}
	.st4{fill:#333333;}
	.st5{fill:#42210B;}
	.st6{fill:url(#SVGID_00000129904555518906242310000002051159399876723869_);}
	.st7{fill:url(#SVGID_00000046307665003718645080000016260792474244726180_);}
	.st8{fill:url(#SVGID_00000134250019149764514810000011489691821763085193_);}
	.st9{fill:#FCBF95;}
	.st10{fill:url(#SVGID_00000000217096259239444920000008437745927344935065_);}
	.st11{fill:#FF9D5A;}
	.st12{fill:#303047;}
	.st13{fill:url(#SVGID_00000135664475768057691230000005605108974012839297_);}
	.st14{fill:url(#SVGID_00000160148237544205184690000010358943821898915739_);}
	.st15{fill:url(#SVGID_00000132798075468377016380000001353573639681863833_);}
	.st16{clip-path:url(#SVGID_00000127016309107098312730000016819206740341009840_);}
	.st17{fill:#772C29;}
	.st18{fill:#F7C4A6;}
	.st19{fill:#E6A486;}
	.st20{fill:#F15A24;}
	.st21{fill:#C1272D;}
	.st22{fill:#CF7D73;}
	.st23{fill:#581C2C;}
	.st24{fill:#8B3B29;}
	.st25{clip-path:url(#SVGID_00000079468444011869822670000002365481314272822925_);}
	.st26{clip-path:url(#SVGID_00000122002081237123794620000003578465521640042920_);}
	.st27{clip-path:url(#SVGID_00000083791412489040282940000001595400771355737989_);}
	.st28{fill:#0C0C0C;}
	.st29{fill:#575757;}
	.st30{fill:#201D1E;}
	.st31{fill:#DB262D;}
	
		.st32{fill:url(#SVGID_00000139984009430969823160000008655024545567870902_);stroke:#2A6880;stroke-width:0.2596;stroke-miterlimit:10;}
	
		.st33{fill:url(#SVGID_00000000192064202247542060000004960735477551082930_);stroke:#2A6880;stroke-width:0.2596;stroke-miterlimit:10;}
	
		.st34{fill:url(#SVGID_00000024697938619448288820000003430203912276091287_);stroke:#2A6880;stroke-width:0.2596;stroke-miterlimit:10;}
	.st35{fill:#343433;}
	.st36{fill:#1C1B17;}
	.st37{fill:#4B443F;}
	.st38{fill:#B9272A;}
	.st39{fill:#264A90;}
	.st40{fill:#D41F26;}
	.st41{fill:#E66725;}
	.st42{clip-path:url(#SVGID_00000138560768187594150190000000830510119939046063_);}
	.st43{fill:#EF8C71;}
	.st44{fill:#EF8C73;}
	.st45{fill:#828080;}
	.st46{fill:none;}
	.st47{fill:none;stroke:#42210B;stroke-miterlimit:10;}
	.st48{clip-path:url(#SVGID_00000006682276355097485110000008668657474519295621_);}
	.st49{clip-path:url(#SVGID_00000053508111361308525470000009748885878651977659_);}
	.st50{fill:#FBB617;}
</style>
<g>
	<path class="st0" d="M283.26,310.18H13.21c-7.3,0-13.21-5.92-13.21-13.21V13.21C0,5.92,5.92,0,13.21,0h270.05
		c7.3,0,13.21,5.92,13.21,13.21v283.75C296.47,304.26,290.56,310.18,283.26,310.18z"/>
</g>
<g>
	<g id="XMLID_00000075132200470169168330000009717252342729981594_">
		<g>
			<path class="st9" d="M197.83,177.79c0,0-0.09,23.86-11.47,42.39c-7.2,11.78-18.96,21.4-38.12,21.4
				c-19.15,0-30.91-9.62-38.12-21.38c-11.37-18.53-11.47-42.41-11.47-42.41c-9.22-0.73-24.52-22.58-11.61-34.48
				c1.91-1.76,4.09-1.9,5.88-1.57l0.01-0.11c0,0-10.88-72.81,55.31-72.81s55.31,72.81,55.31,72.81l0.01,0.11
				c1.79-0.33,3.82-0.03,5.89,1.57C220.79,152.07,207.05,177.06,197.83,177.79z"/>
			<radialGradient id="SVGID_1_" cx="148.2373" cy="265.1875" r="96.7297" gradientUnits="userSpaceOnUse">
				<stop  offset="0" style="stop-color:#68320E"/>
				<stop  offset="1" style="stop-color:#481D0D"/>
			</radialGradient>
			<path class="st1" d="M277.42,310.18H148.24H19.05c0,0,10.08-46.33,32.7-64.91c22.62-18.56,58.37-25.07,58.37-25.07
				s4.93,34.42,38.12,34.42s38.14-34.42,38.14-34.42s35.74,6.51,58.37,25.07C267.36,263.84,277.42,310.18,277.42,310.18z"/>
			<path class="st11" d="M186.36,220.19l0.01,0.01c0,0-4.95,34.42-38.14,34.42s-38.12-34.42-38.12-34.42
				c7.22,11.77,18.97,21.38,38.12,21.38C167.41,241.58,179.16,231.97,186.36,220.19z"/>
			<path class="st11" d="M148.24,184.07c0,0,10.15,21.85,9.96,24.51c-0.19,2.68-6,4.43-9.96,4.43c-3.95,0-9.76-1.75-9.95-4.43
				C138.1,205.91,148.24,184.07,148.24,184.07z"/>
		</g>
	</g>
	<path class="st12" d="M206.63,142.05c-0.23-0.09-0.49-0.16-0.78-0.21c-1.57-0.27-3.16,0.13-4.51,0.94
		c-3.06,1.86-8.91,6.1-10.03,12.02c0.25-3.46,1.71-28.29-5.12-28.36c-6.37-0.04-8.15,21.22-19.71,22.35
		c-0.01,0.01-0.04,0.01-0.05,0.01h-0.01c-4.86,0.94-10.84,1.58-18.17,1.59h-0.38c-7.32-0.01-13.3-0.64-18.16-1.58l0.03-0.01
		c-0.05,0-0.11-0.01-0.16-0.01c-12.25-2.33-13.25-22.39-19.63-22.35c-7.38,0.07-5.08,28.78-5.08,28.78
		c-0.9-6.14-6.96-10.55-10.08-12.44c-1.37-0.81-2.96-1.21-4.51-0.94c-0.29,0.05-0.57,0.12-0.8,0.21c0,0-9.43-57.29,36.29-75.98
		c45.72-18.68,60.22,13.03,60.22,13.03C213.5,81.07,206.63,142.05,206.63,142.05z"/>
	<path class="st12" d="M132.48,185.16c-4.17,3.9-10.69,4.07-15.03,0.33c-0.78-0.67-1.93,0.46-1.14,1.14
		c5.02,4.32,12.46,4.2,17.31-0.33C134.38,185.58,133.24,184.45,132.48,185.16z"/>
	<path class="st12" d="M130.18,171.31c-4.07,0.24-7.96,1.23-11.68,2.91c-1.16,0.52-1.52,2.29-0.87,3.3c0.77,1.19,2.07,1.42,3.3,0.87
		c0.04-0.02,0.19-0.09,0.31-0.14c0.17-0.08,0.36-0.15,0.54-0.22c0.42-0.16,0.84-0.32,1.27-0.46c0.79-0.27,1.6-0.51,2.41-0.71
		c0.81-0.2,1.64-0.37,2.47-0.5c0.1-0.02,0.2-0.03,0.3-0.04c0.2-0.02,0.4-0.05,0.59-0.07c0.45-0.05,0.9-0.08,1.35-0.11
		c1.26-0.07,2.48-1.06,2.41-2.41C132.54,172.48,131.53,171.23,130.18,171.31z"/>
	<path class="st12" d="M163.57,185.16c4.17,3.9,10.69,4.07,15.03,0.33c0.78-0.67,1.93,0.46,1.14,1.14
		c-5.02,4.32-12.46,4.2-17.31-0.33C161.67,185.58,162.81,184.45,163.57,185.16z"/>
	<path class="st12" d="M165.18,171.31c4.07,0.24,7.96,1.23,11.68,2.91c1.16,0.52,1.52,2.29,0.87,3.3c-0.77,1.19-2.07,1.42-3.3,0.87
		c-0.04-0.02-0.19-0.09-0.31-0.14c-0.17-0.08-0.36-0.15-0.54-0.22c-0.42-0.16-0.84-0.32-1.27-0.46c-0.79-0.27-1.6-0.51-2.41-0.71
		c-0.81-0.2-1.64-0.37-2.47-0.5c-0.1-0.02-0.2-0.03-0.3-0.04c-0.2-0.02-0.4-0.05-0.59-0.07c-0.45-0.05-0.9-0.08-1.35-0.11
		c-1.26-0.07-2.48-1.06-2.41-2.41C162.82,172.48,163.83,171.23,165.18,171.31z"/>
	<path class="st12" d="M151.66,220.11c-2.53-0.41-5.07-0.34-7.57,0.26c-0.82,0.2-1.39,1.17-1.12,1.98c0.28,0.85,1.1,1.34,1.98,1.12
		c0.53-0.13,1.08-0.27,1.63-0.32c0,0,0,0,0,0c0.03,0,0.07-0.01,0.08-0.01c0.13-0.01,0.25-0.03,0.38-0.04
		c0.28-0.02,0.55-0.04,0.83-0.05c0.53-0.02,1.06-0.02,1.59,0.01c0.25,0.01,0.51,0.03,0.76,0.06c0.12,0.01,0.26,0.02,0.38,0.04
		c-0.43-0.09,0.12,0.02,0.2,0.03c0.44,0.07,0.84,0.07,1.24-0.16c0.33-0.2,0.65-0.58,0.74-0.96
		C152.96,221.32,152.54,220.26,151.66,220.11z"/>
</g>
</svg>
