<?xml version="1.0" encoding="utf-8"?>
<!-- Generator: Adobe Illustrator 26.5.0, SVG Export Plug-In . SVG Version: 6.00 Build 0)  -->
<svg version="1.1" id="Layer_1" xmlns="http://www.w3.org/2000/svg" xmlns:xlink="http://www.w3.org/1999/xlink" x="0px" y="0px"
	 viewBox="0 0 400 400" style="enable-background:new 0 0 400 400;" xml:space="preserve">
<style type="text/css">
	.st0{fill:#FFFFFF;}
	.st1{fill:url(#SVGID_1_);}
	.st2{fill:none;stroke:#42210B;stroke-width:5;stroke-linecap:round;stroke-linejoin:round;stroke-miterlimit:10;}
	.st3{fill:#FFFFFF;stroke:#42210B;stroke-width:5;stroke-miterlimit:10;}
	.st4{fill:#333333;}
	.st5{fill:#42210B;}
	.st6{fill:url(#SVGID_00000138556400504805962230000008932104019023177131_);}
	.st7{fill:url(#SVGID_00000045601380657551365870000013443579975013535911_);}
	.st8{fill:url(#SVGID_00000177461732828075054190000000199771054441714570_);}
	.st9{fill:#FCBF95;}
	.st10{fill:url(#SVGID_00000148658359209158950320000012270781284725909404_);}
	.st11{fill:#FF9D5A;}
	.st12{fill:#303047;}
	.st13{fill:url(#SVGID_00000150820466873158154910000011308706937042482360_);}
	.st14{fill:url(#SVGID_00000115516691491083468560000004902136355101947286_);}
	.st15{fill:url(#SVGID_00000077314572828107074700000014677102410897376906_);}
	.st16{clip-path:url(#SVGID_00000083777999618083031290000013314266963623790733_);}
	.st17{fill:#772C29;}
	.st18{fill:#F7C4A6;}
	.st19{fill:#E6A486;}
	.st20{fill:#F15A24;}
	.st21{fill:#C1272D;}
	.st22{fill:#CF7D73;}
	.st23{fill:#581C2C;}
	.st24{fill:#8B3B29;}
	.st25{clip-path:url(#SVGID_00000007403173130264990230000012547892647013197469_);}
	.st26{clip-path:url(#SVGID_00000173877849572818463770000016167234511855168403_);}
	.st27{clip-path:url(#SVGID_00000012466496913037846520000013725360438256834701_);}
	.st28{fill:#0C0C0C;}
	.st29{fill:#575757;}
	.st30{fill:#201D1E;}
	.st31{fill:#DB262D;}
	
		.st32{fill:url(#SVGID_00000134225846803081240480000001158977357965588358_);stroke:#2A6880;stroke-width:0.2596;stroke-miterlimit:10;}
	
		.st33{fill:url(#SVGID_00000154422773246088040750000004416786681767290251_);stroke:#2A6880;stroke-width:0.2596;stroke-miterlimit:10;}
	
		.st34{fill:url(#SVGID_00000065756498976770583170000007153438963582105986_);stroke:#2A6880;stroke-width:0.2596;stroke-miterlimit:10;}
	.st35{fill:#343433;}
	.st36{fill:#1C1B17;}
	.st37{fill:#4B443F;}
	.st38{fill:#B9272A;}
	.st39{fill:#264A90;}
	.st40{fill:#D41F26;}
	.st41{fill:#E66725;}
	.st42{clip-path:url(#SVGID_00000088834962206982060600000007600897508674315967_);}
	.st43{fill:#EF8C71;}
	.st44{fill:#EF8C73;}
	.st45{fill:#828080;}
	.st46{fill:none;}
	.st47{fill:none;stroke:#42210B;stroke-miterlimit:10;}
	.st48{clip-path:url(#SVGID_00000085941888435319471290000000906818723547819916_);}
	.st49{clip-path:url(#SVGID_00000099626166047697647250000002857912000492514464_);}
	.st50{fill:#FBB617;}
</style>
<g>
	<g>
		<g>
			<path class="st5" d="M199.98,19.94l0.34,0c48.11,0.09,93.27,18.88,127.17,52.93c33.9,34.04,52.52,79.29,52.43,127.41
				c-0.04,24.12-4.86,47.57-14.31,69.72c-9.13,21.39-22.16,40.63-38.72,57.2c-16.56,16.56-35.79,29.58-57.14,38.68
				c-22.1,9.42-45.48,14.19-69.5,14.19l-0.82,0c-48.08-0.22-93.2-19.12-127.05-53.21c-33.86-34.1-52.43-79.38-52.3-127.5
				c0.09-48.18,18.79-93.31,52.65-127.08C106.59,38.52,151.78,19.94,199.98,19.94 M199.98,9.94c-105.13,0-189.7,84.22-189.89,189.4
				C9.8,304.34,94.47,389.58,199.38,390.06c0.29,0,0.58,0,0.86,0c103.86,0,189.48-85.54,189.68-189.78
				C390.11,95.28,305.34,10.13,200.33,9.94C200.22,9.94,200.09,9.94,199.98,9.94L199.98,9.94z"/>
		</g>
	</g>
	<g>
		<path class="st5" d="M341.04,199.04c0-20.71,1.15-41.43-0.19-62.05c-3.05-47.63-29.31-75.99-76.37-79.61
			c-43.72-3.34-87.82-3.34-131.54-0.1C87.79,60.63,62.01,86.31,58,131.56c-3.91,44.39-3.82,88.97,0.19,133.35
			c4.3,48.21,32.46,74.75,81.14,76.27c40.09,1.34,80.28,1.34,120.28,0.19c49.45-1.34,78.66-30.74,81.33-80.38
			c1.05-20.62,0.19-41.33,0.19-61.96H341.04z M315.08,265.58c-1.72,29.21-19.57,48.01-48.59,50.12
			c-44.39,3.05-88.97,2.77-133.26-0.1c-30.07-2-48.3-20.14-50.31-50.88c-2.86-43.72-2.96-87.63-0.1-131.36
			c2.1-31.22,21.19-49.54,52.5-50.4c41.91-1.05,83.91-1.15,125.82,0.09c34.08,1.05,52.41,20.33,54.03,54.89
			c1.05,20.52,0.19,41.24,0.19,61.96c0,0,0,0-0.1,0C315.27,221.77,316.32,243.72,315.08,265.58z"/>
		<path class="st5" d="M201.88,345.31c-21.21,0-42.14-0.34-62.65-1.03c-50.56-1.59-79.65-28.94-84.12-79.1
			c-4.03-44.59-4.09-89.64-0.19-133.9c4.16-46.97,31.06-73.63,77.79-77.08c44.01-3.26,88.43-3.23,132.01,0.1
			c47.91,3.69,76.04,32.99,79.22,82.5c0.92,14.23,0.67,28.69,0.42,42.67c-0.09,5.49-0.19,10.99-0.22,16.48h0.09v3.09
			c0,6.38,0.08,12.77,0.17,19.17c0.18,14.07,0.37,28.62-0.36,42.94c-2.78,51.58-33.52,81.94-84.34,83.32
			C240.29,345.03,220.98,345.31,201.88,345.31z M198.23,57.96c-21.69,0-43.42,0.8-65.06,2.41c-43.3,3.2-68.22,27.9-72.08,71.45
			c-3.87,43.89-3.81,88.57,0.19,132.8c4.15,46.58,31.17,71.98,78.15,73.46c38.86,1.29,79.26,1.37,120.1,0.19
			c47.89-1.29,75.71-28.8,78.33-77.45c0.72-14.11,0.53-28.56,0.35-42.53c-0.07-5.39-0.14-10.78-0.16-16.16h-0.01l-0.1-3.09
			c0-6.56,0.11-13.13,0.23-19.69c0.24-13.85,0.49-28.19-0.41-42.16c-3-46.72-28.42-73.25-73.52-76.73
			C242.4,58.8,220.34,57.96,198.23,57.96z M201.96,320.96c-22.57,0-45.59-0.76-68.94-2.27c-31.72-2.12-51.11-21.71-53.2-53.77
			c-2.89-44.2-2.93-88.53-0.1-131.75c2.22-32.97,22.45-52.39,55.51-53.3c44.67-1.12,85.88-1.09,125.99,0.1
			c35.59,1.09,55.3,21.09,57.03,57.84c0.73,14.23,0.54,28.77,0.36,42.84c-0.08,6.41-0.17,12.84-0.17,19.26l-0.09,3.09
			c0.02,5.82,0.11,11.64,0.2,17.46c0.22,14.83,0.45,30.18-0.4,45.29v0.01c-1.82,31-21.06,50.82-51.45,53.03
			C245.68,320.23,224.04,320.96,201.96,320.96z M198.19,85.24c-20.3,0-41.13,0.27-62.79,0.82c-29.91,0.82-47.49,17.69-49.5,47.51
			c-2.81,42.95-2.78,87.01,0.1,130.95c1.89,29.03,18.74,46.07,47.42,47.99c45.91,2.96,90.6,3,132.84,0.1
			c27.4-1.98,44.06-19.19,45.71-47.21c0.85-14.88,0.62-30.12,0.4-44.84c-0.11-6.89-0.21-13.78-0.21-20.65l0.1-3.09
			c0.02-5.42,0.09-10.84,0.16-16.25c0.18-13.97,0.37-28.41-0.35-42.46c-1.57-33.48-18.74-50.96-51.03-51.95
			C240.49,85.55,219.65,85.24,198.19,85.24z"/>
	</g>
	<g>
		<path class="st47" d="M315.36,199.91c0-20.72,0.86-41.43-0.19-61.96c-1.62-34.56-19.95-53.84-54.03-54.89
			c-41.91-1.24-83.91-1.15-125.82-0.09c-31.31,0.86-50.4,19.19-52.5,50.4c-2.86,43.72-2.77,87.63,0.1,131.36
			c2,30.74,20.24,48.87,50.31,50.88c44.29,2.87,88.87,3.15,133.26,0.1c29.02-2.1,46.87-20.91,48.59-50.12
			c1.24-21.86,0.19-43.81,0.19-65.68C315.36,199.91,315.36,199.91,315.36,199.91z M199.48,272.74
			c-40.57-0.29-72.84-32.17-73.12-72.55c-0.38-40.85,31.12-73.31,71.5-73.79c41.14-0.38,74.65,32.55,74.36,73.31
			C272.02,240.19,239.38,272.93,199.48,272.74z M276.13,139.57c-10.4,0.48-16.61-5.35-17.37-15.56c-0.76-10.5,5.92-15.66,14.8-17.95
			c10.79,0.76,17.47,6.11,18.04,16.13C292.17,132.22,286.63,139,276.13,139.57z"/>
	</g>
	<g>
		<path class="st5" d="M291.59,122.2c0.57,10.02-4.96,16.8-15.46,17.37c-10.4,0.48-16.61-5.35-17.37-15.56
			c-0.76-10.5,5.92-15.66,14.8-17.95C284.34,106.83,291.02,112.17,291.59,122.2z"/>
		<path class="st5" d="M274.97,142.69c-11.26,0-18.43-6.81-19.3-18.44c-0.55-7.51,1.98-17.28,17.11-21.18l0.49-0.13l0.5,0.04
			c12.65,0.89,20.27,7.83,20.92,19.05l0,0c0.34,5.9-1.21,10.95-4.49,14.6c-3.25,3.63-8.05,5.71-13.9,6.03
			C275.85,142.68,275.4,142.69,274.97,142.69z M273.83,109.19c-11.46,3.13-12.34,9.81-11.99,14.6c0.65,8.69,5.58,12.98,14.14,12.69
			c4.2-0.23,7.44-1.57,9.6-3.98c2.15-2.41,3.16-5.91,2.92-10.13l0,0C288.05,114.42,283.11,109.99,273.83,109.19z"/>
	</g>
	<g>
		<path class="st5" d="M197.85,126.4c-40.38,0.48-71.88,32.94-71.5,73.79c0.29,40.38,32.55,72.26,73.12,72.55
			c39.9,0.19,72.55-32.55,72.74-73.03C272.5,158.95,239,126.02,197.85,126.4z M199.57,248.11c-27.21,0.09-48.88-21.95-48.49-49.16
			c0.29-25.97,22.62-47.54,48.68-47.06c26.35,0.48,47.44,21.95,47.35,48.3C247.01,226.82,225.92,248.11,199.57,248.11z"/>
		<path class="st5" d="M199.82,275.84c-0.12,0-0.24,0-0.36,0c-42.43-0.3-75.9-33.52-76.2-75.62c-0.4-42.63,32.35-76.41,74.56-76.91
			h0.01c20.82-0.31,40.55,7.79,55.27,22.47c14.47,14.44,22.36,33.6,22.21,53.96C275.11,241.77,241.28,275.84,199.82,275.84z
			 M197.89,129.49L197.89,129.49c-38.74,0.46-68.81,31.5-68.44,70.67c0.28,38.69,31.04,69.21,70.05,69.49c0.11,0,0.22,0,0.33,0
			c38.06,0.01,69.12-31.31,69.3-69.95c0.13-18.7-7.11-36.29-20.4-49.54c-13.37-13.34-31.16-20.67-50.16-20.67
			C198.34,129.49,198.11,129.49,197.89,129.49z M199.39,251.21c-13.88,0-26.85-5.39-36.54-15.18c-9.79-9.89-15.07-23.07-14.87-37.12
			c0.15-13.33,5.66-25.96,15.53-35.54c9.93-9.64,22.67-14.92,36.31-14.57c27.88,0.5,50.49,23.56,50.39,51.41
			c-0.1,28.12-22.81,50.99-50.62,51l0,0C199.52,251.21,199.45,251.21,199.39,251.21z M198.9,154.98c-11.53,0-22.54,4.53-31.08,12.83
			c-8.67,8.43-13.52,19.5-13.65,31.18c-0.17,12.38,4.47,23.99,13.08,32.68c8.52,8.61,19.93,13.35,32.14,13.35c0.05,0,0.11,0,0.17,0
			h0.01c24.83,0,44.35-19.69,44.44-44.83c0.09-24.48-19.79-44.76-44.31-45.2C199.44,154.98,199.17,154.98,198.9,154.98z"/>
	</g>
	<g>
		<path class="st5" d="M199.38,251.21c-13.86,0-26.83-5.39-36.53-15.18c-9.79-9.89-15.07-23.07-14.87-37.12
			c0.15-13.33,5.66-25.96,15.53-35.54c9.93-9.64,22.67-14.92,36.31-14.57c27.88,0.5,50.49,23.56,50.39,51.41l0,0
			c-0.1,28.12-22.82,51-50.63,51C199.51,251.21,199.44,251.21,199.38,251.21z M198.9,154.98c-11.53,0-22.54,4.53-31.08,12.83
			c-8.67,8.43-13.52,19.5-13.65,31.18c-0.17,12.38,4.47,23.99,13.08,32.68c8.52,8.61,19.93,13.35,32.14,13.35c0.05,0,0.11,0,0.17,0
			c24.84,0,44.36-19.69,44.46-44.83l0,0c0.09-24.48-19.79-44.76-44.31-45.2C199.44,154.98,199.17,154.98,198.9,154.98z"/>
	</g>
</g>
</svg>
