<?xml version="1.0" encoding="utf-8"?>
<!-- Generator: Adobe Illustrator 26.5.0, SVG Export Plug-In . SVG Version: 6.00 Build 0)  -->
<svg version="1.1" id="Layer_1" xmlns="http://www.w3.org/2000/svg" xmlns:xlink="http://www.w3.org/1999/xlink" x="0px" y="0px"
	 viewBox="0 0 400 400" style="enable-background:new 0 0 400 400;" xml:space="preserve">
<style type="text/css">
	.st0{fill:#FFFFFF;}
	.st1{fill:url(#SVGID_1_);}
	.st2{fill:none;stroke:#42210B;stroke-width:5;stroke-linecap:round;stroke-linejoin:round;stroke-miterlimit:10;}
	.st3{fill:#FFFFFF;stroke:#42210B;stroke-width:5;stroke-miterlimit:10;}
	.st4{fill:#333333;}
	.st5{fill:#42210B;}
	.st6{fill:url(#SVGID_00000009588557682478833160000014918295157174108078_);}
	.st7{fill:url(#SVGID_00000177442604697316837990000003903733793085966995_);}
	.st8{fill:url(#SVGID_00000180335174637870802730000005538294628803817099_);}
	.st9{fill:#FCBF95;}
	.st10{fill:url(#SVGID_00000176021542895220319260000006182458556641870493_);}
	.st11{fill:#FF9D5A;}
	.st12{fill:#303047;}
	.st13{fill:url(#SVGID_00000157310705029407092820000002465571822828446887_);}
	.st14{fill:url(#SVGID_00000015348933862409806540000012433988742829338497_);}
	.st15{fill:url(#SVGID_00000135660968682005982310000000602649819031738503_);}
	.st16{clip-path:url(#SVGID_00000082353795846143476450000012645756357607321487_);}
	.st17{fill:#772C29;}
	.st18{fill:#F7C4A6;}
	.st19{fill:#E6A486;}
	.st20{fill:#F15A24;}
	.st21{fill:#C1272D;}
	.st22{fill:#CF7D73;}
	.st23{fill:#581C2C;}
	.st24{fill:#8B3B29;}
	.st25{clip-path:url(#SVGID_00000054254191996656646620000013728828860928661693_);}
	.st26{clip-path:url(#SVGID_00000011729194907904337270000002560774665386553235_);}
	.st27{clip-path:url(#SVGID_00000054966558180648884590000000783851048368584865_);}
	.st28{fill:#0C0C0C;}
	.st29{fill:#575757;}
	.st30{fill:#201D1E;}
	.st31{fill:#DB262D;}
	
		.st32{fill:url(#SVGID_00000098179964201872646800000001300041087139492275_);stroke:#2A6880;stroke-width:0.2596;stroke-miterlimit:10;}
	
		.st33{fill:url(#SVGID_00000129890828623665987690000008237511833849477019_);stroke:#2A6880;stroke-width:0.2596;stroke-miterlimit:10;}
	
		.st34{fill:url(#SVGID_00000172434931878132242810000010571956271896265374_);stroke:#2A6880;stroke-width:0.2596;stroke-miterlimit:10;}
	.st35{fill:#343433;}
	.st36{fill:#1C1B17;}
	.st37{fill:#4B443F;}
	.st38{fill:#B9272A;}
	.st39{fill:#264A90;}
	.st40{fill:#D41F26;}
	.st41{fill:#E66725;}
	.st42{clip-path:url(#SVGID_00000142161236564457441270000000675724289041032602_);}
	.st43{fill:#EF8C71;}
	.st44{fill:#EF8C73;}
	.st45{fill:#828080;}
	.st46{fill:none;}
	.st47{fill:none;stroke:#42210B;stroke-miterlimit:10;}
	.st48{clip-path:url(#SVGID_00000128444537414601983760000010164198608856682411_);}
	.st49{clip-path:url(#SVGID_00000016038052618952227650000005853608638780328083_);}
	.st50{fill:#FBB617;}
</style>
<g>
	<g>
		<g>
			<path class="st5" d="M200.02,19.94l0.16,0c48.18,0.04,93.36,18.74,127.23,52.65c33.89,33.92,52.55,79.17,52.55,127.41
				c0,47.97-18.73,93.1-52.74,127.08c-34.02,33.99-79.32,52.8-127.54,52.98l-0.49,0c-24.08,0-47.48-4.79-69.55-14.22
				c-21.33-9.12-40.51-22.16-57-38.77c-16.5-16.61-29.46-35.92-38.51-57.39c-9.37-22.23-14.11-45.8-14.09-70.05
				c0.04-48.22,18.72-93.41,52.6-127.23C106.52,38.57,151.75,19.94,200.02,19.94 M200.02,9.94C94.71,9.94,10.13,94.39,10.04,199.62
				C9.94,304.35,95.1,390.06,199.2,390.06c0.18,0,0.34,0,0.52,0c105.2-0.38,190.25-85.35,190.25-190.06
				c0-105.29-84.67-189.96-189.77-190.06C200.13,9.94,200.07,9.94,200.02,9.94L200.02,9.94z"/>
		</g>
	</g>
	<g>
		<path class="st5" d="M323.62,133.08C308.16,144.35,305.1,160,303,178.23C291.16,281.14,173.56,341.28,82.01,292.22
			c-2-1.15-3.82-2.58-8.88-6.01c27.11-1.82,50.21-5.44,71.79-21.67c-16.71-5.44-31.12-11.74-40.47-25.77
			c-7.06-10.59-4.49-14.6,12.51-12.6c-21.77-13.75-36.56-27.3-36.66-50.69c5.25-5.25,10.02,2.96,19.19-1.81
			c-1.53,0.38-3.05-1.05-4.01-2C82.58,157.81,78,141.58,81.44,123.06c0.86-4.77,1.24-10.88,6.21-12.6c4.87-1.81,6.97,4.29,9.93,7.16
			c22.91,22.81,50.4,36.66,82,42.96c11.36,2.29,17.47,1.91,18.33-13.55c1.81-37.04,40.47-61.48,73.03-45.06
			c17.66,8.78,32.55,12.89,50.31,0.76c0.57,12.31-9.07,16.51-12.12,24.25c6.49,3.24,12.03-2.96,18.23-1.53
			C328.39,129.26,325.72,131.46,323.62,133.08z"/>
		<path class="st5" d="M151.52,312.63c-24.6,0-48.97-5.89-70.97-17.69c-1.36-0.77-2.57-1.62-4.52-2.98
			c-1.18-0.83-2.66-1.86-4.63-3.2l-7.44-5.05l8.97-0.6c26.92-1.81,46.72-5.39,65.24-17.6c-13.28-4.7-27.19-11.38-36.29-25.04
			c-2.84-4.26-5.77-9.68-3.22-13.85c1.33-2.16,3.75-3.43,7.62-3.87c-17.7-12.61-28.99-26.33-29.08-47.27l-0.01-1.29l0.91-0.91
			c3.83-3.83,7.76-2.78,10.93-1.93c0.87,0.23,1.7,0.45,2.54,0.6c-12.25-14.14-16.66-30.74-13.18-49.45l0.28-1.64
			c0.77-4.72,1.83-11.2,7.96-13.32c5.65-2.11,9.09,2.59,11.13,5.41c0.64,0.89,1.27,1.78,1.96,2.45
			c22.06,21.97,48.37,35.75,80.45,42.15c5.55,1.11,9.39,1.49,11.43-0.09c1.84-1.42,2.89-4.89,3.21-10.6
			c0.93-19.11,11.34-36.27,27.83-45.87c15.69-9.13,33.8-9.79,49.68-1.78c17.8,8.85,31.23,11.85,47.17,0.97l4.58-3.13l0.26,5.54
			c0.42,9.1-4.13,14.52-7.78,18.87c-0.95,1.13-1.87,2.23-2.67,3.34c1.29-0.13,2.71-0.58,4.44-1.15c2.86-0.96,6.12-2.05,9.72-1.21
			l1.8,0.42l0.49,1.78c1.63,5.92-2.72,9.29-4.81,10.91l-0.07,0.05c-14.55,10.59-17.38,25.74-19.37,43
			c-5.62,48.85-35.98,92.16-81.23,115.84C201.67,306.56,176.48,312.63,151.52,312.63z M82.09,288.63c0.51,0.34,0.98,0.63,1.46,0.91
			c42.45,22.74,94.23,22.55,138.43-0.59c43.43-22.73,72.57-64.24,77.95-111.07c2.15-18.72,5.29-35.2,21.83-47.26
			c1.13-0.88,1.86-1.55,2.28-2.17c-1.17,0.2-2.41,0.61-3.76,1.06c-3.48,1.15-7.81,2.61-12.56,0.24l-2.54-1.27l1.04-2.64
			c1.28-3.25,3.46-5.85,5.57-8.36c2.3-2.74,4.51-5.37,5.62-8.84c-16.05,8.4-30.48,4.75-47.88-3.91c-13.99-7.05-29.95-6.47-43.79,1.6
			c-14.67,8.55-23.93,23.82-24.77,40.84c-0.44,7.85-2.16,12.52-5.6,15.18c-4.33,3.35-10.25,2.5-16.43,1.26
			c-32.85-6.55-60.97-21.29-83.58-43.8c-0.9-0.87-1.77-2.04-2.63-3.23c-2.34-3.23-3-3.62-4.03-3.22c-2.53,0.88-3.2,3.93-3.94,8.49
			l-0.3,1.76c-3.3,17.79,1.03,32.81,13.25,45.93c0.79,0.79,1.2,1.04,1.38,1.1l25.73-6.52l-23.93,12.28c-5.75,3-10.22,1.8-13.47,0.92
			c-2.21-0.59-3.18-0.77-4.02-0.38c0.69,20.68,14.01,33.22,35.19,46.6l11.54,7.29l-13.56-1.6c-11.32-1.33-12.61,0.54-12.66,0.63
			c-0.01,0.02-0.77,1.4,3.09,7.18c8.43,12.65,21.12,18.78,38.86,24.55l5.65,1.84l-4.75,3.57
			C126.19,282.5,103.78,286.72,82.09,288.63z"/>
	</g>
</g>
</svg>
