<?xml version="1.0" encoding="utf-8"?>
<!-- Generator: Adobe Illustrator 26.5.0, SVG Export Plug-In . SVG Version: 6.00 Build 0)  -->
<svg version="1.1" id="Layer_1" xmlns="http://www.w3.org/2000/svg" xmlns:xlink="http://www.w3.org/1999/xlink" x="0px" y="0px"
	 viewBox="0 0 400 400" style="enable-background:new 0 0 400 400;" xml:space="preserve">
<style type="text/css">
	.st0{fill:#FFFFFF;}
	.st1{fill:url(#SVGID_1_);}
	.st2{fill:none;stroke:#42210B;stroke-width:5;stroke-linecap:round;stroke-linejoin:round;stroke-miterlimit:10;}
	.st3{fill:#FFFFFF;stroke:#42210B;stroke-width:5;stroke-miterlimit:10;}
	.st4{fill:#333333;}
	.st5{fill:#42210B;}
	.st6{fill:url(#SVGID_00000116232518476514253300000015151881484436009092_);}
	.st7{fill:url(#SVGID_00000109738672229611110160000012767511020805639592_);}
	.st8{fill:url(#SVGID_00000033336473682036342280000006068437743618680999_);}
	.st9{fill:#FCBF95;}
	.st10{fill:url(#SVGID_00000101099341003044324590000014791274382892527263_);}
	.st11{fill:#FF9D5A;}
	.st12{fill:#303047;}
	.st13{fill:url(#SVGID_00000003803481228942462390000014641692828337609106_);}
	.st14{fill:url(#SVGID_00000111158356622565556050000002380340154967719845_);}
	.st15{fill:url(#SVGID_00000013163837095137603340000014752301957493332352_);}
	.st16{clip-path:url(#SVGID_00000178186263936835601500000018043251926050051768_);}
	.st17{fill:#772C29;}
	.st18{fill:#F7C4A6;}
	.st19{fill:#E6A486;}
	.st20{fill:#F15A24;}
	.st21{fill:#C1272D;}
	.st22{fill:#CF7D73;}
	.st23{fill:#581C2C;}
	.st24{fill:#8B3B29;}
	.st25{clip-path:url(#SVGID_00000162349003746506379790000013284364932796404405_);}
	.st26{clip-path:url(#SVGID_00000087407567676219328370000003878197472776851357_);}
	.st27{clip-path:url(#SVGID_00000018957843626345469900000009169658528223301567_);}
	.st28{fill:#0C0C0C;}
	.st29{fill:#575757;}
	.st30{fill:#201D1E;}
	.st31{fill:#DB262D;}
	
		.st32{fill:url(#SVGID_00000003799885511913868560000002295998701900450730_);stroke:#2A6880;stroke-width:0.2596;stroke-miterlimit:10;}
	
		.st33{fill:url(#SVGID_00000079483081602107105610000001914532729013760692_);stroke:#2A6880;stroke-width:0.2596;stroke-miterlimit:10;}
	
		.st34{fill:url(#SVGID_00000129185975939105772530000009431919461425643198_);stroke:#2A6880;stroke-width:0.2596;stroke-miterlimit:10;}
	.st35{fill:#343433;}
	.st36{fill:#1C1B17;}
	.st37{fill:#4B443F;}
	.st38{fill:#B9272A;}
	.st39{fill:#264A90;}
	.st40{fill:#D41F26;}
	.st41{fill:#E66725;}
	.st42{clip-path:url(#SVGID_00000010271983958109010650000008779658410694776452_);}
	.st43{fill:#EF8C71;}
	.st44{fill:#EF8C73;}
	.st45{fill:#828080;}
	.st46{fill:none;}
	.st47{fill:none;stroke:#42210B;stroke-miterlimit:10;}
	.st48{clip-path:url(#SVGID_00000150077622967857402970000013247657186466569109_);}
	.st49{clip-path:url(#SVGID_00000031901828243601786510000007723827945880732095_);}
	.st50{fill:#FBB617;}
</style>
<g>
	<g>
		<g>
			<path class="st5" d="M200.79,19.92c47.36,0,92.07,18.63,125.9,52.45c33.87,33.87,52.8,78.95,53.3,126.95
				c0.48,47.47-17.75,92.43-51.33,126.59c-16.52,16.8-35.83,30.05-57.39,39.37c-22.33,9.65-46.08,14.63-70.58,14.8
				c-0.43,0-0.85,0-1.28,0c-47.75,0-92.69-18.6-126.55-52.39C38.96,293.89,20.19,248.88,20,200.96
				c-0.19-48.2,18.25-93.49,51.92-127.53c33.67-34.04,78.83-53.04,127.15-53.5C199.65,19.92,200.21,19.92,200.79,19.92 M200.79,9.92
				c-0.61,0-1.2,0-1.81,0.01C93.58,10.92,9.58,95.82,10,201c0.42,104.62,85.21,189.08,189.4,189.08c0.45,0,0.9,0,1.35,0
				c105.23-0.73,190.28-86.57,189.23-190.86C388.9,94.49,304.2,9.92,200.79,9.92L200.79,9.92z"/>
		</g>
	</g>
	<g>
		<path class="st5" d="M328.9,140.54c-3.72-24.22-15.05-33.4-39.64-33.98c-29.36-0.73-58.78-0.21-88.19-0.21s-58.83-0.58-88.19,0.16
			c-27.68,0.63-38.28,9.96-42.21,37.7c-5.09,35.45-4.98,71.15,0,106.65c3.62,26.01,12.69,34.61,39.06,36.86
			c59.98,5.24,119.97,4.09,179.95-0.37c24.7-1.78,35.39-10.01,39.22-34.66C334.62,215.47,334.57,177.77,328.9,140.54z
			 M173.67,231.47c0-25.17,0-47.91,0-73.36c23.31,12.05,45.6,23.59,70.72,36.58C219.54,207.61,197.6,219.03,173.67,231.47z"/>
		<path class="st5" d="M192.63,294.28c-29.11,0-56.7-1.16-83.17-3.48c-27.85-2.38-38.03-11.98-41.86-39.52
			c-5.06-36.07-5.06-72.24,0-107.52c4.13-29.13,15.96-39.69,45.2-40.36c20.43-0.51,41.22-0.38,61.32-0.27
			c17.61,0.11,35.23,0.12,52.83,0.02c20.44-0.1,41.59-0.22,62.38,0.3c26.37,0.62,38.72,11.22,42.62,36.6v0.01
			c5.73,37.7,5.73,75.75,0,113.09c-3.92,25.24-15.32,35.34-42.06,37.27C255.5,293,223.22,294.28,192.63,294.28z M147.27,109.24
			c-11.44,0-22.94,0.08-34.32,0.37c-26.33,0.6-35.5,8.78-39.22,35.04c-4.98,34.7-4.98,70.3,0,105.78
			c3.44,24.72,11.23,32.07,36.26,34.21c53.95,4.71,112.65,4.6,179.46-0.37c24.05-1.73,32.89-9.51,36.39-32.04
			c5.64-36.71,5.64-74.13,0-111.21l0,0c-3.43-22.31-13.37-30.81-36.66-31.35c-20.71-0.52-41.8-0.41-62.2-0.3
			c-17.62,0.1-35.26,0.1-52.9-0.02C165.26,109.29,156.28,109.24,147.27,109.24z M170.57,236.57v-83.54l80.54,41.65L170.57,236.57z
			 M176.76,163.19v63.18l60.9-31.68L176.76,163.19z"/>
	</g>
</g>
</svg>
