<?xml version="1.0" encoding="utf-8"?>
<!-- Generator: Adobe Illustrator 26.5.0, SVG Export Plug-In . SVG Version: 6.00 Build 0)  -->
<svg version="1.1" id="Layer_1" xmlns="http://www.w3.org/2000/svg" xmlns:xlink="http://www.w3.org/1999/xlink" x="0px" y="0px"
	 viewBox="0 0 400 400" style="enable-background:new 0 0 400 400;" xml:space="preserve">
<style type="text/css">
	.st0{fill:#FFFFFF;}
	.st1{fill:url(#SVGID_1_);}
	.st2{fill:none;stroke:#42210B;stroke-width:5;stroke-linecap:round;stroke-linejoin:round;stroke-miterlimit:10;}
	.st3{fill:#FFFFFF;stroke:#42210B;stroke-width:5;stroke-miterlimit:10;}
	.st4{fill:#333333;}
	.st5{fill:#42210B;}
	.st6{fill:url(#SVGID_00000099652143700113454310000003322823938793320334_);}
	.st7{fill:url(#SVGID_00000181087348112486969650000010484069832659309982_);}
	.st8{fill:url(#SVGID_00000050637120514567178320000015596410203899091625_);}
	.st9{fill:#FCBF95;}
	.st10{fill:url(#SVGID_00000011028594821725539730000015475771414707784347_);}
	.st11{fill:#FF9D5A;}
	.st12{fill:#303047;}
	.st13{fill:url(#SVGID_00000065069772390721182370000007397690646517516204_);}
	.st14{fill:url(#SVGID_00000162351425926547478390000010053440740237560226_);}
	.st15{fill:url(#SVGID_00000013173346150792709610000002002541708315480470_);}
	.st16{clip-path:url(#SVGID_00000154400723173189356840000009031564564834690957_);}
	.st17{fill:#772C29;}
	.st18{fill:#F7C4A6;}
	.st19{fill:#E6A486;}
	.st20{fill:#F15A24;}
	.st21{fill:#C1272D;}
	.st22{fill:#CF7D73;}
	.st23{fill:#581C2C;}
	.st24{fill:#8B3B29;}
	.st25{clip-path:url(#SVGID_00000047054576780552233920000002687563602002745735_);}
	.st26{clip-path:url(#SVGID_00000031907881358978926170000005958014603939267211_);}
	.st27{clip-path:url(#SVGID_00000147940339689596252790000014784310984365813130_);}
	.st28{fill:#0C0C0C;}
	.st29{fill:#575757;}
	.st30{fill:#201D1E;}
	.st31{fill:#DB262D;}
	
		.st32{fill:url(#SVGID_00000045604142425434903750000015296827722541531011_);stroke:#2A6880;stroke-width:0.2596;stroke-miterlimit:10;}
	
		.st33{fill:url(#SVGID_00000183244853211808152610000008970488243261417104_);stroke:#2A6880;stroke-width:0.2596;stroke-miterlimit:10;}
	
		.st34{fill:url(#SVGID_00000053511812489101184450000007288613514052825474_);stroke:#2A6880;stroke-width:0.2596;stroke-miterlimit:10;}
	.st35{fill:#343433;}
	.st36{fill:#1C1B17;}
	.st37{fill:#4B443F;}
	.st38{fill:#B9272A;}
	.st39{fill:#264A90;}
	.st40{fill:#D41F26;}
	.st41{fill:#E66725;}
	.st42{clip-path:url(#SVGID_00000070082850635570874610000002113601694476612781_);}
	.st43{fill:#EF8C71;}
	.st44{fill:#EF8C73;}
	.st45{fill:#828080;}
	.st46{fill:none;}
	.st47{fill:none;stroke:#42210B;stroke-miterlimit:10;}
	.st48{clip-path:url(#SVGID_00000003074561089351604460000007359695222791817657_);}
	.st49{clip-path:url(#SVGID_00000067925013724480528630000017927694677672513200_);}
	.st50{fill:#FBB617;}
</style>
<g>
	<g>
		<g>
			<path class="st5" d="M200.65,19.94l0.34,0c48.2,0.09,93.24,18.8,126.82,52.69c33.6,33.91,52.11,79.35,52.11,127.94
				c0,98.52-80.07,179.03-178.49,179.49c-0.33,0-0.65,0-0.98,0c-24.27,0-47.87-4.81-70.13-14.3c-21.51-9.17-40.84-22.28-57.47-38.96
				c-16.61-16.67-29.64-36.04-38.72-57.56c-9.41-22.29-14.13-45.89-14.04-70.17c0.13-47.92,18.96-92.92,53.01-126.71
				C107.16,38.55,152.46,19.94,200.65,19.94 M200.65,9.94C95.51,9.94,10.37,94.44,10.08,199.04
				C9.7,303.99,95.62,390.06,200.45,390.06c0.35,0,0.69,0,1.03,0c104.05-0.48,188.44-85.44,188.44-189.49
				C389.92,94.61,306.2,10.13,201,9.94C200.89,9.94,200.76,9.94,200.65,9.94L200.65,9.94z"/>
		</g>
	</g>
	<g>
		<path class="st5" d="M289.11,112.65c-2.39,9.45-9.07,6.78-14.7,6.97c-29.12,1.24-37.9,13.27-31.79,42.38
			c2,9.93,8.78,7.06,14.41,7.26c30.64,1.24,29.5,1.05,27.21,30.54c-1.24,16.71-11.26,15.66-21.67,14.42
			c-15.27-1.72-21,3.34-20.05,19.38c1.34,23.67,0.38,47.54,0.38,71.4c-0.1,24.15-0.1,24.15-27.21,23.77
			c-16.13,4.68-20.52-4.11-19.66-21.86c1.34-25.58-0.29-51.36,0.48-77.04c0.38-12.41-3.63-16.61-16.04-15.75
			c-7.54,0.48-19.76,4.58-22.15-3.82c-3.34-11.55-2.96-25.3-0.09-37.04c2.1-8.31,13.46-4.3,20.24-3.72
			c13.75,1.15,19.86-2.96,18.14-17.57c-1.05-8.02-0.38-16.32,0.29-24.34c2.58-29.4,22.15-48.11,51.55-49.54
			c4.96-0.28,10.02-0.1,15.08-0.1C288.64,78.38,295.32,87.93,289.11,112.65z"/>
		<path class="st5" d="M208.11,333.12c-3.59,0-6.54-0.94-8.93-2.82c-4.91-3.87-6.83-11.13-6.23-23.53
			c0.74-14.08,0.57-28.5,0.4-42.45c-0.13-11.31-0.27-23.01,0.07-34.52c0.17-5.53-0.58-8.9-2.37-10.63
			c-1.76-1.7-5.06-2.31-10.36-1.95c-1.52,0.1-3.22,0.35-4.99,0.6c-7.06,1.03-17.72,2.58-20.34-6.66
			c-3.29-11.37-3.34-25.45-0.13-38.62c2.39-9.42,12.53-7.77,19.24-6.67c1.52,0.25,2.98,0.49,4.26,0.6
			c6.55,0.53,10.76-0.23,12.85-2.39c2-2.07,2.64-5.9,1.95-11.73c-1.1-8.4-0.37-17.2,0.28-24.96c2.7-30.81,23.57-50.87,54.48-52.37
			c3.61-0.22,7.29-0.17,10.98-0.14l4.25,0.03c13.66,0.21,22.16,3.11,26.78,9.14c4.78,6.23,5.34,15.28,1.8,29.37l0,0
			c-2.56,10.14-9.8,9.68-14.6,9.41c-1.02-0.07-2.02-0.13-3-0.1c-13.64,0.58-22.08,3.51-26.53,9.24c-4.57,5.88-5.31,15.23-2.33,29.42
			c1.09,5.37,3.06,5.25,7.83,4.91c1.23-0.08,2.47-0.15,3.66-0.12c16.59,0.67,23.95,0.97,28.09,5.63c3.98,4.48,3.43,11.39,2.34,25.15
			l-0.24,3.1c-0.51,6.9-2.48,11.67-6.02,14.59c-5.24,4.32-12.61,3.43-19.1,2.66c-6.88-0.77-11.22-0.07-13.62,2.21
			c-2.42,2.3-3.39,6.85-2.97,13.92c0.95,16.82,0.75,33.96,0.55,50.55c-0.08,7.01-0.17,14.02-0.17,21.04
			c-0.05,12.7-0.07,19.07-4.11,23.03c-4.18,4.1-10.97,4.06-25.78,3.84C213.15,332.71,210.49,333.12,208.11,333.12z M183.41,210.92
			c5.51,0,9.26,1.2,11.93,3.78c3.18,3.06,4.5,7.77,4.27,15.28c-0.34,11.39-0.2,23.02-0.07,34.26c0.16,14.05,0.34,28.57-0.41,42.84
			c-0.48,9.91,0.79,15.92,3.89,18.36c2.33,1.84,6.31,1.96,11.83,0.36l0.44-0.13l0.46,0.01c12.53,0.17,19.43,0.28,21.81-2.07
			c2.19-2.15,2.22-8.35,2.26-18.62c0-7.02,0.08-14.07,0.17-21.1c0.19-16.48,0.4-33.52-0.54-50.12c-0.54-9.12,1.01-15.08,4.89-18.77
			c3.83-3.63,9.75-4.84,18.58-3.86c5.56,0.67,11.26,1.34,14.45-1.29c2.14-1.76,3.41-5.22,3.79-10.28l0.24-3.12
			c0.89-11.25,1.43-18.04-0.8-20.55c-2.39-2.69-9.8-2.99-23.25-3.54c-1.39-0.03-2.42,0.02-3.45,0.1
			c-4.55,0.29-12.16,0.82-14.31-9.85c-3.37-16.08-2.26-27.04,3.51-34.46c5.65-7.27,15.55-10.97,31.18-11.63
			c1.21-0.02,2.41,0.04,3.62,0.11c4.75,0.29,6.91,0.42,8.21-4.74c2.99-11.91,2.76-19.57-0.71-24.09c-3.38-4.4-10.35-6.54-21.92-6.72
			l-4.26-0.03c-3.55-0.03-7.09-0.07-10.59,0.13c-28.03,1.36-46.2,18.82-48.65,46.72c-0.65,7.8-1.32,15.89-0.3,23.67
			c0.92,7.83-0.27,13.31-3.65,16.8c-3.51,3.63-9.16,4.99-17.82,4.26c-1.43-0.12-3.05-0.38-4.74-0.65
			c-7.78-1.28-11.39-1.28-12.24,2.06c-2.96,12.12-2.93,25.04,0.07,35.42c0.98,3.45,4.96,3.48,13.5,2.24
			c1.95-0.28,3.82-0.55,5.47-0.66C181.38,210.96,182.43,210.92,183.41,210.92z"/>
	</g>
</g>
</svg>
