<?xml version="1.0" encoding="utf-8"?>
<!-- Generator: Adobe Illustrator 26.5.0, SVG Export Plug-In . SVG Version: 6.00 Build 0)  -->
<svg version="1.1" id="Layer_1" xmlns="http://www.w3.org/2000/svg" xmlns:xlink="http://www.w3.org/1999/xlink" x="0px" y="0px"
	 viewBox="0 0 400 400" style="enable-background:new 0 0 400 400;" xml:space="preserve">
<style type="text/css">
	.st0{fill:#FFFFFF;}
	.st1{fill:url(#SVGID_1_);}
	.st2{fill:none;stroke:#42210B;stroke-width:5;stroke-linecap:round;stroke-linejoin:round;stroke-miterlimit:10;}
	.st3{fill:#FFFFFF;stroke:#42210B;stroke-width:5;stroke-miterlimit:10;}
	.st4{fill:#333333;}
	.st5{fill:#42210B;}
	.st6{fill:url(#SVGID_00000053533767867756425530000001944803075670111881_);}
	.st7{fill:url(#SVGID_00000183236895475210223430000007641695584042462083_);}
	.st8{fill:url(#SVGID_00000102511556706494418900000001034945657737083542_);}
	.st9{fill:#FCBF95;}
	.st10{fill:url(#SVGID_00000062890300021754768020000015778455611821868438_);}
	.st11{fill:#FF9D5A;}
	.st12{fill:#303047;}
	.st13{fill:url(#SVGID_00000049203457253211971710000006361179204661440141_);}
	.st14{fill:url(#SVGID_00000173852369578718560130000012088226381854690742_);}
	.st15{fill:url(#SVGID_00000055681135591320877080000011328079353871629210_);}
	.st16{clip-path:url(#SVGID_00000109710259005475817170000009516228962268397451_);}
	.st17{fill:#772C29;}
	.st18{fill:#F7C4A6;}
	.st19{fill:#E6A486;}
	.st20{fill:#F15A24;}
	.st21{fill:#C1272D;}
	.st22{fill:#CF7D73;}
	.st23{fill:#581C2C;}
	.st24{fill:#8B3B29;}
	.st25{clip-path:url(#SVGID_00000092446289089423946660000002990674000882159547_);}
	.st26{clip-path:url(#SVGID_00000021829908057189859100000004827863969709786499_);}
	.st27{clip-path:url(#SVGID_00000165946861045450450200000013941668986989301935_);}
	.st28{fill:#0C0C0C;}
	.st29{fill:#575757;}
	.st30{fill:#201D1E;}
	.st31{fill:#DB262D;}
	
		.st32{fill:url(#SVGID_00000098191739235591971910000005950506362510379963_);stroke:#2A6880;stroke-width:0.2596;stroke-miterlimit:10;}
	
		.st33{fill:url(#SVGID_00000139995328522241383060000003586910898262875296_);stroke:#2A6880;stroke-width:0.2596;stroke-miterlimit:10;}
	
		.st34{fill:url(#SVGID_00000177458295999820994570000012974965091587212477_);stroke:#2A6880;stroke-width:0.2596;stroke-miterlimit:10;}
	.st35{fill:#343433;}
	.st36{fill:#1C1B17;}
	.st37{fill:#4B443F;}
	.st38{fill:#B9272A;}
	.st39{fill:#264A90;}
	.st40{fill:#D41F26;}
	.st41{fill:#E66725;}
	.st42{clip-path:url(#SVGID_00000075884746289413310190000002634923977237474454_);}
	.st43{fill:#EF8C71;}
	.st44{fill:#EF8C73;}
	.st45{fill:#828080;}
	.st46{fill:none;}
	.st47{fill:none;stroke:#42210B;stroke-miterlimit:10;}
	.st48{clip-path:url(#SVGID_00000005254694597999333630000017217078034864367007_);}
	.st49{clip-path:url(#SVGID_00000090287500681650636710000017972843336617021317_);}
	.st50{fill:#FBB617;}
</style>
<g>
	<g>
		<g>
			<path class="st5" d="M201.17,19.79c23.77,0,46.96,4.77,68.91,14.18c21.22,9.09,40.34,22.09,56.85,38.62
				c16.52,16.55,29.52,35.75,38.66,57.08c9.46,22.09,14.3,45.46,14.39,69.46c0.17,48.12-18.37,93.45-52.22,127.65
				c-33.85,34.19-78.96,53.17-127.02,53.43l-0.83,0c-47.9,0-92.99-18.63-126.95-52.46c-33.98-33.84-52.77-78.87-52.9-126.78
				c-0.13-48.28,18.29-93.6,51.87-127.6c33.6-34.02,78.76-53.05,127.16-53.58C199.77,19.79,200.47,19.79,201.17,19.79 M201.17,9.79
				c-0.74,0-1.48,0-2.22,0.01C93.37,10.95,9.75,95.72,10.03,201.01c0.29,104.62,85.34,189.21,189.85,189.21c0.29,0,0.58,0,0.88,0
				c104.91-0.57,189.58-86.11,189.2-191.11C389.59,95.32,304.04,9.79,201.17,9.79L201.17,9.79z"/>
		</g>
	</g>
	<g>
		<path class="st5" d="M303.96,275.94c0.48,11.55-3.15,15.37-14.8,14.99c-38.09-1.15-29.69,4.1-30.74-30.55
			c-0.38-13.75,0.67-27.59-0.67-41.33c-1.24-13.55-7.64-24.44-23.77-23.2c-15.27,1.15-21.29,11.07-21.19,25.68
			c0.19,18.14-0.38,36.37,0.29,54.51c0.38,10.31-2.67,15.27-13.65,13.94c-5.63-0.67-11.36-0.67-16.9,0
			c-12.12,1.43-14.89-4.4-14.41-15.27c0.76-16.23,0.19-32.55,0.19-48.88c0.1-15.66,0.95-31.31-0.19-46.87
			c-1.05-13.75,4.58-18.99,16.99-15.84c9.64,2.48,24.82-9.45,28.64,10.69c0.86,4.77,4.58-0.19,6.78-1.43
			c44.48-25.2,82.29-3.72,83.05,47.25C303.76,238.43,303,257.23,303.96,275.94z"/>
		<path class="st5" d="M290.62,294.05c-0.51,0-1.03-0.01-1.57-0.02c-4.91-0.15-9.05-0.19-12.53-0.22
			c-10.78-0.11-15.7-0.16-18.73-3.29c-2.8-2.9-2.7-7.17-2.51-14.91c0.1-3.95,0.22-8.87,0.03-15.12c-0.14-5.2-0.08-10.41-0.03-15.61
			c0.1-8.4,0.19-17.09-0.63-25.52c-1.33-14.49-8.17-21.32-20.45-20.42c-12.43,0.94-18.43,8.32-18.33,22.58
			c0.07,6.91,0.03,13.84,0,20.78c-0.06,11.04-0.12,22.47,0.29,33.63c0.16,4.36-0.09,10.58-4.09,14.27
			c-2.87,2.64-7.13,3.6-13.03,2.87c-5.41-0.64-10.84-0.64-16.15,0c-6.2,0.73-10.69-0.27-13.68-3.05c-4.15-3.86-4.42-10.28-4.2-15.43
			c0.53-11.28,0.41-22.84,0.29-34.02c-0.05-4.91-0.1-9.82-0.1-14.73c0.03-4.37,0.11-8.72,0.2-13.06
			c0.21-11.04,0.44-22.47-0.38-33.58c-0.63-8.25,0.96-13.85,4.86-17.14c3.63-3.05,9.01-3.71,15.98-1.93
			c2.35,0.61,5.44,0.07,8.73-0.51c7.32-1.26,18.23-3.16,21.84,12c0.08-0.07,0.16-0.13,0.23-0.19c0.83-0.7,1.64-1.35,2.32-1.73
			c22.57-12.78,44.27-14.51,61.1-4.87c16.75,9.6,26.19,29.05,26.58,54.77c0.07,6.75,0.02,13.47-0.04,20.2
			c-0.09,11.83-0.19,24.06,0.42,36.01v0.03c0.29,6.96-0.88,11.38-3.77,14.3C300.6,292.82,296.66,294.05,290.62,294.05z
			 M236.46,192.66c14.21,0,22.83,9.18,24.38,26.11c0.85,8.75,0.75,17.6,0.65,26.17c-0.06,5.13-0.11,10.25,0.03,15.37
			c0.19,6.41,0.07,11.42-0.03,15.45c-0.14,5.47-0.23,9.42,0.77,10.46c1.23,1.27,6.73,1.32,14.34,1.4c3.52,0.04,7.7,0.07,12.66,0.22
			c5,0.21,8.06-0.5,9.62-2.07c1.56-1.58,2.19-4.65,1.99-9.68c-0.62-12.12-0.52-24.45-0.43-36.36c0.05-6.69,0.11-13.38,0.04-20.07
			c-0.35-23.44-8.68-41.01-23.46-49.48c-14.86-8.51-34.38-6.78-54.97,4.88c-0.41,0.24-0.88,0.66-1.39,1.09
			c-1.85,1.56-4.16,3.51-6.85,2.53c-1.14-0.41-2.61-1.49-3.12-4.33c-2.07-10.91-6.95-10.05-15.04-8.64
			c-3.77,0.65-7.69,1.34-11.32,0.4c-4.91-1.25-8.44-1.02-10.46,0.68c-2.78,2.34-2.99,7.78-2.67,11.93
			c0.84,11.41,0.61,22.98,0.39,34.17c-0.08,4.32-0.17,8.64-0.19,12.96c0,4.87,0.05,9.76,0.1,14.65c0.12,11.26,0.24,22.91-0.3,34.36
			c-0.24,5.6,0.46,8.98,2.23,10.62c1.56,1.45,4.49,1.91,8.73,1.44c5.79-0.71,11.73-0.71,17.63,0c3.94,0.46,6.66,0.05,8.1-1.28
			c1.59-1.46,2.28-4.57,2.09-9.48c-0.42-11.3-0.35-22.79-0.29-33.89c0.04-6.9,0.08-13.81,0-20.7c-0.12-17.65,8.2-27.6,24.06-28.8
			C234.68,192.69,235.58,192.66,236.46,192.66z"/>
	</g>
	<g>
		<path class="st5" d="M145.68,126.45c-1.34,14.32-10.69,19.95-24.25,20.71c-13.17-1.24-22.15-7.63-23.2-21.66
			c-0.95-12.79,10.21-22.72,24.15-22.43C136.33,103.35,146.83,113.57,145.68,126.45z"/>
		<path class="st5" d="M121.61,150.25c-16.38-1.51-25.36-9.98-26.46-24.52c-0.48-6.47,1.73-12.66,6.25-17.42
			c5.18-5.47,12.82-8.59,21.05-8.34c8.04,0.16,15.47,3.4,20.4,8.89c4.4,4.91,6.5,11.26,5.91,17.86v0.02
			C147.4,141.4,138.26,149.32,121.61,150.25z M121.8,106.16c-6.25,0-12.03,2.32-15.91,6.41c-3.3,3.48-4.92,7.99-4.57,12.7
			c0.86,11.45,7.53,17.6,20.4,18.81c13.02-0.77,19.8-6.45,20.87-17.91c0.43-4.88-1.12-9.56-4.36-13.17
			c-3.78-4.22-9.58-6.71-15.91-6.84C122.15,106.16,121.98,106.16,121.8,106.16z"/>
	</g>
	<g>
		<path class="st5" d="M143.11,278.62c0.48,16.51-11.55,11.36-19.57,11.36c-8.02-0.1-19.76,5.15-19.47-11.46
			c0.57-34.37,0.48-68.73-0.1-103.09c-0.29-16.51,11.36-11.55,19.57-11.65c8.21,0,20.05-4.58,19.47,11.74
			c-0.57,17.47-0.1,34.94-0.1,52.5c0,0,0,0,0.1,0C143.01,244.82,142.63,261.72,143.11,278.62z"/>
		<path class="st5" d="M133.64,293.84c-1.88,0-3.78-0.21-5.6-0.41c-1.65-0.19-3.19-0.32-4.73-0.35c-1.41,0-2.91,0.17-4.42,0.33
			c-4.74,0.51-10.11,1.09-13.97-2.44c-2.76-2.53-4.06-6.61-3.96-12.5c0.54-32.79,0.51-66.47-0.1-102.99
			c-0.1-5.88,1.19-9.97,3.95-12.52c3.86-3.56,9.3-3.04,14.1-2.57c1.57,0.15,3.14,0.28,4.58,0.29c1.4,0,2.87-0.14,4.36-0.28
			c4.95-0.45,10.57-0.97,14.48,2.73c2.74,2.59,3.97,6.67,3.76,12.5c-0.39,11.94-0.29,24.13-0.19,35.92
			c0.04,4.46,0.08,8.91,0.09,13.37h0.01l0.1,3.09c0,5.17-0.04,10.34-0.07,15.52c-0.08,11.47-0.16,23.33,0.17,34.99
			c0.17,5.83-1.09,9.9-3.85,12.45C139.9,293.24,136.81,293.84,133.64,293.84z M123.58,286.89c1.58,0,3.34,0.19,5.14,0.39
			c3.74,0.41,7.6,0.83,9.44-0.85c1.67-1.54,1.93-5.05,1.85-7.72v-0.01c-0.33-11.76-0.25-23.68-0.17-35.21
			c0.03-4.17,0.06-8.34,0.07-12.5l-0.09-2.97c0-5.48-0.05-10.95-0.09-16.41c-0.1-11.85-0.2-24.11,0.19-36.19
			c0.14-3.89-0.48-6.52-1.83-7.79c-1.88-1.78-5.83-1.41-9.66-1.06c-1.78,0.17-3.46,0.31-5.15,0.3c-1.55,0-3.24-0.16-4.95-0.32
			c-3.67-0.36-7.48-0.73-9.3,0.96c-1.37,1.26-2.03,3.9-1.96,7.86c0.61,36.58,0.64,70.34,0.1,103.2c-0.05,2.71,0.25,6.28,1.94,7.83
			c1.79,1.64,5.52,1.23,9.13,0.85C120.08,287.05,121.94,286.93,123.58,286.89L123.58,286.89z"/>
	</g>
</g>
</svg>
