<?xml version="1.0" encoding="utf-8"?>
<!-- Generator: Adobe Illustrator 26.5.0, SVG Export Plug-In . SVG Version: 6.00 Build 0)  -->
<svg version="1.1" id="Layer_1" xmlns="http://www.w3.org/2000/svg" xmlns:xlink="http://www.w3.org/1999/xlink" x="0px" y="0px"
	 viewBox="0 0 400 400" style="enable-background:new 0 0 400 400;" xml:space="preserve">
<style type="text/css">
	.st0{fill:#FFFFFF;}
	.st1{fill:url(#SVGID_1_);}
	.st2{fill:none;stroke:#42210B;stroke-width:5;stroke-linecap:round;stroke-linejoin:round;stroke-miterlimit:10;}
	.st3{fill:#FFFFFF;stroke:#42210B;stroke-width:5;stroke-miterlimit:10;}
	.st4{fill:#333333;}
	.st5{fill:#42210B;}
	.st6{fill:url(#SVGID_00000176748466771465419030000009196798615692799400_);}
	.st7{fill:url(#SVGID_00000036222069362625671420000005214017724457303444_);}
	.st8{fill:url(#SVGID_00000119816888696400597690000016656460020813994678_);}
	.st9{fill:#FCBF95;}
	.st10{fill:url(#SVGID_00000157308368292614577260000010925567702287007118_);}
	.st11{fill:#FF9D5A;}
	.st12{fill:#303047;}
	.st13{fill:url(#SVGID_00000077292004895097269460000000944193850873156283_);}
	.st14{fill:url(#SVGID_00000043447562180170962400000007112043297019272614_);}
	.st15{fill:url(#SVGID_00000120528557069644468920000005946174893036234388_);}
	.st16{clip-path:url(#SVGID_00000109749380225286948600000004424039890088763784_);}
	.st17{fill:#772C29;}
	.st18{fill:#F7C4A6;}
	.st19{fill:#E6A486;}
	.st20{fill:#F15A24;}
	.st21{fill:#C1272D;}
	.st22{fill:#CF7D73;}
	.st23{fill:#581C2C;}
	.st24{fill:#8B3B29;}
	.st25{clip-path:url(#SVGID_00000034059692307838536100000015528456143468607139_);}
	.st26{clip-path:url(#SVGID_00000120540177818558940970000001271108252598633121_);}
	.st27{clip-path:url(#SVGID_00000028324495934457373560000009574446757133545399_);}
	.st28{fill:#0C0C0C;}
	.st29{fill:#575757;}
	.st30{fill:#201D1E;}
	.st31{fill:#DB262D;}
	
		.st32{fill:url(#SVGID_00000139988166669243649220000004780862767777243558_);stroke:#2A6880;stroke-width:0.2596;stroke-miterlimit:10;}
	
		.st33{fill:url(#SVGID_00000065775139638946614240000004881327265866488455_);stroke:#2A6880;stroke-width:0.2596;stroke-miterlimit:10;}
	
		.st34{fill:url(#SVGID_00000012448282755229003980000016386029061042118564_);stroke:#2A6880;stroke-width:0.2596;stroke-miterlimit:10;}
	.st35{fill:#343433;}
	.st36{fill:#1C1B17;}
	.st37{fill:#4B443F;}
	.st38{fill:#B9272A;}
	.st39{fill:#264A90;}
	.st40{fill:#D41F26;}
	.st41{fill:#E66725;}
	.st42{clip-path:url(#SVGID_00000166676811282767219940000007855413328897348281_);}
	.st43{fill:#EF8C71;}
	.st44{fill:#EF8C73;}
	.st45{fill:#828080;}
	.st46{fill:none;}
	.st47{fill:none;stroke:#42210B;stroke-miterlimit:10;}
	.st48{clip-path:url(#SVGID_00000027600222563980240190000018061741287866387588_);}
	.st49{clip-path:url(#SVGID_00000034048280951336063200000012370216391600811663_);}
	.st50{fill:#FBB617;}
</style>
<g>
	<path class="st3" d="M327.69,298.84H72.31c-34.42,0-62.31-27.9-62.31-62.31v-73.06c0-34.42,27.9-62.31,62.31-62.31h255.37
		c34.42,0,62.31,27.9,62.31,62.31v73.06C390,270.94,362.1,298.84,327.69,298.84z"/>
	<g>
		<g>
			<path d="M136.53,243.02c0-0.46,0.09-0.9,0.26-1.31c0.18-0.41,0.41-0.77,0.71-1.07c0.3-0.3,0.66-0.54,1.06-0.72
				c0.41-0.18,0.84-0.26,1.31-0.26s0.9,0.09,1.31,0.26c0.41,0.18,0.76,0.42,1.07,0.72c0.3,0.3,0.54,0.66,0.72,1.07
				c0.18,0.41,0.26,0.84,0.26,1.31s-0.09,0.9-0.26,1.31c-0.18,0.41-0.42,0.76-0.72,1.07c-0.3,0.3-0.66,0.54-1.07,0.72
				c-0.41,0.18-0.84,0.26-1.31,0.26s-0.9-0.09-1.31-0.26c-0.41-0.18-0.76-0.41-1.06-0.72c-0.3-0.3-0.54-0.66-0.71-1.07
				c-0.18-0.41-0.26-0.84-0.26-1.31V243.02z M137.6,243.01c0,0.31,0.06,0.61,0.18,0.88c0.12,0.28,0.28,0.52,0.49,0.73
				c0.21,0.21,0.45,0.37,0.72,0.49c0.28,0.12,0.57,0.18,0.88,0.18c0.32,0,0.61-0.06,0.89-0.18c0.27-0.12,0.52-0.28,0.72-0.49
				c0.21-0.21,0.37-0.45,0.49-0.73c0.12-0.28,0.18-0.57,0.18-0.88c0-0.32-0.06-0.61-0.18-0.89c-0.12-0.27-0.28-0.52-0.49-0.72
				c-0.21-0.21-0.45-0.37-0.72-0.49c-0.27-0.12-0.57-0.18-0.89-0.18c-0.31,0-0.61,0.06-0.88,0.18c-0.28,0.12-0.52,0.28-0.72,0.49
				c-0.21,0.21-0.37,0.45-0.49,0.72C137.66,242.4,137.6,242.69,137.6,243.01z"/>
			<path d="M144.56,239.8h1.31l1.52,2.11l1.51-2.11h1.31l-2.21,3.12l2.34,3.32h-1.31l-1.64-2.32l-1.65,2.32h-1.31l2.34-3.32
				L144.56,239.8z"/>
			<path d="M152.99,239.8l1.51,2.12l1.52-2.12h1.31l-2.29,3.22v3.22h-1.07v-3.22l-2.28-3.22H152.99z"/>
			<path d="M164.01,245.62c-0.17,0.14-0.36,0.26-0.58,0.38c-0.19,0.09-0.41,0.18-0.67,0.25c-0.26,0.08-0.55,0.11-0.86,0.11
				c-0.46,0-0.9-0.09-1.31-0.26c-0.41-0.18-0.76-0.41-1.06-0.72c-0.3-0.3-0.54-0.66-0.71-1.07c-0.18-0.41-0.26-0.84-0.26-1.31
				s0.09-0.9,0.26-1.31c0.18-0.41,0.41-0.76,0.71-1.07c0.3-0.3,0.66-0.54,1.06-0.72c0.41-0.18,0.84-0.26,1.31-0.26
				c0.3,0,0.58,0.03,0.84,0.1s0.49,0.15,0.69,0.26c0.21,0.11,0.39,0.23,0.56,0.37c0.16,0.14,0.3,0.28,0.42,0.42
				c0.28,0.34,0.51,0.72,0.67,1.14h-1.16c-0.13-0.22-0.28-0.43-0.48-0.61c-0.17-0.15-0.37-0.29-0.63-0.42
				c-0.25-0.13-0.56-0.19-0.91-0.19c-0.32,0-0.61,0.06-0.89,0.18c-0.27,0.12-0.51,0.28-0.72,0.49c-0.21,0.21-0.37,0.45-0.49,0.72
				c-0.12,0.27-0.18,0.57-0.18,0.89c0,0.32,0.06,0.61,0.18,0.89c0.12,0.27,0.28,0.52,0.49,0.72c0.2,0.21,0.44,0.37,0.72,0.49
				c0.27,0.12,0.57,0.18,0.89,0.18c0.22,0,0.43-0.02,0.61-0.07c0.18-0.05,0.35-0.12,0.49-0.2c0.15-0.08,0.27-0.18,0.39-0.28
				c0.11-0.1,0.21-0.21,0.29-0.32c0.19-0.26,0.34-0.55,0.44-0.87h-2.21v-1.07h3.18v3.75h-1.07V245.62z"/>
			<path d="M166.23,239.8h4.79v1.07h-3.72v1.61h2.68v1.07h-2.68v1.61h3.72v1.07h-4.79V239.8z"/>
			<path d="M172.45,239.8h0.96l3.59,4.54v-4.54h1.07v6.43h-0.97l-3.58-4.55v4.55h-1.07V239.8z"/>
			<path d="M185.27,239.8h1.07v5.36h2.98v1.07h-4.05V239.8z"/>
			<path d="M192.73,239.8h1.07l2.27,6.43h-1.2l-0.39-1.07h-2.44l-0.39,1.07h-1.21L192.73,239.8z M192.42,244.08h1.69l-0.84-2.34
				L192.42,244.08z"/>
			<path d="M200.71,241.6c0-0.21-0.07-0.38-0.2-0.5s-0.28-0.2-0.44-0.26c-0.18-0.07-0.4-0.11-0.64-0.12
				c-0.24,0.01-0.45,0.05-0.64,0.12c-0.16,0.05-0.3,0.14-0.44,0.26c-0.13,0.12-0.2,0.28-0.2,0.5c0,0.22,0.07,0.39,0.2,0.51
				c0.13,0.12,0.28,0.21,0.44,0.26c0.19,0.07,0.4,0.1,0.64,0.11c0.31,0,0.58,0.03,0.82,0.08c0.23,0.06,0.44,0.13,0.62,0.22
				c0.18,0.09,0.32,0.19,0.44,0.31c0.12,0.12,0.22,0.24,0.3,0.36c0.18,0.28,0.28,0.61,0.31,0.97c-0.03,0.36-0.13,0.69-0.31,0.97
				c-0.08,0.12-0.18,0.24-0.3,0.36c-0.12,0.12-0.27,0.22-0.44,0.31c-0.18,0.09-0.38,0.16-0.62,0.22c-0.24,0.06-0.51,0.08-0.82,0.08
				c-0.31,0-0.58-0.03-0.82-0.08c-0.24-0.06-0.44-0.13-0.62-0.22c-0.18-0.09-0.32-0.19-0.44-0.31c-0.12-0.12-0.22-0.24-0.3-0.36
				c-0.18-0.28-0.28-0.61-0.31-0.97h1.07c0,0.23,0.07,0.41,0.22,0.53c0.15,0.12,0.31,0.2,0.49,0.26c0.2,0.06,0.44,0.09,0.7,0.09
				c0.26,0,0.49-0.03,0.71-0.09c0.17-0.05,0.33-0.13,0.48-0.25c0.15-0.12,0.22-0.3,0.22-0.53c0-0.22-0.07-0.4-0.22-0.52
				c-0.15-0.12-0.31-0.2-0.48-0.26c-0.21-0.06-0.45-0.09-0.71-0.1c-0.29,0-0.55-0.03-0.77-0.08c-0.23-0.06-0.42-0.13-0.59-0.22
				c-0.17-0.09-0.3-0.19-0.42-0.31c-0.11-0.12-0.2-0.24-0.28-0.36c-0.17-0.28-0.27-0.61-0.29-0.97c0.02-0.36,0.12-0.69,0.29-0.97
				c0.07-0.12,0.17-0.24,0.28-0.36c0.11-0.12,0.25-0.22,0.42-0.31c0.17-0.09,0.36-0.16,0.59-0.22c0.22-0.06,0.48-0.08,0.77-0.08
				s0.55,0.03,0.77,0.08c0.22,0.06,0.42,0.13,0.58,0.22c0.17,0.09,0.3,0.19,0.42,0.31c0.11,0.12,0.2,0.24,0.28,0.36
				c0.17,0.28,0.27,0.61,0.3,0.97H200.71z"/>
			<path d="M203.04,239.8h4.79v1.07h-3.72v1.61h2.68v1.07h-2.68v1.61h3.72v1.07h-4.79V239.8z"/>
			<path d="M209,239.8h2.14c0.4,0.02,0.75,0.11,1.07,0.27c0.13,0.07,0.26,0.15,0.39,0.25c0.13,0.1,0.24,0.23,0.34,0.38
				c0.1,0.15,0.18,0.33,0.24,0.54c0.06,0.21,0.09,0.44,0.09,0.71c0.01,0.26-0.02,0.51-0.1,0.75c-0.07,0.21-0.19,0.43-0.36,0.65
				c-0.17,0.22-0.43,0.41-0.77,0.55l1.77,2.33h-1.34l-1.61-2.14h-0.8v2.14H209V239.8z M210.07,243.01h1.07
				c0.2-0.01,0.38-0.05,0.54-0.13c0.13-0.07,0.25-0.17,0.37-0.32c0.11-0.15,0.17-0.35,0.17-0.62c0-0.27-0.06-0.48-0.17-0.62
				c-0.11-0.14-0.23-0.24-0.37-0.32c-0.16-0.07-0.34-0.12-0.54-0.14h-1.07V243.01z"/>
			<path d="M222.63,240.87h-1.86v-1.07h4.79v1.07h-1.87v5.36h-1.07V240.87z"/>
			<path d="M227,239.8h1.07v2.68h2.98v-2.68h1.07v6.43h-1.07v-2.68h-2.98v2.68H227V239.8z"/>
			<path d="M233.51,239.8h4.79v1.07h-3.72v1.61h2.68v1.07h-2.68v1.61h3.72v1.07h-4.79V239.8z"/>
			<path d="M239.46,239.8h2.14c0.4,0.02,0.75,0.11,1.07,0.27c0.13,0.07,0.26,0.15,0.39,0.25c0.13,0.1,0.24,0.23,0.34,0.38
				c0.1,0.15,0.18,0.33,0.24,0.54c0.06,0.21,0.09,0.44,0.09,0.71c0.01,0.26-0.02,0.51-0.1,0.75c-0.07,0.21-0.19,0.43-0.36,0.65
				c-0.17,0.22-0.43,0.41-0.77,0.55l1.77,2.33h-1.34l-1.61-2.14h-0.8v2.14h-1.07V239.8z M240.54,243.01h1.07
				c0.2-0.01,0.38-0.05,0.54-0.13c0.13-0.07,0.25-0.17,0.37-0.32c0.11-0.15,0.17-0.35,0.17-0.62c0-0.27-0.06-0.48-0.17-0.62
				c-0.11-0.14-0.23-0.24-0.37-0.32c-0.16-0.07-0.34-0.12-0.54-0.14h-1.07V243.01z"/>
			<path d="M247.5,239.8h1.07l2.27,6.43h-1.2l-0.39-1.07h-2.44l-0.39,1.07h-1.21L247.5,239.8z M247.19,244.08h1.69l-0.84-2.34
				L247.19,244.08z"/>
			<path d="M252.03,239.8h2.14c0.4,0.02,0.75,0.11,1.07,0.27c0.13,0.07,0.26,0.15,0.39,0.25c0.13,0.1,0.24,0.23,0.34,0.38
				c0.1,0.15,0.18,0.33,0.24,0.54c0.06,0.21,0.09,0.44,0.09,0.71c0,0.27-0.03,0.51-0.09,0.71c-0.06,0.2-0.14,0.38-0.24,0.53
				c-0.1,0.15-0.21,0.28-0.34,0.38c-0.13,0.1-0.26,0.19-0.39,0.25c-0.32,0.16-0.67,0.25-1.07,0.27h-1.07v2.14h-1.07V239.8z
				 M253.1,243.01h1.07c0.2-0.01,0.38-0.05,0.54-0.13c0.13-0.07,0.25-0.17,0.37-0.32c0.11-0.15,0.17-0.35,0.17-0.62
				c0-0.27-0.06-0.48-0.17-0.62c-0.11-0.14-0.23-0.24-0.37-0.32c-0.16-0.07-0.34-0.12-0.54-0.14h-1.07V243.01z"/>
			<path d="M259.13,239.8l1.51,2.12l1.52-2.12h1.31l-2.29,3.22v3.22h-1.07v-3.22l-2.28-3.22H259.13z"/>
		</g>
		<g>
			<path d="M184.05,184.34h8.43v42.17h23.43v8.43h-31.86V184.34z"/>
			<path d="M251.8,192.78h-14.6v-8.43h37.72v8.43h-14.68v42.17h-8.43V192.78z"/>
			<g>
				<path d="M125.09,209.72c0-3.64,0.69-7.08,2.07-10.31c1.38-3.23,3.25-6.04,5.62-8.43c2.37-2.39,5.15-4.28,8.36-5.66
					c3.2-1.38,6.62-2.07,10.27-2.07c3.64,0,7.07,0.69,10.27,2.07c3.2,1.38,6,3.27,8.39,5.66c2.39,2.4,4.28,5.19,5.66,8.4
					c1.38,3.2,2.07,6.63,2.07,10.27c0,3.64-0.69,7.07-2.07,10.27c-1.38,3.2-3.27,6-5.66,8.4c-2.39,2.39-5.19,4.28-8.39,5.66
					c-3.2,1.38-6.63,2.07-10.27,2.07c-3.65,0-7.07-0.69-10.27-2.07c-3.2-1.38-5.99-3.27-8.36-5.66c-2.37-2.39-4.24-5.19-5.62-8.4
					c-1.38-3.2-2.07-6.62-2.07-10.27V209.72z M133.52,209.65c0,2.45,0.47,4.76,1.41,6.95c0.94,2.19,2.21,4.1,3.83,5.74
					c1.61,1.64,3.51,2.93,5.7,3.87c2.19,0.94,4.5,1.41,6.95,1.41c2.5,0,4.83-0.47,6.99-1.41c2.16-0.94,4.06-2.23,5.7-3.87
					c1.64-1.64,2.93-3.55,3.86-5.74c0.94-2.19,1.41-4.5,1.41-6.95c0-2.5-0.47-4.83-1.41-6.99c-0.94-2.16-2.23-4.06-3.86-5.7
					c-1.64-1.64-3.54-2.93-5.7-3.87c-2.16-0.94-4.49-1.41-6.99-1.41c-2.45,0-4.76,0.47-6.95,1.41c-2.19,0.94-4.09,2.23-5.7,3.87
					c-1.61,1.64-2.89,3.54-3.83,5.7C133.99,204.82,133.52,207.15,133.52,209.65z"/>
			</g>
			<g>
				<path d="M231.47,222.19c-1,0-1.93,0.01-2.85-0.02c-0.12,0-0.33-0.26-0.33-0.39c0.01-2,0.01-4,0.09-6
					c0.03-0.62-0.07-0.96-0.68-1.23c-1.89-0.84-3.49-2.1-4.98-3.66c0.76-0.72,1.5-1.41,2.18-2.06c1.35,1.01,2.66,1.98,4,2.97
					c1.46-2.87,3.01-5.53,3.53-8.58c0.35-2.07,0.57-4.19,0.08-6.27c-0.59-2.47-1.71-4.7-3.48-6.56c-0.06-0.06-0.16-0.08-0.25-0.13
					c-1.1,3.48-3.65,5.12-7.06,5.68c-0.75,0.12-1.47,0.3-1.93,0.97c-0.17,0.25-0.29,0.54-0.51,0.97c1.86-0.45,3.41-0.16,4.79,0.87
					c0.96,0.72,1.6,1.68,1.91,2.84c0.63,2.33-0.49,4.84-2.63,5.97c-2.07,1.09-4.65,0.71-6.09-0.89c0.72-0.71,1.45-1.43,2.19-2.16
					c0.59,0.38,1.23,0.66,1.99,0.41c0.87-0.28,1.35-0.87,1.5-1.74c0.13-0.79-0.33-1.65-1.04-2.06c-0.78-0.45-1.67-0.41-2.33,0.2
					c-0.52,0.49-0.95,1.09-1.45,1.67c-1.66-2.2-2.66-4.31-1.57-6.84c0.8-1.85,2.25-2.91,4.21-3.28c1.24-0.23,2.47-0.46,3.48-1.29
					c1.08-0.89,1.67-1.99,1.36-3.42c-0.05-0.21-0.21-0.47-0.4-0.56c-6.83-3.57-15.83-0.07-18.49,7.15c-0.55,1.5-0.89,3.03-0.9,4.62
					c-0.02,1.53-0.57,2.83-1.37,4.09c-0.85,1.35-1.67,2.73-2.5,4.09c-0.08,0.13-0.14,0.28-0.28,0.58c1.06,0,2.02-0.01,2.99,0
					c0.99,0.01,1,0.02,1,0.97c0.01,1.93,0,3.87,0.01,5.8c0.01,1.51,0.66,2.15,2.19,2.15c1.61,0,3.22-0.04,4.82,0.02
					c1.08,0.04,1.95-0.32,2.7-1.05c0.23-0.22,0.49-0.42,0.75-0.65c0.69,0.82,1.34,1.6,1.99,2.37c-0.03,0.07-0.04,0.13-0.07,0.15
					c-1.14,0.63-1.4,1.6-1.31,2.85c0.11,1.43,0.02,1.44-1.44,1.44c-0.55,0-1.1,0-1.71,0c0-0.66,0-1.24,0-1.88
					c-0.25-0.02-0.45-0.05-0.64-0.05c-1.77,0-3.54,0-5.31,0c-2.96-0.01-5.11-2.14-5.12-5.08c-0.01-1.05-0.02-2.1,0.01-3.14
					c0.01-0.5-0.12-0.75-0.66-0.69c-2.31,0.25-4.45-2.57-2.83-5.12c0.87-1.36,1.64-2.79,2.51-4.14c0.78-1.2,1.27-2.43,1.21-3.9
					c-0.08-1.91,0.54-3.7,1.34-5.4c1.96-4.17,5.1-7.07,9.42-8.72c6.87-2.63,15.13-0.07,19.32,6c1.45,2.11,2.47,4.39,2.84,6.94
					c0.7,4.92-0.3,9.5-2.75,13.79c-1.03,1.8-1.4,3.78-1.45,5.82c-0.04,1.61-0.01,3.21-0.01,4.82
					C231.47,221.65,231.47,221.87,231.47,222.19z"/>
				<path d="M198.88,153.63c12.26,0,24.41,0,36.62,0c-1.32,5.95-2.64,11.87-3.97,17.86c-0.27,0-0.52,0-0.77,0
					c-9.06,0-18.12-0.01-27.18,0.01c-0.62,0-0.8-0.18-0.93-0.78c-0.88-4.07-1.82-8.14-2.73-12.2
					C199.58,156.92,199.24,155.31,198.88,153.63z M202.84,156.85c0.86,3.86,1.7,7.63,2.54,11.44c1.47,0,2.91,0,4.35,0
					c6.19,0,12.38,0,18.58,0.01c0.48,0,0.71-0.07,0.83-0.63c0.53-2.59,1.14-5.16,1.72-7.73c0.23-1.01,0.43-2.02,0.66-3.08
					C221.94,156.85,212.45,156.85,202.84,156.85z"/>
				<path d="M211.39,175.99c-1.51,1.5-2.95,2.93-4.38,4.36c-0.26,0.26-0.5,0.39-0.82,0.07c-0.64-0.64-1.29-1.27-1.99-1.95
					c0.93-0.94,1.81-1.82,2.7-2.7c0.53-0.53,1.08-1.03,1.58-1.59c0.39-0.44,0.66-0.44,1.05-0.01
					C210.09,174.8,210.72,175.35,211.39,175.99z"/>
				<path d="M225.38,173.9c1.48,1.42,3.07,2.95,4.84,4.65c-0.73,0.64-1.39,1.26-2.1,1.82c-0.15,0.12-0.57,0.16-0.67,0.05
					c-1.44-1.48-2.84-3-4.28-4.53C223.78,175.34,224.56,174.64,225.38,173.9z"/>
				<path d="M215.59,174.89c1.07,0,2.08,0,3.13,0c0,2.21,0,4.38,0,6.61c-1.02,0-2.05,0-3.13,0
					C215.59,179.32,215.59,177.13,215.59,174.89z"/>
				<path d="M205.81,161.65c0-1.03,0-2.04,0-3.1c7.57,0,15.11,0,22.7,0c0,1.02,0,2.03,0,3.1
					C220.95,161.65,213.4,161.65,205.81,161.65z"/>
				<path d="M226.93,163.46c0,1.03,0,2.02,0,3.07c-6.48,0-12.94,0-19.44,0c0-0.99,0-2,0-3.07
					C213.93,163.46,220.38,163.46,226.93,163.46z"/>
			</g>
		</g>
	</g>
</g>
</svg>
