<?xml version="1.0" encoding="utf-8"?>
<!-- Generator: Adobe Illustrator 26.5.0, SVG Export Plug-In . SVG Version: 6.00 Build 0)  -->
<svg version="1.1" id="Layer_1" xmlns="http://www.w3.org/2000/svg" xmlns:xlink="http://www.w3.org/1999/xlink" x="0px" y="0px"
	 viewBox="0 0 400 400" style="enable-background:new 0 0 400 400;" xml:space="preserve">
<style type="text/css">
	.st0{fill:#FFFFFF;}
	.st1{fill:url(#SVGID_1_);}
	.st2{fill:none;stroke:#42210B;stroke-width:5;stroke-linecap:round;stroke-linejoin:round;stroke-miterlimit:10;}
	.st3{fill:#FFFFFF;stroke:#42210B;stroke-width:5;stroke-miterlimit:10;}
	.st4{fill:#333333;}
	.st5{fill:#42210B;}
	.st6{fill:url(#SVGID_00000156552390517752957210000002009133541509094045_);}
	.st7{fill:url(#SVGID_00000119815229836718589910000001357469477371998850_);}
	.st8{fill:url(#SVGID_00000085248790968159321370000016823595741771852983_);}
	.st9{fill:#FCBF95;}
	.st10{fill:url(#SVGID_00000088112178641233752040000004557471470176440489_);}
	.st11{fill:#FF9D5A;}
	.st12{fill:#303047;}
	.st13{fill:url(#SVGID_00000126285074364572914380000011976963383299749003_);}
	.st14{fill:url(#SVGID_00000028312470459662288460000016854456282170896043_);}
	.st15{fill:url(#SVGID_00000024003691428502126170000018124191516382807695_);}
	.st16{clip-path:url(#SVGID_00000063624668181323955570000003467135836735077567_);}
	.st17{fill:#772C29;}
	.st18{fill:#F7C4A6;}
	.st19{fill:#E6A486;}
	.st20{fill:#F15A24;}
	.st21{fill:#C1272D;}
	.st22{fill:#CF7D73;}
	.st23{fill:#581C2C;}
	.st24{fill:#8B3B29;}
	.st25{clip-path:url(#SVGID_00000021081993065517454210000010351142925385066650_);}
	.st26{clip-path:url(#SVGID_00000029757036436894150170000012767402311246813346_);}
	.st27{clip-path:url(#SVGID_00000001641571098912189450000009832962178168621473_);}
	.st28{fill:#0C0C0C;}
	.st29{fill:#575757;}
	.st30{fill:#201D1E;}
	.st31{fill:#DB262D;}
	
		.st32{fill:url(#SVGID_00000154389963144834411370000004727723144784355729_);stroke:#2A6880;stroke-width:0.2596;stroke-miterlimit:10;}
	
		.st33{fill:url(#SVGID_00000079477914244053742680000008460412128050620338_);stroke:#2A6880;stroke-width:0.2596;stroke-miterlimit:10;}
	
		.st34{fill:url(#SVGID_00000037671985313240770830000018129501087489045432_);stroke:#2A6880;stroke-width:0.2596;stroke-miterlimit:10;}
	.st35{fill:#343433;}
	.st36{fill:#1C1B17;}
	.st37{fill:#4B443F;}
	.st38{fill:#B9272A;}
	.st39{fill:#264A90;}
	.st40{fill:#D41F26;}
	.st41{fill:#E66725;}
	.st42{clip-path:url(#SVGID_00000143583615585734574980000017956846264024810428_);}
	.st43{fill:#EF8C71;}
	.st44{fill:#EF8C73;}
	.st45{fill:#828080;}
	.st46{fill:none;}
	.st47{fill:none;stroke:#42210B;stroke-miterlimit:10;}
	.st48{clip-path:url(#SVGID_00000104704529199692206680000003903402892525204399_);}
	.st49{clip-path:url(#SVGID_00000173153495050763456030000017561512693632903570_);}
	.st50{fill:#FBB617;}
</style>
<g>
	<path class="st3" d="M327.69,298.84H72.31c-34.42,0-62.31-27.9-62.31-62.31v-73.06c0-34.42,27.9-62.31,62.31-62.31h255.37
		c34.42,0,62.31,27.9,62.31,62.31v73.06C390,270.94,362.1,298.84,327.69,298.84z"/>
	<g>
		<g>
			<g>
				<path class="st30" d="M49.46,221.98h1.26l3.8,7.46v-0.01h0.28c0-0.59,0-1.2,0-1.86c0-0.65,0-1.27,0.01-1.86
					c0-0.27,0-0.58,0-0.96c0-0.38,0.01-0.75,0.01-1.12c0-0.37,0.01-0.7,0.01-1.01c0.01-0.3,0.01-0.51,0.01-0.63h0.91v9.58h-1.27
					l-3.84-7.43h-0.28v7.43h-0.9V221.98z"/>
				<path class="st30" d="M58.16,228.23c0.05,0.63,0.25,1.13,0.58,1.49c0.33,0.36,0.78,0.57,1.33,0.63
					c0.33-0.01,0.64-0.05,0.93-0.11c0.3-0.05,0.49-0.13,0.58-0.24c0.27-0.27,0.43-0.56,0.47-0.88h1.03
					c-0.11,1.68-1.14,2.49-3.1,2.44c-0.9-0.05-1.59-0.41-2.07-1.08c-0.47-0.67-0.71-1.62-0.7-2.84c-0.02-0.5,0.03-0.96,0.14-1.37
					c0.12-0.42,0.29-0.8,0.53-1.14c0.53-0.7,1.29-1.05,2.27-1.04c1,0,1.77,0.3,2.28,0.91c0.51,0.61,0.77,1.58,0.77,2.93v0.31H58.16z
					 M60.11,225.15c-0.55,0.01-0.99,0.18-1.33,0.49c-0.32,0.32-0.54,0.8-0.62,1.43h3.96C61.97,225.79,61.3,225.14,60.11,225.15z"/>
				<path class="st30" d="M65.26,224.14l1.18,4.95h0.28c0.01-0.04,0.02-0.07,0.03-0.1c0.01-0.03,0.02-0.06,0.03-0.1l1.23-4.75h0.79
					l1.35,4.97l0.28,0.01c0.01-0.12,0.05-0.31,0.11-0.59c0.06-0.27,0.12-0.58,0.2-0.94c0.08-0.35,0.15-0.71,0.23-1.09
					c0.08-0.38,0.16-0.74,0.22-1.06c0.07-0.33,0.12-0.62,0.17-0.85c0.05-0.24,0.08-0.39,0.09-0.45h1.1l-1.81,7.41l-0.87,0.02
					l-1.34-4.82h-0.28c-0.19,0.65-0.36,1.26-0.51,1.82c-0.14,0.56-0.27,1.06-0.37,1.48c-0.1,0.42-0.18,0.77-0.26,1.02
					c-0.06,0.27-0.12,0.42-0.14,0.47h-0.9l-1.84-7.41H65.26z"/>
				<path class="st30" d="M76.14,221.98h5.11v1.22l-1.85-0.02h-0.15v8.39h-0.98l-0.02-8.39h-2.11V221.98z"/>
				<path class="st30" d="M83.18,228.23c0.04,0.63,0.24,1.13,0.57,1.49c0.33,0.36,0.78,0.57,1.34,0.63
					c0.33-0.01,0.64-0.05,0.93-0.11c0.3-0.05,0.49-0.13,0.58-0.24c0.27-0.27,0.43-0.56,0.48-0.88h1.02
					c-0.11,1.68-1.14,2.49-3.1,2.44c-0.9-0.05-1.59-0.41-2.06-1.08c-0.48-0.67-0.72-1.62-0.71-2.84c-0.02-0.5,0.03-0.96,0.14-1.37
					c0.12-0.42,0.3-0.8,0.53-1.14c0.53-0.7,1.29-1.05,2.27-1.04c1,0,1.76,0.3,2.27,0.91c0.52,0.61,0.77,1.58,0.77,2.93v0.31H83.18z
					 M85.13,225.15c-0.56,0.01-0.99,0.18-1.32,0.49c-0.33,0.32-0.54,0.8-0.62,1.43h3.96C86.99,225.79,86.32,225.14,85.13,225.15z"/>
				<path class="st30" d="M94.21,226.78c-0.16-1-0.8-1.49-1.9-1.49c-0.06,0-0.13,0.01-0.23,0.02c-0.1,0.01-0.19,0.02-0.27,0.04
					c-0.3,0.06-0.56,0.17-0.78,0.32c-0.21,0.15-0.39,0.34-0.53,0.56c-0.14,0.22-0.24,0.47-0.29,0.75c-0.06,0.27-0.08,0.57-0.06,0.87
					c0.03,0.8,0.24,1.41,0.61,1.85c0.38,0.43,0.94,0.64,1.66,0.64c0.99,0.02,1.58-0.46,1.77-1.43h1c-0.07,0.89-0.4,1.56-0.95,2.01
					c-0.56,0.45-1.26,0.67-2.1,0.64c-0.36-0.01-0.72-0.09-1.09-0.25c-0.37-0.16-0.69-0.39-0.96-0.7c-0.58-0.62-0.9-1.53-0.95-2.77
					c0-1.25,0.29-2.18,0.86-2.77c0.28-0.3,0.59-0.54,0.94-0.71c0.35-0.17,0.68-0.28,0.99-0.3c0.06-0.01,0.14-0.02,0.22-0.02
					c0.08,0,0.16,0,0.23,0c0.85,0,1.52,0.24,2.01,0.72c0.48,0.47,0.75,1.15,0.8,2.02H94.21z"/>
				<path class="st30" d="M96.83,221.87h0.8l-0.02,3.04c0.02,0,0.04,0,0.07,0.01c0.01,0,0.03,0,0.05,0h0.12
					c0.84-0.54,1.46-0.81,1.87-0.8c0.81-0.04,1.46,0.2,1.94,0.7c0.19,0.17,0.32,0.4,0.4,0.69c0.07,0.29,0.11,0.64,0.13,1.05l-0.02,5
					h-0.83l-0.03-3.57c0-0.3-0.01-0.61-0.01-0.93c-0.01-0.32-0.03-0.6-0.05-0.82c-0.01-0.05-0.03-0.11-0.04-0.17
					c-0.01-0.06-0.05-0.12-0.09-0.17c-0.15-0.2-0.33-0.35-0.55-0.46c-0.22-0.1-0.49-0.15-0.82-0.14c-0.44,0-0.85,0.18-1.26,0.54
					l-0.02-0.02c-0.16,0.17-0.31,0.34-0.44,0.52c-0.13,0.18-0.2,0.35-0.25,0.5c-0.06,0.03-0.1,0.18-0.13,0.47
					c-0.03,0.28-0.04,0.7-0.04,1.27l0.02,2.99h-0.8V221.87z"/>
				<path class="st30" d="M103.62,224.14h0.8v0.88h0.24c0.35-0.3,0.67-0.54,0.97-0.69c0.3-0.15,0.57-0.24,0.81-0.26
					c0.13-0.02,0.3-0.02,0.48-0.01c0.19,0.01,0.36,0.02,0.5,0.06c0.52,0.12,0.95,0.44,1.28,0.96c0.12,0.22,0.22,0.47,0.28,0.78
					c0.07,0.3,0.1,0.66,0.1,1.07v4.63h-0.85v-3.71c0-0.65-0.02-1.16-0.04-1.54v0.03c-0.08-0.28-0.24-0.51-0.47-0.69
					c-0.23-0.17-0.53-0.27-0.91-0.29h-0.01c-0.24-0.01-0.46,0-0.66,0.04c-0.2,0.04-0.37,0.11-0.51,0.22
					c-0.28,0.19-0.52,0.39-0.7,0.6c-0.18,0.21-0.29,0.4-0.35,0.57h-0.02c-0.11,0.36-0.16,0.97-0.16,1.82v0.64
					c0,0.02,0.01,0.02,0.01,0.02c0,0,0,0.01,0,0.02v2.25h-0.8V224.14z"/>
				<path class="st30" d="M110.34,222.55c0-0.22,0.06-0.4,0.17-0.54c0.12-0.14,0.26-0.21,0.43-0.21c0.17,0,0.31,0.07,0.43,0.21
					c0.12,0.14,0.18,0.32,0.18,0.54c0,0.22-0.06,0.4-0.18,0.54c-0.12,0.14-0.26,0.21-0.43,0.21c-0.17,0-0.31-0.07-0.43-0.21
					C110.4,222.95,110.34,222.77,110.34,222.55z M111.4,224.26v7.33h-0.93v-7.33H111.4z"/>
				<path class="st30" d="M118.38,224.14v9.56h-0.85v-3.14h-0.12c-0.02,0-0.04,0-0.07-0.01c-0.02-0.01-0.05-0.01-0.07-0.01
					c-0.48,0.4-0.98,0.6-1.5,0.6c-0.33,0-0.71-0.05-1.13-0.15c-0.2-0.06-0.42-0.18-0.64-0.38c-0.22-0.2-0.46-0.45-0.71-0.76
					c-0.2-0.29-0.35-0.66-0.44-1.09c-0.09-0.43-0.12-0.91-0.1-1.43c0-0.96,0.24-1.74,0.72-2.33c0.48-0.6,1.2-0.93,2.16-1
					c0.28,0,0.55,0.04,0.84,0.13c0.29,0.09,0.53,0.22,0.72,0.4l0.09,0.11h0.25v-0.49H118.38z M115.74,225.26
					c-0.64-0.02-1.15,0.16-1.53,0.54c-0.38,0.38-0.57,0.99-0.57,1.82c0,0.3,0.05,0.6,0.14,0.87c0.09,0.28,0.2,0.52,0.33,0.71
					c0.15,0.2,0.33,0.36,0.55,0.46c0.21,0.11,0.47,0.16,0.76,0.15c0.41,0.02,0.79-0.06,1.13-0.24c0.34-0.17,0.59-0.39,0.78-0.65
					c0.07-0.11,0.13-0.29,0.17-0.55c0.03-0.26,0.05-0.55,0.05-0.86c0-0.08,0-0.17,0-0.27c0-0.1-0.01-0.2-0.02-0.31
					c0.01-0.18-0.01-0.36-0.07-0.53c-0.06-0.18-0.13-0.34-0.21-0.49l-0.01,0.03C116.87,225.49,116.37,225.26,115.74,225.26z"/>
				<path class="st30" d="M119.83,224.14h0.81v4.81c0,0.1,0.02,0.21,0.04,0.34c0.03,0.14,0.07,0.27,0.12,0.38v-0.02
					c0.1,0.2,0.27,0.36,0.48,0.49c0.22,0.12,0.47,0.19,0.77,0.19c0.37,0,0.72-0.09,1.07-0.28c0.34-0.19,0.67-0.46,0.98-0.82h0.01
					c0.1-0.12,0.17-0.29,0.23-0.52c0.06-0.23,0.09-0.49,0.09-0.79v-3.8h0.86v7.41h-0.86v-0.74c-0.02,0-0.04,0-0.06-0.01
					c-0.02,0-0.04-0.01-0.06-0.01h-0.1c-0.74,0.59-1.52,0.87-2.34,0.83h-0.02c-0.26,0.03-0.66-0.1-1.2-0.37
					c-0.16-0.11-0.29-0.25-0.39-0.44c-0.11-0.18-0.22-0.41-0.34-0.67c-0.04-0.12-0.07-0.29-0.08-0.51
					c-0.01-0.23-0.02-0.49-0.02-0.81V224.14z"/>
				<path class="st30" d="M127.4,228.23c0.05,0.63,0.24,1.13,0.57,1.49c0.33,0.36,0.78,0.57,1.33,0.63
					c0.33-0.01,0.64-0.05,0.94-0.11c0.29-0.05,0.49-0.13,0.57-0.24c0.27-0.27,0.44-0.56,0.48-0.88h1.02
					c-0.11,1.68-1.14,2.49-3.1,2.44c-0.9-0.05-1.59-0.41-2.07-1.08c-0.48-0.67-0.71-1.62-0.7-2.84c-0.02-0.5,0.03-0.96,0.14-1.37
					c0.12-0.42,0.29-0.8,0.53-1.14c0.53-0.7,1.29-1.05,2.27-1.04c1,0,1.76,0.3,2.28,0.91c0.51,0.61,0.77,1.58,0.77,2.93v0.31H127.4z
					 M129.35,225.15c-0.56,0.01-0.99,0.18-1.32,0.49c-0.33,0.32-0.54,0.8-0.62,1.43h3.96C131.21,225.79,130.55,225.14,129.35,225.15
					z"/>
				<path class="st30" d="M137.99,226.56c-0.15-0.93-0.71-1.39-1.68-1.39c-1.24,0.02-1.81,0.4-1.72,1.12c0,0.07,0.01,0.19,0.04,0.34
					c0.03,0.14,0.13,0.27,0.3,0.35c0.09,0.02,0.66,0.05,1.69,0.07c0.49,0.02,0.9,0.07,1.24,0.18c0.33,0.11,0.59,0.26,0.76,0.44
					c0.13,0.17,0.24,0.4,0.32,0.69c0.07,0.29,0.1,0.64,0.08,1.06c-0.04,0.28-0.13,0.55-0.26,0.81c-0.14,0.26-0.35,0.49-0.63,0.72
					l-0.01-0.02c-0.5,0.47-1.14,0.67-1.89,0.62h-0.02c-0.33,0.02-0.65-0.02-0.95-0.14c-0.29-0.12-0.58-0.31-0.85-0.6
					c-0.23-0.27-0.42-0.54-0.55-0.81c-0.13-0.28-0.2-0.57-0.21-0.89h0.85c0.08,0.38,0.29,0.67,0.62,0.88
					c0.33,0.21,0.76,0.36,1.3,0.42h0.03c0.82-0.1,1.36-0.48,1.63-1.12c0.03-0.07,0.05-0.16,0.05-0.25
					c-0.01-0.09-0.04-0.18-0.09-0.28c-0.05-0.1-0.13-0.19-0.24-0.28c-0.12-0.09-0.25-0.16-0.42-0.22c-0.31-0.12-0.9-0.18-1.75-0.18
					c-0.85-0.03-1.39-0.17-1.6-0.42c-0.11-0.1-0.19-0.26-0.25-0.48c-0.06-0.22-0.1-0.47-0.12-0.75c0-0.69,0.22-1.26,0.65-1.7
					c0.42-0.45,1.08-0.67,1.95-0.67c0.59,0.02,1.1,0.16,1.52,0.43c0.42,0.27,0.74,0.62,0.95,1.07c0.04,0.09,0.07,0.22,0.12,0.38
					c0.04,0.16,0.07,0.37,0.09,0.62H137.99z"/>
				<path class="st30" d="M151.66,221.98h1.27l3.8,7.46v-0.01H157c0-0.59,0-1.2,0-1.86c0-0.65,0-1.27,0.01-1.86
					c0-0.27,0-0.58,0-0.96c0-0.38,0.01-0.75,0.01-1.12c0.01-0.37,0.01-0.7,0.02-1.01c0-0.3,0.01-0.51,0.01-0.63h0.89v9.58h-1.27
					l-3.84-7.43h-0.28v7.43h-0.9V221.98z"/>
				<path class="st30" d="M160.37,228.23c0.05,0.63,0.24,1.13,0.57,1.49c0.33,0.36,0.78,0.57,1.33,0.63
					c0.33-0.01,0.64-0.05,0.95-0.11c0.29-0.05,0.49-0.13,0.57-0.24c0.28-0.27,0.44-0.56,0.49-0.88h1.02
					c-0.11,1.68-1.15,2.49-3.1,2.44c-0.91-0.05-1.6-0.41-2.07-1.08c-0.48-0.67-0.72-1.62-0.7-2.84c-0.01-0.5,0.03-0.96,0.14-1.37
					c0.12-0.42,0.29-0.8,0.52-1.14c0.53-0.7,1.29-1.05,2.27-1.04c1,0,1.76,0.3,2.28,0.91c0.52,0.61,0.78,1.58,0.78,2.93v0.31H160.37
					z M162.32,225.15c-0.56,0.01-1,0.18-1.33,0.49c-0.33,0.32-0.54,0.8-0.63,1.43h3.96C164.18,225.79,163.51,225.14,162.32,225.15z"
					/>
				<path class="st30" d="M167.48,224.14l1.17,4.95h0.28c0.01-0.04,0.03-0.07,0.03-0.1c0.01-0.03,0.02-0.06,0.03-0.1l1.24-4.75h0.78
					l1.36,4.97l0.27,0.01c0.03-0.12,0.06-0.31,0.12-0.59c0.06-0.27,0.12-0.58,0.19-0.94c0.07-0.35,0.15-0.71,0.24-1.09
					c0.08-0.38,0.16-0.74,0.22-1.06c0.08-0.33,0.13-0.62,0.18-0.85c0.05-0.24,0.07-0.39,0.09-0.45h1.1l-1.81,7.41l-0.87,0.02
					l-1.34-4.82h-0.28c-0.19,0.65-0.36,1.26-0.51,1.82c-0.15,0.56-0.27,1.06-0.37,1.48c-0.11,0.42-0.19,0.77-0.26,1.02
					c-0.07,0.27-0.12,0.42-0.15,0.47h-0.89l-1.84-7.41H167.48z"/>
				<path class="st30" d="M176.51,228.23c0.06,0.63,0.24,1.13,0.58,1.49c0.33,0.36,0.78,0.57,1.32,0.63
					c0.33-0.01,0.64-0.05,0.94-0.11c0.3-0.05,0.49-0.13,0.57-0.24c0.27-0.27,0.43-0.56,0.48-0.88h1.03
					c-0.11,1.68-1.14,2.49-3.1,2.44c-0.9-0.05-1.6-0.41-2.07-1.08c-0.47-0.67-0.71-1.62-0.7-2.84c-0.02-0.5,0.03-0.96,0.15-1.37
					c0.11-0.42,0.29-0.8,0.53-1.14c0.53-0.7,1.29-1.05,2.27-1.04c1,0,1.76,0.3,2.27,0.91c0.52,0.61,0.77,1.58,0.77,2.93v0.31H176.51
					z M178.47,225.15c-0.56,0.01-1,0.18-1.32,0.49c-0.33,0.32-0.54,0.8-0.63,1.43h3.96C180.33,225.79,179.66,225.14,178.47,225.15z"
					/>
				<path class="st30" d="M182.84,224.14h0.89v0.94h0.18c0.35-0.35,0.69-0.6,0.99-0.76c0.31-0.16,0.64-0.25,0.95-0.26h0.48
					l-0.02,1.17l-0.51,0.02h-0.04c-0.23,0.07-0.46,0.15-0.68,0.24c-0.22,0.09-0.39,0.21-0.52,0.35c-0.17,0.18-0.32,0.36-0.43,0.55
					c-0.11,0.19-0.2,0.4-0.26,0.62c-0.05,0.22-0.09,0.47-0.12,0.74c-0.02,0.26-0.03,0.57-0.03,0.9v2.9h-0.89V224.14z"/>
				<path class="st30" d="M195.82,225.11c-0.04-0.52-0.21-0.93-0.49-1.25c-0.28-0.32-0.71-0.53-1.28-0.65h-0.01
					c-0.08-0.01-0.16-0.01-0.25-0.02c-0.09,0-0.16-0.01-0.21-0.01c-0.22,0-0.46,0.03-0.7,0.09c-0.24,0.05-0.46,0.12-0.66,0.19
					c-0.26,0.12-0.47,0.29-0.64,0.51c-0.17,0.22-0.27,0.47-0.3,0.75c-0.01,0.54,0.18,0.88,0.57,1.01l0.02-0.02
					c0.16,0.05,0.39,0.1,0.68,0.15c0.28,0.05,0.63,0.09,1.05,0.15c1.08,0.05,1.86,0.21,2.35,0.5c0.31,0.2,0.54,0.47,0.7,0.8
					c0.16,0.33,0.24,0.75,0.24,1.26c0.02,0.37-0.02,0.73-0.15,1.07c-0.12,0.34-0.33,0.66-0.62,0.97h-0.01
					c-0.25,0.29-0.59,0.52-1.02,0.68c-0.44,0.15-0.89,0.24-1.39,0.26h-0.01c-0.37,0.03-0.75-0.02-1.13-0.14
					c-0.39-0.13-0.77-0.33-1.13-0.62c-0.75-0.59-1.12-1.33-1.12-2.22h1.03c0.03,0.27,0.12,0.5,0.27,0.71
					c0.15,0.2,0.35,0.38,0.57,0.54c0.24,0.14,0.49,0.26,0.78,0.34c0.29,0.08,0.58,0.12,0.88,0.14h0.03
					c0.28-0.07,0.54-0.17,0.79-0.28c0.25-0.11,0.47-0.24,0.65-0.38c0.19-0.15,0.33-0.3,0.42-0.48c0.1-0.17,0.14-0.34,0.14-0.53
					c0-0.09-0.01-0.19-0.04-0.27c-0.02-0.08-0.06-0.16-0.09-0.23c-0.1-0.29-0.34-0.49-0.71-0.63c-0.37-0.13-0.87-0.22-1.5-0.26
					h-0.02c-0.55-0.03-1-0.07-1.36-0.11c-0.36-0.04-0.63-0.09-0.82-0.13c-0.24-0.12-0.43-0.26-0.58-0.44
					c-0.15-0.18-0.27-0.37-0.34-0.58c-0.06-0.2-0.08-0.41-0.1-0.64c-0.01-0.23-0.01-0.47,0-0.73c0.04-0.51,0.16-0.95,0.36-1.31
					c0.21-0.36,0.46-0.64,0.75-0.84c0.67-0.39,1.34-0.58,2.02-0.55c1.21,0.05,2.06,0.37,2.56,0.96v-0.01
					c0.25,0.29,0.44,0.61,0.57,0.97c0.13,0.36,0.2,0.79,0.24,1.27L195.82,225.11z"/>
				<path class="st30" d="M203.16,226.78c-0.16-1-0.79-1.49-1.89-1.49c-0.06,0-0.14,0.01-0.23,0.02c-0.1,0.01-0.19,0.02-0.27,0.04
					c-0.3,0.06-0.56,0.17-0.78,0.32c-0.22,0.15-0.4,0.34-0.53,0.56c-0.14,0.22-0.23,0.47-0.29,0.75c-0.06,0.27-0.07,0.57-0.06,0.87
					c0.03,0.8,0.24,1.41,0.61,1.85c0.38,0.43,0.93,0.64,1.66,0.64c1,0.02,1.59-0.46,1.76-1.43h1.01c-0.07,0.89-0.39,1.56-0.95,2.01
					c-0.55,0.45-1.25,0.67-2.09,0.64c-0.36-0.01-0.72-0.09-1.09-0.25c-0.37-0.16-0.69-0.39-0.96-0.7c-0.58-0.62-0.9-1.53-0.95-2.77
					c0-1.25,0.29-2.18,0.85-2.77c0.28-0.3,0.59-0.54,0.94-0.71c0.34-0.17,0.68-0.28,1-0.3c0.06-0.01,0.13-0.02,0.22-0.02
					c0.09,0,0.16,0,0.23,0c0.85,0,1.52,0.24,2.01,0.72c0.49,0.47,0.76,1.15,0.8,2.02H203.16z"/>
				<path class="st30" d="M205.67,222.55c0-0.22,0.06-0.4,0.17-0.54c0.12-0.14,0.26-0.21,0.42-0.21c0.17,0,0.31,0.07,0.43,0.21
					c0.12,0.14,0.17,0.32,0.17,0.54c0,0.22-0.05,0.4-0.17,0.54c-0.12,0.14-0.26,0.21-0.43,0.21c-0.16,0-0.3-0.07-0.42-0.21
					C205.72,222.95,205.67,222.77,205.67,222.55z M206.72,224.26v7.33h-0.93v-7.33H206.72z"/>
				<path class="st30" d="M208.8,228.23c0.05,0.63,0.24,1.13,0.58,1.49c0.34,0.36,0.78,0.57,1.34,0.63
					c0.33-0.01,0.64-0.05,0.93-0.11c0.3-0.05,0.49-0.13,0.58-0.24c0.26-0.27,0.42-0.56,0.47-0.88h1.02
					c-0.11,1.68-1.14,2.49-3.11,2.44c-0.9-0.05-1.59-0.41-2.07-1.08c-0.47-0.67-0.71-1.62-0.69-2.84c-0.02-0.5,0.02-0.96,0.14-1.37
					c0.11-0.42,0.29-0.8,0.52-1.14c0.54-0.7,1.3-1.05,2.27-1.04c1,0,1.76,0.3,2.27,0.91c0.52,0.61,0.78,1.58,0.78,2.93v0.31H208.8z
					 M210.75,225.15c-0.55,0.01-0.99,0.18-1.32,0.49c-0.33,0.32-0.54,0.8-0.63,1.43h3.96C212.61,225.79,211.94,225.14,210.75,225.15
					z"/>
				<path class="st30" d="M215.13,224.14h0.8v0.88h0.23c0.35-0.3,0.68-0.54,0.98-0.69c0.3-0.15,0.56-0.24,0.8-0.26
					c0.13-0.02,0.3-0.02,0.49-0.01c0.19,0.01,0.36,0.02,0.5,0.06c0.53,0.12,0.95,0.44,1.28,0.96c0.12,0.22,0.2,0.47,0.27,0.78
					c0.07,0.3,0.11,0.66,0.11,1.07v4.63h-0.86v-3.71c0-0.65-0.01-1.16-0.04-1.54v0.03c-0.08-0.28-0.24-0.51-0.47-0.69
					c-0.24-0.17-0.53-0.27-0.91-0.29h-0.01c-0.25-0.01-0.47,0-0.67,0.04c-0.2,0.04-0.37,0.11-0.5,0.22c-0.29,0.19-0.53,0.39-0.7,0.6
					c-0.17,0.21-0.29,0.4-0.35,0.57h-0.02c-0.11,0.36-0.16,0.97-0.16,1.82v0.64c0,0.02,0,0.02,0,0.02c0.01,0,0.01,0.01,0.01,0.02
					v2.25h-0.8V224.14z"/>
				<path class="st30" d="M226.68,226.78c-0.17-1-0.8-1.49-1.9-1.49c-0.05,0-0.13,0.01-0.23,0.02c-0.11,0.01-0.19,0.02-0.26,0.04
					c-0.3,0.06-0.56,0.17-0.78,0.32c-0.22,0.15-0.39,0.34-0.53,0.56c-0.13,0.22-0.23,0.47-0.29,0.75c-0.06,0.27-0.07,0.57-0.06,0.87
					c0.03,0.8,0.23,1.41,0.62,1.85c0.38,0.43,0.93,0.64,1.65,0.64c1,0.02,1.6-0.46,1.77-1.43h1c-0.07,0.89-0.39,1.56-0.94,2.01
					c-0.55,0.45-1.25,0.67-2.09,0.64c-0.37-0.01-0.73-0.09-1.1-0.25c-0.37-0.16-0.69-0.39-0.96-0.7c-0.59-0.62-0.9-1.53-0.95-2.77
					c0-1.25,0.29-2.18,0.86-2.77c0.29-0.3,0.59-0.54,0.94-0.71c0.34-0.17,0.67-0.28,0.99-0.3c0.05-0.01,0.13-0.02,0.22-0.02
					c0.09,0,0.16,0,0.22,0c0.86,0,1.53,0.24,2.02,0.72c0.48,0.47,0.75,1.15,0.81,2.02H226.68z"/>
				<path class="st30" d="M229.97,228.23c0.05,0.63,0.24,1.13,0.58,1.49c0.34,0.36,0.77,0.57,1.33,0.63
					c0.33-0.01,0.65-0.05,0.94-0.11c0.29-0.05,0.49-0.13,0.58-0.24c0.26-0.27,0.43-0.56,0.48-0.88h1.02
					c-0.11,1.68-1.14,2.49-3.1,2.44c-0.9-0.05-1.59-0.41-2.07-1.08c-0.48-0.67-0.71-1.62-0.69-2.84c-0.02-0.5,0.03-0.96,0.15-1.37
					c0.11-0.42,0.28-0.8,0.52-1.14c0.53-0.7,1.29-1.05,2.28-1.04c0.99,0,1.76,0.3,2.27,0.91c0.51,0.61,0.77,1.58,0.77,2.93v0.31
					H229.97z M231.92,225.15c-0.56,0.01-0.99,0.18-1.32,0.49c-0.33,0.32-0.54,0.8-0.63,1.43h3.96
					C233.79,225.79,233.12,225.14,231.92,225.15z"/>
				<path class="st30" d="M247.52,221.98h1.26l3.8,7.46v-0.01h0.28c0-0.59,0-1.2,0-1.86c0-0.65,0-1.27,0.01-1.86
					c0-0.27,0-0.58,0-0.96c0-0.38,0-0.75,0.01-1.12c0-0.37,0.01-0.7,0.01-1.01c0.01-0.3,0.01-0.51,0.01-0.63h0.9v9.58h-1.27
					l-3.84-7.43h-0.28v7.43h-0.89V221.98z"/>
				<path class="st30" d="M256.22,228.23c0.05,0.63,0.24,1.13,0.58,1.49c0.33,0.36,0.79,0.57,1.33,0.63
					c0.32-0.01,0.64-0.05,0.94-0.11c0.29-0.05,0.49-0.13,0.57-0.24c0.27-0.27,0.44-0.56,0.48-0.88h1.02
					c-0.1,1.68-1.14,2.49-3.1,2.44c-0.9-0.05-1.59-0.41-2.07-1.08c-0.48-0.67-0.71-1.62-0.7-2.84c-0.02-0.5,0.03-0.96,0.15-1.37
					c0.11-0.42,0.29-0.8,0.52-1.14c0.53-0.7,1.29-1.05,2.27-1.04c1,0,1.76,0.3,2.27,0.91c0.52,0.61,0.78,1.58,0.78,2.93v0.31H256.22
					z M258.18,225.15c-0.56,0.01-1,0.18-1.32,0.49c-0.33,0.32-0.54,0.8-0.63,1.43h3.96C260.04,225.79,259.38,225.14,258.18,225.15z"
					/>
				<path class="st30" d="M263.33,224.14l1.18,4.95h0.28c0.01-0.04,0.02-0.07,0.03-0.1c0.01-0.03,0.02-0.06,0.03-0.1l1.24-4.75h0.79
					l1.36,4.97l0.27,0.01c0.02-0.12,0.06-0.31,0.12-0.59c0.05-0.27,0.12-0.58,0.2-0.94c0.07-0.35,0.15-0.71,0.23-1.09
					c0.08-0.38,0.16-0.74,0.22-1.06c0.07-0.33,0.13-0.62,0.18-0.85c0.04-0.24,0.07-0.39,0.09-0.45h1.1l-1.81,7.41l-0.87,0.02
					l-1.34-4.82h-0.28c-0.2,0.65-0.36,1.26-0.51,1.82c-0.15,0.56-0.27,1.06-0.37,1.48c-0.1,0.42-0.18,0.77-0.25,1.02
					c-0.07,0.27-0.12,0.42-0.15,0.47h-0.9l-1.84-7.41H263.33z"/>
				<path class="st30" d="M274.5,224.14h0.92v0.61c0.01,0,0.04,0,0.06,0.01c0.01,0.01,0.03,0.01,0.05,0.01h0.12v0.01
					c0.82-0.49,1.46-0.72,1.95-0.7c0.39-0.01,0.76,0.06,1.1,0.23c0.34,0.17,0.65,0.42,0.95,0.77c0.26,0.36,0.46,0.76,0.62,1.21
					c0.16,0.44,0.24,0.93,0.24,1.46c-0.03,0.65-0.12,1.23-0.27,1.73c-0.17,0.49-0.42,0.91-0.75,1.24c-0.28,0.3-0.61,0.54-0.96,0.7
					c-0.36,0.17-0.72,0.24-1.08,0.22h-0.02c-0.58,0.03-1.17-0.2-1.77-0.68v0.02h-0.23v2.72h-0.92V224.14z M279.1,226.11
					c-0.16-0.25-0.39-0.46-0.69-0.6c-0.3-0.14-0.64-0.23-1.01-0.25h-0.03c-0.41,0.02-0.74,0.12-1.02,0.31
					c-0.27,0.19-0.5,0.46-0.67,0.81c-0.1,0.15-0.17,0.36-0.2,0.64c-0.05,0.27-0.06,0.6-0.06,0.98c0.01,0.28,0.05,0.54,0.07,0.77
					c0.04,0.24,0.09,0.46,0.17,0.66v-0.02c0.17,0.29,0.42,0.51,0.75,0.68c0.34,0.17,0.67,0.27,1,0.28h0.03
					c0.33-0.04,0.63-0.13,0.91-0.28c0.27-0.15,0.51-0.34,0.7-0.57c0.2-0.23,0.35-0.49,0.45-0.79c0.1-0.3,0.15-0.62,0.14-0.97
					c0.01-0.3-0.03-0.59-0.13-0.87C279.4,226.6,279.28,226.34,279.1,226.11z"/>
				<path class="st30" d="M281.65,224.14h0.88v0.94h0.19c0.35-0.35,0.68-0.6,0.99-0.76c0.31-0.16,0.62-0.25,0.94-0.26h0.48
					l-0.01,1.17l-0.51,0.02h-0.05c-0.23,0.07-0.45,0.15-0.68,0.24c-0.22,0.09-0.39,0.21-0.52,0.35c-0.17,0.18-0.32,0.36-0.44,0.55
					c-0.1,0.19-0.2,0.4-0.25,0.62c-0.06,0.22-0.1,0.47-0.12,0.74c-0.03,0.26-0.04,0.57-0.04,0.9v2.9h-0.88V224.14z"/>
				<path class="st30" d="M289.44,224.08c0.41,0,0.8,0.07,1.18,0.23c0.37,0.16,0.71,0.39,0.99,0.7c0.27,0.29,0.49,0.67,0.64,1.15
					c0.15,0.48,0.24,1.03,0.24,1.65c0,1.24-0.29,2.19-0.89,2.84c-0.64,0.67-1.38,0.98-2.2,0.95c-0.41,0.02-0.83-0.06-1.25-0.23
					c-0.42-0.18-0.78-0.41-1.08-0.72c-0.28-0.33-0.51-0.74-0.67-1.21c-0.16-0.47-0.25-1-0.25-1.59c0-0.6,0.07-1.14,0.22-1.61
					c0.15-0.47,0.36-0.86,0.64-1.18C287.65,224.36,288.45,224.04,289.44,224.08z M289.44,225.28c-0.76-0.02-1.36,0.2-1.79,0.66
					c-0.42,0.47-0.63,1.07-0.63,1.82c0,0.33,0.05,0.65,0.16,0.97c0.1,0.32,0.26,0.61,0.46,0.89c0.18,0.28,0.42,0.49,0.72,0.62
					c0.28,0.13,0.62,0.22,0.99,0.24c0.75,0,1.31-0.27,1.64-0.8c0.37-0.53,0.55-1.16,0.52-1.91c0-0.4-0.05-0.75-0.16-1.07
					c-0.1-0.32-0.24-0.58-0.42-0.79c-0.18-0.22-0.4-0.38-0.65-0.48C290.02,225.32,289.74,225.26,289.44,225.28z"/>
				<path class="st30" d="M298.63,224.64v-2.84h0.89v9.72h-0.77l-0.02-0.73c-0.41,0.3-0.77,0.5-1.06,0.62
					c-0.3,0.11-0.58,0.17-0.85,0.18c-0.33,0.02-0.71-0.05-1.1-0.21c-0.39-0.16-0.75-0.39-1.07-0.68c-0.33-0.31-0.58-0.72-0.77-1.22
					c-0.18-0.49-0.3-1.07-0.34-1.72c0-0.57,0.06-1.05,0.18-1.45c0.13-0.4,0.32-0.75,0.57-1.05v0.02c0.49-0.6,1.04-0.96,1.63-1.08
					c0.27-0.02,0.53-0.05,0.76-0.05c0.53,0,1.09,0.17,1.69,0.52L298.63,224.64z M296.48,225.36c-0.43,0.05-0.78,0.15-1.03,0.29
					c-0.26,0.15-0.47,0.34-0.6,0.57c-0.13,0.25-0.23,0.51-0.29,0.77c-0.06,0.26-0.09,0.52-0.09,0.77c-0.01,0.32,0.02,0.61,0.12,0.89
					c0.08,0.28,0.21,0.57,0.4,0.87c0.19,0.3,0.43,0.51,0.73,0.64c0.3,0.13,0.67,0.19,1.1,0.17c0.2,0,0.39-0.02,0.58-0.07
					c0.18-0.05,0.36-0.15,0.52-0.3l0.02,0.02c0.17-0.18,0.31-0.34,0.41-0.47c0.1-0.13,0.17-0.26,0.21-0.39l0.02,0.02
					c0.06-0.23,0.09-0.56,0.09-0.98c0-0.09,0-0.18,0-0.28c0-0.09-0.01-0.19-0.02-0.3c-0.03-0.78-0.19-1.33-0.48-1.66
					C297.82,225.48,297.25,225.3,296.48,225.36z"/>
				<path class="st30" d="M301.03,224.14h0.81v4.81c0,0.1,0.02,0.21,0.04,0.34c0.03,0.14,0.07,0.27,0.12,0.38v-0.02
					c0.1,0.2,0.26,0.36,0.48,0.49c0.22,0.12,0.47,0.19,0.78,0.19c0.36,0,0.72-0.09,1.07-0.28c0.35-0.19,0.67-0.46,0.98-0.82h0.02
					c0.09-0.12,0.17-0.29,0.23-0.52c0.06-0.23,0.09-0.49,0.09-0.79v-3.8h0.86v7.41h-0.86v-0.74c-0.03,0-0.03,0-0.06-0.01
					c-0.02,0-0.04-0.01-0.06-0.01h-0.1c-0.74,0.59-1.52,0.87-2.34,0.83h-0.02c-0.26,0.03-0.67-0.1-1.21-0.37
					c-0.16-0.11-0.29-0.25-0.39-0.44c-0.11-0.18-0.22-0.41-0.34-0.67c-0.03-0.12-0.06-0.29-0.08-0.51
					c-0.02-0.23-0.02-0.49-0.02-0.81V224.14z"/>
				<path class="st30" d="M312.63,226.78c-0.15-1-0.79-1.49-1.89-1.49c-0.06,0-0.13,0.01-0.23,0.02c-0.1,0.01-0.18,0.02-0.26,0.04
					c-0.3,0.06-0.56,0.17-0.78,0.32c-0.22,0.15-0.39,0.34-0.53,0.56c-0.14,0.22-0.23,0.47-0.29,0.75c-0.06,0.27-0.08,0.57-0.06,0.87
					c0.03,0.8,0.24,1.41,0.61,1.85c0.38,0.43,0.93,0.64,1.66,0.64c1,0.02,1.58-0.46,1.76-1.43h1c-0.08,0.89-0.39,1.56-0.95,2.01
					c-0.56,0.45-1.25,0.67-2.1,0.64c-0.36-0.01-0.72-0.09-1.09-0.25c-0.37-0.16-0.69-0.39-0.96-0.7c-0.58-0.62-0.9-1.53-0.94-2.77
					c0-1.25,0.28-2.18,0.85-2.77c0.28-0.3,0.6-0.54,0.94-0.71c0.34-0.17,0.68-0.28,1-0.3c0.06-0.01,0.13-0.02,0.22-0.02
					c0.08,0,0.16,0,0.23,0c0.86,0,1.52,0.24,2.01,0.72c0.49,0.47,0.75,1.15,0.81,2.02H312.63z"/>
				<path class="st30" d="M316.01,224.14v-2.29h0.88v2.29h1.44v1.16h-1.44v3.85c0,0.05,0,0.1,0.01,0.14c0,0.03,0,0.08,0,0.13v0.27
					c-0.02,0.09,0,0.18,0.03,0.25c0.05,0.07,0.12,0.16,0.21,0.25c0.11,0.1,0.5,0.17,1.18,0.21v1.2h-1.15
					c-0.16-0.01-0.31-0.05-0.45-0.1c-0.14-0.05-0.24-0.13-0.32-0.24c-0.08-0.11-0.15-0.22-0.21-0.36c-0.07-0.12-0.12-0.25-0.13-0.35
					c-0.02-0.1-0.02-0.28-0.03-0.54c-0.01-0.25-0.01-0.54-0.02-0.88v-3.82h-1.09v-1.16H316.01z"/>
				<path class="st30" d="M322.68,222h0.98v8.27h4.12v1.29h-5.1V222z"/>
				<path class="st30" d="M328.95,222.55c0-0.22,0.06-0.4,0.18-0.54c0.11-0.14,0.25-0.21,0.42-0.21c0.17,0,0.31,0.07,0.43,0.21
					c0.11,0.14,0.17,0.32,0.17,0.54c0,0.22-0.06,0.4-0.17,0.54c-0.12,0.14-0.26,0.21-0.43,0.21c-0.17,0-0.31-0.07-0.42-0.21
					C329,222.95,328.95,222.77,328.95,222.55z M330,224.26v7.33h-0.94v-7.33H330z"/>
				<path class="st30" d="M331.41,224.14h0.8v0.88h0.24c0.34-0.3,0.67-0.54,0.97-0.69c0.29-0.15,0.57-0.24,0.8-0.26
					c0.13-0.02,0.3-0.02,0.48-0.01c0.19,0.01,0.36,0.02,0.5,0.06c0.52,0.12,0.95,0.44,1.28,0.96c0.12,0.22,0.21,0.47,0.28,0.78
					c0.07,0.3,0.1,0.66,0.1,1.07v4.63H336v-3.71c0-0.65-0.01-1.16-0.04-1.54v0.03c-0.08-0.28-0.23-0.51-0.47-0.69
					c-0.23-0.17-0.53-0.27-0.9-0.29h-0.01c-0.24-0.01-0.47,0-0.67,0.04c-0.2,0.04-0.36,0.11-0.49,0.22c-0.29,0.19-0.52,0.39-0.7,0.6
					c-0.17,0.21-0.29,0.4-0.35,0.57h0c-0.11,0.36-0.16,0.97-0.16,1.82v0.64c0,0.02,0,0.02,0,0.02c0.01,0,0.01,0.01,0.01,0.02v2.25
					h-0.8V224.14z"/>
				<path class="st30" d="M338.92,228.23c0.05,0.63,0.24,1.13,0.57,1.49c0.33,0.36,0.78,0.57,1.33,0.63
					c0.33-0.01,0.64-0.05,0.94-0.11c0.29-0.05,0.48-0.13,0.57-0.24c0.27-0.27,0.43-0.56,0.48-0.88h1.02
					c-0.11,1.68-1.14,2.49-3.1,2.44c-0.9-0.05-1.6-0.41-2.07-1.08c-0.48-0.67-0.71-1.62-0.7-2.84c-0.02-0.5,0.03-0.96,0.15-1.37
					c0.12-0.42,0.29-0.8,0.52-1.14c0.54-0.7,1.29-1.05,2.27-1.04c1,0,1.76,0.3,2.27,0.91c0.52,0.61,0.77,1.58,0.77,2.93v0.31H338.92
					z M340.87,225.15c-0.55,0.01-0.99,0.18-1.32,0.49c-0.33,0.32-0.54,0.8-0.62,1.43h3.96
					C342.73,225.79,342.07,225.14,340.87,225.15z"/>
				<path class="st30" d="M349.51,226.56c-0.16-0.93-0.71-1.39-1.67-1.39c-1.24,0.02-1.81,0.4-1.72,1.12c0,0.07,0.02,0.19,0.05,0.34
					c0.03,0.14,0.13,0.27,0.29,0.35c0.1,0.02,0.66,0.05,1.69,0.07c0.5,0.02,0.92,0.07,1.24,0.18c0.34,0.11,0.59,0.26,0.77,0.44
					c0.13,0.17,0.24,0.4,0.32,0.69c0.07,0.29,0.09,0.64,0.08,1.06c-0.04,0.28-0.13,0.55-0.26,0.81c-0.14,0.26-0.34,0.49-0.63,0.72
					l-0.02-0.02c-0.5,0.47-1.13,0.67-1.89,0.62h-0.02c-0.34,0.02-0.66-0.02-0.94-0.14c-0.3-0.12-0.58-0.31-0.86-0.6
					c-0.23-0.27-0.42-0.54-0.55-0.81c-0.14-0.28-0.2-0.57-0.21-0.89h0.84c0.09,0.38,0.29,0.67,0.62,0.88
					c0.33,0.21,0.76,0.36,1.3,0.42h0.04c0.81-0.1,1.36-0.48,1.63-1.12c0.04-0.07,0.06-0.16,0.06-0.25c-0.01-0.09-0.04-0.18-0.1-0.28
					c-0.05-0.1-0.14-0.19-0.24-0.28c-0.11-0.09-0.25-0.16-0.42-0.22c-0.32-0.12-0.9-0.18-1.75-0.18c-0.86-0.03-1.39-0.17-1.6-0.42
					c-0.11-0.1-0.19-0.26-0.25-0.48c-0.06-0.22-0.1-0.47-0.12-0.75c0-0.69,0.21-1.26,0.65-1.7c0.42-0.45,1.07-0.67,1.94-0.67
					c0.6,0.02,1.1,0.16,1.53,0.43c0.42,0.27,0.74,0.62,0.95,1.07c0.04,0.09,0.08,0.22,0.12,0.38c0.04,0.16,0.06,0.37,0.09,0.62
					H349.51z"/>
			</g>
			<rect x="143.56" y="221.8" class="st31" width="0.73" height="11.91"/>
			<rect x="241.39" y="221.8" class="st31" width="0.73" height="11.91"/>
		</g>
		<g>
			<g>
				<linearGradient id="SVGID_1_" gradientUnits="userSpaceOnUse" x1="66.3561" y1="199.4046" x2="90.0808" y2="199.4046">
					<stop  offset="0" style="stop-color:#245C7F"/>
					<stop  offset="1" style="stop-color:#3091CE"/>
				</linearGradient>
				<path style="fill:url(#SVGID_1_);stroke:#2A6880;stroke-width:0.2596;stroke-miterlimit:10;" d="M66.36,214.12v-29.44h10.65
					c3.94,0,7.1,1.42,9.49,4.26c2.39,2.84,3.58,6.35,3.58,10.52c0,4.17-1.23,7.65-3.69,10.46c-2.46,2.8-5.98,4.21-10.55,4.21H66.36z
					 M69.63,209.79h6.43c2.33,0,4.31-0.89,5.93-2.67c1.63-1.78,2.44-4.43,2.44-7.96c0-2.88-0.71-5.31-2.13-7.3
					c-1.42-1.99-3.29-2.98-5.62-2.98h-7.05V209.79z"/>
				
					<linearGradient id="SVGID_00000076561373838118573010000002374070441035861395_" gradientUnits="userSpaceOnUse" x1="94.0449" y1="199.4046" x2="116.7316" y2="199.4046">
					<stop  offset="0" style="stop-color:#245C7F"/>
					<stop  offset="1" style="stop-color:#3091CE"/>
				</linearGradient>
				
					<path style="fill:url(#SVGID_00000076561373838118573010000002374070441035861395_);stroke:#2A6880;stroke-width:0.2596;stroke-miterlimit:10;" d="
					M116.59,214.12h-5.51l-4.49-12.1h-7.33v12.1h-5.21v-29.44h12.54c3.49,0,6.05,0.8,7.69,2.4c1.64,1.6,2.46,3.68,2.46,6.22
					c0,3.78-1.74,6.38-5.21,7.81L116.59,214.12z M99.26,197.78h6.48c1.88,0,3.28-0.4,4.2-1.21c0.92-0.8,1.38-1.91,1.38-3.32
					c0-1.3-0.45-2.34-1.36-3.14c-0.91-0.8-2.17-1.2-3.79-1.2h-6.91V197.78z"/>
				
					<linearGradient id="SVGID_00000168104595180202624300000009779073648471281800_" gradientUnits="userSpaceOnUse" x1="120.4853" y1="211.2965" x2="125.7144" y2="211.2965">
					<stop  offset="0" style="stop-color:#245C7F"/>
					<stop  offset="1" style="stop-color:#3091CE"/>
				</linearGradient>
				
					<path style="fill:url(#SVGID_00000168104595180202624300000009779073648471281800_);stroke:#2A6880;stroke-width:0.2596;stroke-miterlimit:10;" d="
					M125.71,208.47v5.65h-5.23v-5.65H125.71z"/>
			</g>
			<path class="st35" d="M163.15,214.12h-5.51l-4.49-12.1h-7.33v12.1h-5.22v-29.44h12.54c3.49,0,6.05,0.8,7.69,2.4
				c1.63,1.6,2.45,3.68,2.45,6.22c0,3.78-1.74,6.38-5.21,7.81L163.15,214.12z M145.83,197.78h6.48c1.88,0,3.28-0.4,4.19-1.21
				c0.92-0.8,1.38-1.91,1.38-3.32c0-1.3-0.45-2.34-1.35-3.14c-0.91-0.8-2.17-1.2-3.8-1.2h-6.9V197.78z"/>
			<path class="st35" d="M186.42,214.12h-18.79v-29.44h18.6v4.38h-13.39v7.98h10.76v4.27h-10.76v8.24h13.58V214.12z"/>
			<path class="st35" d="M211.99,199.07v15.05h-2.31l-1.59-3.97c-1.68,2.95-4.28,4.42-7.81,4.42c-3.95,0-6.89-1.53-8.82-4.57
				c-1.94-3.05-2.92-6.58-2.92-10.59c0-4.24,1.08-7.83,3.26-10.77c2.16-2.94,5.2-4.41,9.1-4.41c2.91,0,5.3,0.86,7.19,2.58
				c1.87,1.72,3.06,3.86,3.56,6.42l-4.54,0.82c-0.85-3.59-2.88-5.39-6.08-5.39c-2.05,0-3.72,0.85-5.01,2.54
				c-1.29,1.7-1.94,4.31-1.94,7.83c0,7.43,2.29,11.15,6.87,11.15c1.78,0,3.25-0.63,4.42-1.88c1.17-1.25,1.75-2.9,1.75-4.96h-5.98
				v-4.27H211.99z"/>
			<path class="st35" d="M239.58,214.12h-5.51l-4.49-12.1h-7.33v12.1h-5.21v-29.44h12.54c3.49,0,6.05,0.8,7.69,2.4
				c1.64,1.6,2.46,3.68,2.46,6.22c0,3.78-1.74,6.38-5.21,7.81L239.58,214.12z M222.24,197.78h6.48c1.88,0,3.28-0.4,4.2-1.21
				c0.92-0.8,1.38-1.91,1.38-3.32c0-1.3-0.46-2.34-1.36-3.14c-0.91-0.8-2.18-1.2-3.8-1.2h-6.91V197.78z"/>
			<path class="st35" d="M254.32,214.58c-3.84,0-6.83-1.46-8.97-4.4c-2.15-2.94-3.21-6.56-3.21-10.87c0-4.28,1.13-7.87,3.41-10.75
				c2.27-2.88,5.28-4.33,9-4.33c3.76,0,6.72,1.44,8.91,4.33c2.18,2.88,3.28,6.49,3.28,10.81c0,4.54-1.14,8.21-3.4,11.01
				C261.07,213.18,258.06,214.58,254.32,214.58z M254.37,210.3c1.88,0,3.46-0.79,4.77-2.37c1.3-1.58,1.95-4.45,1.95-8.6
				c0-3.38-0.54-6.03-1.62-7.95c-1.07-1.92-2.74-2.88-5-2.88c-4.46,0-6.7,3.66-6.7,10.98c0,3.55,0.57,6.25,1.71,8.08
				C250.62,209.39,252.25,210.3,254.37,210.3z"/>
			<path class="st35" d="M304.79,184.69l-7.73,29.44h-5.47l-5.76-21.65l-5.23,21.65h-5.36l-7.91-29.44h5.53l5.59,21.46l5.22-21.46
				h5.27l5.76,21.46l5.49-21.46H304.79z"/>
			<path class="st35" d="M319.02,214.12h-5.59v-24.89h-7.69v-4.55h20.97v4.55h-7.69V214.12z"/>
			<path class="st35" d="M350.49,214.12h-5.22v-12.79h-11.04v12.79h-5.21v-29.44h5.21v12.1h11.04v-12.1h5.22V214.12z"/>
			<g>
				<path class="st31" d="M78.56,194.65H69.9v-8.82c0-0.67-0.53-1.2-1.18-1.2h-7c-0.65,0-1.19,0.54-1.19,1.2v8.82h-8.66
					c-0.66,0-1.18,0.54-1.18,1.2v7.12c0,0.66,0.53,1.2,1.18,1.2h8.66v8.82c0,0.66,0.53,1.2,1.19,1.2h7c0.64,0,1.18-0.54,1.18-1.2
					v-8.82h8.66c0.66,0,1.19-0.54,1.19-1.2v-7.12C79.75,195.19,79.22,194.65,78.56,194.65z"/>
				<g>
					<g>
						<path class="st36" d="M72.3,202.18c-0.44,0-0.94-0.15-1.45-0.53c-0.91-0.65-1.45-1.56-1.57-2.63
							c-0.15-1.34,0.4-2.65,1.01-3.35c0.18-0.27,0.37-0.53,0.53-0.75c0.78-1.08,1.05-1.45,1.04-3.09c-0.02-1.66-0.57-4.8-1.01-7.32
							c-0.08-0.48-0.17-0.95-0.24-1.38l0.57-0.1c0.07,0.43,0.15,0.89,0.24,1.37c0.45,2.54,1,5.71,1.02,7.42
							c0.01,1.84-0.35,2.34-1.15,3.45c-0.16,0.22-0.34,0.47-0.54,0.77c-0.55,0.63-1.02,1.76-0.89,2.92c0.1,0.91,0.55,1.65,1.33,2.22
							c0.74,0.55,1.41,0.48,1.79,0.23c0.42-0.29,0.7-0.01,0.8,0.1c0.02,0.02,0.06,0.06,0.07,0.07c0.01-0.01,2.8-0.43,3.16-2.61
							c0.15-0.95,0.13-1.65-0.07-2.33c-0.34-1.16-0.81-2.04-1.15-2.68l-0.13-0.24c-0.52-1.04-0.91-2.61-1.44-5.15
							c-0.5-2.43-1.1-4.69-1.5-5.99l0.55-0.18c0.52,1.7,1.09,3.96,1.52,6.04c0.52,2.49,0.9,4.03,1.39,5l0.12,0.24
							c0.35,0.67,0.83,1.58,1.19,2.79c0.23,0.77,0.25,1.55,0.09,2.59c-0.4,2.4-3.18,3.06-3.71,3.1c-0.25,0.02-0.41-0.14-0.5-0.23
							c-0.01-0.01-0.03-0.03-0.05-0.04c-0.01,0-0.02,0.01-0.03,0.02C73.03,202.07,72.69,202.18,72.3,202.18z"/>
					</g>
					<g>
						<path class="st36" d="M66.71,172.69c2.33,3.61,2.56,4.06,3.62,6.73c0.38,0.71,1.64,4.76,1.83,6.49c0,0,0.69,4.88,0.69,5.65
							c0,0,0.39,2.26-1.15,4.24c-0.87,1.11-0.86,2.28-0.86,2.28c-0.18,1.16,0.74,2.42,1.58,2.33c0.6-0.06,0.1-0.75-0.16-1.27
							c-0.41-0.8,0-2.55,1.44-1.81c1.63,0.84-0.51,3.04,0,3.14c0.68,0.11,1.48-0.42,1.95-1.16c0.3-0.49,0.39-1.11,0.45-1.57
							c0.16-1.17-0.76-3.14-1.01-3.74c-0.26-0.6-1.09-3.6-1.48-5.95c-0.39-2.33-1.14-5.52-1.9-7.71c-1.3-3.73-3.97-7.69-3.97-7.69
							s-3.29-4.65-4.88-6.36C65.17,170.18,66.71,172.69,66.71,172.69"/>
					</g>
					<g>
						<path class="st37" d="M72.4,201.58c-0.19,0-0.33-0.05-0.36-0.06c-1.65-0.72-1.98-2.32-1.99-2.39c-0.38-1.5,0.69-3.18,1.4-4.3
							c0.2-0.32,0.38-0.6,0.47-0.8c0.58-1.27,0.25-3.45,0.25-3.47c-0.01-0.06-0.6-4.77-0.87-5.88l0.56-0.14
							c0.27,1.15,0.85,5.74,0.88,5.94c0.01,0.09,0.35,2.37-0.3,3.8c-0.11,0.23-0.29,0.53-0.51,0.87c-0.65,1.03-1.64,2.59-1.32,3.85
							c0.01,0.07,0.3,1.38,1.64,1.97c0.03,0.01,0.19,0.04,0.3-0.02c0.07-0.04,0.12-0.11,0.16-0.23l0.02-0.08l0.06-0.06
							c0.17-0.15,0.33-0.2,0.48-0.17c0.12,0.03,0.21,0.1,0.26,0.21l0.06,0.12c0.74,0.1,1.63-0.51,1.92-0.76
							c0.07-0.06,1.49-1.22,0.48-4.13c-0.05-0.1-1.61-3.29-2.03-6.16c-0.21-1.41-0.84-4.38-1-4.87l0.55-0.19
							c0.19,0.57,0.82,3.59,1.02,4.97c0.4,2.77,1.98,5.98,1.99,6.02c1.17,3.37-0.58,4.76-0.65,4.82c-0.04,0.04-1.33,1.16-2.55,0.86
							l-0.13-0.03l-0.05-0.11c-0.1,0.17-0.23,0.27-0.34,0.32C72.68,201.56,72.53,201.58,72.4,201.58z M73.02,200.88
							c0,0.01,0,0.01,0.01,0.01L73.02,200.88z"/>
					</g>
					<g>
						<path class="st38" d="M72.87,198.25c0-0.26,0.04-0.47,0.12-0.7c0,0-0.14-0.05-0.27,0.52c-0.31,1.35,0.36,2.98,0.36,2.98
							c0.77,1.4,1.95,1.6,2.43,1.66c-1.89-0.88-2.23-1.82-2.39-2.45C72.95,199.55,72.89,199.32,72.87,198.25"/>
					</g>
					<g>
						<path class="st39" d="M73.19,200.15c-0.25,0.49-0.82,2.54,1.18,2.8c-0.72-0.5-1.76-0.76-0.84-2.9
							c0.48-1.13,0.52-1.51,0.57-1.74c0.06-0.26-0.17,0.14-0.17,0.14C73.49,199.56,73.5,199.56,73.19,200.15"/>
					</g>
				</g>
			</g>
		</g>
	</g>
</g>
</svg>
