<?xml version="1.0" encoding="utf-8"?>
<!-- Generator: Adobe Illustrator 26.5.0, SVG Export Plug-In . SVG Version: 6.00 Build 0)  -->
<svg version="1.1" id="Layer_1" xmlns="http://www.w3.org/2000/svg" xmlns:xlink="http://www.w3.org/1999/xlink" x="0px" y="0px"
	 viewBox="0 0 400 400" style="enable-background:new 0 0 400 400;" xml:space="preserve">
<style type="text/css">
	.st0{fill:#FFFFFF;}
	.st1{fill:url(#SVGID_1_);}
	.st2{fill:none;stroke:#42210B;stroke-width:5;stroke-linecap:round;stroke-linejoin:round;stroke-miterlimit:10;}
	.st3{fill:#FFFFFF;stroke:#42210B;stroke-width:5;stroke-miterlimit:10;}
	.st4{fill:#333333;}
	.st5{fill:#42210B;}
	.st6{fill:url(#SVGID_00000141449524278209606550000005347706744594236597_);}
	.st7{fill:url(#SVGID_00000119083172505727966870000006989055798685714066_);}
	.st8{fill:url(#SVGID_00000054980650724861443140000003942627221224940730_);}
	.st9{fill:#FCBF95;}
	.st10{fill:url(#SVGID_00000011022357551989293170000002114006480561789605_);}
	.st11{fill:#FF9D5A;}
	.st12{fill:#303047;}
	.st13{fill:url(#SVGID_00000139284283336290452790000003043397168025611156_);}
	.st14{fill:url(#SVGID_00000011732470379015074790000008675127224684080806_);}
	.st15{fill:url(#SVGID_00000134234543530635206760000007681287981955830704_);}
	.st16{clip-path:url(#SVGID_00000117636007167505405430000017619370440237575603_);}
	.st17{fill:#772C29;}
	.st18{fill:#F7C4A6;}
	.st19{fill:#E6A486;}
	.st20{fill:#F15A24;}
	.st21{fill:#C1272D;}
	.st22{fill:#CF7D73;}
	.st23{fill:#581C2C;}
	.st24{fill:#8B3B29;}
	.st25{clip-path:url(#SVGID_00000135666258613297501480000009477820309712244364_);}
	.st26{clip-path:url(#SVGID_00000016042962644368444570000018104158059546864801_);}
	.st27{clip-path:url(#SVGID_00000081621865766182158360000016224261772605083023_);}
	.st28{fill:#0C0C0C;}
	.st29{fill:#575757;}
	.st30{fill:#201D1E;}
	.st31{fill:#DB262D;}
	
		.st32{fill:url(#SVGID_00000128466842834591151980000006608795056625468296_);stroke:#2A6880;stroke-width:0.2596;stroke-miterlimit:10;}
	
		.st33{fill:url(#SVGID_00000139986842081729898090000004094200500193604241_);stroke:#2A6880;stroke-width:0.2596;stroke-miterlimit:10;}
	
		.st34{fill:url(#SVGID_00000084528503738589220970000001004789462950466441_);stroke:#2A6880;stroke-width:0.2596;stroke-miterlimit:10;}
	.st35{fill:#343433;}
	.st36{fill:#1C1B17;}
	.st37{fill:#4B443F;}
	.st38{fill:#B9272A;}
	.st39{fill:#264A90;}
	.st40{fill:#D41F26;}
	.st41{fill:#E66725;}
	.st42{clip-path:url(#SVGID_00000065773001494937965380000005816412301479513502_);}
	.st43{fill:#EF8C71;}
	.st44{fill:#EF8C73;}
	.st45{fill:#828080;}
	.st46{fill:none;}
	.st47{fill:none;stroke:#42210B;stroke-miterlimit:10;}
	.st48{clip-path:url(#SVGID_00000031178327708270664940000018189910812147251119_);}
	.st49{clip-path:url(#SVGID_00000148631939844771295470000010735156500314678187_);}
	.st50{fill:#FBB617;}
</style>
<g>
	<path class="st3" d="M327.69,298.84H72.31c-34.42,0-62.31-27.9-62.31-62.31v-73.06c0-34.42,27.9-62.31,62.31-62.31h255.37
		c34.42,0,62.31,27.9,62.31,62.31v73.06C390,270.94,362.1,298.84,327.69,298.84z"/>
	<g>
		<g>
			<path d="M97.94,238.77h0.25l3.43-12.92c0.72-2.79,1.84-4.69,3.34-5.73c1.51-1.03,3.78-1.55,6.81-1.55v29.26h-3.93v-24.83
				c-0.72,0.31-1.27,0.74-1.65,1.3c-0.38,0.56-0.73,1.39-1.07,2.51l-5.23,17.93h-3.68l-5.27-17.93c-0.33-1.14-0.68-1.98-1.04-2.53
				c-0.36-0.54-0.91-0.97-1.63-1.27v24.83h-3.93v-29.26c3.04,0,5.3,0.52,6.79,1.57c1.49,1.05,2.61,2.95,3.37,5.71L97.94,238.77z"/>
			<path d="M127.03,227.36c4.74,0.2,7.11,2.16,7.11,5.89c0,4.66-3.05,6.98-9.15,6.98h-1.71v-3.22h2.01c1.87,0,3.16-0.29,3.89-0.86
				c0.72-0.57,1.09-1.53,1.09-2.86c0-0.86-0.32-1.51-0.96-1.94c-0.64-0.43-1.46-0.65-2.47-0.65c-1.98,0-3.53,0.7-4.66,2.09
				c-1.13,1.39-1.69,3.07-1.69,5.02c0,2.06,0.61,3.73,1.82,5.02c1.21,1.28,2.79,1.92,4.75,1.92c1.76,0,3.19-0.43,4.31-1.3l2.51,2.47
				c-1.92,1.56-4.19,2.34-6.81,2.34c-3.18,0-5.71-0.93-7.61-2.8c-1.9-1.87-2.84-4.28-2.84-7.23c0-3.29,0.93-5.95,2.8-7.98
				C121.25,228.21,123.8,227.24,127.03,227.36z"/>
			<path d="M152.24,227.77v3.51h-7.4c-0.81,0-1.5,0.15-2.09,0.46c-0.58,0.31-0.88,0.74-0.88,1.3c0,0.33,0.07,0.63,0.21,0.9
				c0.14,0.27,0.3,0.48,0.48,0.65c0.18,0.17,0.46,0.34,0.84,0.52c0.38,0.18,0.67,0.31,0.88,0.38c0.21,0.07,1.09,0.36,2.65,0.86
				c1.56,0.5,2.72,0.92,3.47,1.25c0.75,0.33,1.33,0.79,1.73,1.36c0.4,0.57,0.66,1.13,0.77,1.67c0.11,0.54,0.17,1.08,0.17,1.61
				c0,3.74-2.56,5.6-7.69,5.6h-7.23v-3.51h7.23c2.62,0,3.93-0.7,3.93-2.09c0-0.67-0.38-1.23-1.15-1.67c-0.77-0.45-1.7-0.82-2.8-1.13
				c-1.1-0.31-2.2-0.66-3.3-1.07c-1.1-0.4-2.03-1.06-2.8-1.96c-0.77-0.91-1.15-2.03-1.15-3.37c0-1.7,0.66-3,1.97-3.91
				c1.31-0.91,2.9-1.36,4.77-1.36H152.24z"/>
			<path d="M159.56,230.41c1.95-2.03,4.39-3.05,7.32-3.05c1.42,0,2.75,0.27,3.99,0.82c1.24,0.54,2.33,1.29,3.26,2.24
				c0.93,0.95,1.67,2.06,2.2,3.32c0.53,1.27,0.79,2.63,0.79,4.08c0,1.45-0.26,2.81-0.77,4.08c-0.52,1.27-1.23,2.38-2.15,3.32
				s-2.01,1.69-3.26,2.24c-1.25,0.54-2.61,0.82-4.05,0.82c-1.48,0-2.84-0.27-4.08-0.82c-1.24-0.54-2.32-1.29-3.24-2.24
				c-0.92-0.95-1.64-2.06-2.15-3.32c-0.52-1.27-0.77-2.63-0.77-4.08C156.63,234.85,157.61,232.39,159.56,230.41z M166.87,230.87
				c-1.95,0-3.52,0.64-4.7,1.92c-1.18,1.28-1.78,2.96-1.78,5.02c0,2.06,0.59,3.73,1.78,5.02c1.18,1.28,2.75,1.92,4.7,1.92
				c1.98,0,3.55-0.65,4.72-1.94s1.76-2.96,1.76-5s-0.58-3.7-1.76-5S168.85,230.87,166.87,230.87z"/>
			<path d="M179.41,231.29l7.48-7.48v3.97h5.64v3.51h-5.64v8.61c0,0.98,0.16,1.78,0.48,2.42c0.32,0.64,0.79,1.09,1.4,1.36
				c0.61,0.27,1.19,0.44,1.73,0.52c0.54,0.08,1.22,0.13,2.03,0.13v3.51c-3.21,0-5.57-0.61-7.11-1.84c-1.53-1.23-2.3-3.26-2.3-6.1
				v-8.61H179.41z"/>
			<path d="M200.19,218.58v9.2h3.55c3.09,0,5.31,0.46,6.65,1.38c1.2,0.81,1.96,1.78,2.28,2.91s0.48,2.61,0.48,4.45v11.33h-3.68
				v-11.29c0-0.5-0.01-0.93-0.04-1.27c-0.03-0.35-0.13-0.79-0.29-1.34s-0.4-0.99-0.71-1.34c-0.31-0.35-0.75-0.65-1.34-0.92
				c-0.58-0.26-1.3-0.4-2.13-0.4h-4.77v16.55h-3.68v-29.26H200.19z"/>
			<path d="M227.99,227.36c4.74,0.2,7.11,2.16,7.11,5.89c0,4.66-3.05,6.98-9.16,6.98h-1.71v-3.22h2.01c1.87,0,3.16-0.29,3.89-0.86
				c0.72-0.57,1.09-1.53,1.09-2.86c0-0.86-0.32-1.51-0.96-1.94c-0.64-0.43-1.46-0.65-2.47-0.65c-1.98,0-3.53,0.7-4.66,2.09
				c-1.13,1.39-1.69,3.07-1.69,5.02c0,2.06,0.61,3.73,1.82,5.02c1.21,1.28,2.79,1.92,4.74,1.92c1.76,0,3.19-0.43,4.31-1.3l2.51,2.47
				c-1.92,1.56-4.2,2.34-6.81,2.34c-3.18,0-5.71-0.93-7.61-2.8c-1.9-1.87-2.84-4.28-2.84-7.23c0-3.29,0.93-5.95,2.8-7.98
				S224.75,227.24,227.99,227.36z"/>
			<path d="M238.65,247.84v-11.41c0-3.2,0.6-5.42,1.8-6.65c0.58-0.61,1.3-1.07,2.13-1.38c0.84-0.31,1.57-0.49,2.2-0.54
				s1.48-0.08,2.57-0.08h3.68v3.51h-4.43c-0.56,0-0.99,0.01-1.29,0.04c-0.31,0.03-0.67,0.13-1.09,0.29
				c-0.42,0.17-0.78,0.43-1.09,0.8c-0.53,0.67-0.79,2.01-0.79,4.01v11.41H238.65z"/>
			<path d="M264.9,236.05v3.76c-1.06-0.81-2.36-1.21-3.89-1.21c-1.31,0-2.33,0.26-3.05,0.77c-0.72,0.52-1.09,1.25-1.09,2.19
				c0,1.84,1.37,2.76,4.1,2.76h5.52v-7.98c0-3.37-1.64-5.06-4.93-5.06h-6.69v-3.51h6.9c2.7,0,4.78,0.67,6.23,2.01
				c1.45,1.34,2.17,3.26,2.17,5.77v12.29h-9.32c-2.37,0-4.25-0.53-5.64-1.59c-1.39-1.06-2.09-2.61-2.09-4.64s0.74-3.58,2.22-4.64
				c1.48-1.06,3.33-1.59,5.56-1.59C262.14,235.38,263.48,235.61,264.9,236.05z"/>
			<path d="M274.76,257.37v-19.56c0-1.45,0.27-2.82,0.79-4.1c0.53-1.28,1.25-2.39,2.17-3.32c0.92-0.93,2.01-1.67,3.26-2.22
				c1.25-0.54,2.59-0.82,4.01-0.82c1.42,0,2.75,0.27,3.99,0.82c1.24,0.54,2.33,1.29,3.26,2.24c0.93,0.95,1.67,2.06,2.19,3.32
				c0.53,1.27,0.79,2.63,0.79,4.08c0,1.45-0.26,2.81-0.77,4.08c-0.52,1.27-1.23,2.38-2.15,3.32c-0.92,0.95-2.01,1.69-3.26,2.24
				c-1.25,0.54-2.61,0.82-4.06,0.82c-1.78,0-3.44-0.42-4.97-1.26v-3.76c1.37,1,2.98,1.51,4.85,1.51c1,0,1.92-0.17,2.74-0.52
				c0.82-0.35,1.52-0.83,2.09-1.44c0.57-0.61,1.01-1.34,1.32-2.19c0.31-0.85,0.46-1.78,0.46-2.78s-0.15-1.93-0.46-2.78
				c-0.31-0.85-0.74-1.58-1.3-2.19c-0.56-0.61-1.23-1.09-2.03-1.44c-0.79-0.35-1.69-0.52-2.7-0.52c-0.98,0-1.86,0.17-2.65,0.5
				c-0.79,0.33-1.48,0.81-2.05,1.42c-0.57,0.61-1.01,1.35-1.32,2.19c-0.31,0.85-0.46,1.79-0.46,2.82v19.56H274.76z"/>
			<path d="M299.01,227.77h3.68v10.49c0,2.26,0.35,3.83,1.04,4.72c0.7,0.89,1.98,1.34,3.85,1.34h4.39v-16.55h3.68v19.06
				c0,3.48-0.91,6.11-2.74,7.88c-1.83,1.77-4.69,2.66-8.59,2.66h-3.01v-3.51h2.63c5.1,0,7.77-2.01,8.03-6.02h-3.51
				c-3.65,0-6.14-0.64-7.46-1.92c-1.32-1.28-1.98-3.89-1.98-7.82V227.77z"/>
		</g>
		<g>
			<path d="M165.36,216.25c-3.28-0.08-5.81-1.17-7.79-3.4c-1.37-1.53-2.16-3.36-2.39-5.42c-0.33-2.92,0.56-5.57,1.76-8.15
				c0.45-0.97,1.01-1.89,1.59-2.78c1.05-1.61,1.57-3.38,1.86-5.25c0.29-1.83,0.63-3.65,1.04-5.45c0.99-4.31,2.3-8.53,3.85-12.67
				c1.97-5.28,4.29-10.4,7.16-15.26c1.65-2.79,3.47-5.47,5.51-7.98c1.59-1.94,3.29-3.78,5.24-5.37c0.67-0.54,1.33-1.09,2.01-1.61
				c0.6-0.46,1.35-0.37,1.87,0.18c0.46,0.5,0.45,1.32,0.03,1.8c-2.54,2.96-4.76,6.15-6.76,9.49c-2.27,3.8-4.22,7.76-5.81,11.89
				c-1.55,4.01-2.71,8.13-3.46,12.37c-0.29,1.64-0.46,3.3-0.61,4.96c-0.13,1.45-0.2,2.91-0.22,4.37c-0.02,1.42-0.06,2.86,0.15,4.26
				c0.17,1.12,0.6,2.22,1.08,3.26c0.63,1.36,1.49,2.62,2.14,3.97c0.8,1.64,1.19,3.4,1.35,5.23c0.14,1.57,0.09,3.11-0.42,4.6
				c-1.26,3.69-3.8,5.94-7.62,6.73C166.32,216.16,165.69,216.21,165.36,216.25z M172.43,163.96c-0.02-0.01-0.05-0.02-0.07-0.03
				c-0.1,0.18-0.21,0.37-0.3,0.55c-2.9,5.83-5.18,11.9-6.93,18.16c-0.85,3.02-1.6,6.07-2.03,9.18c-0.33,2.37-1.11,4.53-2.42,6.51
				c-1.44,2.17-2.39,4.53-2.73,7.13c-0.21,1.6,0.09,3.08,0.92,4.4c1.67,2.65,4.09,3.9,7.25,3.46c2.74-0.38,4.6-1.95,5.64-4.47
				c0.86-2.08,0.55-4.22,0.04-6.32c-0.43-1.77-1.41-3.28-2.32-4.83c-1.32-2.23-2.06-4.62-2.01-7.24c0.02-0.96-0.04-1.92,0-2.88
				c0.08-1.89,0.13-3.78,0.33-5.66c0.2-1.83,0.54-3.64,0.88-5.45c0.64-3.43,1.64-6.76,2.81-10.03
				C171.78,165.62,172.11,164.8,172.43,163.96z"/>
			<path d="M129.15,161.18c-0.47,0.26-0.92,0.51-1.37,0.76c-0.66,0.37-1.47,0.24-1.86-0.32c-0.46-0.65-0.4-1.4,0.26-1.89
				c0.66-0.49,1.39-0.88,2.11-1.29c1.71-0.99,3.43-1.97,5.2-2.99c-1.1-1.91-2.19-3.79-3.3-5.71c-1.16,0.68-2.3,1.32-3.41,1.99
				c-0.47,0.28-0.94,0.4-1.46,0.21c-0.51-0.18-0.8-0.56-0.87-1.09c-0.08-0.64,0.19-1.12,0.75-1.44c1.88-1.08,3.76-2.18,5.64-3.27
				c1.3-0.75,2.6-1.51,3.9-2.26c1.02-0.59,2.01-0.15,2.22,0.98c0.1,0.54-0.19,1.09-0.77,1.43c-1.07,0.62-2.15,1.23-3.22,1.85
				c-0.11,0.06-0.22,0.14-0.35,0.22c1.1,1.9,2.19,3.78,3.3,5.69c1.47-0.85,2.9-1.67,4.33-2.5c0.97-0.56,1.94-1.13,2.92-1.69
				c0.8-0.46,1.67-0.25,2.06,0.49c0.4,0.74,0.13,1.51-0.68,1.95c-0.26,0.14-0.52,0.29-0.78,0.44c-0.24,0.14-0.48,0.28-0.76,0.44
				c0.72,1.25,1.44,2.5,2.17,3.75c2.21,3.82,4.42,7.63,6.62,11.45c1.11,1.91,2.23,3.81,3.31,5.75c1.02,1.84,0.74,3.87-0.7,5.39
				c-0.38,0.4-0.1,0.82-0.07,1.21c0.07,0.88,0.24,1.76,0.36,2.64c0.1,0.73-0.13,1.31-0.85,1.68c0.62,1.07,1.22,2.11,1.82,3.15
				c0.7,1.22,1.42,2.43,2.11,3.65c0.38,0.67,0.14,1.53-0.48,1.89c-0.74,0.43-1.51,0.22-1.98-0.57c-0.61-1.04-1.21-2.09-1.81-3.13
				c-0.69-1.18-1.37-2.37-2.07-3.58c-0.77,0.44-1.43,0.29-2.08-0.27c-0.78-0.66-1.62-1.26-2.45-1.86c-0.15-0.11-0.4-0.18-0.58-0.14
				c-2.21,0.46-4.17-0.54-5.26-2.5c-2.3-4.12-4.71-8.18-7.08-12.27c-1.55-2.67-3.09-5.34-4.64-8.01
				C129.28,161.35,129.23,161.28,129.15,161.18z M141.23,176.42c1.21-0.69,2.36-1.36,3.52-2.03c0.52-0.3,1.12-0.28,1.57,0.11
				c0.4,0.35,0.59,0.79,0.48,1.36c-0.11,0.6-0.52,0.88-0.99,1.15c-1.05,0.59-2.09,1.2-3.18,1.83c0.43,0.71,0.79,1.42,1.25,2.06
				c0.46,0.64,1.43,0.83,2.11,0.45c2.01-1.14,4.02-2.29,6.01-3.48c0.96-0.57,1.15-1.57,0.59-2.53c-1.07-1.82-2.12-3.65-3.18-5.48
				c-2.64-4.57-5.28-9.15-7.93-13.72c-0.3-0.52-0.61-1.04-0.92-1.55c-3.03,1.75-6,3.46-8.97,5.18c0.67,1.14,1.3,2.24,1.94,3.33
				c1.17-0.68,2.31-1.35,3.46-2c0.54-0.31,1.23-0.24,1.63,0.1c0.77,0.66,0.67,1.77-0.23,2.31c-1.15,0.69-2.31,1.34-3.47,2.02
				c0.82,1.42,1.63,2.81,2.46,4.24c1.15-0.66,2.26-1.3,3.38-1.94c0.76-0.44,1.62-0.28,2.01,0.36c0.5,0.82,0.09,1.69-0.61,2.06
				c-1.14,0.61-2.24,1.28-3.38,1.95C139.59,173.58,140.4,174.98,141.23,176.42z M151.59,181.35c-0.8,0.46-1.51,0.87-2.28,1.31
				c0.18,0.13,0.29,0.19,0.38,0.28c0.56,0.61,1.15,0.89,1.83,0.17c0.11-0.11,0.26-0.25,0.26-0.37
				C151.75,182.31,151.66,181.87,151.59,181.35z"/>
			<path d="M150.74,197.46c-1.8,0.1-3.59,0.23-5.4,0.3c-1.34,0.05-2.69,0.09-4.03-0.01c-1.84-0.14-3.67-0.4-5.5-0.63
				c-0.65-0.08-1.29-0.23-1.94-0.35c-0.75-0.14-1.28-0.88-1.15-1.59c0.14-0.79,0.89-1.26,1.68-1.13c1.66,0.27,3.32,0.55,4.99,0.73
				c1.6,0.17,3.21,0.3,4.81,0.28c1.83-0.02,3.67-0.21,5.5-0.37c1.09-0.09,2.16-0.26,3.25-0.4c0.62-0.08,1.16,0.07,1.52,0.62
				c0.35,0.53,0.26,1.05-0.04,1.58c-1.08,1.9-1.91,3.9-2.38,6.04c-0.5,2.24-0.57,4.47-0.1,6.73c0.54,2.58,1.79,4.76,3.62,6.59
				c2.01,2,4.46,3.24,7.28,3.7c3.86,0.62,7.4-0.18,10.5-2.57c2.51-1.93,4.03-4.54,4.81-7.6c0.42-1.66,0.51-3.35,0.38-5.03
				c-0.2-2.53-0.94-4.93-2.13-7.19c-0.2-0.37-0.39-0.77-0.47-1.18c-0.13-0.75,0.47-1.49,1.23-1.48c1.28,0.01,2.55,0.12,3.83,0.15
				c0.83,0.02,1.66-0.04,2.49-0.05c2.44-0.03,4.84-0.34,7.25-0.7c1.48-0.23,2.97-0.42,4.47-0.6c1.22-0.15,2.04,0.83,1.62,1.91
				c-0.19,0.48-0.58,0.79-1.07,0.86c-1.58,0.22-3.17,0.41-4.76,0.61c-1.51,0.19-3.01,0.42-4.52,0.57c-1.01,0.1-2.02,0.11-3.03,0.13
				c-1.24,0.02-2.49,0.01-3.81,0.01c0.12,0.32,0.22,0.6,0.32,0.88c0.68,1.76,1.11,3.57,1.3,5.44c0.32,3.15-0.04,6.21-1.33,9.11
				c-2.2,4.93-5.9,8.09-11.2,9.32c-1.55,0.36-3.12,0.49-4.69,0.37c-3.49-0.26-6.63-1.47-9.36-3.71c-2.99-2.47-4.83-5.62-5.57-9.4
				c-0.58-2.97-0.32-5.92,0.55-8.81C149.99,199.52,150.39,198.47,150.74,197.46z"/>
		</g>
	</g>
</g>
</svg>
