<?xml version="1.0" encoding="utf-8"?>
<!-- Generator: Adobe Illustrator 26.5.0, SVG Export Plug-In . SVG Version: 6.00 Build 0)  -->
<svg version="1.1" id="Layer_1" xmlns="http://www.w3.org/2000/svg" xmlns:xlink="http://www.w3.org/1999/xlink" x="0px" y="0px"
	 viewBox="0 0 400 400" style="enable-background:new 0 0 400 400;" xml:space="preserve">
<style type="text/css">
	.st0{fill:#FFFFFF;}
	.st1{fill:url(#SVGID_1_);}
	.st2{fill:none;stroke:#42210B;stroke-width:5;stroke-linecap:round;stroke-linejoin:round;stroke-miterlimit:10;}
	.st3{fill:#FFFFFF;stroke:#42210B;stroke-width:5;stroke-miterlimit:10;}
	.st4{fill:#333333;}
	.st5{fill:#42210B;}
	.st6{fill:url(#SVGID_00000034089121372143943030000015633937046830269836_);}
	.st7{fill:url(#SVGID_00000031189341987151579860000001855849495212740030_);}
	.st8{fill:url(#SVGID_00000008834726530443543760000012706319294077429133_);}
	.st9{fill:#FCBF95;}
	.st10{fill:url(#SVGID_00000062885546646437007940000005515408364820739510_);}
	.st11{fill:#FF9D5A;}
	.st12{fill:#303047;}
	.st13{fill:url(#SVGID_00000091001230401069690690000005658908462887988614_);}
	.st14{fill:url(#SVGID_00000109716868630723202250000002871952659679384208_);}
	.st15{fill:url(#SVGID_00000017516099346388349250000011227673722071148734_);}
	.st16{clip-path:url(#SVGID_00000116940818582623670280000014570569655876307126_);}
	.st17{fill:#772C29;}
	.st18{fill:#F7C4A6;}
	.st19{fill:#E6A486;}
	.st20{fill:#F15A24;}
	.st21{fill:#C1272D;}
	.st22{fill:#CF7D73;}
	.st23{fill:#581C2C;}
	.st24{fill:#8B3B29;}
	.st25{clip-path:url(#SVGID_00000049933834863142388700000009886641596483871125_);}
	.st26{clip-path:url(#SVGID_00000116219809033694290480000006004433732496444344_);}
	.st27{clip-path:url(#SVGID_00000098220434808033743220000012931739706587780269_);}
	.st28{fill:#0C0C0C;}
	.st29{fill:#575757;}
	.st30{fill:#201D1E;}
	.st31{fill:#DB262D;}
	
		.st32{fill:url(#SVGID_00000014630172028477006140000004554582635940448175_);stroke:#2A6880;stroke-width:0.2596;stroke-miterlimit:10;}
	
		.st33{fill:url(#SVGID_00000040532631584456589540000010295297806928371870_);stroke:#2A6880;stroke-width:0.2596;stroke-miterlimit:10;}
	
		.st34{fill:url(#SVGID_00000155847925080550568400000017100447923103821982_);stroke:#2A6880;stroke-width:0.2596;stroke-miterlimit:10;}
	.st35{fill:#343433;}
	.st36{fill:#1C1B17;}
	.st37{fill:#4B443F;}
	.st38{fill:#B9272A;}
	.st39{fill:#264A90;}
	.st40{fill:#D41F26;}
	.st41{fill:#E66725;}
	.st42{clip-path:url(#SVGID_00000041292252933390211750000004842977420093702051_);}
	.st43{fill:#EF8C71;}
	.st44{fill:#EF8C73;}
	.st45{fill:#828080;}
	.st46{fill:none;}
	.st47{fill:none;stroke:#42210B;stroke-miterlimit:10;}
	.st48{clip-path:url(#SVGID_00000018230248076981760180000007396536790892894116_);}
	.st49{clip-path:url(#SVGID_00000032639645023561666390000006381971712448449162_);}
	.st50{fill:#FBB617;}
</style>
<g>
	<path class="st3" d="M327.69,298.84H72.31c-34.42,0-62.31-27.9-62.31-62.31v-73.06c0-34.42,27.9-62.31,62.31-62.31h255.37
		c34.42,0,62.31,27.9,62.31,62.31v73.06C390,270.94,362.1,298.84,327.69,298.84z"/>
	<g>
		<g>
			<g>
				<path d="M158.75,207.25c-1.39,0-2.69-0.4-3.79-1.08v37h7.56v-37C161.43,206.85,160.14,207.25,158.75,207.25z"/>
				<path d="M203.06,238.89c-1.17,0.98-2.52,1.87-4.06,2.66c-1.31,0.65-2.87,1.25-4.69,1.79c-1.82,0.54-3.85,0.8-6.09,0.8
					c-3.27,0-6.34-0.62-9.21-1.86c-2.87-1.24-5.37-2.93-7.49-5.08c-2.12-2.15-3.8-4.66-5.04-7.53c-1.24-2.87-1.86-5.94-1.86-9.21
					c0-3.27,0.62-6.34,1.86-9.21c1.24-2.87,2.92-5.38,5.04-7.53c2.12-2.15,4.62-3.84,7.49-5.08c2.87-1.24,5.94-1.86,9.21-1.86
					c2.15,0,4.12,0.23,5.92,0.7c1.8,0.47,3.43,1.07,4.9,1.82c1.47,0.75,2.78,1.61,3.92,2.59c1.14,0.98,2.14,1.96,2.98,2.94
					c2.01,2.38,3.57,5.06,4.69,8.05h-8.19c-0.89-1.59-2.01-3.01-3.36-4.27c-1.17-1.07-2.64-2.05-4.41-2.94
					c-1.77-0.89-3.92-1.33-6.44-1.33c-2.24,0-4.33,0.42-6.27,1.26c-1.94,0.84-3.63,1.99-5.08,3.46c-1.45,1.47-2.59,3.17-3.43,5.11
					c-0.84,1.94-1.26,4.02-1.26,6.27s0.42,4.33,1.26,6.27c0.84,1.94,1.98,3.64,3.43,5.11c1.45,1.47,3.14,2.63,5.08,3.47
					c1.94,0.84,4.03,1.26,6.27,1.26c1.59,0,3.02-0.18,4.31-0.53c1.28-0.35,2.44-0.82,3.47-1.4c1.03-0.58,1.94-1.24,2.73-1.96
					c0.79-0.72,1.47-1.48,2.03-2.27c1.35-1.82,2.38-3.87,3.08-6.16h-15.61v-7.56h22.4v26.46h-7.56V238.89z"/>
				<path d="M213.49,197.8h11.34l11.34,34.02l11.34-34.02h11.34v45.36h-7.56v-32.55l-10.92,32.55h-8.4l-10.92-32.55v32.55h-7.56
					V197.8z"/>
			</g>
			<g>
				<path d="M179.11,146.49c2.17,0,4.29,0,6.47,0c-0.06,0.23-0.1,0.45-0.17,0.67c-2.12,6.94-4.22,13.88-6.36,20.81
					c-1.35,4.36-4.03,7.69-8.02,9.88c-2.28,1.25-4.69,2.29-7.04,3.41c-3.85,1.83-7.71,3.66-11.57,5.48
					c-1.34,0.63-2.68,1.26-4.05,1.8c-0.54,0.21-1.17,0.24-1.76,0.25c-0.42,0.01-0.54-0.27-0.27-0.61c0.36-0.46,0.75-0.91,1.19-1.3
					c1.26-1.12,2.71-1.97,4.16-2.81c2.33-1.34,4.63-2.73,6.93-4.11c3.79-2.27,7.57-4.56,11.38-6.81c1.87-1.11,2.86-2.76,3.39-4.82
					c1.52-5.92,3.09-11.82,4.65-17.73C178.39,149.23,178.74,147.88,179.11,146.49z"/>
				<path d="M154.59,188.57c0.56,1.09,1.05,2.19,1.68,3.21c0.58,0.93,1.28,1.79,1.97,2.64c0.45,0.54,1.08,0.82,1.8,0.93
					c1.9,0.29,3.56,2.11,3.87,4.02c0.41,2.58-1.37,5.21-4.14,5.61c-2.3,0.33-4.4-0.9-5.27-3.11c-0.26-0.67-0.37-1.37-0.28-2.08
					c0.11-0.85-0.21-1.58-0.56-2.32c-1.03-2.16-1.91-4.37-2.49-6.7c-0.08-0.32-0.04-0.49,0.29-0.64c0.93-0.44,1.83-0.93,2.75-1.39
					C154.33,188.68,154.48,188.62,154.59,188.57z"/>
				<path d="M155.2,179c0-0.93-0.02-1.75,0.02-2.58c0.01-0.14,0.18-0.31,0.33-0.4c2.36-1.43,4.74-2.84,7.1-4.27
					c1.02-0.62,2.05-1.22,3.02-1.9c1.13-0.8,1.82-1.95,2.21-3.26c1.96-6.59,3.92-13.18,5.86-19.77c0.08-0.27,0.2-0.37,0.48-0.36
					c0.72,0.02,1.44,0.01,2.22,0.01c-0.21,0.81-0.4,1.58-0.6,2.34c-1.71,6.49-3.41,12.98-5.12,19.48c-0.29,1.1-0.92,1.96-1.9,2.55
					c-3.42,2.05-6.83,4.1-10.25,6.14C157.47,177.64,156.38,178.29,155.2,179z"/>
				<path d="M147.77,180.75c-0.04,0.85-0.07,1.7-0.12,2.55c-0.01,0.11-0.1,0.23-0.19,0.31c-1.42,1.24-3.08,2.02-4.9,2.45
					c-0.42,0.1-0.87,0.11-1.3,0.1c-0.32-0.01-0.45-0.25-0.24-0.52c0.4-0.5,0.8-1.03,1.28-1.45c1.62-1.41,3.49-2.43,5.37-3.44
					C147.69,180.75,147.72,180.75,147.77,180.75z"/>
				<path d="M153.38,169.14c-0.23,1.91-0.53,3.81-0.65,5.72c-0.11,1.76-0.03,3.54-0.01,5.31c0,0.24-0.06,0.37-0.27,0.49
					c-0.57,0.31-1.12,0.65-1.67,0.98c-0.12,0.07-0.25,0.12-0.43,0.21C150.6,177.35,151.75,173.17,153.38,169.14z"/>
			</g>
		</g>
		<g>
			<path d="M155.04,253.37v-6.28h4.44v1.47h-2.57v1.14h2.05v1.47h-2.05v2.21H155.04z"/>
			<path d="M160.3,247.08h1.87v3.76c0,0.62,0.11,1.15,0.88,1.15c0.67,0,0.87-0.47,0.87-1.15v-3.76h1.87v3.55
				c0,2.02-0.85,2.9-2.74,2.9c-1.77,0-2.75-0.74-2.75-2.91V247.08z"/>
			<path d="M166.95,253.37v-6.28h4.66v1.47h-2.78v0.9h2.36v1.47h-2.36v0.99h2.9v1.47H166.95z"/>
			<path d="M175.27,253.37v-6.28h1.87v2.12h1.77v-2.12h1.87v6.28h-1.87v-2.43h-1.77v2.43H175.27z"/>
			<path d="M181.42,253.37l2.05-6.28h1.9l2.05,6.28h-1.86l-0.22-0.83h-1.86l-0.21,0.83H181.42z M184.4,248.98l-0.58,2.25H185
				L184.4,248.98z"/>
			<path d="M188.1,253.37v-6.28h1.87v6.28H188.1z"/>
			<path d="M192.94,251.18v2.19h-1.87v-6.28h2.7c1.9,0,2.53,0.57,2.53,1.79c0,0.72-0.29,1.33-0.96,1.54c0.6,0.24,0.97,0.4,0.97,1.67
				c0,0.82-0.02,1.1,0.2,1.1v0.19h-1.9c-0.05-0.14-0.1-0.54-0.1-1.1c0-0.82-0.13-1.09-1-1.09H192.94z M192.94,249.8h0.74
				c0.58,0,0.89-0.16,0.89-0.59c0-0.45-0.32-0.65-0.75-0.65h-0.87V249.8z"/>
			<path d="M199.65,247.08h5.24v1.65h-1.68v4.63h-1.87v-4.63h-1.68V247.08z"/>
			<path d="M207.48,251.18v2.19h-1.87v-6.28h2.7c1.9,0,2.53,0.57,2.53,1.79c0,0.72-0.29,1.33-0.96,1.54c0.6,0.24,0.97,0.4,0.97,1.67
				c0,0.82-0.02,1.1,0.2,1.1v0.19h-1.9c-0.05-0.14-0.1-0.54-0.1-1.1c0-0.82-0.13-1.09-1-1.09H207.48z M207.48,249.8h0.74
				c0.58,0,0.89-0.16,0.89-0.59c0-0.45-0.32-0.65-0.75-0.65h-0.87V249.8z"/>
			<path d="M211.39,253.37l2.05-6.28h1.9l2.05,6.28h-1.86l-0.22-0.83h-1.86l-0.21,0.83H211.39z M214.37,248.98l-0.58,2.25h1.18
				L214.37,248.98z"/>
			<path d="M221.81,250.51l-0.07-1.43v-2h1.79v6.28h-1.75l-2.04-3.42l0.07,1.43v1.99h-1.79v-6.28h1.75L221.81,250.51z"/>
			<path d="M227.61,248.91c-0.03-0.22-0.13-0.35-0.27-0.43c-0.13-0.08-0.3-0.11-0.48-0.11c-0.41,0-0.6,0.13-0.6,0.36
				c0,0.94,3.28,0.36,3.28,2.64c0,1.46-1.1,2.16-2.67,2.16c-1.51,0-2.49-0.97-2.53-2.1h1.79c0.04,0.23,0.15,0.39,0.31,0.5
				c0.15,0.1,0.35,0.16,0.53,0.16c0.47,0,0.78-0.17,0.78-0.46c0-0.95-3.28-0.3-3.28-2.7c0-1.33,1.05-2.01,2.47-2.01
				c1.59,0,2.31,0.89,2.44,1.99H227.61z"/>
			<path d="M230.26,253.37v-6.28h2.75c1.64,0,2.44,0.83,2.44,2.12c0,1.35-0.73,2.21-2.37,2.21h-0.94v1.95H230.26z M232.91,249.95
				c0.44,0,0.75-0.19,0.75-0.73c0-0.58-0.6-0.66-1-0.66h-0.53v1.4H232.91z"/>
			<path d="M236.14,253.37v-6.28h1.87v4.82h2.57v1.47H236.14z"/>
			<path d="M240.91,253.37l2.05-6.28h1.9l2.05,6.28h-1.86l-0.22-0.83h-1.86l-0.21,0.83H240.91z M243.9,248.98l-0.58,2.25h1.18
				L243.9,248.98z"/>
			<path d="M251.34,250.51l-0.07-1.43v-2h1.79v6.28h-1.75l-2.04-3.42l0.07,1.43v1.99h-1.79v-6.28h1.75L251.34,250.51z"/>
			<path d="M253.85,247.08h5.24v1.65h-1.68v4.63h-1.87v-4.63h-1.68V247.08z"/>
		</g>
	</g>
</g>
</svg>
