<?xml version="1.0" encoding="utf-8"?>
<!-- Generator: Adobe Illustrator 26.5.0, SVG Export Plug-In . SVG Version: 6.00 Build 0)  -->
<svg version="1.1" id="Layer_1" xmlns="http://www.w3.org/2000/svg" xmlns:xlink="http://www.w3.org/1999/xlink" x="0px" y="0px"
	 viewBox="0 0 400 400" style="enable-background:new 0 0 400 400;" xml:space="preserve">
<style type="text/css">
	.st0{fill:#FFFFFF;}
	.st1{fill:url(#SVGID_1_);}
	.st2{fill:none;stroke:#42210B;stroke-width:5;stroke-linecap:round;stroke-linejoin:round;stroke-miterlimit:10;}
	.st3{fill:#FFFFFF;stroke:#42210B;stroke-width:5;stroke-miterlimit:10;}
	.st4{fill:#333333;}
	.st5{fill:#42210B;}
	.st6{fill:url(#SVGID_00000056401398684715664410000007043849417100391604_);}
	.st7{fill:url(#SVGID_00000047053678769640466330000004798887163572296125_);}
	.st8{fill:url(#SVGID_00000026885358410502657860000004242984194164621233_);}
	.st9{fill:#FCBF95;}
	.st10{fill:url(#SVGID_00000090265848030089002000000009048854983192493952_);}
	.st11{fill:#FF9D5A;}
	.st12{fill:#303047;}
	.st13{fill:url(#SVGID_00000101099335833986395680000011703535814009304228_);}
	.st14{fill:url(#SVGID_00000050657541520827771030000018228326403475495830_);}
	.st15{fill:url(#SVGID_00000024704570562586424290000000659976394484167072_);}
	.st16{clip-path:url(#SVGID_00000080200187502989912540000012918370696062145936_);}
	.st17{fill:#772C29;}
	.st18{fill:#F7C4A6;}
	.st19{fill:#E6A486;}
	.st20{fill:#F15A24;}
	.st21{fill:#C1272D;}
	.st22{fill:#CF7D73;}
	.st23{fill:#581C2C;}
	.st24{fill:#8B3B29;}
	.st25{clip-path:url(#SVGID_00000116914190873503349230000001252257466672196235_);}
	.st26{clip-path:url(#SVGID_00000119076653197999747260000013907115631642347143_);}
	.st27{clip-path:url(#SVGID_00000102520116104638027280000002135665172329814713_);}
	.st28{fill:#0C0C0C;}
	.st29{fill:#575757;}
	.st30{fill:#201D1E;}
	.st31{fill:#DB262D;}
	
		.st32{fill:url(#SVGID_00000085946896325608255760000015085891536085159813_);stroke:#2A6880;stroke-width:0.2596;stroke-miterlimit:10;}
	
		.st33{fill:url(#SVGID_00000119077456975885944450000013128321269622181525_);stroke:#2A6880;stroke-width:0.2596;stroke-miterlimit:10;}
	
		.st34{fill:url(#SVGID_00000083061253938147760320000012429097248933410447_);stroke:#2A6880;stroke-width:0.2596;stroke-miterlimit:10;}
	.st35{fill:#343433;}
	.st36{fill:#1C1B17;}
	.st37{fill:#4B443F;}
	.st38{fill:#B9272A;}
	.st39{fill:#264A90;}
	.st40{fill:#D41F26;}
	.st41{fill:#E66725;}
	.st42{clip-path:url(#SVGID_00000035500071738540470520000006842062476214734265_);}
	.st43{fill:#EF8C71;}
	.st44{fill:#EF8C73;}
	.st45{fill:#828080;}
	.st46{fill:none;}
	.st47{fill:none;stroke:#42210B;stroke-miterlimit:10;}
	.st48{clip-path:url(#SVGID_00000142858526494511295340000016340603071469630091_);}
	.st49{clip-path:url(#SVGID_00000045586378999667115820000007714605868799505806_);}
	.st50{fill:#FBB617;}
</style>
<g>
	<path class="st3" d="M327.69,298.84H72.31c-34.42,0-62.31-27.9-62.31-62.31v-73.06c0-34.42,27.9-62.31,62.31-62.31h255.37
		c34.42,0,62.31,27.9,62.31,62.31v73.06C390,270.94,362.1,298.84,327.69,298.84z"/>
	<g>
		<g>
			<g>
				<path d="M93.18,221.74h6.87c0.26,1.96,1.01,3.34,2.26,4.12c1.31,0.92,3.11,1.37,5.4,1.37c2.03,0,3.57-0.36,4.62-1.08
					c1.05-0.72,1.57-1.77,1.57-3.14c0-2.09-2.95-3.8-8.84-5.11l-0.2-0.1l-0.79-0.2c-3.34-0.72-5.56-1.47-6.68-2.26
					c-1.31-0.72-2.23-1.77-2.75-3.14c-0.66-1.18-0.98-2.68-0.98-4.52c0-3.21,1.11-5.73,3.34-7.56c2.22-1.77,5.46-2.65,9.72-2.65
					c3.99,0,7.07,0.92,9.23,2.75c2.22,2.03,3.4,4.68,3.53,7.95h-3.93c-1.51,0-2.59-0.69-3.24-2.06c-0.33-0.65-0.79-1.21-1.38-1.67
					c-1.18-0.85-2.78-1.28-4.81-1.28c-1.96,0-3.37,0.36-4.22,1.08c-0.98,0.72-1.47,1.74-1.47,3.04c0,1.77,1.9,3.08,5.69,3.93
					c1.11,0.33,1.93,0.52,2.46,0.59c1.18,0.39,2.21,0.7,3.09,0.93c0.88,0.23,1.59,0.41,2.11,0.54c0.92,0.39,1.83,0.79,2.75,1.18
					c1.31,0.79,2.32,1.8,3.04,3.04c0.72,1.37,1.08,2.88,1.08,4.52c0,3.53-1.18,6.28-3.54,8.25c-2.36,1.83-5.69,2.75-10.02,2.75
					c-4.45,0-7.79-0.95-10.01-2.85C94.69,228.29,93.38,225.47,93.18,221.74z"/>
				<path d="M136.58,198.47h5.5l12.27,33.78h-7.36l-2.26-6.97h-13.16l-2.16,6.97h-7.36l11.19-31.52
					C133.83,199.22,134.94,198.47,136.58,198.47z M138.15,205.24l-4.71,14.33h9.43L138.15,205.24z"/>
				<path d="M162.89,220.17v12.08h-6.97V202c0-0.98,0.34-1.82,1.03-2.5c0.69-0.69,1.52-1.03,2.5-1.03h11.49
					c3.6,0,6.28,0.92,8.05,2.75c1.83,1.83,2.75,4.55,2.75,8.15c0,3.4-0.88,6.09-2.65,8.05c-1.77,1.83-4.32,2.75-7.66,2.75H162.89z
					 M162.89,214.08h6.77c1.83,0,3.14-0.39,3.93-1.18c0.85-0.72,1.28-1.96,1.28-3.73c0-1.51-0.39-2.72-1.18-3.63
					c-0.92-0.79-2.13-1.18-3.63-1.18h-7.17V214.08z"/>
				<path d="M189.99,220.17v12.08h-6.97V202c0-0.98,0.34-1.82,1.03-2.5c0.69-0.69,1.52-1.03,2.5-1.03h11.49
					c3.6,0,6.28,0.92,8.05,2.75c1.83,1.83,2.75,4.55,2.75,8.15c0,3.4-0.88,6.09-2.65,8.05c-1.77,1.83-4.32,2.75-7.66,2.75H189.99z
					 M189.99,214.08h6.77c1.83,0,3.14-0.39,3.93-1.18c0.85-0.72,1.28-1.96,1.28-3.73c0-1.51-0.39-2.72-1.18-3.63
					c-0.92-0.79-2.13-1.18-3.63-1.18h-7.17V214.08z"/>
				<path d="M210.12,232.25V202c0-0.98,0.34-1.82,1.03-2.5c0.69-0.69,1.52-1.03,2.5-1.03h3.44v12.57h13.94v-12.57h7.07v33.78h-7.07
					v-15.02h-13.94v15.02H210.12z"/>
				<path d="M253.01,232.25V202c0-0.98,0.34-1.82,1.03-2.5c0.69-0.69,1.52-1.03,2.5-1.03h12.86c3.67,0,6.38,0.79,8.15,2.36
					c1.83,1.64,2.75,4.03,2.75,7.17c0,2.1-0.46,3.83-1.37,5.2c-0.79,1.31-2.03,2.26-3.73,2.85c1.51,0.52,2.55,1.31,3.14,2.36
					c0.59,0.98,0.95,2.65,1.08,5.01l0.2,4.03c0,0.39,0,0.82,0,1.28c0,0.46,0.03,0.88,0.1,1.28c0.2,1.18,0.59,1.93,1.18,2.26h-7.66
					c-0.33-0.65-0.53-1.34-0.59-2.06c-0.13-1.05-0.2-1.77-0.2-2.16l-0.1-3.63c-0.13-1.96-0.52-3.37-1.18-4.22
					c-0.72-0.72-2-1.08-3.83-1.08h-7.36v13.16H253.01z M259.98,213.2h8.15c1.77,0,3.08-0.36,3.93-1.08
					c0.85-0.72,1.28-1.83,1.28-3.34c0-1.5-0.43-2.62-1.28-3.34c-0.79-0.79-1.96-1.18-3.54-1.18h-8.54V213.2z"/>
				<path d="M282.27,232.25V202c0-0.98,0.34-1.82,1.03-2.5c0.69-0.69,1.52-1.03,2.5-1.03h21.01v5.79h-17.67v7.27h13.16v2.26
					c0,0.98-0.34,1.82-1.03,2.5c-0.69,0.69-1.52,1.03-2.5,1.03h-9.62v8.64h17.67v6.28H282.27z"/>
			</g>
			<g>
				<g>
					<path class="st40" d="M242.88,174.56l0,1.33c-0.34,0.19-0.55,0.41-0.55,0.66l0,5.43l0,0l0,0v0c0,0,0,0,0,0l0,0c0,0,0,0,0,0
						l0.54,0.68c0,0,0,0,0,0l0.01,0.01l0,1.31c-0.35,0.19-0.55,0.41-0.55,0.66l0,5.43c0.55-0.41,1.78-0.7,3.22-0.7
						c1.44,0,2.67,0.29,3.22,0.7l0-5.43c0-0.24-0.2-0.47-0.55-0.66l0-1.31l0.01-0.01c0,0,0,0,0,0l0.54-0.68c0,0,0,0,0,0l0,0
						c0,0,0,0,0,0l0-5.43c0-0.24-0.2-0.47-0.55-0.66v-1.32l0.55-0.7l0,0l0-5.43c0-0.24-0.2-0.46-0.54-0.65l-1.74-15.5v-2.07
						l-0.94-1.27l-0.94,1.27c0,0,0,1.09,0,2.14l-0.27,0.01c0,0-1.12,12.83-1.21,15.3c-0.5,0.21-0.81,0.48-0.81,0.77l0,5.43l0,0
						c0,0,0,0,0,0L242.88,174.56z"/>
					<path class="st40" d="M243.5,232.69c0,0.19,0.92,0.34,2.05,0.34c1.13,0,2.05-0.15,2.05-0.35l0-1.45l-4.11,0L243.5,232.69z"/>
					<path class="st40" d="M242.34,190.08l0.54,0.68l0.01,0.01l0,16.05c0.35,0.19,0.87,0.33,1.46,0.42v12.19
						c-0.25,0.08-0.41,0.19-0.41,0.31l-0.05,1.9c-0.22,0.06-0.38,0.14-0.38,0.22l-0.39,8.87l0.39,0.49l4.11,0l0.39-0.49l-0.39-8.87
						c0-0.08-0.16-0.16-0.38-0.22l-0.05-1.9c0-0.12-0.16-0.23-0.41-0.31v-12.19c0.59-0.09,1.1-0.23,1.46-0.42l0-16.05l0.55-0.7
						c-0.55-0.42-1.78-0.7-3.22-0.7C244.12,189.38,242.88,189.67,242.34,190.08z"/>
				</g>
			</g>
		</g>
		<g>
			<path class="st40" d="M106.37,194.7h-4.08l0.07-0.27c0.19-0.02,0.37-0.07,0.54-0.14c0.17-0.07,0.29-0.22,0.35-0.45
				c0.03-0.1,0.03-0.22,0.01-0.36l-0.33-2.43c-0.04-0.22,0.06-0.37,0.3-0.45l-0.01-0.11h-5.44l-0.04,0.09
				c0.16,0.08,0.16,0.24,0,0.47l-1.58,2.38c-0.04,0.06-0.07,0.12-0.1,0.17c-0.03,0.05-0.05,0.11-0.06,0.17
				c-0.06,0.21-0.02,0.36,0.1,0.46c0.12,0.1,0.27,0.17,0.44,0.21l-0.07,0.27h-3.1l0.07-0.27c0.4-0.08,0.75-0.24,1.06-0.47
				c0.31-0.23,0.58-0.51,0.8-0.85l6.59-9.91c-0.05-0.3-0.14-0.52-0.26-0.65c-0.12-0.13-0.32-0.22-0.6-0.27l0.07-0.27h2.72
				l1.58,11.23c0.05,0.33,0.15,0.58,0.31,0.76c0.16,0.18,0.41,0.33,0.73,0.44L106.37,194.7z M103.06,189.39l-0.01-0.09
				c-0.13-0.02-0.22-0.06-0.29-0.12c-0.07-0.05-0.11-0.16-0.13-0.32l-0.6-4.68l-0.09,0.13c0.05,0.22-0.02,0.47-0.22,0.76l-2.52,3.79
				c-0.15,0.23-0.34,0.38-0.57,0.44l-0.06,0.09H103.06z"/>
			<path class="st40" d="M116.55,193.76c-0.48,0.34-1.03,0.61-1.64,0.82c-0.62,0.21-1.25,0.31-1.89,0.31c-0.65,0-1.24-0.13-1.76-0.4
				c-0.52-0.27-0.94-0.63-1.26-1.09c-0.32-0.46-0.53-1-0.63-1.62c-0.1-0.62-0.06-1.28,0.13-1.98c0.19-0.7,0.49-1.36,0.89-1.98
				c0.41-0.62,0.89-1.16,1.44-1.62c0.55-0.46,1.15-0.82,1.79-1.09c0.64-0.27,1.29-0.4,1.94-0.4c0.46,0,0.87,0.06,1.23,0.17
				c0.36,0.12,0.64,0.23,0.82,0.35c0.18,0.12,0.37,0.14,0.57,0.05c0.19-0.08,0.33-0.3,0.43-0.64h0.36l-0.65,2.43
				c-0.22-0.43-0.52-0.77-0.88-1.01c-0.37-0.24-0.82-0.35-1.37-0.35c-0.56,0-1.08,0.1-1.56,0.31c-0.49,0.21-0.92,0.49-1.32,0.85
				c-0.39,0.36-0.74,0.79-1.03,1.29c-0.29,0.5-0.51,1.03-0.67,1.61c-0.16,0.58-0.22,1.12-0.2,1.61c0.02,0.5,0.14,0.93,0.33,1.29
				c0.2,0.36,0.49,0.64,0.86,0.84c0.38,0.2,0.84,0.3,1.4,0.3c0.52,0,1-0.07,1.44-0.2c0.44-0.13,0.9-0.34,1.39-0.62L116.55,193.76z"
				/>
			<path class="st40" d="M124.39,194.43c-0.23,0.13-0.49,0.24-0.79,0.33c-0.3,0.08-0.58,0.13-0.83,0.13c-0.67,0-1.16-0.11-1.49-0.34
				c-0.33-0.23-0.54-0.52-0.64-0.88c-0.1-0.36-0.13-0.74-0.07-1.16c0.06-0.42,0.13-0.81,0.23-1.17l1.41-5.26
				c0.03-0.11,0.09-0.19,0.17-0.24h-1.34l0.23-0.85h0.2c0.29,0,0.57-0.05,0.83-0.14c0.26-0.09,0.51-0.25,0.74-0.48
				c0.23-0.23,0.45-0.53,0.64-0.92c0.2-0.38,0.38-0.86,0.53-1.44h0.91l-0.63,2.36c-0.05,0.17-0.1,0.29-0.16,0.35
				c-0.06,0.07-0.14,0.1-0.23,0.1l-0.03,0.11h2.34l-0.24,0.91h-2.18c0.07,0.02,0.08,0.1,0.05,0.24l-1.39,5.19
				c-0.08,0.32-0.15,0.63-0.2,0.95c-0.05,0.32-0.05,0.61,0.01,0.86c0.05,0.25,0.18,0.46,0.38,0.63c0.2,0.16,0.5,0.25,0.9,0.25
				c0.32,0,0.6-0.05,0.86-0.15L124.39,194.43z"/>
			<path class="st40" d="M130.43,194.7h-3.88l0.07-0.27c0.29-0.05,0.57-0.17,0.83-0.36c0.26-0.19,0.47-0.56,0.61-1.11l1.52-5.66
				c0.15-0.54,0.14-0.91-0.02-1.11c-0.16-0.19-0.37-0.31-0.64-0.36l0.07-0.27c0.5-0.17,1.02-0.33,1.54-0.47
				c0.52-0.14,1.03-0.27,1.51-0.36l-2.21,8.26c-0.14,0.53-0.13,0.9,0.03,1.09c0.16,0.19,0.37,0.32,0.64,0.36L130.43,194.7z
				 M132.96,182.09c-0.09,0.35-0.29,0.64-0.59,0.88s-0.62,0.35-0.97,0.35c-0.35,0-0.61-0.12-0.78-0.35
				c-0.17-0.24-0.21-0.53-0.12-0.88c0.09-0.35,0.29-0.64,0.59-0.88c0.3-0.24,0.62-0.35,0.97-0.35s0.61,0.12,0.79,0.35
				C133.01,181.45,133.05,181.74,132.96,182.09z"/>
			<path class="st40" d="M144.68,185.18c-0.38,0.1-0.67,0.22-0.88,0.38c-0.21,0.16-0.4,0.38-0.57,0.65l-5.41,8.49h-0.89l-0.96-8.65
				c-0.03-0.27-0.11-0.46-0.24-0.59c-0.14-0.13-0.33-0.22-0.6-0.28l0.07-0.27h3.43l-0.07,0.27c-0.21,0.01-0.38,0.07-0.52,0.16
				c-0.14,0.1-0.19,0.27-0.16,0.53l0.66,6.28l0.09-0.15c0-0.08,0.01-0.17,0.03-0.26c0.02-0.09,0.08-0.2,0.17-0.34l3.5-5.5
				c0.15-0.23,0.19-0.4,0.12-0.51c-0.07-0.11-0.21-0.18-0.43-0.22l0.07-0.27h2.67L144.68,185.18z"/>
			<path class="st40" d="M153.18,194.1c-0.88,0.32-1.71,0.52-2.47,0.63c-0.76,0.1-1.58,0.15-2.44,0.15c-0.48,0-0.96-0.06-1.43-0.19
				c-0.47-0.13-0.87-0.32-1.22-0.59c-0.35-0.27-0.6-0.6-0.76-1.01c-0.16-0.4-0.16-0.89-0.01-1.44c0.14-0.51,0.37-0.97,0.7-1.38
				c0.33-0.41,0.71-0.76,1.15-1.05c0.44-0.29,0.91-0.52,1.41-0.68c0.5-0.16,0.98-0.25,1.45-0.25c0.46,0,0.9,0.05,1.31,0.15
				c0.41,0.1,0.78,0.28,1.1,0.54l0.03-0.11c-0.15-0.06-0.21-0.17-0.17-0.33c0.04-0.16,0.07-0.31,0.11-0.44
				c0.2-0.76,0.19-1.36-0.03-1.79c-0.22-0.43-0.73-0.64-1.53-0.64c-0.25,0-0.52,0.04-0.81,0.11c-0.29,0.07-0.57,0.17-0.85,0.3
				c-0.28,0.13-0.55,0.27-0.82,0.44c-0.26,0.17-0.5,0.35-0.71,0.54l0.64-2.39h0.36c-0.04,0.16-0.06,0.31-0.04,0.45
				c0.02,0.15,0.12,0.22,0.31,0.22c0.07,0,0.15-0.01,0.23-0.04c0.08-0.02,0.15-0.05,0.22-0.07c0.36-0.13,0.73-0.25,1.1-0.35
				c0.37-0.1,0.74-0.15,1.1-0.15c1.19,0,1.98,0.32,2.4,0.97c0.41,0.65,0.46,1.58,0.13,2.78l-1.05,3.9c-0.1,0.38-0.12,0.7-0.05,0.98
				c0.06,0.28,0.3,0.43,0.7,0.47L153.18,194.1z M150.63,193.67c-0.08-0.05-0.12-0.12-0.1-0.23c0.02-0.1,0.03-0.2,0.06-0.28
				l0.79-2.94c0.02-0.06,0.04-0.13,0.07-0.21c0.03-0.08,0.08-0.14,0.15-0.17c-0.21-0.19-0.45-0.34-0.7-0.44
				c-0.25-0.1-0.54-0.15-0.87-0.15c-0.35,0-0.7,0.06-1.04,0.17c-0.34,0.11-0.65,0.28-0.93,0.49c-0.28,0.21-0.53,0.47-0.74,0.76
				c-0.21,0.3-0.37,0.63-0.47,0.99c-0.1,0.36-0.12,0.69-0.07,0.98c0.05,0.29,0.16,0.54,0.33,0.74c0.17,0.21,0.39,0.36,0.66,0.47
				c0.27,0.11,0.59,0.16,0.94,0.16c0.31,0,0.63-0.02,0.95-0.07C149.98,193.89,150.3,193.8,150.63,193.67z"/>
			<path class="st40" d="M161.02,194.43c-0.23,0.13-0.49,0.24-0.79,0.33c-0.3,0.08-0.58,0.13-0.83,0.13c-0.67,0-1.16-0.11-1.49-0.34
				c-0.33-0.23-0.54-0.52-0.64-0.88c-0.1-0.36-0.13-0.74-0.07-1.16c0.06-0.42,0.13-0.81,0.23-1.17l1.41-5.26
				c0.03-0.11,0.09-0.19,0.17-0.24h-1.34l0.23-0.85h0.2c0.29,0,0.57-0.05,0.83-0.14c0.26-0.09,0.51-0.25,0.74-0.48
				c0.23-0.23,0.45-0.53,0.64-0.92c0.2-0.38,0.38-0.86,0.53-1.44h0.91l-0.63,2.36c-0.05,0.17-0.1,0.29-0.16,0.35
				c-0.06,0.07-0.14,0.1-0.23,0.1l-0.03,0.11h2.34l-0.24,0.91h-2.18c0.07,0.02,0.08,0.1,0.05,0.24l-1.39,5.19
				c-0.08,0.32-0.15,0.63-0.2,0.95c-0.05,0.32-0.05,0.61,0.01,0.86c0.05,0.25,0.18,0.46,0.38,0.63c0.2,0.16,0.5,0.25,0.9,0.25
				c0.32,0,0.6-0.05,0.86-0.15L161.02,194.43z"/>
			<path class="st40" d="M173.77,189.29c-0.04,0.13-0.07,0.24-0.1,0.33c-0.03,0.09-0.05,0.15-0.06,0.17h-7.37l-0.03,0.11
				c0.17,0.04,0.23,0.18,0.16,0.43c-0.15,0.54-0.19,1.03-0.14,1.47c0.05,0.44,0.19,0.81,0.4,1.11c0.21,0.3,0.5,0.53,0.87,0.7
				c0.36,0.16,0.78,0.24,1.27,0.24c1.05,0,2.05-0.28,3-0.83l-0.18,0.73c-0.59,0.4-1.17,0.69-1.74,0.86
				c-0.57,0.18-1.18,0.26-1.83,0.26c-0.62,0-1.18-0.13-1.7-0.4c-0.52-0.27-0.94-0.63-1.26-1.09c-0.33-0.46-0.55-1-0.65-1.62
				c-0.11-0.62-0.07-1.28,0.12-1.98c0.19-0.7,0.49-1.36,0.91-1.98c0.41-0.62,0.9-1.16,1.46-1.62c0.56-0.46,1.15-0.82,1.78-1.09
				c0.63-0.27,1.26-0.4,1.89-0.4c0.65,0,1.22,0.11,1.71,0.34c0.48,0.22,0.87,0.54,1.15,0.94c0.28,0.41,0.46,0.89,0.52,1.45
				C174,188.02,173.95,188.63,173.77,189.29z M172.1,188.9c-0.06-0.05-0.09-0.13-0.08-0.24c0.14-0.87,0.06-1.59-0.22-2.15
				c-0.28-0.56-0.78-0.84-1.48-0.84c-0.35,0-0.69,0.08-1.02,0.24c-0.33,0.16-0.64,0.37-0.93,0.64s-0.56,0.59-0.8,0.95
				c-0.24,0.36-0.45,0.75-0.62,1.16c-0.04,0.11-0.11,0.19-0.19,0.24H172.1z"/>
			<path class="st40" d="M184.71,194.1c-0.35,0.09-0.73,0.17-1.14,0.26c-0.41,0.09-0.83,0.18-1.27,0.25
				c-0.43,0.08-0.87,0.14-1.3,0.19c-0.44,0.05-0.84,0.07-1.22,0.07c-0.69,0-1.3-0.13-1.82-0.39c-0.52-0.26-0.94-0.62-1.26-1.08
				c-0.32-0.46-0.52-1-0.61-1.61c-0.09-0.62-0.04-1.28,0.15-2c0.19-0.71,0.5-1.38,0.92-2c0.42-0.62,0.91-1.16,1.48-1.61
				c0.56-0.46,1.18-0.82,1.84-1.08c0.66-0.26,1.34-0.39,2.03-0.39c0.42,0,0.81,0.05,1.16,0.15c0.35,0.1,0.63,0.23,0.84,0.39
				l0.03-0.11c-0.07-0.05-0.12-0.11-0.15-0.19c-0.03-0.08-0.02-0.21,0.03-0.39l0.36-1.36c0.03-0.12,0.06-0.25,0.08-0.39
				s0.01-0.27-0.03-0.38c-0.04-0.11-0.12-0.22-0.24-0.31c-0.12-0.09-0.28-0.15-0.5-0.19l0.07-0.27c0.2-0.06,0.43-0.13,0.7-0.21
				c0.27-0.08,0.55-0.16,0.84-0.24c0.29-0.08,0.57-0.15,0.84-0.22c0.27-0.07,0.5-0.12,0.69-0.15l-3.08,11.5
				c-0.07,0.27-0.1,0.49-0.09,0.66c0.01,0.18,0.05,0.32,0.12,0.44c0.07,0.12,0.15,0.2,0.26,0.26c0.1,0.06,0.22,0.1,0.35,0.11
				L184.71,194.1z M182.15,193.45c-0.06-0.04-0.08-0.13-0.04-0.27l1.67-6.24c0.04-0.16,0.11-0.27,0.2-0.33
				c-0.13-0.28-0.35-0.5-0.64-0.68c-0.3-0.18-0.66-0.26-1.08-0.26c-0.48,0-0.94,0.11-1.36,0.32c-0.42,0.21-0.8,0.51-1.14,0.88
				c-0.34,0.38-0.64,0.81-0.9,1.31c-0.26,0.5-0.46,1.05-0.62,1.64c-0.16,0.59-0.24,1.14-0.26,1.64c-0.01,0.5,0.05,0.94,0.2,1.31
				c0.15,0.37,0.38,0.66,0.68,0.86c0.31,0.21,0.7,0.31,1.17,0.31c0.38,0,0.75-0.05,1.12-0.14
				C181.52,193.71,181.85,193.59,182.15,193.45z"/>
		</g>
		<rect x="93.18" y="234.82" class="st40" width="213.64" height="16.23"/>
		<g>
			<path class="st0" d="M136.04,248.58h-2.02v-6.89l-3.67,3.73l-3.67-3.73v6.89h-2.02v-11.26h0.62l5.07,5.33l5.07-5.33h0.62V248.58z
				"/>
			<path class="st0" d="M146.39,237.33v11.26h-2.02v-11.26H146.39z"/>
			<path class="st0" d="M161.28,248.58l-3.06-4.68l-1.48-0.02v4.69h-2.02v-11.26h4.35c2.16,0,3.87,1.03,3.87,3.25
				c0,1.71-1.15,2.75-2.53,3.14l3.22,4.87H161.28z M156.74,242.13h2.08c1.23,0,2.04-0.51,2.04-1.55c0-1.04-0.81-1.41-2.04-1.41
				h-2.08V242.13z"/>
			<path class="st0" d="M177.47,248.58l-3.06-4.68l-1.48-0.02v4.69h-2.02v-11.26h4.35c2.16,0,3.87,1.03,3.87,3.25
				c0,1.71-1.15,2.75-2.53,3.14l3.22,4.87H177.47z M172.93,242.13h2.08c1.23,0,2.04-0.51,2.04-1.55c0-1.04-0.81-1.41-2.04-1.41
				h-2.08V242.13z"/>
			<path class="st0" d="M192.08,248.77c-3.28,0-5.8-2.63-5.8-5.83c0-3.2,2.52-5.83,5.8-5.83c3.28,0,5.8,2.63,5.8,5.83
				C197.88,246.14,195.36,248.77,192.08,248.77z M192.08,246.87c2.19,0,3.78-1.88,3.78-3.93c0-2.05-1.59-3.93-3.78-3.93
				c-2.21,0-3.78,1.88-3.78,3.93C188.3,244.99,189.87,246.87,192.08,246.87z"/>
			<path class="st0" d="M212.13,248.58l-3.06-4.68l-1.48-0.02v4.69h-2.02v-11.26h4.35c2.16,0,3.87,1.03,3.87,3.25
				c0,1.71-1.15,2.75-2.53,3.14l3.22,4.87H212.13z M207.59,242.13h2.08c1.23,0,2.04-0.51,2.04-1.55c0-1.04-0.81-1.41-2.04-1.41
				h-2.08V242.13z"/>
			<path class="st0" d="M221.49,244.66v-1.59h2.81v-2.92h1.8v2.92h2.81v1.59h-2.81v2.92h-1.8v-2.92H221.49z"/>
			<path class="st0" d="M243.8,237.33v1.83h-4.79v2.81h4.2v1.83h-4.2v4.77h-2.02v-11.26H243.8z"/>
			<path class="st0" d="M251.22,243.79v-6.48h2.02v6.31c0,1.85,0.79,3.25,2.47,3.25c1.66,0,2.46-1.4,2.46-3.25v-6.31h2.02v6.48
				c0,2.77-1.57,4.97-4.48,4.97C252.79,248.77,251.22,246.56,251.22,243.79z"/>
			<path class="st0" d="M275.34,237.33v1.83h-4.94v2.81h4.6v1.83h-4.6v2.94h4.94v1.83h-6.96v-11.26H275.34z"/>
		</g>
	</g>
</g>
</svg>
