<?xml version="1.0" encoding="utf-8"?>
<!-- Generator: Adobe Illustrator 26.5.0, SVG Export Plug-In . SVG Version: 6.00 Build 0)  -->
<svg version="1.1" id="Layer_1" xmlns="http://www.w3.org/2000/svg" xmlns:xlink="http://www.w3.org/1999/xlink" x="0px" y="0px"
	 viewBox="0 0 400 400" style="enable-background:new 0 0 400 400;" xml:space="preserve">
<style type="text/css">
	.st0{fill:#FFFFFF;}
	.st1{fill:url(#SVGID_1_);}
	.st2{fill:none;stroke:#42210B;stroke-width:5;stroke-linecap:round;stroke-linejoin:round;stroke-miterlimit:10;}
	.st3{fill:#FFFFFF;stroke:#42210B;stroke-width:5;stroke-miterlimit:10;}
	.st4{fill:#333333;}
	.st5{fill:#42210B;}
	.st6{fill:url(#SVGID_00000060018952397148117390000011277344023913508258_);}
	.st7{fill:url(#SVGID_00000101094921234458650270000008701184938533593779_);}
	.st8{fill:url(#SVGID_00000014620206028509293830000017665872456688423092_);}
	.st9{fill:#FCBF95;}
	.st10{fill:url(#SVGID_00000065759188914217130290000009445957737977822895_);}
	.st11{fill:#FF9D5A;}
	.st12{fill:#303047;}
	.st13{fill:url(#SVGID_00000061429575727779664210000017871485289128692404_);}
	.st14{fill:url(#SVGID_00000145743190562415126060000008062182407806618770_);}
	.st15{fill:url(#SVGID_00000155846102080466183240000006437272379017006230_);}
	.st16{clip-path:url(#SVGID_00000052794914002725175110000009048091184721051789_);}
	.st17{fill:#772C29;}
	.st18{fill:#F7C4A6;}
	.st19{fill:#E6A486;}
	.st20{fill:#F15A24;}
	.st21{fill:#C1272D;}
	.st22{fill:#CF7D73;}
	.st23{fill:#581C2C;}
	.st24{fill:#8B3B29;}
	.st25{clip-path:url(#SVGID_00000027601766874463510770000012242316892582658214_);}
	.st26{clip-path:url(#SVGID_00000121272924722034753270000009859898802985075627_);}
	.st27{clip-path:url(#SVGID_00000053533700247222881060000003274527887695740566_);}
	.st28{fill:#0C0C0C;}
	.st29{fill:#575757;}
	.st30{fill:#201D1E;}
	.st31{fill:#DB262D;}
	
		.st32{fill:url(#SVGID_00000096039825554091667150000014217008053731085724_);stroke:#2A6880;stroke-width:0.2596;stroke-miterlimit:10;}
	
		.st33{fill:url(#SVGID_00000097472658079656368410000014118940441274785447_);stroke:#2A6880;stroke-width:0.2596;stroke-miterlimit:10;}
	
		.st34{fill:url(#SVGID_00000154397667110036843430000015733402679029898906_);stroke:#2A6880;stroke-width:0.2596;stroke-miterlimit:10;}
	.st35{fill:#343433;}
	.st36{fill:#1C1B17;}
	.st37{fill:#4B443F;}
	.st38{fill:#B9272A;}
	.st39{fill:#264A90;}
	.st40{fill:#D41F26;}
	.st41{fill:#E66725;}
	.st42{clip-path:url(#SVGID_00000070117508635722996110000012858848033934813108_);}
	.st43{fill:#EF8C71;}
	.st44{fill:#EF8C73;}
	.st45{fill:#828080;}
	.st46{fill:none;}
	.st47{fill:none;stroke:#42210B;stroke-miterlimit:10;}
	.st48{clip-path:url(#SVGID_00000150787656879430761570000007715242798529250984_);}
	.st49{clip-path:url(#SVGID_00000182503723628450750670000001005397134394461096_);}
	.st50{fill:#FBB617;}
</style>
<g>
	<path class="st3" d="M327.69,298.84H72.31c-34.42,0-62.31-27.9-62.31-62.31v-73.06c0-34.42,27.9-62.31,62.31-62.31h255.37
		c34.42,0,62.31,27.9,62.31,62.31v73.06C390,270.94,362.1,298.84,327.69,298.84z"/>
	<g>
		<g>
			<path d="M247.48,208.78c0.02-2.39,0.31-4.81,0.03-7.17c-0.45-3.92-0.94-7.89-2-11.67c-1.22-4.31-2.87-8.53-4.73-12.6
				c-1.73-3.78-5.15-6.21-8.57-8.33c-3.12-1.94-6.38-3.75-9.99-4.73c-0.6-0.16-1.15-0.49-1.73-0.74c0.03-0.08,0.06-0.15,0.09-0.23
				c0.47,0,0.94,0,1.41,0c-0.69-0.23-1.5-0.18-2.05-0.54c-1.54-1.03-3.16-1.95-4.61-3.14c-1.2-0.98-2.64-1.67-4.01-2.42
				c-0.33-0.18-0.93,0.06-1.19-0.16c-2.17-1.77-4.58-0.89-7.12-0.88c0.56,0.66,0.95,1.13,1.39,1.64c-0.57,0.08-1.01,0.14-1.6,0.22
				c0.33,0.55,0.54,0.91,0.76,1.27c-0.59-0.16-1.08-0.41-1.45-0.78c-0.51-0.51-0.9-0.37-1.4-0.01c-0.9,0.65-2.36,0.26-2.98-0.64
				c-0.64-0.93-1.4-1.76-2.11-2.64c-0.08,0.05-0.16,0.09-0.23,0.14c0,0.36,0,0.71,0,1.07c-0.07,0.02-0.14,0.04-0.22,0.06
				c-0.23-0.38-0.47-0.77-0.78-1.28c-0.19,0.44-0.32,0.73-0.49,1.12c-0.89-1.09-0.8-2.81-2.58-3.03c-0.07,0.4-0.14,0.77-0.22,1.2
				c-0.43-0.39-0.77-0.7-1.32-1.19c0,1.44,0,2.56,0,3.87c-0.6,0-1.3,0-2.13,0c-0.07,0.13-0.25,0.45-0.42,0.76
				c-0.13-0.07-0.26-0.14-0.39-0.21c-0.14-0.45-0.27-0.9-0.45-1.48c-0.59,0.23-1.18,0.46-1.93,0.76c0-0.55,0-1.06,0-1.62
				c-1.84-0.24-1.3-1.68-1.36-2.77c-0.57,0.04-1.09,0.07-1.59,0.11c-0.94,1.91-1.78,2.15-2.81,1.72c-1.09-0.45-1.71,0.11-2.25,0.94
				c-0.22,0.33-0.48,0.64-0.6,0.79c-0.69-0.73-1.24-1.32-1.87-1.99c-0.67,0.87-1.25,1.62-1.83,2.38c-0.05-0.04-0.1-0.08-0.14-0.12
				c-0.8,1.65-1.61,3.31-2.47,5.09c-0.5-0.4-1.13-0.91-1.76-1.41c-0.08,0.09-0.17,0.18-0.25,0.28c0.27,0.34,0.66,0.64,0.76,1.02
				c0.08,0.28-0.27,0.97-0.33,0.96c-1.68-0.29-2.08,0.98-2.55,2.08c-0.6,1.41-1.61,2.61-1.52,4.37c0.07,1.53-0.64,1.99-1.68,1.84
				c-0.7,0.91,1.62,1.12,0.51,2.2c-0.37-0.17-0.68-0.32-1.17-0.54c-0.31,1.49-0.59,2.84-0.95,4.57c-0.09-1.07-0.15-1.78-0.21-2.49
				c-0.11,0.05-0.22,0.1-0.33,0.15c-2.11-2.2-2.49-5.32-3.99-7.92c0,1.95,0,3.9,0,5.86c-0.1,0.02-0.19,0.03-0.29,0.05
				c-0.53-1.11-1.06-2.21-1.59-3.32c-0.1,0.04-0.21,0.09-0.31,0.13c0.01,3.27,1.6,6.16,2.36,9.32c-0.69,0.05-1.44,0.33-1.98,0.1
				c-0.69-0.29-1.22-0.98-1.82-1.5c0.63,2.1,2.42,3.61,2.21,5.83c-0.36,0.26-0.65,0.47-0.94,0.68c0.26,0.27,0.49,0.61,0.79,0.81
				c1.04,0.7,1.07,1.53,0.12,2.31c-0.76,0.62-1.44,1.35-2.26,2.11c0.37,0.17,0.68,0.27,0.92,0.46c0.24,0.18,0.38,0.52,0.63,0.69
				c1.54,0.99,1.56,1.12,0.2,2.57c-0.05-0.4-0.08-0.73-0.12-1.06c-0.13,0-0.27,0.01-0.4,0.01c0.02,0.39,0.01,0.79,0.06,1.18
				c0.08,0.57,0.2,1.13,0.31,1.7c-0.1,0.03-0.21,0.06-0.31,0.09c0.39,0.34,0.79,0.69,1.1,0.95c-0.36,0.59-0.71,1.03-0.9,1.52
				c-0.15,0.41-0.03,0.93-0.18,1.34c-0.34,0.96-0.77,1.88-1.16,2.82c0.04,0.02,0.08,0.03,0.12,0.05c0.55-0.72,1.1-1.45,1.64-2.17
				c0.11,0.07,0.21,0.14,0.32,0.22c-0.25,1.73-0.51,3.45-0.76,5.18c0.1,0.01,0.2,0.03,0.31,0.04c0.27-0.44,0.55-0.89,0.82-1.33
				c0.16,0.03,0.32,0.06,0.48,0.09c0,2.56-0.05,5.12,0.03,7.67c0.02,0.79,0.32,1.58,0.58,2.34c0.42,1.21,1.08,2.37,1.33,3.61
				c0.37,1.78,1.22,3.4,1.65,5.06c0.52,1.99,1.77,3.29,2.62,4.93c0.93,1.78,1.14,3.97,1.5,6.01c0.24,1.35,0.22,2.75,0.31,4.13
				c0.11,0.03,0.22,0.06,0.34,0.09c0.26-0.48,0.7-0.94,0.77-1.44c0.57-4.05,1.14-8.1,1.58-12.16c0.22-1.98,0.04-4.01,1.06-5.84
				c0.15-0.28,0.16-0.65,0.18-0.98c0.18-2.86,0.23-5.74,0.58-8.58c0.13-1.08,0.81-2.16,1.46-3.08c0.54-0.77,1.52-1.22,2.11-1.97
				c1.16-1.48,1.74-3.2,3.87-4.07c3.21-1.31,6.34-2.32,9.81-2.08c2.11,0.15,4.22,0.33,6.33,0.44c3.88,0.19,7.77,0.36,11.66,0.49
				c0.49,0.02,1-0.3,1.5-0.47c1-0.34,1.98-0.88,3.01-0.98c1.82-0.16,3.68,0.1,5.48-0.12c1.06-0.13,1.81,0.17,2.68,0.59
				c0.59,0.29,1.46,0.58,1.97,0.35c1.62-0.73,3.33-0.59,4.99-0.79c0.61-0.07,1.45,0.24,1.81-0.06c0.73-0.61,1.23-0.12,1.88-0.07
				c1.34,0.09,2.08,0.76,2.71,1.79c0.11,0.18,0.42,0.24,0.65,0.33c0.8,0.31,1.61,0.57,2.39,0.92c0.52,0.23,0.83,0.76,1.63,0.32
				c0.45-0.25,1.31,0.26,1.98,0.43c-0.02,0.12-0.04,0.25-0.06,0.37c-0.38,0.08-0.77,0.16-1.09,0.23c-0.07,0.45-0.19,0.84-0.18,1.22
				c0.05,1.33,0.02,2.69,0.25,3.99c0.21,1.17,0.77,2.27,1.09,3.42c0.21,0.76,0.09,1.66,0.45,2.33c1.32,2.47,1.9,5.11,1.98,7.87
				c0.13,4.42,0.11,8.84,0.27,13.25c0.08,2.33,0.4,4.65,0.63,7.12c1.01-1.22,0.81-2.48,0.75-3.73c-0.17-4.18-0.47-8.35,2.4-11.96
				c1.18-1.48,1.44-3.3,1.24-5.22c-0.07-0.67,0.3-1.41,0.55-2.08c0.24-0.65,0.59-1.25,0.86-1.88c0.18-0.4,0.31-0.83,0.5-1.36
				c0.17,0.35,0.27,0.57,0.37,0.78c0.12-0.01,0.23-0.02,0.35-0.03c0.07-1.05,0.14-2.09,0.22-3.34c1.07,0.54,1.1-0.09,1.02-0.91
				C247.47,209.79,247.48,209.28,247.48,208.78z M212.8,159.98c-2.59-0.97-4.89-1.82-7.43-2.77
				C206.98,156.72,211.87,158.51,212.8,159.98z M204.52,161.21c3.11,1.85,6.23,3.7,9.34,5.56c-0.05,0.1-0.11,0.21-0.16,0.31
				c-1.71-0.85-3.42-1.7-5.12-2.55c-0.06,0.08-0.12,0.16-0.17,0.24c2.74,2.2,5.49,4.39,8.45,6.76c-0.61-0.12-0.94-0.18-1.41-0.27
				c0.09,0.42,0.16,0.72,0.3,1.38c-0.81-0.39-1.39-0.67-1.97-0.95c-0.08,0.05-0.16,0.09-0.23,0.14c0.89,1.12,1.77,2.24,2.79,3.53
				c-0.78-0.32-1.31-0.54-2-0.83c0.03,0.55,0.04,0.81,0.08,1.47c-1.75-2.02-3.3-3.8-4.9-5.65c0,0.26,0,0.41,0,0.97
				c-1.12-1.17-2.04-2.14-2.96-3.1c0.04-0.06,0.08-0.12,0.13-0.18c0.39,0.2,0.78,0.41,1.18,0.61c0.08-0.09,0.17-0.17,0.25-0.26
				c-1.4-1.67-3.3-3.03-3.7-5.51c0.42,0.53,0.76,0.96,1.11,1.4c0.13-0.1,0.25-0.21,0.38-0.31c-0.54-0.82-1.09-1.65-1.63-2.47
				C204.33,161.41,204.43,161.31,204.52,161.21z M203.69,165.48c0.65,0.48,1.3,0.96,2.17,1.61c-1.56,0.52-1.56-1.08-2.39-1.27
				C203.54,165.7,203.62,165.59,203.69,165.48z M200.05,171.66c-0.79,0-1.52,0-2.25,0c-0.68-0.6-1.36-1.21-2.28-2.02
				C198.04,169.73,198.99,170.19,200.05,171.66z M199.39,174.82c-0.83-0.7-1.35-1.78-1.98-2.71c-0.02-0.03,0.28-0.27,0.43-0.42
				c0.5,0.56,0.92,1.22,1.52,1.63c1.85,1.24,2.96,3.19,4.57,4.66C202.4,176.94,200.79,176,199.39,174.82z M204.44,179.94
				c-0.09,0.12-0.19,0.24-0.28,0.36c-1.24-0.98-2.54-1.91-3.71-2.97c-0.66-0.6-1.14-1.38-1.68-2.1
				C200.66,176.8,202.55,178.37,204.44,179.94z M198.58,175.04c-0.91-0.46-1.83-0.92-2.74-1.38
				C197.37,173.16,198.03,174.01,198.58,175.04z M193.46,166.59c0.72,0.72,1.43,1.44,2.3,2.31c-0.3,0.16-0.41,0.21-0.52,0.27
				c-0.14,0.07-0.28,0.13-0.25,0.12c-0.72-0.85-1.35-1.59-1.97-2.32C193.17,166.84,193.32,166.72,193.46,166.59z M177.32,182.3
				c0.13-0.08,0.26-0.16,0.39-0.24c-0.48-0.85-0.95-1.7-1.43-2.56c1.56,0.94,2.81,2.17,3.81,3.69c0.99,1.51,2.05,2.99,3.08,4.48
				c-0.15,0.12-0.3,0.23-0.45,0.35c-2.99-2.36-5.65-5-7.33-8.52C176.03,180.44,176.67,181.37,177.32,182.3z M179.78,186.64
				c-2.17-1.21-3.91-3-5.26-5.35C176.36,183.16,178.11,184.94,179.78,186.64z M170.03,184.47c-1.05-1.77-2.09-3.54-3.14-5.32
				c0.11-0.07,0.22-0.13,0.33-0.2c1.11,1.73,2.21,3.47,3.32,5.2C170.37,184.26,170.2,184.37,170.03,184.47z M175.72,190.72
				c-1.02-0.48-2.05-0.95-3.07-1.43c0.07-0.16,0.14-0.32,0.2-0.48c1.02,0.51,2.03,1.02,3.05,1.53
				C175.84,190.46,175.78,190.59,175.72,190.72z M170.88,185.46c1.96,1.35,3.92,2.7,5.88,4.06c0.12-0.13,0.24-0.26,0.37-0.39
				c-2.76-2.97-6.38-5.36-6.95-9.78c1.43,1.34,2.91,2.71,4.37,4.1c0.57,0.54,1.17,1.07,1.67,1.68c0.42,0.52,0.65,1.19,1.05,1.73
				c0.41,0.55,0.85,1.13,1.4,1.51c1.71,1.18,3.47,2.27,5.24,3.41C178.73,191.28,174.34,189.27,170.88,185.46z M181.01,182.53
				c-0.22-0.28-0.1-0.83-0.15-1.4c0.44,0.32,0.76,0.55,1.08,0.79c0.07-0.05,0.14-0.1,0.21-0.15c-0.69-1.09-1.38-2.17-2.07-3.26
				c3.55,2.07,5,5.66,7.04,8.98C184.46,186.44,182.62,184.62,181.01,182.53z M190.47,188.76c-0.44-0.52-0.88-1.04-1.32-1.55
				c0.53,0.44,1.06,0.87,1.59,1.31C190.65,188.6,190.56,188.68,190.47,188.76z M193.11,187.82c-1.18-0.89-2.35-1.79-3.53-2.68
				c-0.06,0.06-0.12,0.12-0.18,0.18c0.25,0.34,0.51,0.69,0.76,1.03c-1.26-0.41-1.66-0.86-2.11-2.1c-0.14-0.37-0.48-0.67-0.73-1
				c-0.6-0.82-1.2-1.63-1.81-2.45c0.15-0.14,0.29-0.28,0.44-0.42c2.44,2.41,4.87,4.82,7.31,7.24
				C193.22,187.68,193.17,187.75,193.11,187.82z M193.61,183.22c-1.28-1.07-2.55-2.14-3.83-3.22c0.13-0.15,0.27-0.3,0.4-0.45
				c1.25,1.13,2.49,2.26,3.74,3.39C193.81,183.04,193.71,183.13,193.61,183.22z M200.09,188.81c-5.29-5.77-10.57-11.54-15.86-17.32
				c0.07-0.09,0.15-0.17,0.22-0.26c1.6,1.34,3.29,2.6,4.79,4.05c2.51,2.44,4.92,4.97,7.31,7.52c0.66,0.71,1.62,1.33,1.3,2.64
				c-0.08,0.32,0.48,0.82,0.78,1.21c0.52,0.69,1.06,1.36,1.59,2.04C200.17,188.73,200.13,188.77,200.09,188.81z M200.4,185.29
				c-2.31-2.4-4.62-4.81-6.94-7.21c2.3,1.01,6.56,5.17,7.25,6.9C200.61,185.08,200.51,185.18,200.4,185.29z M202.1,184.43
				c-1.77-1.64-3.55-3.28-5.32-4.91c0.12-0.13,0.25-0.27,0.37-0.4c1.74,1.67,3.49,3.34,5.23,5.01
				C202.29,184.23,202.19,184.33,202.1,184.43z M205.42,184.06c-0.93-0.71-1.84-1.45-2.79-2.13c-1.67-1.2-3.42-2.3-5.04-3.56
				c-1.46-1.13-2.78-2.43-4.17-3.66c0.13-0.17,0.26-0.35,0.39-0.52c1.79,1.49,3.55,3.02,5.4,4.44c0.78,0.6,1.77,0.94,2.64,1.44
				c1.2,0.68,2.56,1.18,2.88,2.82c0.06,0.32,0.64,0.55,0.99,0.82C205.62,183.82,205.52,183.94,205.42,184.06z M216.77,182.96
				c-1.54,0.62-2.51-0.17-3.52-0.92c-0.44-0.33-1.02-0.46-1.48-0.76c-0.62-0.4-1.27-0.81-1.76-1.35c-0.97-1.08-1.84-2.24-2.82-3.47
				c-0.19,0.32-0.3,0.5-0.58,0.96c-1.63-2.28-3.59-4.26-4.58-6.65c-0.75-1.8-2.14-2.96-2.86-4.79c1.11,0.68,2.21,1.35,3.48,2.13
				c0-0.43,0-0.66,0-1.17c0.38,0.44,0.6,0.71,0.84,0.96c1,1.04,1.82,2.47,3.04,3.04c3.35,1.55,5.15,4.7,7.82,6.94
				c0.93,0.78,1.68,1.77,2.51,2.66c-0.12,0.14-0.24,0.28-0.36,0.41c-2.09-1.6-4.18-3.2-5.9-4.52
				C212.43,178.39,214.58,180.65,216.77,182.96z M221.92,177.59c-0.34-0.21-0.81-0.33-1.01-0.63c-1.07-1.65-2.08-3.35-3.1-5.03
				c-0.08-0.13-0.09-0.3-0.02-0.51c2.16,1.44,3.09,3.78,4.33,5.88C222.06,177.39,221.99,177.49,221.92,177.59z M227.68,183.49
				c-2.8-5.16-5.61-10.32-8.41-15.48c0.11-0.06,0.22-0.12,0.33-0.17c2.92,5.09,6.7,9.71,8.4,15.48
				C227.89,183.37,227.79,183.43,227.68,183.49z"/>
			<path d="M202.88,169.93c1.2,1.6,2.34,2.79,4.02,3.34C205.88,171.92,205.12,170.28,202.88,169.93z"/>
		</g>
		<g>
			<g>
				<path d="M220.68,227.52c1.85-5.4,3.61-10.49,5.33-15.61c0.27-0.8,0.63-1.1,1.49-1.07c1.93,0.07,3.86,0.02,5.79,0.02
					c0.01,0.14,0.02,0.27,0.03,0.41c-1.08,0.05-2.16,0.11-3.31,0.16c0,7.02,0,13.98,0,21.13c1.11,0,2.19,0,3.28,0
					c0,0.11,0,0.22,0,0.33c-3.32,0-6.63,0-9.95,0c-0.01-0.08-0.02-0.16-0.03-0.23c1.08,0,2.16,0,3.32,0c0-6.9,0-13.56,0-20.22
					c-0.05-0.02-0.11-0.04-0.16-0.06c-2.36,6.82-4.71,13.64-7.19,20.8c-2.47-7.1-4.84-13.91-7.2-20.72
					c-0.05,0.01-0.09,0.01-0.14,0.02c0,6.63,0,13.26,0,20.06c1.11,0,2.23,0,3.36,0c0,0.11,0,0.22,0,0.33c-2.46,0-4.93,0-7.39,0
					c-0.01-0.11-0.01-0.23-0.02-0.34c0.77,0,1.55-0.04,2.31,0.01c0.83,0.06,1.17-0.15,1.17-1.09c-0.04-6.35-0.04-12.69,0-19.04
					c0-0.85-0.26-1.13-1.09-1.06c-0.79,0.06-1.59,0.01-2.38,0.01c0-0.12,0-0.24,0-0.36c2.33,0,4.65,0,7.1,0
					C216.83,216.34,218.7,221.78,220.68,227.52z"/>
				<path d="M173.96,211.33c-1.14,0-2.2,0-3.26,0c0-0.1,0-0.2,0-0.3c3.32,0,6.63,0,9.95,0c0.01,0.07,0.03,0.14,0.04,0.21
					c-1.08,0-2.15,0-3.29,0c0,3.51,0,6.77,0,10.11c3.33,0,6.63,0,10.02,0c0-3.28,0-6.54,0-9.99c-1.09,0-2.18,0-3.27,0
					c0-0.11,0-0.22,0-0.34c3.32,0,6.63,0,9.95,0c0.01,0.07,0.03,0.15,0.04,0.22c-1.08,0-2.16,0-3.3,0c0,7.21,0,14.18,0,21.32
					c1.1,0,2.19,0,3.27,0c0,0.11,0,0.22,0,0.33c-3.32,0-6.63,0-9.95,0c-0.01-0.09-0.02-0.18-0.03-0.27c1.09-0.05,2.17-0.1,3.31-0.15
					c0-3.49,0-6.91,0-10.4c-3.35,0-6.65,0-10.03,0c0,3.43,0,6.85,0,10.5c1.08,0,2.17,0,3.27,0c-0.01,0.12-0.01,0.23-0.02,0.35
					c-3.31,0-6.63,0-9.94,0c0-0.1-0.01-0.2-0.01-0.29c1.06,0,2.13,0,3.27,0C173.96,225.47,173.96,218.51,173.96,211.33z"/>
				<path d="M202.73,232.61c1.13,0,2.21,0,3.28,0c0,0.1-0.01,0.2-0.01,0.31c-3.3,0-6.61,0-9.91,0c0-0.1-0.01-0.2-0.01-0.29
					c1.1,0,2.21,0,3.38,0c0-7.15,0-14.11,0-21.29c-1.12,0-2.25,0-3.38,0c0-0.11,0.01-0.23,0.01-0.34c3.3,0,6.61,0,9.91,0
					c0.01,0.08,0.02,0.17,0.04,0.25c-1.08,0-2.15,0-3.3,0C202.73,218.43,202.73,225.39,202.73,232.61z"/>
			</g>
			<g>
				<rect x="169.26" y="236.37" width="65.48" height="0.5"/>
			</g>
			<g>
				<path d="M178.31,240.29l0.15,2.3h-0.15c-0.21-0.69-0.5-1.18-0.88-1.48c-0.38-0.3-0.84-0.45-1.38-0.45
					c-0.45,0-0.85,0.11-1.22,0.34c-0.36,0.23-0.65,0.59-0.85,1.09c-0.21,0.5-0.31,1.12-0.31,1.86c0,0.61,0.1,1.14,0.29,1.59
					c0.2,0.45,0.49,0.79,0.88,1.03c0.39,0.24,0.84,0.36,1.35,0.36c0.44,0,0.83-0.09,1.16-0.28c0.34-0.19,0.7-0.56,1.11-1.12
					l0.15,0.1c-0.34,0.6-0.73,1.04-1.19,1.32c-0.45,0.28-0.99,0.42-1.61,0.42c-1.12,0-1.99-0.42-2.6-1.25
					c-0.46-0.62-0.69-1.35-0.69-2.18c0-0.67,0.15-1.29,0.45-1.86c0.3-0.56,0.72-1,1.25-1.31c0.53-0.31,1.11-0.47,1.74-0.47
					c0.49,0,0.97,0.12,1.45,0.36c0.14,0.07,0.24,0.11,0.3,0.11c0.09,0,0.17-0.03,0.23-0.09c0.09-0.09,0.15-0.21,0.18-0.37H178.31z"
					/>
				<path d="M181.53,242.5c0.69,0,1.25,0.26,1.66,0.79c0.36,0.45,0.53,0.96,0.53,1.54c0,0.41-0.1,0.82-0.29,1.24
					c-0.2,0.42-0.47,0.73-0.81,0.95c-0.34,0.21-0.73,0.32-1.15,0.32c-0.69,0-1.23-0.27-1.64-0.82c-0.34-0.46-0.51-0.98-0.51-1.55
					c0-0.42,0.1-0.83,0.31-1.25c0.21-0.41,0.48-0.72,0.82-0.92C180.79,242.6,181.15,242.5,181.53,242.5z M181.37,242.82
					c-0.18,0-0.35,0.05-0.53,0.16c-0.18,0.1-0.32,0.29-0.43,0.55c-0.11,0.26-0.16,0.6-0.16,1.01c0,0.66,0.13,1.24,0.4,1.72
					c0.26,0.48,0.61,0.72,1.04,0.72c0.32,0,0.59-0.13,0.8-0.4c0.21-0.27,0.31-0.72,0.31-1.37c0-0.81-0.17-1.45-0.52-1.91
					C182.04,242.98,181.74,242.82,181.37,242.82z"/>
				<path d="M187.35,242.5v1.55h-0.16c-0.13-0.49-0.29-0.82-0.49-1c-0.2-0.18-0.45-0.26-0.75-0.26c-0.23,0-0.42,0.06-0.56,0.18
					c-0.14,0.12-0.21,0.26-0.21,0.41c0,0.19,0.05,0.35,0.16,0.48c0.1,0.14,0.31,0.28,0.63,0.43l0.73,0.35
					c0.67,0.33,1.01,0.76,1.01,1.3c0,0.42-0.16,0.75-0.47,1s-0.67,0.38-1.05,0.38c-0.28,0-0.6-0.05-0.96-0.15
					c-0.11-0.03-0.2-0.05-0.27-0.05c-0.08,0-0.14,0.04-0.18,0.13h-0.16v-1.63h0.16c0.09,0.47,0.27,0.82,0.53,1.05
					c0.26,0.24,0.56,0.35,0.88,0.35c0.23,0,0.42-0.07,0.56-0.2c0.14-0.13,0.22-0.3,0.22-0.49c0-0.23-0.08-0.42-0.24-0.58
					c-0.16-0.16-0.48-0.35-0.96-0.59c-0.48-0.24-0.8-0.46-0.95-0.65c-0.15-0.19-0.22-0.43-0.22-0.72c0-0.38,0.13-0.69,0.39-0.94
					c0.26-0.25,0.59-0.38,1-0.38c0.18,0,0.4,0.04,0.65,0.11c0.17,0.05,0.28,0.07,0.34,0.07c0.05,0,0.09-0.01,0.12-0.03
					c0.03-0.02,0.06-0.07,0.1-0.15H187.35z"/>
				<path d="M189.73,243.47c0.33-0.33,0.53-0.52,0.59-0.57c0.15-0.13,0.31-0.22,0.48-0.29c0.17-0.07,0.34-0.1,0.51-0.1
					c0.29,0,0.53,0.08,0.74,0.25s0.34,0.41,0.41,0.72c0.34-0.4,0.63-0.66,0.87-0.78c0.24-0.12,0.48-0.19,0.73-0.19
					c0.24,0,0.46,0.06,0.65,0.19c0.19,0.12,0.34,0.33,0.45,0.61c0.07,0.19,0.11,0.5,0.11,0.91v1.96c0,0.29,0.02,0.48,0.06,0.59
					c0.03,0.07,0.09,0.14,0.18,0.19c0.09,0.05,0.24,0.08,0.44,0.08v0.18h-2.25v-0.18h0.09c0.2,0,0.35-0.04,0.46-0.11
					c0.08-0.05,0.13-0.14,0.16-0.25c0.01-0.06,0.02-0.22,0.02-0.48v-1.96c0-0.37-0.04-0.63-0.13-0.79
					c-0.13-0.21-0.34-0.32-0.62-0.32c-0.18,0-0.35,0.04-0.53,0.13c-0.18,0.09-0.39,0.25-0.65,0.49l-0.01,0.05l0.01,0.21v2.18
					c0,0.31,0.02,0.51,0.05,0.58c0.04,0.08,0.1,0.14,0.2,0.19c0.1,0.05,0.26,0.08,0.49,0.08v0.18h-2.31v-0.18
					c0.25,0,0.43-0.03,0.52-0.09c0.09-0.06,0.16-0.15,0.2-0.27c0.02-0.06,0.02-0.22,0.02-0.49v-1.96c0-0.37-0.05-0.64-0.16-0.8
					c-0.15-0.21-0.35-0.32-0.61-0.32c-0.18,0-0.36,0.05-0.53,0.14c-0.28,0.15-0.49,0.31-0.64,0.49v2.45c0,0.3,0.02,0.49,0.06,0.58
					c0.04,0.09,0.1,0.16,0.18,0.2c0.08,0.04,0.25,0.07,0.5,0.07v0.18h-2.26v-0.18c0.21,0,0.36-0.02,0.44-0.07
					c0.08-0.04,0.15-0.12,0.19-0.21c0.04-0.1,0.06-0.29,0.06-0.57v-1.74c0-0.5-0.02-0.83-0.04-0.97c-0.02-0.11-0.06-0.19-0.11-0.23
					c-0.05-0.04-0.12-0.06-0.2-0.06c-0.09,0-0.2,0.02-0.33,0.07l-0.07-0.18l1.38-0.56h0.21V243.47z"/>
				<path d="M197.08,244.35c0,0.68,0.16,1.21,0.49,1.59c0.33,0.39,0.72,0.58,1.17,0.58c0.3,0,0.56-0.08,0.78-0.25
					c0.22-0.16,0.41-0.45,0.56-0.84l0.15,0.1c-0.07,0.46-0.27,0.87-0.61,1.24c-0.34,0.37-0.76,0.56-1.26,0.56
					c-0.55,0-1.02-0.21-1.41-0.64c-0.39-0.43-0.59-1-0.59-1.72c0-0.78,0.2-1.39,0.6-1.83c0.4-0.44,0.9-0.66,1.51-0.66
					c0.51,0,0.93,0.17,1.26,0.51c0.33,0.34,0.49,0.79,0.49,1.35H197.08z M197.08,244.06h2.11c-0.02-0.29-0.05-0.5-0.1-0.62
					c-0.08-0.19-0.21-0.33-0.37-0.44c-0.16-0.11-0.34-0.16-0.52-0.16c-0.28,0-0.52,0.11-0.74,0.32
					C197.24,243.38,197.11,243.68,197.08,244.06z"/>
				<path d="M202.16,241.13v1.5h1.07v0.35h-1.07v2.96c0,0.3,0.04,0.5,0.13,0.6c0.08,0.1,0.19,0.15,0.33,0.15
					c0.11,0,0.22-0.03,0.32-0.1c0.1-0.07,0.18-0.17,0.24-0.3h0.19c-0.12,0.33-0.28,0.57-0.49,0.74c-0.21,0.16-0.43,0.25-0.66,0.25
					c-0.15,0-0.3-0.04-0.45-0.13c-0.15-0.08-0.25-0.21-0.32-0.36c-0.07-0.16-0.1-0.4-0.1-0.73v-3.07h-0.72v-0.16
					c0.18-0.07,0.37-0.2,0.56-0.37c0.19-0.17,0.36-0.38,0.51-0.62c0.08-0.13,0.18-0.36,0.32-0.69H202.16z"/>
				<path d="M205.25,242.5v3.67c0,0.29,0.02,0.48,0.06,0.57c0.04,0.09,0.1,0.17,0.18,0.21c0.08,0.05,0.23,0.07,0.45,0.07v0.18h-2.22
					v-0.18c0.22,0,0.37-0.02,0.45-0.06c0.08-0.04,0.14-0.11,0.18-0.21c0.04-0.1,0.07-0.29,0.07-0.57v-1.76
					c0-0.5-0.01-0.82-0.04-0.96c-0.02-0.11-0.06-0.18-0.11-0.22c-0.05-0.04-0.12-0.06-0.2-0.06c-0.09,0-0.21,0.02-0.34,0.07
					l-0.07-0.18l1.38-0.56H205.25z M204.84,240.11c0.14,0,0.26,0.05,0.36,0.15c0.1,0.1,0.15,0.22,0.15,0.36
					c0,0.14-0.05,0.26-0.15,0.36s-0.22,0.15-0.36,0.15c-0.14,0-0.26-0.05-0.36-0.15s-0.15-0.22-0.15-0.36
					c0-0.14,0.05-0.26,0.15-0.36C204.57,240.16,204.69,240.11,204.84,240.11z"/>
				<path d="M210.39,245.46c-0.12,0.6-0.36,1.06-0.72,1.39c-0.36,0.32-0.76,0.49-1.19,0.49c-0.52,0-0.97-0.22-1.36-0.65
					s-0.58-1.02-0.58-1.76c0-0.72,0.21-1.3,0.64-1.75c0.43-0.45,0.94-0.67,1.54-0.67c0.45,0,0.82,0.12,1.11,0.36
					c0.29,0.24,0.43,0.48,0.43,0.74c0,0.13-0.04,0.23-0.12,0.31c-0.08,0.08-0.2,0.12-0.34,0.12c-0.2,0-0.34-0.06-0.44-0.19
					c-0.06-0.07-0.09-0.2-0.11-0.4c-0.02-0.2-0.09-0.35-0.2-0.45c-0.12-0.1-0.28-0.15-0.48-0.15c-0.33,0-0.6,0.12-0.8,0.37
					c-0.27,0.33-0.4,0.76-0.4,1.29c0,0.54,0.13,1.03,0.4,1.44c0.27,0.42,0.63,0.63,1.08,0.63c0.33,0,0.62-0.11,0.88-0.33
					c0.18-0.15,0.36-0.43,0.53-0.83L210.39,245.46z"/>
				<path d="M215.37,243.57h3.14v-1.93c0-0.35-0.02-0.57-0.06-0.68c-0.03-0.08-0.1-0.15-0.21-0.21c-0.14-0.08-0.29-0.12-0.45-0.12
					h-0.24v-0.18h2.89v0.18h-0.24c-0.16,0-0.31,0.04-0.45,0.11c-0.11,0.05-0.18,0.13-0.22,0.24c-0.04,0.11-0.06,0.33-0.06,0.66V246
					c0,0.34,0.02,0.57,0.06,0.68c0.03,0.08,0.1,0.15,0.2,0.21c0.15,0.08,0.3,0.12,0.46,0.12h0.24v0.18h-2.89v-0.18h0.24
					c0.28,0,0.48-0.08,0.6-0.24c0.08-0.11,0.12-0.36,0.12-0.77v-2.06h-3.14V246c0,0.34,0.02,0.57,0.06,0.68
					c0.03,0.08,0.1,0.15,0.21,0.21c0.14,0.08,0.29,0.12,0.45,0.12h0.24v0.18h-2.9v-0.18h0.24c0.28,0,0.48-0.08,0.61-0.24
					c0.08-0.11,0.12-0.36,0.12-0.77v-4.36c0-0.35-0.02-0.57-0.06-0.68c-0.03-0.08-0.1-0.15-0.2-0.21c-0.15-0.08-0.3-0.12-0.46-0.12
					h-0.24v-0.18h2.9v0.18h-0.24c-0.16,0-0.31,0.04-0.45,0.11c-0.1,0.05-0.17,0.13-0.21,0.24c-0.04,0.11-0.06,0.33-0.06,0.66V243.57
					z"/>
				<path d="M223.55,246.54c-0.47,0.36-0.76,0.57-0.88,0.63c-0.18,0.08-0.37,0.12-0.57,0.12c-0.32,0-0.58-0.11-0.78-0.32
					s-0.31-0.5-0.31-0.85c0-0.22,0.05-0.42,0.15-0.58c0.14-0.23,0.37-0.44,0.71-0.64c0.34-0.2,0.9-0.44,1.68-0.73v-0.18
					c0-0.46-0.07-0.77-0.22-0.94c-0.14-0.17-0.35-0.25-0.63-0.25c-0.21,0-0.38,0.06-0.5,0.17c-0.13,0.11-0.19,0.24-0.19,0.39
					l0.01,0.29c0,0.15-0.04,0.27-0.12,0.35c-0.08,0.08-0.18,0.12-0.31,0.12c-0.12,0-0.22-0.04-0.3-0.13
					c-0.08-0.09-0.12-0.2-0.12-0.35c0-0.29,0.15-0.55,0.44-0.79c0.29-0.24,0.7-0.36,1.23-0.36c0.41,0,0.74,0.07,1,0.2
					c0.2,0.1,0.34,0.26,0.43,0.48c0.06,0.14,0.09,0.44,0.09,0.88v1.55c0,0.44,0.01,0.7,0.02,0.8c0.02,0.1,0.04,0.16,0.08,0.2
					c0.04,0.03,0.08,0.05,0.13,0.05c0.05,0,0.1-0.01,0.14-0.03c0.07-0.04,0.2-0.16,0.4-0.36v0.28c-0.37,0.5-0.73,0.75-1.07,0.75
					c-0.16,0-0.29-0.06-0.39-0.17C223.6,247,223.55,246.81,223.55,246.54z M223.55,246.22v-1.74c-0.5,0.2-0.83,0.34-0.97,0.42
					c-0.26,0.15-0.45,0.3-0.56,0.46c-0.11,0.16-0.17,0.33-0.17,0.52c0,0.24,0.07,0.44,0.21,0.6c0.14,0.16,0.31,0.24,0.49,0.24
					C222.8,246.71,223.14,246.55,223.55,246.22z"/>
				<path d="M227.07,242.5v3.67c0,0.29,0.02,0.48,0.06,0.57c0.04,0.09,0.1,0.17,0.18,0.21c0.08,0.05,0.23,0.07,0.45,0.07v0.18h-2.22
					v-0.18c0.22,0,0.37-0.02,0.45-0.06c0.08-0.04,0.14-0.11,0.18-0.21c0.04-0.1,0.07-0.29,0.07-0.57v-1.76
					c0-0.5-0.01-0.82-0.04-0.96c-0.02-0.11-0.06-0.18-0.11-0.22c-0.05-0.04-0.12-0.06-0.2-0.06c-0.09,0-0.21,0.02-0.34,0.07
					l-0.07-0.18l1.38-0.56H227.07z M226.65,240.11c0.14,0,0.26,0.05,0.36,0.15c0.1,0.1,0.15,0.22,0.15,0.36
					c0,0.14-0.05,0.26-0.15,0.36s-0.22,0.15-0.36,0.15s-0.26-0.05-0.36-0.15s-0.15-0.22-0.15-0.36c0-0.14,0.05-0.26,0.15-0.36
					C226.39,240.16,226.51,240.11,226.65,240.11z"/>
				<path d="M229.66,242.5v1.03c0.38-0.68,0.77-1.03,1.18-1.03c0.18,0,0.33,0.06,0.45,0.17c0.12,0.11,0.18,0.24,0.18,0.39
					c0,0.13-0.04,0.24-0.13,0.33c-0.09,0.09-0.19,0.13-0.31,0.13c-0.12,0-0.25-0.06-0.39-0.17c-0.14-0.11-0.25-0.17-0.32-0.17
					c-0.06,0-0.12,0.03-0.19,0.1c-0.15,0.14-0.3,0.36-0.46,0.67v2.19c0,0.25,0.03,0.44,0.09,0.57c0.04,0.09,0.12,0.16,0.23,0.22
					c0.11,0.06,0.27,0.09,0.47,0.09v0.18h-2.34v-0.18c0.23,0,0.41-0.04,0.52-0.11c0.08-0.05,0.14-0.14,0.17-0.25
					c0.02-0.06,0.02-0.22,0.02-0.48v-1.77c0-0.53-0.01-0.85-0.03-0.95c-0.02-0.1-0.06-0.18-0.12-0.22
					c-0.06-0.05-0.13-0.07-0.22-0.07c-0.1,0-0.22,0.02-0.35,0.07l-0.05-0.18l1.38-0.56H229.66z"/>
			</g>
		</g>
	</g>
</g>
</svg>
