<?xml version="1.0" encoding="utf-8"?>
<!-- Generator: Adobe Illustrator 26.5.0, SVG Export Plug-In . SVG Version: 6.00 Build 0)  -->
<svg version="1.1" id="Layer_1" xmlns="http://www.w3.org/2000/svg" xmlns:xlink="http://www.w3.org/1999/xlink" x="0px" y="0px"
	 viewBox="0 0 400 400" style="enable-background:new 0 0 400 400;" xml:space="preserve">
<style type="text/css">
	.st0{fill:#FFFFFF;}
	.st1{fill:url(#SVGID_1_);}
	.st2{fill:none;stroke:#42210B;stroke-width:5;stroke-linecap:round;stroke-linejoin:round;stroke-miterlimit:10;}
	.st3{fill:#FFFFFF;stroke:#42210B;stroke-width:5;stroke-miterlimit:10;}
	.st4{fill:#333333;}
	.st5{fill:#42210B;}
	.st6{fill:url(#SVGID_00000148625392529727817520000000786042541855575478_);}
	.st7{fill:url(#SVGID_00000176031095660269620150000006142798031858803617_);}
	.st8{fill:url(#SVGID_00000111879096650731371330000003342538882653495176_);}
	.st9{fill:#FCBF95;}
	.st10{fill:url(#SVGID_00000119805096190083527160000003698026567978887823_);}
	.st11{fill:#FF9D5A;}
	.st12{fill:#303047;}
	.st13{fill:url(#SVGID_00000016056896270911022020000015816472216522033596_);}
	.st14{fill:url(#SVGID_00000131350025951318526380000010949974072475045797_);}
	.st15{fill:url(#SVGID_00000174595848501831587390000016833950873067702922_);}
	.st16{clip-path:url(#SVGID_00000157282384887966839620000012025742247254878113_);}
	.st17{fill:#772C29;}
	.st18{fill:#F7C4A6;}
	.st19{fill:#E6A486;}
	.st20{fill:#F15A24;}
	.st21{fill:#C1272D;}
	.st22{fill:#CF7D73;}
	.st23{fill:#581C2C;}
	.st24{fill:#8B3B29;}
	.st25{clip-path:url(#SVGID_00000072276607265932675470000003113095503899201429_);}
	.st26{clip-path:url(#SVGID_00000146478116883002792350000004909898986204894652_);}
	.st27{clip-path:url(#SVGID_00000062878361869261256920000010054615307338326918_);}
	.st28{fill:#0C0C0C;}
	.st29{fill:#575757;}
	.st30{fill:#201D1E;}
	.st31{fill:#DB262D;}
	
		.st32{fill:url(#SVGID_00000030472982942647415980000015492381205205124799_);stroke:#2A6880;stroke-width:0.2596;stroke-miterlimit:10;}
	
		.st33{fill:url(#SVGID_00000052096807431815889350000003232199827242532245_);stroke:#2A6880;stroke-width:0.2596;stroke-miterlimit:10;}
	
		.st34{fill:url(#SVGID_00000071551827501859602440000005890606177933290661_);stroke:#2A6880;stroke-width:0.2596;stroke-miterlimit:10;}
	.st35{fill:#343433;}
	.st36{fill:#1C1B17;}
	.st37{fill:#4B443F;}
	.st38{fill:#B9272A;}
	.st39{fill:#264A90;}
	.st40{fill:#D41F26;}
	.st41{fill:#E66725;}
	.st42{clip-path:url(#SVGID_00000116231523824546614550000016007604862960053636_);}
	.st43{fill:#EF8C71;}
	.st44{fill:#EF8C73;}
	.st45{fill:#828080;}
	.st46{fill:none;}
	.st47{fill:none;stroke:#42210B;stroke-miterlimit:10;}
	.st48{clip-path:url(#SVGID_00000008143080204000395740000009384046480300692664_);}
	.st49{clip-path:url(#SVGID_00000155139071061970490440000001688533338129763484_);}
	.st50{fill:#FBB617;}
</style>
<g>
	<path class="st3" d="M327.69,298.84H72.31c-34.42,0-62.31-27.9-62.31-62.31v-73.06c0-34.42,27.9-62.31,62.31-62.31h255.37
		c34.42,0,62.31,27.9,62.31,62.31v73.06C390,270.94,362.1,298.84,327.69,298.84z"/>
	<g>
		<path d="M119.29,178.85c-3.06,0-5.54,2.48-5.54,5.54v46c0,3.06,2.48,5.54,5.54,5.54h127.83v-57.08H119.29z M183.9,182.47
			c-0.36,1.39-1.05,2.5-2.08,3.28c-1.31,1.01-2.84,1.38-4.53,1.11c-1.22-0.2-2.27-0.73-3.14-1.59c-0.81-0.81-1.34-1.76-1.56-2.84
			c-0.2-0.95-0.18-1.91,0.04-2.93c0.05-0.22,0.11-0.44,0.17-0.66h1.08c-0.31,0.85-0.52,1.81-0.4,2.85c0.11,1,0.5,1.89,1.16,2.62
			c0.95,1.07,2.17,1.6,3.74,1.64l0.02,0l0.02,0c0.04-0.01,0.09-0.01,0.14-0.02c0.16-0.02,0.37-0.04,0.59-0.09
			c1.83-0.38,3.06-1.47,3.67-3.24c0.22-0.64,0.28-1.34,0.21-2.2c-0.05-0.57-0.15-1.08-0.29-1.55h1.06c0.13,0.48,0.22,0.96,0.26,1.44
			C184.12,181.07,184.07,181.8,183.9,182.47z"/>
		<path d="M260.05,247.69c-3.35,0-6.58-0.47-9.6-1.39c-5.89-1.81-10.44-5.26-13.53-10.27c-0.44-0.01-0.92-0.02-1.48-0.02
			c-0.48,0-0.97,0-1.45,0.01c-0.49,0-0.99,0.01-1.48,0.01c0,0-0.68,0-0.9,0c-0.86,0-1.89,0.01-2.97,0.01
			c-1.2,0.01-2.46,0.01-3.63,0.01c-4.23,0-5.09-0.05-5.58-0.32c-2.61-0.92-3.17-2.74-3.16-4.13c0-0.63,0.15-1.18,0.35-1.66
			c-0.79-0.11-1.59-0.24-2.39-0.43c-4.51-1.04-8.11-2.81-11.03-5.41c-4.85-4.33-7.25-10.27-7.12-17.65
			c0.08-4.62,1.39-8.87,4.01-12.99c4.34-6.83,8.67-13.84,12.86-20.62c1.03-1.67,2.06-3.34,3.1-5.01c0.83-1.35,1.86-2.16,3.15-2.47
			c0.34-0.09,0.72-0.11,1.19-0.13c0.46-0.02,1.12-0.03,1.94-0.04c1.52-0.02,3.56-0.04,5.73-0.04c2.18,0,4.22,0.01,5.74,0.03
			c2.24,0.03,3.01,0.04,3.5,0.3c1.47,0.56,2.42,1.44,2.84,2.62c0.45,1.27,0.2,2.69-0.73,4.23c-0.59,0.96-1.38,2.28-2.17,3.6
			c-0.51,0.85-1.02,1.69-1.47,2.43l29.28,0c1.74,0,3.25,0.67,4.25,1.88c0.84,1.02,1.25,2.33,1.19,3.77
			c3.61,1.44,6.53,3.67,8.69,6.64c4.25,5.85,4.66,13.56,1.1,19.82c4.37,4.66,6.5,10.8,5.88,16.97c-0.65,6.45-4.24,12.24-9.84,15.89
			c-3.52,2.29-7.47,3.64-12.07,4.13C262.81,247.62,261.41,247.69,260.05,247.69z"/>
		<path class="st0" d="M220.25,234.03c-1.48-0.46-2.14-1.21-2.13-2.42c0.01-1.26,1.03-2.02,1.48-3.18
			c-1.68-0.23-3.34-0.38-4.96-0.75c-3.78-0.87-7.28-2.36-10.23-5c-4.8-4.28-6.6-9.85-6.49-16.2c0.08-4.37,1.37-8.31,3.71-11.99
			c5.4-8.5,10.67-17.09,15.97-25.65c0.52-0.84,1.13-1.45,2.09-1.66c0.17-0.19,16.57-0.19,16.74,0c2.17,0.74,2.65,2.15,1.41,4.18
			c-1.69,2.78-5.12,8.52-5.2,8.56c-0.12,0.14-0.17,0.29,0.06,0.33c0.27,0.04,0.55,0.02,0.82,0.02c10.51,0,21.01,0,31.52,0
			c2.45,0,3.95,1.79,3.55,4.27c-0.09,0.58,0.06,0.82,0.6,1.01c3.42,1.24,6.33,3.24,8.51,6.25c3.94,5.42,4.21,12.54,0.69,18.25
			c-0.29,0.47-0.44,0.74,0.06,1.23c9.1,9.07,7.61,23.5-3.12,30.48c-3.45,2.24-7.25,3.42-11.28,3.85c-4.42,0.47-8.79,0.21-13.06-1.1
			c-5.62-1.72-10.04-5.04-12.99-10.3c-1.91-0.11-3.83-0.04-5.74-0.04C228.57,234.14,220.54,234.26,220.25,234.03z"/>
		<path d="M236.24,169.56c-0.8,1.3-1.49,2.44-2.18,3.57c-1.77,2.89-3.56,5.77-5.3,8.68c-0.35,0.59-0.73,0.8-1.39,0.77
			c-1.34-0.05-2.69-0.02-4.03-0.01c-0.93,0-1.37,0.39-1.54,1.34c-0.65,3.76-1.3,7.52-1.95,11.28c-0.18,1.02,0.36,1.64,1.41,1.64
			c6.44,0,12.89,0,19.33,0.01c0.37,0,0.81-0.18,1.08,0.27c0.29,0.49-0.14,0.76-0.33,1.07c-5.65,9.04-11.33,18.07-16.97,27.11
			c-0.39,0.63-0.81,0.87-1.54,0.87c-4.07,0-8.06-0.48-11.83-2.11c-6.96-3.01-10.53-8.44-10.81-16.16c-0.15-4.35,0.9-8.3,3.24-12
			c5.39-8.47,10.64-17.03,15.92-25.58c0.36-0.58,0.73-0.78,1.39-0.77C225.85,169.58,230.95,169.57,236.24,169.56z"/>
		<path class="st0" d="M222.35,200.23c5.19-0.02,8.29,4.14,6.82,9.19c-0.83,2.86-2.86,4.26-5.63,4.65
			c-1.16,0.16-2.32,0.09-3.46-0.21c-3.34-0.89-5.43-3.84-5.14-7.25c0.31-3.65,2.77-6.1,6.4-6.38
			C221.67,200.21,222.01,200.23,222.35,200.23z"/>
		<rect x="131.63" y="191.12" class="st46" width="8.34" height="32.53"/>
		<path class="st46" d="M179.99,177.41c-0.66-1.12-0.97-2.24-0.95-3.43c0-0.19,0-0.37,0-0.56c0-0.24-0.01-0.5,0-0.75l0.02-0.43
			c0.03-0.71,0.06-1.44,0.13-2.16c0.09-0.83,0.25-1.67,0.4-2.47c0.05-0.27,0.1-0.53,0.16-0.8c-0.44,1.2-0.84,2.44-1.2,3.71
			c-0.31,1.12-0.7,2.6-0.91,4.12c-0.16,1.15-0.53,2.15-1.14,3.07c-0.25,0.37-0.46,0.75-0.63,1.14h4.91
			c-0.18-0.41-0.41-0.81-0.66-1.22L179.99,177.41z"/>
		<rect x="174.17" y="191.12" class="st46" width="8.34" height="10.11"/>
		<path class="st0" d="M152.32,223.65v-36.66l-8.26-8.15h-16.52l-8.26,8.15v40.77l8.26,8.15h28.08v-8.15h-7.43L152.32,223.65z
			 M139.97,223.65h-8.34v-32.53h8.34V223.65z"/>
		<path class="st0" d="M175.31,180.82c-0.09,0.66,0.04,1.27,0.38,1.8c0.71,1.13,1.72,1.61,3,1.43c1.1-0.15,1.88-0.78,2.32-1.85
			c0.36-0.88,0.22-1.81,0-2.68c-0.06-0.23-0.14-0.46-0.23-0.67h-4.91C175.59,179.48,175.4,180.13,175.31,180.82z"/>
		<path class="st0" d="M194.86,187l-8.26-8.15h-0.9c0.08,0.36,0.14,0.73,0.18,1.1c0.16,1.55-0.05,2.99-0.63,4.28
			c-1.04,2.34-2.82,3.82-5.27,4.39c-0.56,0.13-1.12,0.2-1.68,0.2c-0.18,0-0.36-0.01-0.53-0.02c-1.67-0.13-3.15-0.72-4.4-1.75
			c-1.39-1.15-2.28-2.64-2.62-4.43c-0.24-1.21-0.18-2.48,0.16-3.76h-9.07v57.08h12.35V213.5h8.34v22.42h12.35v-22.83l-5.78-5.71
			l5.78-5.71V187z M182.51,201.23h-8.34v-10.11h8.34V201.23z"/>
		<path d="M178.38,185.66c-1.48-0.03-2.63-0.53-3.53-1.54c-0.62-0.7-0.98-1.52-1.08-2.46c-0.15-1.32,0.25-2.52,0.8-3.69
			c0.2-0.44,0.46-0.86,0.72-1.26c0.48-0.73,0.71-1.53,0.84-2.38c0.13-0.83,0.28-1.65,0.47-2.47c0.45-1.95,1.04-3.86,1.74-5.74
			c0.89-2.39,1.94-4.71,3.25-6.91c0.75-1.27,1.57-2.48,2.5-3.61c0.72-0.88,1.49-1.71,2.38-2.43c0.3-0.25,0.6-0.49,0.91-0.73
			c0.27-0.21,0.61-0.17,0.85,0.08c0.21,0.22,0.2,0.6,0.01,0.82c-1.15,1.34-2.16,2.78-3.06,4.3c-1.03,1.72-1.91,3.51-2.63,5.39
			c-0.7,1.82-1.23,3.69-1.57,5.6c-0.13,0.74-0.21,1.49-0.28,2.25c-0.06,0.66-0.09,1.32-0.1,1.98c-0.01,0.64-0.03,1.3,0.07,1.93
			c0.08,0.51,0.27,1.01,0.49,1.48c0.29,0.62,0.67,1.19,0.97,1.8c0.36,0.74,0.54,1.54,0.61,2.37c0.06,0.71,0.04,1.41-0.19,2.08
			c-0.57,1.67-1.72,2.69-3.45,3.05C178.82,185.62,178.53,185.64,178.38,185.66z M181.59,161.97c-0.01,0-0.02-0.01-0.03-0.01
			c-0.05,0.08-0.09,0.17-0.14,0.25c-1.31,2.64-2.34,5.39-3.14,8.23c-0.38,1.37-0.73,2.75-0.92,4.16c-0.15,1.07-0.5,2.05-1.1,2.95
			c-0.65,0.98-1.08,2.05-1.24,3.23c-0.09,0.72,0.04,1.39,0.42,1.99c0.76,1.2,1.85,1.77,3.28,1.57c1.24-0.17,2.08-0.88,2.55-2.03
			c0.39-0.94,0.25-1.91,0.02-2.86c-0.2-0.8-0.64-1.49-1.05-2.19c-0.6-1.01-0.93-2.09-0.91-3.28c0.01-0.43-0.02-0.87,0-1.3
			c0.04-0.86,0.06-1.71,0.15-2.56c0.09-0.83,0.24-1.65,0.4-2.47c0.29-1.55,0.74-3.06,1.27-4.55
			C181.29,162.72,181.44,162.35,181.59,161.97z"/>
		<path d="M171.76,177.15c-0.81,0.05-1.63,0.11-2.44,0.13c-0.61,0.02-1.22,0.04-1.82-0.01c-0.83-0.06-1.66-0.18-2.49-0.28
			c-0.29-0.04-0.59-0.11-0.88-0.16c-0.34-0.06-0.58-0.4-0.52-0.72c0.06-0.36,0.4-0.57,0.76-0.51c0.75,0.12,1.5,0.25,2.26,0.33
			c0.72,0.08,1.45,0.14,2.18,0.13c0.83-0.01,1.66-0.1,2.49-0.17c0.49-0.04,0.98-0.12,1.47-0.18c0.28-0.03,0.52,0.03,0.69,0.28
			c0.16,0.24,0.12,0.48-0.02,0.72c-0.49,0.86-0.87,1.77-1.08,2.74c-0.22,1.01-0.26,2.02-0.04,3.05c0.24,1.17,0.81,2.16,1.64,2.98
			c0.91,0.91,2.02,1.47,3.3,1.68c1.75,0.28,3.35-0.08,4.76-1.16c1.14-0.88,1.83-2.06,2.18-3.44c0.19-0.75,0.23-1.52,0.17-2.28
			c-0.09-1.15-0.43-2.24-0.96-3.26c-0.09-0.17-0.18-0.35-0.21-0.53c-0.06-0.34,0.21-0.68,0.56-0.67c0.58,0.01,1.16,0.05,1.73,0.07
			c0.38,0.01,0.75-0.02,1.13-0.02c1.1-0.01,2.19-0.15,3.28-0.32c0.67-0.1,1.35-0.19,2.02-0.27c0.55-0.07,0.93,0.38,0.73,0.86
			c-0.09,0.22-0.26,0.36-0.49,0.39c-0.72,0.1-1.44,0.19-2.16,0.28c-0.68,0.09-1.36,0.19-2.05,0.26c-0.46,0.05-0.92,0.05-1.37,0.06
			c-0.56,0.01-1.13,0-1.73,0c0.05,0.14,0.1,0.27,0.15,0.4c0.31,0.8,0.5,1.62,0.59,2.47c0.15,1.43-0.02,2.81-0.6,4.13
			c-0.99,2.23-2.67,3.66-5.07,4.22c-0.7,0.16-1.41,0.22-2.12,0.17c-1.58-0.12-3.01-0.66-4.24-1.68c-1.35-1.12-2.19-2.55-2.52-4.26
			c-0.26-1.35-0.15-2.68,0.25-3.99C171.42,178.08,171.6,177.61,171.76,177.15z"/>
		<path d="M174.94,174.6c-0.31-0.55-0.64-1.1-0.95-1.65c-0.27-0.47-0.55-0.94-0.82-1.43c0.33-0.17,0.43-0.43,0.39-0.76
			c-0.05-0.4-0.13-0.8-0.16-1.2c-0.01-0.18-0.14-0.36,0.03-0.55c0.65-0.69,0.78-1.61,0.32-2.44c-0.49-0.88-1-1.74-1.5-2.6
			c-1-1.73-2-3.46-3-5.19c-0.33-0.57-0.65-1.13-0.98-1.7c0.13-0.07,0.23-0.14,0.35-0.2c0.12-0.07,0.23-0.13,0.35-0.2
			c0.37-0.2,0.49-0.55,0.31-0.89c-0.18-0.33-0.57-0.43-0.93-0.22c-0.44,0.25-0.88,0.51-1.32,0.77c-0.65,0.37-1.29,0.75-1.96,1.13
			c-0.5-0.87-1-1.72-1.49-2.58c0.06-0.04,0.11-0.07,0.16-0.1c0.49-0.28,0.98-0.56,1.46-0.84c0.26-0.15,0.39-0.4,0.35-0.65
			c-0.09-0.51-0.54-0.71-1-0.44c-0.59,0.34-1.18,0.68-1.77,1.02c-0.85,0.49-1.7,0.99-2.56,1.48c-0.25,0.15-0.38,0.36-0.34,0.65
			c0.03,0.24,0.16,0.41,0.39,0.5c0.24,0.08,0.45,0.03,0.66-0.1c0.51-0.3,1.02-0.59,1.55-0.9c0.5,0.87,1,1.72,1.5,2.58
			c-0.8,0.46-1.58,0.9-2.35,1.35c-0.32,0.19-0.66,0.36-0.95,0.59c-0.3,0.22-0.32,0.56-0.12,0.86c0.18,0.25,0.54,0.32,0.84,0.15
			c0.21-0.12,0.41-0.23,0.62-0.35c0.03,0.05,0.06,0.07,0.07,0.1c0.7,1.21,1.4,2.42,2.1,3.63c1.07,1.85,2.16,3.69,3.21,5.56
			c0.5,0.89,1.38,1.34,2.38,1.13c0.08-0.02,0.19,0.01,0.26,0.06c0.38,0.27,0.76,0.54,1.11,0.84c0.3,0.25,0.59,0.32,0.94,0.12
			c0.32,0.55,0.63,1.08,0.94,1.62c0.27,0.47,0.54,0.95,0.82,1.42c0.21,0.36,0.56,0.45,0.9,0.26
			C175,175.3,175.11,174.91,174.94,174.6z M172.11,170.65c-0.31,0.32-0.58,0.2-0.83-0.08c-0.04-0.04-0.09-0.07-0.17-0.13
			c0.35-0.2,0.67-0.39,1.03-0.6c0.03,0.24,0.07,0.43,0.08,0.63C172.23,170.54,172.16,170.6,172.11,170.65z M172.33,168.27
			c-0.9,0.53-1.81,1.06-2.72,1.57c-0.31,0.17-0.75,0.09-0.96-0.2c-0.21-0.29-0.37-0.61-0.56-0.93c0.5-0.29,0.97-0.56,1.44-0.83
			c0.21-0.12,0.4-0.25,0.45-0.52c0.05-0.26-0.04-0.46-0.22-0.62c-0.2-0.18-0.48-0.18-0.71-0.05c-0.52,0.3-1.05,0.6-1.59,0.92
			c-0.38-0.65-0.74-1.29-1.11-1.92c0.52-0.3,1.02-0.61,1.53-0.88c0.32-0.17,0.5-0.56,0.28-0.93c-0.18-0.29-0.56-0.36-0.91-0.16
			c-0.51,0.29-1.01,0.58-1.53,0.88c-0.38-0.65-0.74-1.28-1.12-1.92c0.53-0.31,1.05-0.6,1.57-0.91c0.41-0.24,0.45-0.75,0.1-1.04
			c-0.18-0.16-0.49-0.19-0.74-0.05c-0.52,0.29-1.04,0.6-1.57,0.91c-0.29-0.49-0.58-0.99-0.88-1.51c1.34-0.78,2.69-1.55,4.06-2.35
			c0.14,0.23,0.28,0.47,0.42,0.7c1.2,2.07,2.39,4.14,3.59,6.22c0.48,0.83,0.96,1.66,1.44,2.48
			C172.85,167.56,172.76,168.02,172.33,168.27z"/>
		<path d="M166.27,160.72c-0.18-0.16-0.49-0.19-0.74-0.05c-0.52,0.29-1.04,0.6-1.57,0.91l0.63,1.1c0.53-0.31,1.05-0.6,1.57-0.91
			C166.58,161.52,166.62,161.02,166.27,160.72z"/>
		<path d="M168.15,163.88c-0.18-0.29-0.56-0.36-0.91-0.16c-0.51,0.29-1.01,0.58-1.53,0.88l0.63,1.1c0.52-0.3,1.02-0.61,1.53-0.88
			C168.19,164.64,168.38,164.25,168.15,163.88z"/>
		<path d="M169.98,167.37c0.05-0.26-0.04-0.46-0.22-0.62c-0.2-0.18-0.48-0.18-0.71-0.05c-0.52,0.3-1.05,0.6-1.59,0.92l0.63,1.1
			c0.5-0.29,0.97-0.56,1.44-0.83C169.74,167.77,169.93,167.64,169.98,167.37z"/>
		<path class="st46" d="M171.16,164.65c-1.2-2.07-2.39-4.14-3.59-6.22c-0.14-0.24-0.28-0.47-0.42-0.7
			c-1.37,0.79-2.72,1.57-4.06,2.35c0.3,0.52,0.59,1.01,0.88,1.51c0.53-0.31,1.05-0.61,1.57-0.91c0.25-0.14,0.56-0.11,0.74,0.05
			c0.35,0.3,0.3,0.8-0.1,1.04c-0.52,0.31-1.05,0.61-1.57,0.91c0.37,0.64,0.74,1.27,1.12,1.92c0.52-0.3,1.02-0.59,1.53-0.88
			c0.35-0.2,0.73-0.13,0.91,0.16c0.22,0.37,0.04,0.76-0.28,0.93c-0.51,0.27-1.01,0.58-1.53,0.88c0.37,0.63,0.73,1.27,1.11,1.92
			c0.55-0.31,1.07-0.62,1.59-0.92c0.23-0.13,0.51-0.13,0.71,0.05c0.18,0.16,0.27,0.36,0.22,0.62c-0.05,0.27-0.24,0.4-0.45,0.52
			c-0.47,0.27-0.94,0.54-1.44,0.83c0.19,0.32,0.36,0.64,0.56,0.93c0.21,0.29,0.65,0.38,0.96,0.2c0.91-0.52,1.82-1.04,2.72-1.57
			c0.43-0.26,0.52-0.71,0.27-1.14C172.11,166.3,171.64,165.47,171.16,164.65z"/>
		<path class="st0" d="M261.98,206.04c2.26-0.5,3.58-2.32,3.47-4.43c-0.11-2.01-1.77-3.7-3.97-4.03c-0.84-0.13-1.68-0.2-2.72,0.06
			l-3.61,5.92C256.8,206.29,259.28,206.65,261.98,206.04z"/>
		<path d="M275.46,211.71c-0.59-0.48-0.65-0.72-0.14-1.32c1.85-2.22,3.02-4.76,3.15-7.73c0.15-0.75,0.01-2.26,0.01-2.26
			c-0.02-2.03-0.65-3.88-1.6-5.61c-2.31-4.19-5.98-6.46-10.39-7.71c-0.75-0.21-1.18-0.11-1.62,0.63c-1.5,2.54-3.09,5.03-4.64,7.55
			c-0.45,0.73-0.91,1.47-1.47,2.39l0,0c1.04-0.25,1.88-0.18,2.72-0.06c2.2,0.33,3.86,2.02,3.97,4.03c0.11,2.11-1.21,3.92-3.47,4.43
			c-2.71,0.61-5.18,0.24-6.84-2.49l0,0c-0.13,0.17-0.23,0.28-0.31,0.4c-5.24,8.45-10.48,16.91-15.73,25.36
			c-0.28,0.45-0.26,0.84-0.1,1.32c1.55,4.51,4.52,7.75,8.59,9.95c4.57,2.47,9.5,3.11,14.58,2.83c3.95-0.21,7.75-1.1,11.19-3.19
			c5.37-3.25,8.54-8,8.76-14.48C282.31,219.92,279.9,215.27,275.46,211.71z"/>
		<path class="st0" d="M260.27,217.89c3.5-0.02,6.1,1.75,7.02,4.74c1.04,3.36-0.5,6.84-3.65,8.24c-3.09,1.37-7.12,0.69-9.09-1.61
			c-1.78-2.09-2.23-4.5-1.24-7.08c1.03-2.69,3.14-3.96,5.86-4.28C259.54,217.85,259.91,217.89,260.27,217.89z"/>
		<path class="st0" d="M278.45,211.26c-0.49-0.49-0.34-0.77-0.06-1.23c3.52-5.71,3.25-12.84-0.69-18.25
			c-2.19-3.01-5.09-5.01-8.51-6.25c-0.3-0.11-0.48-0.24-0.56-0.42l0,0l-1.37,2.19c4.07,1.29,7.46,3.53,9.63,7.48
			c0.95,1.73,1.58,3.59,1.6,5.61c0,0,0.14,1.51-0.01,2.26c-0.14,2.97-1.3,5.51-3.15,7.73c-0.5,0.6-0.45,0.85,0.14,1.32
			c4.44,3.56,6.85,8.21,6.66,14.04c-0.22,6.49-3.39,11.23-8.76,14.48c-3.44,2.08-7.24,2.97-11.19,3.19
			c-5.07,0.27-10.01-0.36-14.58-2.83c-3.7-2.01-6.49-4.87-8.13-8.76l-1.48,2.37c2.95,5.26,7.38,8.58,12.99,10.3
			c4.27,1.31,8.64,1.57,13.06,1.1c4.03-0.43,7.83-1.6,11.28-3.85C286.05,234.77,287.54,220.34,278.45,211.26z"/>
		<path class="st0" d="M211.01,224.06c-6.96-3.01-10.53-8.44-10.81-16.16c-0.15-4.35,0.9-8.3,3.24-12
			c5.39-8.47,10.64-17.03,15.92-25.58c0.36-0.58,0.73-0.78,1.39-0.77c5.1,0.03,10.2,0.01,15.49,0.01c-0.8,1.3-1.49,2.44-2.18,3.57
			c-1.77,2.89-3.56,5.77-5.3,8.68c-0.16,0.27-0.33,0.45-0.52,0.58l0,0l4.4-2.49c0.08-0.04,3.51-5.78,5.2-8.56
			c1.24-2.03,0.76-3.44-1.41-4.18c-0.17-0.19-16.57-0.18-16.74,0c-0.96,0.21-1.57,0.82-2.09,1.66c-5.3,8.57-10.57,17.16-15.97,25.65
			c-2.34,3.69-3.64,7.62-3.71,11.99c-0.11,6.35,1.7,11.92,6.49,16.2c2.95,2.63,6.45,4.12,10.23,5c1.62,0.37,3.28,0.52,4.96,0.75
			l1.61-2.29C217.71,226.02,214.28,225.47,211.01,224.06z"/>
	</g>
</g>
</svg>
