<?xml version="1.0" encoding="utf-8"?>
<!-- Generator: Adobe Illustrator 26.5.0, SVG Export Plug-In . SVG Version: 6.00 Build 0)  -->
<svg version="1.1" id="Layer_1" xmlns="http://www.w3.org/2000/svg" xmlns:xlink="http://www.w3.org/1999/xlink" x="0px" y="0px"
	 viewBox="0 0 400 400" style="enable-background:new 0 0 400 400;" xml:space="preserve">
<style type="text/css">
	.st0{fill:#FFFFFF;}
	.st1{fill:url(#SVGID_1_);}
	.st2{fill:none;stroke:#42210B;stroke-width:5;stroke-linecap:round;stroke-linejoin:round;stroke-miterlimit:10;}
	.st3{fill:#FFFFFF;stroke:#42210B;stroke-width:5;stroke-miterlimit:10;}
	.st4{fill:#333333;}
	.st5{fill:#42210B;}
	.st6{fill:url(#SVGID_00000118399308924262052750000004164978364017928888_);}
	.st7{fill:url(#SVGID_00000031912226204750931770000004815237213212279704_);}
	.st8{fill:url(#SVGID_00000044142262844717835030000003458166954779945369_);}
	.st9{fill:#FCBF95;}
	.st10{fill:url(#SVGID_00000033338089376323721150000008222379593031316364_);}
	.st11{fill:#FF9D5A;}
	.st12{fill:#303047;}
	.st13{fill:url(#SVGID_00000021838865666787610970000007589982341949146791_);}
	.st14{fill:url(#SVGID_00000034790100062746559830000011652860226135126453_);}
	.st15{fill:url(#SVGID_00000052085370636340406180000016758297324439603881_);}
	.st16{clip-path:url(#SVGID_00000178908012640103601340000003688759643991011767_);}
	.st17{fill:#772C29;}
	.st18{fill:#F7C4A6;}
	.st19{fill:#E6A486;}
	.st20{fill:#F15A24;}
	.st21{fill:#C1272D;}
	.st22{fill:#CF7D73;}
	.st23{fill:#581C2C;}
	.st24{fill:#8B3B29;}
	.st25{clip-path:url(#SVGID_00000090985133748475825730000009186700013971203254_);}
	.st26{clip-path:url(#SVGID_00000129921771314319711250000006275861319624026780_);}
	.st27{clip-path:url(#SVGID_00000163058905730533498170000016677726789587834515_);}
	.st28{fill:#0C0C0C;}
	.st29{fill:#575757;}
	.st30{fill:#201D1E;}
	.st31{fill:#DB262D;}
	
		.st32{fill:url(#SVGID_00000002347099649868413380000012127472459817296051_);stroke:#2A6880;stroke-width:0.2596;stroke-miterlimit:10;}
	
		.st33{fill:url(#SVGID_00000065065558792877410270000009189532997149545109_);stroke:#2A6880;stroke-width:0.2596;stroke-miterlimit:10;}
	
		.st34{fill:url(#SVGID_00000083809341335143085700000016963204328242295172_);stroke:#2A6880;stroke-width:0.2596;stroke-miterlimit:10;}
	.st35{fill:#343433;}
	.st36{fill:#1C1B17;}
	.st37{fill:#4B443F;}
	.st38{fill:#B9272A;}
	.st39{fill:#264A90;}
	.st40{fill:#D41F26;}
	.st41{fill:#E66725;}
	.st42{clip-path:url(#SVGID_00000139995731430192995130000004798215915759163023_);}
	.st43{fill:#EF8C71;}
	.st44{fill:#EF8C73;}
	.st45{fill:#828080;}
	.st46{fill:none;}
	.st47{fill:none;stroke:#42210B;stroke-miterlimit:10;}
	.st48{clip-path:url(#SVGID_00000085958478117779963190000011880975031141274020_);}
	.st49{clip-path:url(#SVGID_00000000190579835748008580000001274132073060807602_);}
	.st50{fill:#FBB617;}
</style>
<g>
	<path class="st3" d="M327.69,298.84H72.31c-34.42,0-62.31-27.9-62.31-62.31v-73.06c0-34.42,27.9-62.31,62.31-62.31h255.37
		c34.42,0,62.31,27.9,62.31,62.31v73.06C390,270.94,362.1,298.84,327.69,298.84z"/>
	<g>
		<g>
			<g>
				<path d="M92.38,205.91h6.92c0.26,1.98,1.02,3.36,2.28,4.15c1.32,0.92,3.13,1.39,5.44,1.39c2.04,0,3.59-0.36,4.65-1.09
					c1.05-0.73,1.58-1.78,1.58-3.17c0-2.11-2.97-3.82-8.9-5.14l-0.2-0.1l-0.79-0.2c-3.36-0.73-5.61-1.48-6.73-2.28
					c-1.32-0.72-2.24-1.78-2.77-3.17c-0.66-1.19-0.99-2.7-0.99-4.55c0-3.23,1.12-5.77,3.36-7.62c2.24-1.78,5.51-2.67,9.79-2.67
					c4.02,0,7.12,0.92,9.3,2.77c2.24,2.05,3.43,4.72,3.56,8.01h-3.96c-1.52,0-2.61-0.69-3.26-2.08c-0.33-0.66-0.79-1.22-1.39-1.68
					c-1.19-0.86-2.8-1.29-4.85-1.29c-1.98,0-3.4,0.36-4.25,1.09c-0.99,0.73-1.48,1.75-1.48,3.07c0,1.78,1.91,3.1,5.74,3.96
					c1.12,0.33,1.94,0.53,2.47,0.59c1.19,0.4,2.23,0.71,3.12,0.94c0.89,0.23,1.6,0.41,2.13,0.54c0.92,0.4,1.85,0.79,2.77,1.19
					c1.32,0.79,2.34,1.81,3.07,3.07c0.72,1.39,1.09,2.9,1.09,4.55c0,3.56-1.19,6.33-3.56,8.31c-2.37,1.85-5.74,2.77-10.09,2.77
					c-4.49,0-7.85-0.96-10.09-2.87C93.89,212.5,92.57,209.67,92.38,205.91z"/>
				<path d="M136.1,182.46h5.54l12.37,34.03h-7.42l-2.28-7.02h-13.26l-2.18,7.02h-7.42l11.28-31.76
					C133.33,183.22,134.45,182.46,136.1,182.46z M137.68,189.29l-4.75,14.44h9.5L137.68,189.29z"/>
				<path d="M162.61,204.32v12.17h-7.02v-30.47c0-0.99,0.35-1.83,1.04-2.52c0.69-0.69,1.53-1.04,2.52-1.04h11.57
					c3.63,0,6.33,0.92,8.11,2.77c1.85,1.85,2.77,4.58,2.77,8.21c0,3.43-0.89,6.13-2.67,8.11c-1.78,1.85-4.35,2.77-7.72,2.77H162.61z
					 M162.61,198.19h6.83c1.85,0,3.17-0.4,3.96-1.19c0.86-0.73,1.29-1.98,1.29-3.76c0-1.52-0.4-2.74-1.19-3.66
					c-0.92-0.79-2.14-1.19-3.66-1.19h-7.22V198.19z"/>
				<path d="M189.92,204.32v12.17h-7.02v-30.47c0-0.99,0.35-1.83,1.04-2.52c0.69-0.69,1.53-1.04,2.52-1.04h11.57
					c3.63,0,6.33,0.92,8.11,2.77c1.85,1.85,2.77,4.58,2.77,8.21c0,3.43-0.89,6.13-2.67,8.11c-1.78,1.85-4.35,2.77-7.72,2.77H189.92z
					 M189.92,198.19h6.83c1.85,0,3.17-0.4,3.96-1.19c0.86-0.73,1.29-1.98,1.29-3.76c0-1.52-0.4-2.74-1.19-3.66
					c-0.92-0.79-2.14-1.19-3.66-1.19h-7.22V198.19z"/>
				<path d="M210.2,216.49v-30.47c0-0.99,0.35-1.83,1.04-2.52c0.69-0.69,1.53-1.04,2.52-1.04h3.46v12.66h14.05v-12.66h7.12v34.03
					h-7.12v-15.14h-14.05v15.14H210.2z"/>
				<path d="M253.41,216.49v-30.47c0-0.99,0.35-1.83,1.04-2.52c0.69-0.69,1.53-1.04,2.52-1.04h12.96c3.69,0,6.43,0.79,8.21,2.37
					c1.85,1.65,2.77,4.06,2.77,7.22c0,2.11-0.46,3.86-1.38,5.24c-0.79,1.32-2.05,2.28-3.76,2.87c1.52,0.53,2.57,1.32,3.17,2.37
					c0.59,0.99,0.95,2.67,1.09,5.05l0.2,4.06c0,0.4,0,0.83,0,1.29c0,0.46,0.03,0.89,0.1,1.29c0.2,1.19,0.59,1.95,1.19,2.28h-7.72
					c-0.33-0.66-0.53-1.35-0.59-2.08c-0.13-1.05-0.2-1.78-0.2-2.18l-0.1-3.66c-0.13-1.98-0.53-3.4-1.19-4.25
					c-0.73-0.73-2.01-1.09-3.86-1.09h-7.42v13.26H253.41z M260.44,197.3h8.21c1.78,0,3.1-0.36,3.96-1.09
					c0.86-0.73,1.29-1.85,1.29-3.36c0-1.52-0.43-2.64-1.29-3.36c-0.79-0.79-1.98-1.19-3.56-1.19h-8.61V197.3z"/>
				<path d="M282.89,216.49v-30.47c0-0.99,0.35-1.83,1.04-2.52c0.69-0.69,1.53-1.04,2.52-1.04h21.17v5.84h-17.81v7.32h13.26v2.28
					c0,0.99-0.35,1.83-1.04,2.52c-0.69,0.69-1.53,1.04-2.52,1.04h-9.7v8.71h17.81v6.33H282.89z"/>
			</g>
			<g>
				<path d="M243.21,183.45l0,1.34c-0.35,0.19-0.55,0.42-0.55,0.66l0,5.47l0,0l0,0v0c0,0,0,0,0,0l0,0c0,0,0,0,0,0l0.54,0.68
					c0,0,0,0,0,0l0.01,0.01l0,1.32c-0.35,0.19-0.55,0.42-0.55,0.66l0,5.47c0.55-0.42,1.79-0.71,3.24-0.71
					c1.45,0,2.69,0.29,3.24,0.71l0-5.47c0-0.24-0.2-0.47-0.55-0.66l0-1.32l0.01-0.01c0,0,0,0,0,0l0.54-0.69c0,0,0,0,0,0l0,0
					c0,0,0,0,0,0l0-5.47c0-0.25-0.2-0.47-0.55-0.66v-1.33l0.55-0.7l0,0l0,0l0-5.47c0-0.24-0.2-0.47-0.54-0.65L246.84,161l0,0v-2.08
					l-0.95-1.28l-0.94,1.28c0,0,0,1.1,0,2.16l-0.27,0.01c0,0-1.12,12.93-1.22,15.41c-0.5,0.21-0.81,0.48-0.81,0.78l0,5.47l0,0
					c0,0,0,0,0,0L243.21,183.45z M243.8,184.55c-0.04,0.01-0.08,0.02-0.11,0.03C243.72,184.58,243.76,184.57,243.8,184.55z
					 M244.39,184.41c-0.03,0.01-0.05,0.01-0.08,0.02C244.34,184.42,244.36,184.41,244.39,184.41z"/>
				<path d="M243.83,242.01c0,0.19,0.93,0.35,2.07,0.35c1.14,0,2.07-0.16,2.07-0.35l0-1.46l-4.14,0L243.83,242.01z"/>
				<path d="M242.65,199.08l0.54,0.68l0,0l0.01,0.01l0,16.17c0.36,0.19,0.87,0.34,1.47,0.43v12.28c-0.25,0.09-0.41,0.19-0.41,0.32
					l-0.05,1.91c-0.22,0.06-0.38,0.14-0.38,0.22l-0.39,8.94l0.39,0.49l4.14,0l0.39-0.49l-0.39-8.94c0-0.08-0.16-0.16-0.38-0.22
					l-0.05-1.91c0-0.12-0.16-0.23-0.41-0.32v-12.28c0.6-0.09,1.11-0.23,1.47-0.43l0-16.17l0.55-0.7c-0.55-0.42-1.79-0.71-3.24-0.71
					C244.45,198.38,243.21,198.67,242.65,199.08z"/>
			</g>
		</g>
		<g>
			<path d="M122.22,229.92v-8.79h2.62v2.97h2.47v-2.97h2.62v8.79h-2.62v-3.4h-2.47v3.4H122.22z"/>
			<path d="M130.82,229.92l2.86-8.79h2.66l2.86,8.79h-2.61l-0.31-1.16h-2.61l-0.3,1.16H130.82z M134.99,223.78l-0.81,3.15h1.65
				L134.99,223.78z"/>
			<path d="M140.18,229.92v-8.79h2.62v8.79H140.18z"/>
			<path d="M146.94,226.86v3.06h-2.62v-8.79h3.77c2.66,0,3.54,0.79,3.54,2.5c0,1.01-0.41,1.87-1.34,2.15
				c0.84,0.34,1.35,0.56,1.35,2.33c0,1.15-0.03,1.54,0.28,1.54v0.27h-2.65c-0.07-0.2-0.13-0.76-0.13-1.54c0-1.15-0.18-1.53-1.4-1.53
				H146.94z M146.94,224.93h1.03c0.81,0,1.24-0.22,1.24-0.83c0-0.62-0.44-0.92-1.05-0.92h-1.22V224.93z"/>
			<path d="M156.32,221.14h7.32v2.31h-2.35v6.48h-2.62v-6.48h-2.35V221.14z"/>
			<path d="M167.28,226.86v3.06h-2.62v-8.79h3.77c2.66,0,3.54,0.79,3.54,2.5c0,1.01-0.41,1.87-1.34,2.15
				c0.84,0.34,1.35,0.56,1.35,2.33c0,1.15-0.03,1.54,0.28,1.54v0.27h-2.65c-0.07-0.2-0.13-0.76-0.13-1.54c0-1.15-0.18-1.53-1.4-1.53
				H167.28z M167.28,224.93h1.03c0.81,0,1.24-0.22,1.24-0.83c0-0.62-0.44-0.92-1.05-0.92h-1.22V224.93z"/>
			<path d="M172.74,229.92l2.86-8.79h2.66l2.86,8.79h-2.61l-0.31-1.16h-2.61l-0.3,1.16H172.74z M176.91,223.78l-0.81,3.15h1.65
				L176.91,223.78z"/>
			<path d="M187.32,225.93l-0.1-2v-2.79h2.51v8.79h-2.45l-2.85-4.78l0.1,2v2.78h-2.51v-8.79h2.45L187.32,225.93z"/>
			<path d="M195.43,223.69c-0.04-0.31-0.19-0.49-0.38-0.6c-0.19-0.11-0.42-0.16-0.68-0.16c-0.58,0-0.83,0.18-0.83,0.5
				c0,1.32,4.59,0.5,4.59,3.7c0,2.04-1.54,3.03-3.74,3.03c-2.11,0-3.48-1.35-3.54-2.94h2.51c0.06,0.32,0.21,0.55,0.43,0.7
				c0.21,0.15,0.49,0.22,0.74,0.22c0.65,0,1.09-0.23,1.09-0.65c0-1.33-4.59-0.41-4.59-3.77c0-1.87,1.46-2.81,3.46-2.81
				c2.22,0,3.23,1.24,3.42,2.78H195.43z"/>
			<path d="M199.14,229.92v-8.79h3.85c2.3,0,3.41,1.16,3.41,2.97c0,1.89-1.02,3.09-3.32,3.09h-1.32v2.73H199.14z M202.84,225.14
				c0.61,0,1.05-0.27,1.05-1.03c0-0.82-0.84-0.93-1.4-0.93h-0.74v1.95H202.84z"/>
			<path d="M207.36,229.92v-8.79h2.62v6.74h3.59v2.05H207.36z"/>
			<path d="M214.04,229.92l2.86-8.79h2.66l2.86,8.79h-2.61l-0.31-1.16h-2.61l-0.3,1.16H214.04z M218.21,223.78l-0.81,3.15h1.65
				L218.21,223.78z"/>
			<path d="M228.62,225.93l-0.1-2v-2.79h2.51v8.79h-2.45l-2.85-4.78l0.1,2v2.78h-2.51v-8.79h2.45L228.62,225.93z"/>
			<path d="M232.14,221.14h7.32v2.31h-2.35v6.48h-2.62v-6.48h-2.35V221.14z"/>
		</g>
	</g>
</g>
</svg>
