<?xml version="1.0" encoding="utf-8"?>
<!-- Generator: Adobe Illustrator 26.5.0, SVG Export Plug-In . SVG Version: 6.00 Build 0)  -->
<svg version="1.1" id="Layer_1" xmlns="http://www.w3.org/2000/svg" xmlns:xlink="http://www.w3.org/1999/xlink" x="0px" y="0px"
	 viewBox="0 0 400 400" style="enable-background:new 0 0 400 400;" xml:space="preserve">
<style type="text/css">
	.st0{fill:#FFFFFF;}
	.st1{fill:url(#SVGID_1_);}
	.st2{fill:none;stroke:#42210B;stroke-width:5;stroke-linecap:round;stroke-linejoin:round;stroke-miterlimit:10;}
	.st3{fill:#FFFFFF;stroke:#42210B;stroke-width:5;stroke-miterlimit:10;}
	.st4{fill:#333333;}
	.st5{fill:#42210B;}
	.st6{fill:url(#SVGID_00000113339439281608236820000015769306287244447372_);}
	.st7{fill:url(#SVGID_00000168106000187228231370000014392150786287450789_);}
	.st8{fill:url(#SVGID_00000019674846254438282480000008717264335744330418_);}
	.st9{fill:#FCBF95;}
	.st10{fill:url(#SVGID_00000085944803569919363680000014373528860956331426_);}
	.st11{fill:#FF9D5A;}
	.st12{fill:#303047;}
	.st13{fill:url(#SVGID_00000145054148029767254360000017536929572230076293_);}
	.st14{fill:url(#SVGID_00000135664949799253183750000002670987571798917521_);}
	.st15{fill:url(#SVGID_00000042715717843549652530000017165726279573183899_);}
	.st16{clip-path:url(#SVGID_00000026138938193879013310000011595796538836410512_);}
	.st17{fill:#772C29;}
	.st18{fill:#F7C4A6;}
	.st19{fill:#E6A486;}
	.st20{fill:#F15A24;}
	.st21{fill:#C1272D;}
	.st22{fill:#CF7D73;}
	.st23{fill:#581C2C;}
	.st24{fill:#8B3B29;}
	.st25{clip-path:url(#SVGID_00000111887114769811387700000015855781637396418993_);}
	.st26{clip-path:url(#SVGID_00000067225583837552011120000011657534705026152854_);}
	.st27{clip-path:url(#SVGID_00000085959627517422414100000016022719234078283677_);}
	.st28{fill:#0C0C0C;}
	.st29{fill:#575757;}
	.st30{fill:#201D1E;}
	.st31{fill:#DB262D;}
	
		.st32{fill:url(#SVGID_00000136402188800413653780000010700219735129438117_);stroke:#2A6880;stroke-width:0.2596;stroke-miterlimit:10;}
	
		.st33{fill:url(#SVGID_00000041257969072983709280000014279055632652712853_);stroke:#2A6880;stroke-width:0.2596;stroke-miterlimit:10;}
	
		.st34{fill:url(#SVGID_00000062149936877741424200000010889566747687646911_);stroke:#2A6880;stroke-width:0.2596;stroke-miterlimit:10;}
	.st35{fill:#343433;}
	.st36{fill:#1C1B17;}
	.st37{fill:#4B443F;}
	.st38{fill:#B9272A;}
	.st39{fill:#264A90;}
	.st40{fill:#D41F26;}
	.st41{fill:#E66725;}
	.st42{clip-path:url(#SVGID_00000036234214162419251430000017947286138802804119_);}
	.st43{fill:#EF8C71;}
	.st44{fill:#EF8C73;}
	.st45{fill:#828080;}
	.st46{fill:none;}
	.st47{fill:none;stroke:#42210B;stroke-miterlimit:10;}
	.st48{clip-path:url(#SVGID_00000168080087896371493510000016743515497712431490_);}
	.st49{clip-path:url(#SVGID_00000087400161170770178060000011069528648285767332_);}
	.st50{fill:#FBB617;}
</style>
<g>
	<path class="st3" d="M327.69,298.84H72.31c-34.42,0-62.31-27.9-62.31-62.31v-73.06c0-34.42,27.9-62.31,62.31-62.31h255.37
		c34.42,0,62.31,27.9,62.31,62.31v73.06C390,270.94,362.1,298.84,327.69,298.84z"/>
	<g>
		<path d="M164.33,228.24c-1.88,0-3.46-0.16-4.71-0.47c-1.26-0.31-2.26-0.82-3.02-1.51c-0.75-0.69-1.29-1.6-1.6-2.71
			c-0.31-1.12-0.47-2.49-0.47-4.13v-8.07c0-1.61,0.16-2.98,0.47-4.11c0.31-1.13,0.85-2.04,1.6-2.73c0.75-0.69,1.76-1.19,3.02-1.51
			c1.26-0.31,2.83-0.47,4.71-0.47h17.83v4.94h-17.57c-0.88,0-1.6,0.07-2.17,0.21c-0.57,0.14-1.01,0.37-1.34,0.7
			c-0.33,0.33-0.55,0.76-0.68,1.3c-0.13,0.54-0.19,1.2-0.19,1.98v7.54c0,0.8,0.06,1.47,0.19,2c0.13,0.53,0.35,0.96,0.68,1.28
			c0.33,0.33,0.78,0.55,1.36,0.68c0.58,0.13,1.31,0.19,2.19,0.19h17.53v4.9H164.33z"/>
		<path d="M248.17,228.24c-1.88,0-3.46-0.16-4.71-0.47c-1.26-0.31-2.26-0.82-3.02-1.51c-0.75-0.69-1.29-1.6-1.6-2.71
			c-0.31-1.12-0.47-2.49-0.47-4.13v-16.89h5.69v16.66c0,0.75,0.07,1.39,0.21,1.9c0.14,0.52,0.38,0.94,0.74,1.28
			c0.35,0.34,0.82,0.58,1.41,0.73c0.59,0.15,1.34,0.23,2.24,0.23h15.27v4.9H248.17z"/>
		<path d="M280.17,220.89v27.76h-5.73v-46.11h20.58c1.83,0,3.37,0.14,4.6,0.43c1.23,0.29,2.22,0.77,2.98,1.43
			c0.75,0.67,1.29,1.53,1.6,2.58c0.31,1.06,0.47,2.34,0.47,3.84v2.22c0,1.53-0.15,2.8-0.45,3.81c-0.3,1.01-0.82,1.81-1.57,2.41
			c-0.74,0.6-1.73,1.02-2.96,1.26c-1.23,0.24-2.79,0.36-4.67,0.36H280.17z M298.94,211.05c0-1.38-0.3-2.32-0.89-2.83
			c-0.59-0.5-1.65-0.75-3.19-0.75h-14.7v8.78h14.78c1.51,0,2.55-0.23,3.13-0.7c0.58-0.46,0.87-1.38,0.87-2.73V211.05z"/>
		<g>
			<g>
				<circle cx="104.27" cy="203.04" r="3.27"/>
				<circle cx="100.54" cy="194.95" r="3.27"/>
				<circle cx="98.77" cy="186.07" r="3.44"/>
				<circle cx="98.42" cy="177.33" r="3.1"/>
				<circle cx="99.92" cy="169.45" r="3.1"/>
				<circle cx="103.02" cy="162.36" r="2.8"/>
				<circle cx="108.87" cy="157.35" r="2.94"/>
				<circle cx="115.18" cy="154.72" r="2.45"/>
				<circle cx="121.29" cy="153.68" r="2.33"/>
				<circle cx="127.29" cy="154.37" r="1.99"/>
				<circle cx="133.25" cy="155.06" r="1.76"/>
				<circle cx="137.91" cy="156.82" r="1.59"/>
				<circle cx="142.73" cy="158.19" r="1.41"/>
				<circle cx="146.59" cy="159.61" r="1.45"/>
			</g>
			<g>
				<circle cx="124.7" cy="159.02" r="1.95"/>
				<g>
					<circle cx="107.54" cy="193.54" r="2.48"/>
					<circle cx="105.91" cy="186.07" r="2.71"/>
					<circle cx="105.6" cy="178.78" r="2.72"/>
					<circle cx="107.05" cy="172.17" r="2.54"/>
					<circle cx="109.58" cy="166.36" r="2.34"/>
					<circle cx="114.36" cy="162.14" r="2.44"/>
					<circle cx="119.54" cy="160.08" r="1.86"/>
					<circle cx="129.69" cy="159.7" r="1.81"/>
					<circle cx="134.53" cy="160.39" r="1.38"/>
					<circle cx="138.49" cy="161.65" r="1.38"/>
					<circle cx="142.53" cy="162.88" r="1.16"/>
					<circle cx="145.68" cy="164.17" r="1"/>
					<circle cx="144.68" cy="167.96" r="1"/>
					<circle cx="141.93" cy="166.95" r="1"/>
					<circle cx="138.8" cy="165.95" r="1"/>
					<circle cx="135.71" cy="164.95" r="1.28"/>
					<circle cx="131.84" cy="164.37" r="1.41"/>
					<circle cx="127.88" cy="163.92" r="1.6"/>
					<circle cx="123.62" cy="164.58" r="1.68"/>
					<circle cx="119.31" cy="166.36" r="1.89"/>
					<circle cx="115.56" cy="169.76" r="1.86"/>
					<circle cx="113.7" cy="174.43" r="1.86"/>
					<circle cx="112.52" cy="179.74" r="2.21"/>
					<circle cx="112.52" cy="185.67" r="2.21"/>
				</g>
			</g>
		</g>
		<path d="M215.03,204.49c-0.45-0.73-0.99-1.33-1.62-1.81c-0.63-0.48-1.52-0.72-2.68-0.72c-1.18,0-2.09,0.24-2.71,0.72
			c-0.63,0.48-1.17,1.08-1.62,1.81l-14.93,23.75h6.6l3.66-5.92l2.68-4.41l6.22-10.14l6.22,10.14l2.68,4.41l3.73,5.92h6.63
			L215.03,204.49z"/>
		<path d="M215.3,220.84c-10.28,0-17.91-2.28-23.13-6.87c-6.15-5.41-10.06-16.25-9.67-28.92c0.11-3.55-0.8-6.04-2.72-7.42
			c-3.98-2.87-11.49-0.14-11.56-0.12l-0.66-1.78c0.33-0.12,8.53-3.1,13.32,0.36c2.46,1.77,3.63,4.8,3.5,9.02
			c-0.37,12.06,3.33,22.44,9.02,27.44c7.11,6.26,23.24,9.43,41.03,6.58l0.19,0.16C228.95,220.19,219.9,220.84,215.3,220.84z"/>
		<g>
			<defs>
				<path id="SVGID_00000134250688653854751270000011316144430486059157_" d="M280.17,220.89v27.76h-5.73v-46.11h20.58
					c1.83,0,3.37,0.14,4.6,0.43c1.23,0.29,2.22,0.77,2.98,1.43c0.75,0.67,1.29,1.53,1.6,2.58c0.31,1.06,0.47,2.34,0.47,3.84v2.22
					c0,1.53-0.15,2.8-0.45,3.81c-0.3,1.01-0.82,1.81-1.57,2.41c-0.74,0.6-1.73,1.02-2.96,1.26c-1.23,0.24-2.79,0.36-4.67,0.36
					H280.17z M298.94,211.05c0-1.38-0.3-2.32-0.89-2.83c-0.59-0.5-1.65-0.75-3.19-0.75h-14.7v8.78h14.78c1.51,0,2.55-0.23,3.13-0.7
					c0.58-0.46,0.87-1.38,0.87-2.73V211.05z"/>
			</defs>
			<clipPath id="SVGID_00000054256015898715147370000009841756867928620199_">
				<use xlink:href="#SVGID_00000134250688653854751270000011316144430486059157_"  style="overflow:visible;"/>
			</clipPath>
			<g style="clip-path:url(#SVGID_00000054256015898715147370000009841756867928620199_);">
				<g>
					<circle class="st0" cx="277.13" cy="247.29" r="1.99"/>
					<circle class="st0" cx="277.13" cy="242.55" r="1.63"/>
					<circle class="st0" cx="277.13" cy="238.4" r="1.41"/>
					<circle class="st0" cx="277.13" cy="234.69" r="1.19"/>
					<circle class="st0" cx="277.13" cy="231.51" r="0.89"/>
				</g>
			</g>
		</g>
		<g>
			<path d="M127.94,239.9h-1.15c-0.28-0.84-0.77-1.55-1.45-2.11c-0.7-0.56-1.54-0.84-2.51-0.84c-1.28,0-2.33,0.45-3.14,1.36
				c-0.83,0.89-1.24,2.06-1.24,3.52c0,1.44,0.41,2.6,1.24,3.5c0.81,0.91,1.86,1.36,3.14,1.36c0.97,0,1.81-0.28,2.51-0.84
				c0.69-0.56,1.17-1.27,1.45-2.11h0.96h1.45c-0.36,1.41-1.09,2.58-2.18,3.52c-1.08,0.94-2.48,1.41-4.2,1.41
				c-2.08,0-3.75-0.66-5-1.97c-1.27-1.33-1.9-2.95-1.9-4.86c0-1.92,0.63-3.55,1.9-4.88c1.25-1.31,2.92-1.97,5-1.97
				c1.72,0,3.12,0.47,4.2,1.41c1.09,0.94,1.82,2.11,2.18,3.52H127.94z"/>
			<path d="M163.07,248.29h-2.89c-0.65-0.89-1.88-2.57-3.7-5.04h-1.3h-1.85v2.35v2.7h-1.52h-0.87v-2.65v-2.16v-4.41v-3.75h2.04h4.2
				c1.72,0,3.03,0.36,3.94,1.08c0.89,0.72,1.34,1.68,1.34,2.89c0,1.2-0.45,2.17-1.34,2.89c-0.52,0.41-1.19,0.71-2.01,0.89
				C159.94,244.16,161.26,245.9,163.07,248.29z M159.22,237.71c-0.48-0.31-1.17-0.47-2.04-0.47h-1.85h-1.99v1.99v0.47v1.62h1.95h1.9
				c0.88,0,1.56-0.16,2.04-0.47c0.48-0.33,0.73-0.85,0.73-1.57C159.95,238.57,159.71,238.04,159.22,237.71z"/>
			<path d="M170.81,243.72v-6.47h-5.16v-1.92h10.72h2.02v1.15v0.77h-5.16v11.05h-2.42V243.72z"/>
			<path d="M182.53,242.62v-7.3h1.5h0.89v12.97h-2.39V242.62z"/>
			<path d="M201.51,239.9h-1.15c-0.28-0.84-0.77-1.55-1.45-2.11c-0.7-0.56-1.54-0.84-2.51-0.84c-1.28,0-2.33,0.45-3.14,1.36
				c-0.83,0.89-1.24,2.06-1.24,3.52c0,1.44,0.41,2.6,1.24,3.5c0.81,0.91,1.86,1.36,3.14,1.36c0.97,0,1.81-0.28,2.51-0.84
				c0.69-0.56,1.17-1.27,1.45-2.11h0.96h1.45c-0.36,1.41-1.09,2.58-2.18,3.52c-1.08,0.94-2.48,1.41-4.2,1.41
				c-2.08,0-3.75-0.66-5-1.97c-1.27-1.33-1.9-2.95-1.9-4.86c0-1.92,0.63-3.55,1.9-4.88c1.25-1.31,2.92-1.97,5-1.97
				c1.72,0,3.12,0.47,4.2,1.41c1.09,0.94,1.82,2.11,2.18,3.52H201.51z"/>
			<path d="M208.14,246.68c-1.27-1.33-1.9-2.95-1.9-4.86c0-1.92,0.63-3.55,1.9-4.88c1.25-1.31,2.92-1.97,5-1.97
				c2.08,0,3.75,0.66,5.02,1.97c1.27,1.33,1.9,2.96,1.9,4.88c0,1.91-0.63,3.53-1.9,4.86c-1.27,1.31-2.94,1.97-5.02,1.97
				C211.06,248.65,209.4,247.99,208.14,246.68z M216.31,238.3c-0.83-0.91-1.88-1.36-3.17-1.36s-2.33,0.45-3.14,1.36
				c-0.83,0.89-1.24,2.06-1.24,3.52c0,1.44,0.41,2.6,1.24,3.5c0.81,0.91,1.86,1.36,3.14,1.36s2.34-0.45,3.17-1.36
				c0.81-0.89,1.22-2.06,1.22-3.5C217.53,240.36,217.12,239.19,216.31,238.3z"/>
			<g>
				<path class="st43" d="M132.69,239.94l4.54-1.26c0,0,0.72-0.07,0.72,0.97c0,1.04-0.33,3.01,1.79,3.32c0.64,0.09,2-0.51,1.71-1.99
					c-0.29-1.26-0.68-1.39-1.07-1.76c-0.16-0.15-0.41-0.71,0.67-0.53c1.24,0.2,5.41,1,5.41,1v0.29l-5.04-0.44c0,0,1.8,2.55-0.7,3.79
					c-1,0.41-3.06,0.14-3.32-2.07c-0.09-1.29-0.05-1.21-0.05-1.62c0-0.26-0.03-0.23-1.05-0.02c-1.04,0.21-3.63,0.67-3.63,0.67
					V239.94z"/>
				<path class="st4" d="M139.58,232.07c-0.37,0-0.74,0.03-1.1,0.07l0.12,1l0,0c0.32-0.04,0.65-0.07,0.98-0.07
					c4.02,0,7.28,3.26,7.28,7.28c0,4.02-3.26,7.28-7.28,7.28s-7.28-3.26-7.28-7.28c0-3.14,1.99-5.82,4.78-6.84l-0.09-1.04
					c-3.31,1.09-5.7,4.2-5.7,7.87c0,4.58,3.71,8.29,8.29,8.29c4.58,0,8.29-3.71,8.29-8.29
					C147.87,235.78,144.16,232.07,139.58,232.07z"/>
				<g>
					<circle class="st44" cx="135.29" cy="240.71" r="0.65"/>
					<circle class="st44" cx="136.56" cy="240.45" r="0.25"/>
					<circle class="st44" cx="136.6" cy="242.14" r="0.39"/>
					<circle class="st44" cx="134.29" cy="242.89" r="0.63"/>
					<circle class="st44" cx="133.26" cy="241.08" r="0.42"/>
					<circle class="st44" cx="135.9" cy="243.21" r="0.24"/>
					<circle class="st44" cx="137.07" cy="244" r="0.62"/>
					<circle class="st44" cx="135.03" cy="244.66" r="0.44"/>
					<circle class="st44" cx="136.54" cy="245.86" r="0.22"/>
					<circle class="st44" cx="138.49" cy="244.03" r="0.22"/>
					<circle class="st44" cx="138.36" cy="246.03" r="0.64"/>
					<circle class="st44" cx="140.01" cy="244.56" r="0.42"/>
					<circle class="st44" cx="140.01" cy="246.49" r="0.42"/>
					<circle class="st44" cx="141.76" cy="244.51" r="0.29"/>
					<circle class="st44" cx="141.76" cy="245.96" r="0.65"/>
					<circle class="st44" cx="142.49" cy="243.38" r="0.65"/>
					<circle class="st44" cx="143.83" cy="245.12" r="0.42"/>
					<circle class="st44" cx="144.63" cy="243.92" r="0.29"/>
					<circle class="st44" cx="143.83" cy="242.53" r="0.42"/>
					<circle class="st44" cx="142.88" cy="241.95" r="0.25"/>
					<circle class="st44" cx="143.34" cy="240.77" r="0.62"/>
					<circle class="st44" cx="145.13" cy="240.67" r="0.37"/>
					<circle class="st44" cx="145.41" cy="242.32" r="0.59"/>
				</g>
			</g>
		</g>
		<g>
			<g>
				<path class="st40" d="M228.35,236.44c0.01-0.58-0.15-0.92-0.39-1.13c-0.24-0.21-0.55-0.3-0.91-0.3c-0.81,0-1.2,0.35-1.27,0.94
					c-0.3,2.49,6.31,0.94,5.59,6.98c-0.46,3.85-2.83,5.71-5.9,5.71c-2.95,0-4.57-2.56-4.29-5.55h3.5c0.01,0.6,0.17,1.04,0.45,1.31
					c0.26,0.28,0.63,0.41,0.99,0.41c0.91,0,1.57-0.44,1.66-1.22c0.3-2.51-6.33-0.78-5.57-7.12c0.42-3.52,2.67-5.3,5.46-5.3
					c3.1,0,4.23,2.35,4.15,5.25H228.35z"/>
				<path class="st40" d="M233.48,248.21l1.97-16.58h3.66l-0.66,5.6h3.46l0.66-5.6h3.66l-1.97,16.58h-3.66l0.76-6.43h-3.46
					l-0.76,6.43H233.48z"/>
				<path class="st40" d="M259.79,239.82c-0.67,5.64-3.6,8.82-6.91,8.82c-3.5,0-5.46-3.22-4.79-8.87c0.62-5.21,3.39-8.59,6.86-8.59
					C258.94,231.19,260.31,235.45,259.79,239.82z M251.75,239.82c-0.25,2.12-0.13,4.77,1.62,4.77c1.58,0,2.44-2.03,2.77-4.77
					c0.27-2.26-0.07-4.65-1.69-4.58C252.79,235.24,251.99,237.73,251.75,239.82z"/>
				<path class="st40" d="M263.01,231.62h10.23l-0.52,4.35h-3.29l-1.45,12.23h-3.66l1.45-12.23h-3.29L263.01,231.62z"/>
			</g>
		</g>
		<polygon points="304.67,198.13 219.09,198.13 225.14,182.8 304.67,182.8 		"/>
		<g>
			<path class="st0" d="M239.37,183.62c4.02,0,6.31,1.95,6.31,5.19v3.32c0,3.24-2.29,5.19-6.31,5.19h-5c-0.66,0-0.88-0.19-0.88-0.79
				v-12.12c0-0.6,0.21-0.79,0.88-0.79H239.37z M242.21,188.81c0-1.56-0.96-2.33-2.87-2.33h-2.37v7.97h2.37
				c1.9,0,2.87-0.77,2.87-2.32V188.81z"/>
			<path class="st0" d="M257.35,183.62c0.66,0,0.88,0.19,0.88,0.79v1.29c0,0.6-0.21,0.77-0.88,0.77h-5.99v2.49h4.92
				c0.66,0,0.88,0.17,0.88,0.77v1.29c0,0.6-0.21,0.79-0.88,0.79h-4.92v2.62h6.2c0.62,0,0.88,0.23,0.88,0.79v1.29
				c0,0.6-0.21,0.79-0.88,0.79h-8.81c-0.66,0-0.88-0.19-0.88-0.79v-12.12c0-0.6,0.21-0.79,0.88-0.79H257.35z"/>
			<path class="st0" d="M270.37,183.62c0.66,0,0.88,0.19,0.88,0.79v1.29c0,0.6-0.21,0.77-0.88,0.77h-3.34v10.05
				c0,0.6-0.21,0.79-0.88,0.79h-1.73c-0.66,0-0.86-0.19-0.86-0.79v-10.05h-3.36c-0.66,0-0.88-0.17-0.88-0.77v-1.29
				c0-0.6,0.21-0.79,0.88-0.79H270.37z"/>
			<path class="st0" d="M272.23,188.52c0-3.24,2.31-5.19,6.31-5.19c4.02,0,6.33,1.95,6.33,5.19v3.9c0,3.24-2.31,5.19-6.33,5.19
				c-4,0-6.31-1.95-6.31-5.19V188.52z M281.39,188.46c0-1.51-0.94-2.26-2.84-2.26c-1.82,0-2.82,0.77-2.82,2.26v4.01
				c0,1.49,1.01,2.26,2.82,2.26c1.9,0,2.84-0.75,2.84-2.26V188.46z"/>
			<path class="st0" d="M298.92,196.52c0.34,0.41,0.17,0.79-0.43,0.79h-2.05c-0.53,0-0.92-0.04-1.11-0.12
				c-0.19-0.06-0.41-0.25-0.6-0.58l-2.59-3.82l-2.44,3.82c-0.24,0.31-0.43,0.5-0.62,0.58c-0.19,0.08-0.56,0.12-1.09,0.12h-1.92
				c-0.6,0-0.77-0.35-0.43-0.79l4.47-6.19l-4.28-5.96c-0.34-0.39-0.17-0.75,0.41-0.75h1.97c1.03,0,1.24,0.1,1.69,0.66l2.4,3.57
				l2.37-3.57c0.43-0.6,0.64-0.66,1.58-0.66h2.05c0.58,0,0.75,0.37,0.41,0.75l-4.32,5.94L298.92,196.52z"/>
		</g>
		<path d="M143.18,216.55c-0.28-0.83-0.73-1.51-1.36-2.04c-0.63-0.53-1.44-0.91-2.43-1.15c-0.99-0.24-2.21-0.36-3.64-0.36h-12.03
			c-0.93,0-1.58-0.17-1.96-0.51c-0.38-0.34-0.57-0.91-0.57-1.72v-0.83c0-1.03,0.21-1.72,0.62-2.05c0.41-0.34,1.06-0.51,1.94-0.51
			h7.46v-4.86h-7.99c-1.28,0-2.39,0.13-3.32,0.4c-0.93,0.26-1.68,0.68-2.26,1.24c-0.58,0.57-1.01,1.31-1.28,2.24
			c-0.28,0.93-0.42,2.05-0.42,3.36v1.28c0,1.11,0.11,2.07,0.32,2.88c0.21,0.82,0.6,1.5,1.15,2.04c0.55,0.54,1.3,0.94,2.24,1.21
			c0.94,0.26,2.13,0.4,3.56,0.4h12.25c1,0,1.73,0.17,2.19,0.51c0.45,0.34,0.68,0.91,0.68,1.72v1.39c0,0.88-0.23,1.46-0.68,1.75
			c-0.45,0.29-1.19,0.43-2.22,0.43h-19.53v4.86h19.83c0.57,0,1.1-0.02,1.59-0.06c0.52-3.18,1.42-5.72,1.48-5.89l0.04-0.12l0.53,0.18
			l-0.04,0.12c-0.6,1.93-0.91,3.83-1.03,5.6c0.38-0.06,0.73-0.12,1.07-0.21c0.99-0.25,1.8-0.64,2.43-1.17
			c0.63-0.53,1.08-1.21,1.36-2.05c0.28-0.84,0.41-1.87,0.41-3.07v-2.04C143.59,218.38,143.46,217.38,143.18,216.55z"/>
		<path class="st4" d="M140.14,239.24c-0.73-0.69-2.45-5.28-2.07-11.13c0.11-1.77,0.42-3.66,1-5.59l-0.04-0.01
			c-0.19,0.56-0.95,2.85-1.42,5.65c-0.3,1.82-0.48,3.86-0.3,5.79c0.2,1.37,0.36,2.27,0.49,3c0.2,1.12,0.3,1.68,0.31,2.63
			c0,0.82,0.01,2.34,0.81,2.96c0.36,0.27,0.84,0.34,1.41,0.18c0.4-0.11,0.72-0.46,0.84-0.93
			C141.28,241.4,141.37,240.4,140.14,239.24z"/>
		<path class="st0" d="M139.8,242.39c-0.34-0.04-0.62-0.19-0.82-0.45c-0.55-0.73-0.37-2.06-0.34-2.2c-0.01-0.09-0.11-0.86-0.58-3.83
			c-0.83-4.01-0.14-7.55-0.13-7.59l0,0c-0.01,0.04-0.55,3.57,0.28,7.56c0.51,3.18,0.58,3.84,0.58,3.85l0,0.01l0,0.01
			c0,0.01-0.25,1.52,0.29,2.22c0.18,0.23,0.42,0.36,0.71,0.4L139.8,242.39z"/>
		<path d="M108.08,203.15c0,0,0.01,0,0.01,0C108.08,203.14,108.08,203.14,108.08,203.15L108.08,203.15z"/>
		<path class="st45" d="M108.09,203.14C108.09,203.14,108.09,203.14,108.09,203.14C108.09,203.14,108.09,203.14,108.09,203.14
			C108.09,203.14,108.09,203.14,108.09,203.14z"/>
		<path d="M167.86,177.85c-0.24-0.62-0.61-1.39-0.86-2.07c-0.56-1.55-1.8,0-1.8,0s-3.02,1.72-4.85,2.14
			c-0.57-1.6-4.39-0.73-4.39-0.73l-15.63,6.5c0,0-4.56,1.25-6.78,3.16c-2.22,2.1-3.85,2.92-3.85,2.92s-9.65,4.03-12.69,5.27
			c-1.14,0.51-1.79,1.13-2.18,1.69l-0.09-0.26c-0.08-0.22-0.33-0.34-0.55-0.26l-0.17,0.06c-0.22,0.08-0.34,0.33-0.26,0.55l0.17,0.63
			l-6.93,2.64c0.19-0.01,0.57,0.6,0.86,1.41c0.3,0.84,0.4,1.57,0.23,1.64c0.38-0.15,6.7-2.61,6.96-2.65l0.28,0.62
			c0.08,0.22,0.33,0.34,0.55,0.26l0.17-0.06c0.22-0.08,0.34-0.33,0.26-0.55l-0.15-0.4c3.09,0.67,15.82-6.18,17.6-6.75
			c5.12,0.07,7.44-1.52,7.44-1.52s11.77-4.81,14.86-6.15c3.1-1.07,5.89-2.46,5.85-3.67c-0.04-1.01,0.53-1.2,0.53-1.2
			s2.37-1.36,3.63-1.85C168.17,179.38,168.09,178.44,167.86,177.85z"/>
		<path class="st45" d="M107.87,201.5c-0.29-0.8-0.67-1.41-0.86-1.41c-0.01,0-0.02,0-0.03,0c-0.09,0.07,0.04,0.84,0.34,1.68
			c0.3,0.82,0.61,1.37,0.75,1.37c0,0,0.01,0,0.01,0c0,0,0,0,0.01,0C108.27,203.06,108.17,202.33,107.87,201.5z"/>
		
			<ellipse transform="matrix(0.9184 -0.3958 0.3958 0.9184 -56.3202 80.6275)" class="st45" cx="167.25" cy="176.81" rx="0.28" ry="1.81"/>
		
			<ellipse transform="matrix(0.9413 -0.3377 0.3377 0.9413 -49.7717 67.066)" class="st45" cx="167.9" cy="176.61" rx="0.12" ry="0.95"/>
	</g>
</g>
</svg>
