<?xml version="1.0" encoding="utf-8"?>
<!-- Generator: Adobe Illustrator 26.5.0, SVG Export Plug-In . SVG Version: 6.00 Build 0)  -->
<svg version="1.1" id="Layer_1" xmlns="http://www.w3.org/2000/svg" xmlns:xlink="http://www.w3.org/1999/xlink" x="0px" y="0px"
	 viewBox="0 0 400 400" style="enable-background:new 0 0 400 400;" xml:space="preserve">
<style type="text/css">
	.st0{fill:#FFFFFF;}
	.st1{fill:url(#SVGID_1_);}
	.st2{fill:none;stroke:#42210B;stroke-width:5;stroke-linecap:round;stroke-linejoin:round;stroke-miterlimit:10;}
	.st3{fill:#FFFFFF;stroke:#42210B;stroke-width:5;stroke-miterlimit:10;}
	.st4{fill:#333333;}
	.st5{fill:#42210B;}
	.st6{fill:url(#SVGID_00000008842245280940174730000012568850430008243369_);}
	.st7{fill:url(#SVGID_00000013152538025936968670000010477223698289373313_);}
	.st8{fill:url(#SVGID_00000124861690439376540820000014654912831986324873_);}
	.st9{fill:#FCBF95;}
	.st10{fill:url(#SVGID_00000157273247679145215130000015775044104915371935_);}
	.st11{fill:#FF9D5A;}
	.st12{fill:#303047;}
	.st13{fill:url(#SVGID_00000165229343028510338300000008557188626053398690_);}
	.st14{fill:url(#SVGID_00000066493734418691088520000012917759793349414535_);}
	.st15{fill:url(#SVGID_00000078741387432839772940000017650547965183042489_);}
	.st16{clip-path:url(#SVGID_00000044163428613471808580000007228526815064250523_);}
	.st17{fill:#772C29;}
	.st18{fill:#F7C4A6;}
	.st19{fill:#E6A486;}
	.st20{fill:#F15A24;}
	.st21{fill:#C1272D;}
	.st22{fill:#CF7D73;}
	.st23{fill:#581C2C;}
	.st24{fill:#8B3B29;}
	.st25{clip-path:url(#SVGID_00000023985682429545173610000012968675588264722617_);}
	.st26{clip-path:url(#SVGID_00000178897917188985900260000015509672709864901004_);}
	.st27{clip-path:url(#SVGID_00000101074825311819003200000009595533479681310643_);}
	.st28{fill:#0C0C0C;}
	.st29{fill:#575757;}
	.st30{fill:#201D1E;}
	.st31{fill:#DB262D;}
	
		.st32{fill:url(#SVGID_00000165939990890071306490000011431147985648142744_);stroke:#2A6880;stroke-width:0.2596;stroke-miterlimit:10;}
	
		.st33{fill:url(#SVGID_00000134937600172362000710000010330052626963827352_);stroke:#2A6880;stroke-width:0.2596;stroke-miterlimit:10;}
	
		.st34{fill:url(#SVGID_00000104703736129345884340000010549117949242889638_);stroke:#2A6880;stroke-width:0.2596;stroke-miterlimit:10;}
	.st35{fill:#343433;}
	.st36{fill:#1C1B17;}
	.st37{fill:#4B443F;}
	.st38{fill:#B9272A;}
	.st39{fill:#264A90;}
	.st40{fill:#D41F26;}
	.st41{fill:#E66725;}
	.st42{clip-path:url(#SVGID_00000008122928182676466950000008232713972712253315_);}
	.st43{fill:#EF8C71;}
	.st44{fill:#EF8C73;}
	.st45{fill:#828080;}
	.st46{fill:none;}
	.st47{fill:none;stroke:#42210B;stroke-miterlimit:10;}
	.st48{clip-path:url(#SVGID_00000068664539114258505090000014637604539065543811_);}
	.st49{clip-path:url(#SVGID_00000094614381938440431130000000883991920679851147_);}
	.st50{fill:#FBB617;}
</style>
<g>
	<g>
		<g>
			<g>
				<path class="st0" d="M162.26,227.46c3.14,7.36,6.18,14.44,9.15,21.53c0.45,1.07,1.22,0.99,2.07,0.99
					c3.25-0.01,6.5-0.04,9.75,0.01c3.36,0.05,5.43,2.07,5.51,5.26c0.08,3.28-2.04,5.51-5.42,5.61c-2.14,0.06-4.29,0.01-6.43,0.01
					c-0.23,1,0.32,1.63,0.6,2.31c1.94,4.63,3.95,9.23,5.87,13.87c1.22,2.94,0.5,5.63-1.88,7.44c-2.98,2.26-6.05,1.53-7.54-1.9
					c-2.83-6.51-5.64-13.04-8.34-19.61c-0.65-1.58-1.46-2.14-3.21-2.14c-31.02,0.06-62.03,0.05-93.05,0.04
					c-4.34,0-6.51-2.01-6.35-5.81c0.12-2.93,2.04-4.91,4.97-5.07c0.77-0.04,1.55-0.02,2.32-0.02c29.01,0,58.01,0,87.02,0
					c2.74,0,2.73-0.01,1.64-2.56c-2.58-6.03-5.22-12.05-7.7-18.12c-0.6-1.47-1.36-1.87-2.91-1.87c-26.76,0.05-53.53,0.04-80.29,0.03
					c-4.02,0-6.25-2.24-5.95-5.93c0.23-2.93,2.17-4.79,5.13-4.91c0.54-0.02,1.08,0,1.62,0c24.6,0,49.19,0,73.79,0
					c0.93,0,1.85,0,2.73,0c0.33-0.57,0-0.97-0.18-1.38c-3.41-8.03-6.86-16.05-10.24-24.1c-0.52-1.25-0.98-1.65-2.35-1
					c-3.21,1.51-6.51,2.85-9.79,4.22c-5.06,2.12-9.37,0.36-11.55-4.71c-2.6-6.03-5.2-12.05-7.7-18.12c-0.58-1.4-1.13-1.6-2.48-0.97
					c-3.15,1.47-6.37,2.79-9.58,4.11c-3.57,1.47-6.94,1.44-9.04-3.6c-9.56-22.87-19.38-45.63-29.11-68.43
					c-1.47-3.44-1.05-5.96,1.33-7.97c2.99-2.53,6.34-1.8,7.88,1.8c4.06,9.44,8.06,18.9,12.09,28.34
					c5.18,12.15,10.39,24.28,15.5,36.46c0.65,1.54,1.21,1.69,2.68,1.06c20.01-8.59,40.04-17.14,60.1-25.61
					c1.95-0.82,1.97-1.56,1.21-3.33c-8.97-20.86-17.85-41.75-26.75-62.64c-1.34-3.16-1-5.43,1.1-7.43c2.95-2.82,6.61-2.15,8.22,1.59
					c3.61,8.37,7.16,16.76,10.73,25.15c6.33,14.85,12.66,29.69,18.99,44.54c0.55,1.28,1.06,2.55,1.1,3.99
					c0.07,2.44-0.88,4.12-3.22,5.06c-3.58,1.44-7.09,3.06-10.68,4.49c-1.45,0.57-1.81,1.11-1.11,2.67
					c2.65,5.92,5.13,11.92,7.65,17.89c2.2,5.2,0.48,9.49-4.69,11.74c-3.26,1.41-6.52,2.82-9.81,4.17c-0.98,0.4-1.5,0.68-0.95,1.94
					c4.15,9.56,8.24,19.15,12.3,28.75c0.43,1.02,0.97,1.36,2.06,1.35c12.61-0.09,25.21-0.11,37.82-0.18
					c3.48-0.02,6.96-0.03,10.4,0.63c14.72,2.82,22.38,18.48,15.49,31.82c-1.56,3.01-3.49,5.83-5.27,8.73
					c-5.05,8.21-8.51,16.98-9.31,26.66c-1.76,21.34,9.92,37.34,30.88,42.02c14.85,3.31,28.27-0.1,39.87-9.89
					c12.57-10.61,16.28-26.62,10.38-43.04c-2.71-7.55-6.86-14.34-11.02-21.13c-3.45-5.63-5.53-11.58-3.97-18.3
					c2.18-9.38,8.42-14.4,17.55-16.31c3.49-0.73,7.03-1.03,10.6-1.03c13.07,0,26.14-0.02,39.22,0.01c4.32,0.01,6.79,3.56,5.34,7.56
					c-0.8,2.2-2.49,3.33-5.29,3.28c-7.66-0.13-15.31-0.31-22.96-0.52c-7.28-0.2-14.53,0.31-21.78,0.76
					c-0.62,0.04-1.23,0.14-1.74,0.54c-3.09,2.45-6.2,4.87-9.25,7.36c-1.78,1.45-1.71,3.37-0.96,5.29c1.21,3.1,2.67,6.06,4.53,8.84
					c6.52,9.74,11.4,20.21,12.9,31.95c2.34,18.29-4.2,33.12-18.43,44.51c-22.04,17.63-54.11,16.1-73.65-3.69
					c-14.45-14.64-17.41-32.14-11.22-51.43c2.04-6.35,4.89-12.34,8.36-18.04c2.29-3.76,4.66-7.48,5.92-11.76
					c1.72-5.85-0.06-9.72-5.64-12.21c-4.87-2.17-10.04-2.5-15.24-2.09c-9.35,0.73-18.71,0.43-28.06,0.51
					C163.91,227.46,163.24,227.46,162.26,227.46z M121.02,183.11c0.28-0.12,0.49-0.22,0.7-0.31c8.73-3.72,17.45-7.46,26.2-11.15
					c0.97-0.41,1.27-0.76,0.8-1.83c-2.21-5.01-4.34-10.06-6.45-15.12c-0.41-0.98-0.78-1.25-1.86-0.78
					c-8.71,3.77-17.44,7.5-26.19,11.18c-0.94,0.4-1.13,0.72-0.71,1.68c2.23,5.09,4.38,10.21,6.57,15.32
					C120.28,182.56,120.29,183.23,121.02,183.11z"/>
			</g>
		</g>
		<path class="st0" d="M223.62,289.19c0.17-11.23,2.95-22.01,5.8-32.77c9.66-36.5,23.95-71.23,40.31-105.16
			c3.69-7.65,7.53-15.22,11.36-22.8c1.92-3.81,6.52-4.35,9.41-1.19c1.56,1.71,1.41,3.55,0.6,5.6c-4.41,11.05-8.26,22.29-11.48,33.75
			c-7,24.9-11.15,50.2-10.8,76.14c0.17,12.56,1.88,24.93,4.17,37.26c1.21,6.54,1.51,13.22-0.08,19.81
			c-2.79,11.55-12.79,19.22-24.76,19.04c-11.81-0.18-21.14-8.01-23.58-19.77C223.89,295.83,223.57,292.53,223.62,289.19z
			 M260.98,199.25c-7.65,19.76-15.8,39.37-21.49,59.85c-2.69,9.7-4.74,19.53-4.65,29.66c0.04,4.94,1.04,9.68,3.79,13.9
			c1.63,2.5,3.87,4.23,6.83,4.8c6.8,1.33,14.01-2.95,16.13-9.55c1.65-5.14,1.56-10.43,0.6-15.61c-2.18-11.72-3.87-23.47-4.23-35.39
			C257.46,230.95,258.59,215.09,260.98,199.25z"/>
		<g>
			<path class="st0" d="M328.67,249.97c4.09,0,8.18-0.03,12.27,0.01c3.47,0.03,5.58,2.09,5.61,5.37c0.03,3.3-2.05,5.48-5.49,5.51
				c-8.33,0.05-16.66,0.05-25,0c-3.42-0.02-5.55-2.22-5.51-5.49c0.04-3.29,2.14-5.35,5.62-5.38
				C320.34,249.94,324.51,249.97,328.67,249.97z"/>
		</g>
		<g>
			<path class="st0" d="M121.02,183.11c-0.73,0.12-0.75-0.55-0.94-1.01c-2.19-5.11-4.34-10.23-6.57-15.32
				c-0.42-0.96-0.23-1.29,0.71-1.68c8.75-3.69,17.48-7.41,26.19-11.18c1.08-0.47,1.45-0.2,1.86,0.78c2.11,5.06,4.25,10.1,6.45,15.12
				c0.47,1.07,0.17,1.42-0.8,1.83c-8.74,3.69-17.47,7.43-26.2,11.15C121.51,182.89,121.3,182.99,121.02,183.11z"/>
		</g>
		<g>
			<path class="st0" d="M260.98,199.25c-2.39,15.84-3.52,31.7-3.03,47.66c0.36,11.92,2.06,23.68,4.23,35.39
				c0.96,5.18,1.06,10.47-0.6,15.61c-2.12,6.6-9.34,10.88-16.13,9.55c-2.95-0.58-5.2-2.3-6.83-4.8c-2.74-4.22-3.74-8.96-3.79-13.9
				c-0.09-10.14,1.95-19.97,4.65-29.66C245.18,238.62,253.32,219.01,260.98,199.25z"/>
		</g>
	</g>
</g>
</svg>
