<?xml version="1.0" encoding="utf-8"?>
<!-- Generator: Adobe Illustrator 26.5.0, SVG Export Plug-In . SVG Version: 6.00 Build 0)  -->
<svg version="1.1" id="Layer_1" xmlns="http://www.w3.org/2000/svg" xmlns:xlink="http://www.w3.org/1999/xlink" x="0px" y="0px"
	 viewBox="0 0 400 400" style="enable-background:new 0 0 400 400;" xml:space="preserve">
<style type="text/css">
	.st0{fill:#FFFFFF;}
	.st1{font-family:'MonotypeCorsiva';}
	.st2{font-size:63.112px;}
	.st3{fill:none;stroke:#FFFFFF;stroke-miterlimit:10;}
	.st4{fill:url(#SVGID_1_);}
	.st5{fill:none;stroke:#42210B;stroke-width:5;stroke-linecap:round;stroke-linejoin:round;stroke-miterlimit:10;}
	.st6{fill:#FFFFFF;stroke:#42210B;stroke-width:5;stroke-miterlimit:10;}
	.st7{fill:#333333;}
	.st8{fill:#42210B;}
	.st9{fill:url(#SVGID_00000037653015572297460410000011828703377446898365_);}
	.st10{fill:url(#SVGID_00000072264545908624689870000009108423173544974527_);}
	.st11{fill:url(#SVGID_00000058566943193157070750000008959433034166199212_);}
	.st12{fill:#FCBF95;}
	.st13{fill:url(#SVGID_00000178885132950150138870000005136637426339172785_);}
	.st14{fill:#FF9D5A;}
	.st15{fill:#303047;}
	.st16{fill:url(#SVGID_00000102538308574263659910000003466877909044988052_);}
	.st17{fill:url(#SVGID_00000104703777818818644220000003276688558719092884_);}
	.st18{fill:url(#SVGID_00000098921488549675684630000001421657980903913370_);}
	.st19{clip-path:url(#SVGID_00000177464386898967590490000004361284302785944249_);}
	.st20{fill:#772C29;}
	.st21{fill:#F7C4A6;}
	.st22{fill:#E6A486;}
	.st23{fill:#F15A24;}
	.st24{fill:#C1272D;}
	.st25{fill:#CF7D73;}
	.st26{fill:#581C2C;}
	.st27{fill:#8B3B29;}
	.st28{clip-path:url(#SVGID_00000000218849386638051300000009459125993541938872_);}
	.st29{clip-path:url(#SVGID_00000096754121385020096960000013849403606840566173_);}
	.st30{clip-path:url(#SVGID_00000011741498979896265160000015825922350980718258_);}
	.st31{fill:#0C0C0C;}
	.st32{fill:#575757;}
	.st33{fill:#201D1E;}
	.st34{fill:#DB262D;}
	
		.st35{fill:url(#SVGID_00000138560128178447414470000014643973620341511614_);stroke:#2A6880;stroke-width:0.2596;stroke-miterlimit:10;}
	
		.st36{fill:url(#SVGID_00000177474717993701921090000001758351384584467585_);stroke:#2A6880;stroke-width:0.2596;stroke-miterlimit:10;}
	
		.st37{fill:url(#SVGID_00000070113246014188063610000003959760014030483641_);stroke:#2A6880;stroke-width:0.2596;stroke-miterlimit:10;}
	.st38{fill:#343433;}
	.st39{fill:#1C1B17;}
	.st40{fill:#4B443F;}
	.st41{fill:#B9272A;}
	.st42{fill:#264A90;}
	.st43{fill:#D41F26;}
	.st44{fill:#E66725;}
	.st45{clip-path:url(#SVGID_00000075139171616007690530000000581705591057102236_);}
	.st46{fill:#EF8C71;}
	.st47{fill:#EF8C73;}
	.st48{fill:#828080;}
	.st49{fill:none;}
	.st50{fill:none;stroke:#42210B;stroke-miterlimit:10;}
	.st51{clip-path:url(#SVGID_00000157268598467567501000000002623872510392976030_);}
	.st52{clip-path:url(#SVGID_00000137839213766468639340000005197623894908765580_);}
	.st53{fill:#FBB617;}
</style>
<g>
	<g>
		<g>
			<g>
				<path class="st0" d="M161.9,192.26c-17.81-0.86-34.08,11.26-36.36,27.08c-2.27,15.82,10.63,29.34,28.44,30.2
					c17.81,0.86,33.78-11.26,36.05-27.08C192.3,206.64,179.7,193.12,161.9,192.26z M171.98,220.9
					c-1.73,11.62-9.22,21.03-17.06,21.03c-7.84,0-13.06-9.42-11.34-21.03c1.73-11.62,9.48-21.03,17.32-21.03
					C168.75,199.86,173.71,209.28,171.98,220.9z"/>
				<path class="st0" d="M160.74,196.04c-12.8-0.75-24.5,9.77-26.14,23.5c-1.63,13.73,7.64,25.46,20.44,26.21
					c12.8,0.75,24.29-9.77,25.92-23.5C182.6,208.52,173.54,196.79,160.74,196.04z M171.98,220.9c-1.73,11.62-9.22,21.03-17.06,21.03
					c-7.84,0-13.06-9.42-11.34-21.03c1.73-11.62,9.48-21.03,17.32-21.03C168.75,199.86,173.71,209.28,171.98,220.9z"/>
				<g>
					<path class="st0" d="M164.24,196.53c2.82,0.51,5.53,1.69,7.91,3.35c2.37,1.67,4.4,3.84,5.94,6.32
						c1.55,2.47,2.59,5.26,3.15,8.13c0.55,2.87,0.57,5.84,0.16,8.73c-0.43,2.89-1.29,5.71-2.58,8.33c-1.3,2.61-2.99,5.03-5.04,7.1
						c-2.04,2.07-4.43,3.8-7.05,5.05c-2.62,1.23-5.45,2.02-8.32,2.16l1.06-0.17l1.05-0.22l1.04-0.26l1.02-0.31
						c1.35-0.44,2.66-1.01,3.91-1.68c2.5-1.34,4.75-3.11,6.68-5.16c3.86-4.12,6.37-9.44,7.16-15c0.84-5.55-0.11-11.4-2.97-16.26
						c-1.42-2.43-3.29-4.6-5.53-6.33c-1.11-0.87-2.32-1.63-3.6-2.26c-0.32-0.16-0.65-0.3-0.97-0.45c-0.33-0.14-0.66-0.26-0.99-0.4
						c-0.33-0.12-0.67-0.24-1.01-0.36L164.24,196.53z"/>
					<path class="st0" d="M155.84,196.3l-1.03,0.24c-0.34,0.1-0.68,0.18-1.02,0.29c-0.34,0.11-0.67,0.21-1.01,0.32
						c-0.33,0.12-0.66,0.23-0.99,0.37c-1.31,0.52-2.57,1.15-3.76,1.88c-2.4,1.45-4.54,3.3-6.36,5.4c-3.64,4.22-5.96,9.54-6.55,15.06
						c-0.63,5.51,0.58,11.24,3.58,15.92c1.5,2.34,3.42,4.42,5.69,6.05c1.13,0.83,2.34,1.54,3.62,2.13l0.97,0.42l0.99,0.37l1.01,0.33
						l1.02,0.28c-2.8-0.44-5.51-1.53-7.91-3.08c-2.4-1.57-4.48-3.64-6.1-6.03c-1.63-2.38-2.78-5.08-3.45-7.89
						c-0.66-2.81-0.82-5.74-0.5-8.61c0.32-2.87,1.08-5.69,2.27-8.32c1.19-2.62,2.78-5.07,4.72-7.19c1.93-2.13,4.21-3.93,6.73-5.3
						c1.26-0.68,2.57-1.25,3.93-1.7c0.34-0.12,0.68-0.21,1.02-0.31c0.34-0.1,0.69-0.18,1.03-0.26c0.35-0.08,0.7-0.14,1.04-0.21
						L155.84,196.3z"/>
				</g>
			</g>
			<g>
				<path class="st0" d="M77.05,242.97c-3.33-0.23-6.52-0.02-9.42,0.7c3.76-3.84,10.72-6.11,17.92-7.94
					c16.67-4.23,37.9-14.02,42.65-26.72c7-18.75-5.35-32.41-26.09-33.73c-18.16-1.16-34.38,6.15-39.32,21.05
					c-3.02,9.1,2.72,20.59,14.21,20.33c8.51-0.19,13.44-7.41,15.33-12.6c-4.95,4.4-12.43,1.34-13.03-4.66
					c-0.78-7.8,5.6-17.39,18.83-16.66c10.5,0.58,16.61,10.67,11.63,21.63c-3.37,7.42-15.09,16.01-29.26,22.07
					c-21.38,9.14-35.64,24.22-23.6,44.33c0,0,1.8-10.15,15.54-11.22c10.68-0.83,23.57,7.94,36.5,8.65
					c7.42,0.4,19.47-4.65,22.7-10.52C116.93,260.86,102.14,244.73,77.05,242.97z"/>
				<g>
					<path class="st0" d="M110.67,260.85c-10.32-2.52-26.06-12.68-40.66-10.15c-11.22,1.94-14.26,13.9-13.11,20.07
						c0,0,1.8-10.15,15.54-11.22c10.68-0.83,23.57,7.94,36.5,8.65c7.42,0.4,19.47-4.65,22.7-10.52
						C125.23,261.45,119.49,263.01,110.67,260.85z"/>
					<path class="st0" d="M77.43,210.46c-8.24-1.95-7.5-12.17-4.23-18.35c3.24-6.12,10.97-13.04,24.28-13.04
						c13.31,0,27.76,7.69,22.94,25.36c-2.44,8.95-13.94,16.46-26.27,21.86c-12.42,5.44-25.18,12.14-26.53,17.38
						c3.76-3.84,10.72-6.11,17.92-7.94c16.67-4.23,37.9-14.02,42.65-26.72c7-18.75-5.35-32.41-26.09-33.73
						c-18.16-1.16-34.38,6.15-39.32,21.05c-3.02,9.1,2.72,20.59,14.21,20.33c8.51-0.19,13.44-7.41,15.33-12.6
						C89.48,207.76,84.85,212.21,77.43,210.46z"/>
				</g>
				<g>
					<path class="st0" d="M56.9,270.77c-0.39-1.86-0.38-3.79-0.12-5.67c0.25-1.89,0.77-3.75,1.54-5.5c0.77-1.76,1.83-3.39,3.15-4.81
						c0.66-0.7,1.4-1.34,2.18-1.91c0.79-0.57,1.64-1.04,2.52-1.45c0.88-0.41,1.81-0.7,2.75-0.95c0.95-0.22,1.9-0.37,2.86-0.47
						c1.91-0.21,3.84-0.22,5.76-0.08c3.83,0.29,7.57,1.19,11.21,2.32c3.63,1.16,7.16,2.57,10.66,4.01c3.5,1.44,6.97,2.93,10.56,3.99
						c3.6,0.99,7.36,1.58,11.09,1.14c1.86-0.2,3.69-0.66,5.46-1.31c0.88-0.32,1.75-0.7,2.6-1.1c0.43-0.2,0.85-0.42,1.27-0.62
						l1.25-0.67l-1.21,0.74c-0.41,0.23-0.82,0.47-1.24,0.7c-0.84,0.44-1.69,0.86-2.57,1.22c-1.75,0.73-3.6,1.27-5.49,1.56
						c-1.89,0.29-3.82,0.32-5.73,0.15c-1.91-0.17-3.79-0.54-5.65-1c-1.85-0.49-3.65-1.12-5.43-1.79c-1.78-0.67-3.53-1.38-5.29-2.07
						c-3.51-1.41-7.02-2.8-10.6-3.92c-3.58-1.14-7.24-2.02-10.96-2.33c-1.86-0.16-3.73-0.18-5.58,0c-0.93,0.09-1.85,0.23-2.75,0.41
						c-0.89,0.22-1.78,0.47-2.62,0.84c-0.84,0.37-1.66,0.8-2.42,1.32c-0.76,0.52-1.47,1.12-2.12,1.77c-1.3,1.32-2.37,2.86-3.18,4.54
						c-0.82,1.68-1.41,3.48-1.73,5.33c-0.17,0.92-0.27,1.86-0.3,2.8C56.72,268.89,56.76,269.83,56.9,270.77z"/>
					<path class="st0" d="M67.63,243.67c0.23-0.89,0.72-1.7,1.27-2.43c0.56-0.73,1.21-1.39,1.89-2.01c0.68-0.62,1.39-1.2,2.13-1.76
						c0.73-0.56,1.49-1.08,2.25-1.6c3.06-2.04,6.29-3.81,9.56-5.5c3.28-1.67,6.62-3.21,9.97-4.71c3.33-1.51,6.6-3.17,9.73-5.06
						c3.13-1.88,6.12-3.98,8.81-6.42c1.33-1.23,2.59-2.54,3.67-3.98c0.55-0.71,1.04-1.46,1.49-2.24c0.45-0.77,0.83-1.58,1.14-2.42
						c0.16-0.41,0.28-0.84,0.41-1.26l0.32-1.32c0.06-0.22,0.1-0.44,0.14-0.66l0.12-0.66c0.09-0.44,0.14-0.89,0.19-1.34
						c0.2-1.78,0.2-3.59-0.08-5.35c-0.28-1.76-0.84-3.47-1.68-5.03c-0.85-1.56-1.98-2.96-3.29-4.16c-0.32-0.31-0.67-0.58-1.01-0.87
						c-0.35-0.28-0.71-0.53-1.07-0.8c-0.38-0.24-0.74-0.5-1.13-0.72c-0.39-0.22-0.77-0.46-1.17-0.65c-1.59-0.83-3.28-1.48-5.02-1.97
						c-1.74-0.49-3.52-0.82-5.32-1.01c-0.9-0.09-1.8-0.15-2.71-0.17l-0.68-0.01c-0.23,0-0.45,0.01-0.68,0.02l-1.36,0.04
						c-0.45,0-0.9,0.06-1.35,0.1l-1.35,0.13l-1.34,0.22l-0.67,0.11c-0.22,0.03-0.44,0.1-0.66,0.15l-1.32,0.32
						c-0.44,0.11-0.86,0.27-1.29,0.4l-0.65,0.2c-0.22,0.07-0.42,0.16-0.63,0.24l-1.26,0.5c-1.64,0.75-3.22,1.64-4.69,2.68
						c-1.46,1.06-2.8,2.28-3.99,3.63c-1.19,1.35-2.21,2.85-3.04,4.45c-0.8,1.61-1.38,3.34-1.73,5.11c-0.34,1.77-0.46,3.59-0.2,5.37
						c0.26,1.76,0.93,3.5,2.16,4.78c1.21,1.3,2.91,2.08,4.69,2.38c1.77,0.35,3.62,0.37,5.39-0.05c1.76-0.45,3.42-1.28,4.86-2.4
						c0.73-0.55,1.4-1.18,2.05-1.82c0.63-0.66,1.24-1.35,1.81-2.07c-0.55,0.73-1.13,1.45-1.75,2.13c-0.63,0.67-1.28,1.32-2.01,1.89
						c-1.43,1.17-3.1,2.05-4.89,2.55c-1.8,0.47-3.7,0.5-5.53,0.18c-1.83-0.26-3.67-1.04-5-2.41c-0.67-0.68-1.2-1.48-1.58-2.35
						c-0.39-0.86-0.64-1.78-0.79-2.71c-0.3-1.86-0.2-3.75,0.13-5.59c0.34-1.84,0.91-3.63,1.72-5.31c0.83-1.68,1.87-3.24,3.09-4.66
						c1.21-1.42,2.59-2.7,4.09-3.82c1.51-1.1,3.14-2.02,4.84-2.8l1.3-0.52c0.22-0.08,0.43-0.18,0.65-0.25l0.67-0.21
						c0.45-0.14,0.88-0.3,1.34-0.42l1.36-0.33c0.23-0.05,0.45-0.12,0.68-0.16l0.69-0.12l1.38-0.24l1.39-0.14
						c0.46-0.04,0.93-0.11,1.39-0.11l1.39-0.05c0.23-0.01,0.46-0.02,0.7-0.02l0.7,0.01c0.93,0.01,1.86,0.08,2.79,0.16
						c1.85,0.18,3.69,0.51,5.49,1.02c1.8,0.5,3.56,1.17,5.23,2.02c0.42,0.2,0.82,0.45,1.23,0.68c0.41,0.23,0.79,0.5,1.19,0.75
						c0.38,0.28,0.77,0.55,1.14,0.84l0.55,0.45c0.19,0.15,0.36,0.31,0.53,0.47c1.38,1.29,2.58,2.78,3.48,4.46
						c0.89,1.68,1.48,3.5,1.77,5.37c0.29,1.87,0.28,3.77,0.06,5.62c-0.06,0.46-0.11,0.93-0.2,1.39l-0.13,0.69
						c-0.04,0.23-0.08,0.46-0.14,0.69l-0.33,1.36c-0.14,0.45-0.27,0.91-0.45,1.35c-0.34,0.88-0.74,1.74-1.22,2.55
						c-0.47,0.81-0.99,1.6-1.56,2.34c-1.13,1.49-2.43,2.83-3.8,4.09c-1.38,1.24-2.84,2.39-4.35,3.46c-1.51,1.06-3.08,2.05-4.67,2.98
						c-3.19,1.86-6.5,3.49-9.87,4.97c-3.37,1.45-6.72,2.95-10.01,4.56c-3.29,1.61-6.55,3.3-9.64,5.26c-0.77,0.49-1.53,1-2.27,1.54
						c-0.74,0.53-1.47,1.1-2.16,1.7c-0.69,0.6-1.35,1.24-1.93,1.94C68.39,242,67.89,242.79,67.63,243.67z"/>
				</g>
			</g>
		</g>
		<g>
			<path class="st0" d="M57.98,227.55c15-4.41,32.03-1.91,52.22,14.99c32.06,26.83,65.93,24.46,81.26,5.99
				c10.18-12.27,8.7-31.76-1.3-42.13c7.48,10.86,5.11,27.03-5.87,36.87c-20.18,18.08-45.58,10.94-69.19-8.04
				C98.98,222.24,78.86,217.03,57.98,227.55z"/>
			<g>
				<path class="st0" d="M57.98,227.55c20.87-10.52,41-5.31,57.14,7.67c23.61,18.99,49.01,26.12,69.19,8.04
					c10.98-9.84,13.34-26,5.87-36.87c8.32,10.7,7.27,28.01-3.48,38.62c-18.5,18.27-46.79,14.24-73.21-7.36
					C95.99,223.38,76.9,219.06,57.98,227.55z"/>
			</g>
		</g>
	</g>
	<g>
		<path class="st0" d="M241.23,194.33c-17.81-0.86-34.08,11.26-36.36,27.08c-2.27,15.82,10.63,29.34,28.44,30.2
			c17.81,0.86,33.78-11.26,36.05-27.08C271.64,208.71,259.04,195.19,241.23,194.33z M251.32,222.96
			c-1.73,11.62-9.22,21.03-17.06,21.03c-7.84,0-13.06-9.42-11.34-21.03c1.73-11.62,9.48-21.03,17.32-21.03
			C248.09,201.93,253.04,211.35,251.32,222.96z"/>
		<path class="st0" d="M240.08,198.11c-12.8-0.75-24.5,9.77-26.14,23.5c-1.63,13.73,7.64,25.46,20.44,26.21
			c12.8,0.75,24.29-9.77,25.92-23.5C261.94,210.59,252.88,198.86,240.08,198.11z M251.32,222.96c-1.73,11.62-9.22,21.03-17.06,21.03
			c-7.84,0-13.06-9.42-11.34-21.03c1.73-11.62,9.48-21.03,17.32-21.03C248.09,201.93,253.04,211.35,251.32,222.96z"/>
		<g>
			<path class="st0" d="M243.58,198.6c2.82,0.51,5.53,1.69,7.91,3.35c2.37,1.67,4.4,3.84,5.94,6.32c1.55,2.47,2.59,5.26,3.15,8.13
				c0.55,2.87,0.57,5.84,0.16,8.73c-0.43,2.89-1.29,5.71-2.58,8.33c-1.3,2.61-2.99,5.03-5.04,7.1c-2.04,2.07-4.43,3.8-7.05,5.05
				c-2.62,1.23-5.45,2.02-8.32,2.16l1.06-0.17l1.05-0.22l1.04-0.26l1.02-0.31c1.35-0.44,2.66-1.01,3.91-1.68
				c2.5-1.34,4.75-3.11,6.68-5.16c3.86-4.12,6.37-9.44,7.16-15c0.84-5.55-0.11-11.4-2.97-16.26c-1.42-2.43-3.29-4.6-5.53-6.33
				c-1.11-0.87-2.32-1.63-3.6-2.26c-0.32-0.16-0.65-0.3-0.97-0.45c-0.33-0.14-0.66-0.26-0.99-0.4c-0.33-0.12-0.67-0.24-1.01-0.36
				L243.58,198.6z"/>
			<path class="st0" d="M235.17,198.37l-1.03,0.24c-0.34,0.1-0.68,0.18-1.02,0.29c-0.34,0.11-0.67,0.21-1.01,0.32
				c-0.33,0.12-0.66,0.23-0.99,0.37c-1.31,0.52-2.57,1.15-3.76,1.88c-2.4,1.45-4.54,3.3-6.36,5.4c-3.64,4.22-5.96,9.54-6.55,15.06
				c-0.63,5.51,0.58,11.24,3.58,15.92c1.5,2.34,3.42,4.42,5.69,6.05c1.13,0.83,2.34,1.54,3.62,2.13l0.97,0.42l0.99,0.37l1.01,0.33
				l1.02,0.28c-2.8-0.44-5.51-1.53-7.91-3.08c-2.4-1.57-4.48-3.64-6.1-6.03c-1.63-2.38-2.78-5.08-3.45-7.89
				c-0.66-2.81-0.82-5.74-0.5-8.61c0.32-2.87,1.08-5.69,2.27-8.32c1.19-2.62,2.78-5.07,4.72-7.19c1.93-2.13,4.21-3.93,6.73-5.3
				c1.26-0.68,2.57-1.25,3.93-1.7c0.34-0.12,0.68-0.21,1.02-0.31c0.34-0.1,0.69-0.18,1.03-0.26c0.35-0.08,0.7-0.14,1.04-0.21
				L235.17,198.37z"/>
		</g>
	</g>
	<g>
		<path class="st0" d="M326.85,245.51c0.11-5.23,0.4-10.8,1.01-15.99c1.98-16.96,5.52-24.11,5.52-24.11
			c-3.49,3.81-8.07,6.29-8.07,6.29c-3.72,5.51-8.54,12.26-11.74,21.37c-0.66,1.89-1.25,3.78-1.78,5.67
			c-5.95-2.09-11.95-3.38-17.77-3.36c-6.92,0.03-11.54,1.3-14.57,2.77c6-16.73,38.62-13.69,50.5-41.25
			c5.87-13.62-1.32-24.04-1.32-24.04c-1.91,14.84-26.62,26.75-41.32,39.03c-17.11,14.29-20.14,32.57-17.41,45.11
			c3.14-3.5,9.42-6.41,18.26-7.25c6.62-0.63,13.66,1.34,20.63,3.6c-0.88,6.38-1.09,11.88-1.01,15.49c0,0,9.26-2.07,19.49-1.35
			c0,0-0.24-3.61-0.38-9.04c1.27,0.19,2.52,0.31,3.75,0.34c6.33,0.18,12.25-1.29,16.86-7.96
			C341.32,252.93,334.3,249.36,326.85,245.51z"/>
		<path class="st0" d="M295.42,216.21c9.95-7.18,23.59-14.57,29.03-21.56c4.41-5.67,6-15.99,4.17-21.8c0,0,7.19,10.42,1.32,24.04
			c-11.88,27.55-44.5,24.52-50.5,41.25C280.82,232.88,285.41,223.43,295.42,216.21z M317.79,248.85c5.27,2.26,9.97,4.32,13.72,4.8
			c7.91,1.01,12.17-0.15,15.99-2.84c-6.18,2.13-13.2-1.44-20.65-5.29c0.11-5.23,0.4-10.8,1.01-15.99
			c1.98-16.96,5.52-24.11,5.52-24.11c-1.36,1.48-2.87,2.75-4.23,3.76c-3.78,8.78-8.65,24.19-10.46,33.79
			C318.32,244.94,318.02,246.92,317.79,248.85z M317.79,248.85c-8.47-3.63-18.39-7.79-28.15-6.8
			c-15.17,1.55-19.75,10.34-19.75,14.93c3.14-3.5,9.42-6.41,18.26-7.25c6.62-0.63,13.66,1.34,20.63,3.6
			c-0.88,6.38-1.09,11.88-1.01,15.49c0,0,3.85-0.86,9.33-1.28C316.95,264.22,316.81,256.97,317.79,248.85z"/>
		<g>
			<path class="st0" d="M317.1,267.54c-0.43-5-0.45-10.03-0.1-15.05c0.16-2.51,0.45-5.01,0.82-7.5c0.38-2.49,0.92-4.96,1.5-7.4
				c0.6-2.44,1.26-4.87,1.96-7.27c0.73-2.4,1.47-4.8,2.29-7.17c0.81-2.38,1.68-4.73,2.59-7.07c0.93-2.33,1.89-4.65,2.99-6.9
				c-0.88,2.35-1.71,4.71-2.49,7.08c-0.79,2.37-1.55,4.76-2.29,7.15c-1.45,4.78-2.84,9.59-4.01,14.44
				c-1.22,4.84-2.04,9.75-2.53,14.72C317.33,257.52,317.11,262.52,317.1,267.54z"/>
			<path class="st0" d="M269.89,256.98c-0.01-1.83,0.53-3.64,1.4-5.26c0.87-1.62,2.07-3.07,3.45-4.29c0.33-0.33,0.7-0.6,1.07-0.88
				c0.37-0.28,0.73-0.57,1.13-0.8l1.18-0.73c0.41-0.22,0.82-0.42,1.23-0.63l0.62-0.31c0.21-0.09,0.43-0.17,0.64-0.26l1.29-0.51
				c0.43-0.16,0.88-0.28,1.32-0.42l0.66-0.2c0.22-0.07,0.44-0.14,0.67-0.19l1.35-0.3c0.45-0.09,0.9-0.22,1.36-0.27l1.37-0.2
				c0.46-0.06,0.91-0.15,1.37-0.17c1.84-0.18,3.7-0.18,5.54-0.03c3.69,0.31,7.29,1.17,10.79,2.28c3.49,1.13,6.88,2.52,10.23,3.97
				c3.35,1.45,6.66,2.96,10.06,4.2c1.7,0.6,3.43,1.12,5.2,1.36c1.79,0.25,3.6,0.41,5.4,0.41l0.68,0l0.68-0.03
				c0.45-0.01,0.9-0.07,1.35-0.11c0.89-0.12,1.79-0.26,2.65-0.51c1.74-0.48,3.39-1.28,4.92-2.28c-0.73,0.54-1.5,1.04-2.3,1.48
				c-0.81,0.44-1.66,0.78-2.53,1.07c-0.87,0.3-1.78,0.48-2.68,0.64c-0.46,0.06-0.91,0.14-1.37,0.17l-0.69,0.06l-0.69,0.03
				c-1.84,0.07-3.68-0.04-5.5-0.23c-0.92-0.1-1.84-0.26-2.74-0.49c-0.9-0.21-1.78-0.49-2.65-0.77c-1.74-0.58-3.45-1.25-5.14-1.95
				l-5.04-2.11c-3.35-1.41-6.72-2.78-10.16-3.88c-3.44-1.11-6.96-1.96-10.54-2.3c-1.79-0.17-3.59-0.19-5.37-0.05
				c-0.45,0.02-0.89,0.1-1.34,0.15l-1.34,0.17c-0.45,0.04-0.89,0.15-1.33,0.23l-1.32,0.26c-0.22,0.04-0.44,0.11-0.65,0.17
				l-0.65,0.18c-0.43,0.13-0.87,0.23-1.29,0.38l-1.26,0.47l-0.63,0.24l-0.61,0.28c-0.41,0.19-0.82,0.37-1.22,0.57l-1.16,0.67
				c-0.4,0.21-0.75,0.49-1.12,0.74l-0.55,0.39c-0.09,0.06-0.18,0.13-0.26,0.21l-0.26,0.22c-1.4,1.13-2.62,2.48-3.55,4.03
				c-0.21,0.4-0.43,0.79-0.63,1.2l-0.26,0.63c-0.09,0.21-0.18,0.42-0.24,0.63l-0.2,0.65c-0.07,0.22-0.1,0.44-0.15,0.66
				C269.95,256.07,269.94,256.53,269.89,256.98z"/>
			<path class="st0" d="M279.44,238.13c0.42-1.76,1.02-3.48,1.76-5.14c0.73-1.66,1.57-3.28,2.53-4.83c0.23-0.4,0.49-0.77,0.74-1.15
				c0.25-0.38,0.5-0.76,0.77-1.13l0.8-1.11l0.85-1.07l0.43-0.53l0.45-0.52l0.9-1.03l0.95-0.99l0.47-0.49l0.5-0.47l0.99-0.94
				c0.34-0.3,0.69-0.6,1.03-0.9c0.68-0.61,1.42-1.15,2.14-1.71c1.46-1.1,2.94-2.12,4.44-3.15c2.99-2.04,6.04-4,9.04-6
				c3.02-1.99,6.01-4,8.88-6.16l1.06-0.83l0.53-0.41l0.52-0.43l1.03-0.86l0.99-0.9c1.3-1.22,2.56-2.49,3.55-3.95
				c1-1.46,1.77-3.07,2.41-4.74c0.63-1.67,1.11-3.4,1.45-5.16c0.35-1.76,0.55-3.55,0.57-5.35c0.01-0.9-0.03-1.8-0.12-2.69
				c-0.01-0.23-0.05-0.45-0.08-0.67l-0.1-0.67c-0.08-0.44-0.2-0.88-0.3-1.32c0.58,1.72,0.82,3.54,0.88,5.35
				c0.06,1.82-0.06,3.64-0.34,5.44c-0.28,1.8-0.72,3.58-1.31,5.31c-0.6,1.73-1.37,3.41-2.37,4.97c-0.27,0.38-0.52,0.77-0.8,1.13
				l-0.88,1.07c-0.3,0.35-0.63,0.67-0.94,1l-0.48,0.5l-0.5,0.47l-1,0.93l-1.04,0.89l-0.52,0.44l-0.53,0.43l-1.07,0.85
				c-2.88,2.22-5.89,4.25-8.9,6.25c-3.03,1.99-6.07,3.94-9.07,5.94l-2.24,1.51l-1.11,0.77c-0.37,0.26-0.74,0.51-1.1,0.78
				c-0.71,0.54-1.44,1.06-2.12,1.64c-0.34,0.29-0.69,0.56-1.04,0.85l-1,0.9l-0.5,0.45l-0.48,0.47l-0.95,0.95l-0.91,0.99l-0.46,0.49
				l-0.44,0.51c-1.19,1.35-2.25,2.8-3.25,4.29C282.15,231.43,280.52,234.68,279.44,238.13z"/>
		</g>
	</g>
	<g>
		<path class="st0" d="M309.91,224.9c-12.45-2.88-24.19,7.02-37.79,19.77c-25.5,23.92-54.68,21.37-67.76,5.61
			c-8.69-10.47-7.42-27.11,1.11-35.96c-6.38,9.27-4.37,23.07,5.01,31.47c17.22,15.43,37.42,9.79,54.43-4.72
			C281.5,226.92,294.35,217.76,309.91,224.9z"/>
		<g>
			<path class="st0" d="M205.47,214.32c-6.38,9.27-4.37,23.07,5.01,31.47c17.22,15.43,37.42,9.79,54.43-4.72
				c16.59-14.15,29.44-23.3,45-16.17c-14.52-5.72-27.05,3.63-42.6,17.37c-19.9,17.58-43.08,20.61-58.88,5.01
				C199.26,238.22,198.37,223.45,205.47,214.32z"/>
		</g>
	</g>
	<g>
		<text transform="matrix(1 0 0 1 139.9795 179.2471)" class="st1 st2">Since</text>
		<g>
			<text transform="matrix(1 0 0 1 139.9795 179.2471)" class="st0 st1 st2">Since</text>
		</g>
		<g>
			<text transform="matrix(1 0 0 1 139.9795 179.2471)" class="st3 st1 st2">Since</text>
		</g>
	</g>
</g>
</svg>
