<?xml version="1.0" encoding="utf-8"?>
<!-- Generator: Adobe Illustrator 26.5.0, SVG Export Plug-In . SVG Version: 6.00 Build 0)  -->
<svg version="1.1" id="Layer_1" xmlns="http://www.w3.org/2000/svg" xmlns:xlink="http://www.w3.org/1999/xlink" x="0px" y="0px"
	 viewBox="0 0 400 400" style="enable-background:new 0 0 400 400;" xml:space="preserve">
<style type="text/css">
	.st0{fill:#FFFFFF;}
	.st1{fill:url(#SVGID_1_);}
	.st2{fill:none;stroke:#42210B;stroke-width:5;stroke-linecap:round;stroke-linejoin:round;stroke-miterlimit:10;}
	.st3{fill:#FFFFFF;stroke:#42210B;stroke-width:5;stroke-miterlimit:10;}
	.st4{fill:#333333;}
	.st5{fill:#42210B;}
	.st6{fill:url(#SVGID_00000083067493427565616360000001852910659061207729_);}
	.st7{fill:url(#SVGID_00000002382349838931188440000007170042210855113632_);}
	.st8{fill:url(#SVGID_00000132793400098215583870000015831365394946046866_);}
	.st9{fill:#FCBF95;}
	.st10{fill:url(#SVGID_00000041284287223138685710000004625270227691859130_);}
	.st11{fill:#FF9D5A;}
	.st12{fill:#303047;}
	.st13{fill:url(#SVGID_00000159464800960052391370000004235562116590352546_);}
	.st14{fill:url(#SVGID_00000031201446119662889890000012950697464937060523_);}
	.st15{fill:url(#SVGID_00000183212694791673224350000011153246627434244011_);}
	.st16{clip-path:url(#SVGID_00000095307719441194502700000000212864214288228794_);}
	.st17{fill:#772C29;}
	.st18{fill:#F7C4A6;}
	.st19{fill:#E6A486;}
	.st20{fill:#F15A24;}
	.st21{fill:#C1272D;}
	.st22{fill:#CF7D73;}
	.st23{fill:#581C2C;}
	.st24{fill:#8B3B29;}
	.st25{clip-path:url(#SVGID_00000095323262638296890810000010389039471161826997_);}
	.st26{clip-path:url(#SVGID_00000068673649353290017430000009610512436803210380_);}
	.st27{clip-path:url(#SVGID_00000058591645636126266080000010161679663313809579_);}
	.st28{fill:#0C0C0C;}
	.st29{fill:#575757;}
	.st30{fill:#201D1E;}
	.st31{fill:#DB262D;}
	
		.st32{fill:url(#SVGID_00000070830493794481569770000017108519350362175901_);stroke:#2A6880;stroke-width:0.2596;stroke-miterlimit:10;}
	
		.st33{fill:url(#SVGID_00000102509728672133566640000009790309889951543198_);stroke:#2A6880;stroke-width:0.2596;stroke-miterlimit:10;}
	
		.st34{fill:url(#SVGID_00000078729487828505375430000007317015095841455260_);stroke:#2A6880;stroke-width:0.2596;stroke-miterlimit:10;}
	.st35{fill:#343433;}
	.st36{fill:#1C1B17;}
	.st37{fill:#4B443F;}
	.st38{fill:#B9272A;}
	.st39{fill:#264A90;}
	.st40{fill:#D41F26;}
	.st41{fill:#E66725;}
	.st42{clip-path:url(#SVGID_00000165205028945372542160000000325698222913326726_);}
	.st43{fill:#EF8C71;}
	.st44{fill:#EF8C73;}
	.st45{fill:#828080;}
	.st46{fill:none;}
	.st47{fill:none;stroke:#42210B;stroke-miterlimit:10;}
	.st48{clip-path:url(#SVGID_00000127731924044658191890000008132255865884052908_);}
	.st49{clip-path:url(#SVGID_00000172429973076847768160000013440503700647042451_);}
	.st50{fill:#FBB617;}
</style>
<g>
	<g>
		<path class="st0" d="M265.68,274.71c-2.11-3.5-5.49-5.49-8.95-7.32c-5.75-3.05-11.76-5.52-18.75-8.12
			c2.95-1.14,5.16-2.05,7.41-2.85c7.14-2.53,14.34-4.9,21.43-7.57c4.84-1.82,6.11-8.55,2.79-12.56c-10.96-13.23-15.32-28-9.17-44.64
			c4.34-11.74,14.59-18.33,27.05-18.31c12.53,0.03,22.11,6.28,26.77,18.03c6.51,16.41,2.22,31.01-8.32,44.24
			c-3.89,4.88-2.97,11.09,2.64,13.61c6.7,3,13.5,5.75,20.26,8.62c3.73,1.58,7.26,3.47,10.36,6.11c6.35,5.41,9.51,12.17,7.86,20.5
			c-1.72,8.64-7.11,14.37-15.54,16.86c-9.02,2.66-18.38,3.44-27.72,4.15c-10.65,0.81-21.33,0.92-32,0.9c-1.84,0-2.99,0.51-4.12,2.01
			c-3.71,4.93-8.74,7.88-14.73,9.25c-22.95,5.26-46.22,6.26-69.64,5.02c-12.21-0.64-24.31-2.04-36.22-4.96
			c-6.23-1.52-11.49-4.45-15.2-9.73c-1.12-1.59-2.43-1.56-3.97-1.57c-14.94-0.07-29.89-0.24-44.73-2.27
			c-4.46-0.61-8.93-1.28-13.28-2.38c-8.89-2.25-14.9-7.77-16.88-16.87c-1.94-8.93,1.6-15.96,8.51-21.55
			c4.79-3.87,10.54-5.82,16.06-8.23c4.77-2.09,9.64-3.96,14.37-6.14c4.81-2.22,5.75-8.96,2.3-13.07c-9.8-11.66-14.12-25.07-10.19-40
			c3.97-15.09,14.62-22.89,29.42-22.45c14.78,0.44,25.58,10.07,28.06,24.94c2.37,14.18-1.67,26.73-10.93,37.62
			c-3.81,4.47-2.4,11.09,3.14,13.15c8.1,3,16.29,5.77,24.44,8.65c0.98,0.35,1.93,0.78,3.46,1.4c-4.88,2.08-9.31,3.83-13.62,5.86
			c-5.12,2.41-10.44,4.62-13.73,9.66c-0.29,0.26-0.81,0.47-0.43,0.96c0.38,0.49,0.7,0.07,1-0.19c7.79-6.21,17.31-8.56,26.39-11.89
			c5.33-1.96,10.75-3.66,16.04-5.73c4.77-1.87,6.16-9.72,2.82-13.67c-12.59-14.91-17.47-31.68-10.5-50.48
			c5.27-14.23,18.62-21.86,33.58-20.32c15.48,1.59,26.52,11.94,29.48,27.79c1.45,7.75,0.41,15.21-1.76,22.82
			c-2.33,8.19-6.34,15.06-11.96,21.25c-2.48,2.73-0.45,11.03,3.06,12.35c7.53,2.84,15.18,5.34,22.74,8.09
			c7.11,2.58,14.38,4.86,20.36,9.8c0.17,0.17,0.34,0.34,0.51,0.51c0.37,0.27,0.48,1.18,1.05,0.79c0.5-0.35,0.16-0.94-0.38-1.25
			C266.09,275.25,265.88,274.98,265.68,274.71z M133.81,276.58c-0.23-0.2-0.42-0.43-0.48-0.4c-0.24,0.12-0.44,0.32-0.66,0.49
			c0.15,0.12,0.33,0.35,0.45,0.33C133.36,276.94,133.56,276.74,133.81,276.58z"/>
		<g>
			<path class="st0" d="M234.44,95.72c-0.32,7.84-3.88,14.29-8.8,20.1c-6.81,8.06-15.29,14.08-24.13,19.66
				c-1,0.63-1.82,0.79-2.89,0.11c-10.07-6.33-19.67-13.21-26.78-22.97c-3.1-4.26-5.34-8.91-6.12-14.2
				c-1.21-8.27,2.86-15.95,10.44-19.53c7.94-3.75,16.34-2.22,21.92,4.35c1.68,1.97,2.26,1.8,3.82-0.07c5.03-6,12.92-7.79,20.33-4.94
				C229.79,81.15,234.5,87.91,234.44,95.72z"/>
		</g>
		<g>
			<path class="st0" d="M140.27,104.88c-0.16,6.81-3.51,12.2-7.82,17.08c-5.3,6.02-11.71,10.69-18.54,14.82
				c-0.8,0.49-1.52,1.09-2.56,0.42c-10.44-6.69-20.75-13.59-25.68-25.7c-4.32-10.61,1.81-20.89,12.85-21.91
				c4.79-0.44,8.91,1.1,12.02,4.82c1.29,1.54,2,1.7,3.48,0.04c4.49-5.05,10.75-6.25,17.17-3.62
				C136.74,93.09,140.36,98.7,140.27,104.88z"/>
		</g>
		<g>
			<path class="st0" d="M275.07,89.46c4.33,0.18,8.09,1.65,10.91,5.05c0.94,1.13,1.51,1.84,3,0.4c6.78-6.59,14.58-7.17,21.25-1.79
				c6.14,4.96,6.83,13.84,2.5,21.59c-5.55,9.91-14.32,16.13-23.45,22.1c-1.12,0.73-2.03,0.84-3.21,0.09
				c-8.01-5.13-15.71-10.6-21.36-18.44c-2.67-3.7-4.59-7.71-4.99-12.34C258.93,97,265.89,89.44,275.07,89.46z"/>
		</g>
		<path class="st0" d="M266.29,275.52c0.53,0.31,0.88,0.9,0.38,1.25c-0.57,0.39-0.68-0.52-1.05-0.79
			C265.84,275.83,266.07,275.68,266.29,275.52z"/>
		<path class="st0" d="M133.81,276.58c-0.25,0.16-0.45,0.36-0.69,0.42c-0.12,0.03-0.3-0.21-0.45-0.33c0.22-0.17,0.42-0.37,0.66-0.49
			C133.39,276.15,133.58,276.38,133.81,276.58z"/>
		<path class="st0" d="M134.88,275.48c-0.3,0.26-0.62,0.68-1,0.19c-0.38-0.49,0.14-0.7,0.43-0.96
			C134.5,274.96,134.69,275.22,134.88,275.48z"/>
		<path class="st0" d="M265.62,275.99c-0.17-0.17-0.34-0.34-0.51-0.51c0.19-0.26,0.38-0.52,0.57-0.78c0.2,0.27,0.41,0.55,0.61,0.82
			C266.07,275.68,265.84,275.83,265.62,275.99z"/>
	</g>
</g>
</svg>
