<?xml version="1.0" encoding="utf-8"?>
<!-- Generator: Adobe Illustrator 26.5.0, SVG Export Plug-In . SVG Version: 6.00 Build 0)  -->
<svg version="1.1" id="Layer_1" xmlns="http://www.w3.org/2000/svg" xmlns:xlink="http://www.w3.org/1999/xlink" x="0px" y="0px"
	 viewBox="0 0 400 400" style="enable-background:new 0 0 400 400;" xml:space="preserve">
<style type="text/css">
	.st0{fill:#FFFFFF;}
	.st1{fill:url(#SVGID_1_);}
	.st2{fill:none;stroke:#42210B;stroke-width:5;stroke-linecap:round;stroke-linejoin:round;stroke-miterlimit:10;}
	.st3{fill:#FFFFFF;stroke:#42210B;stroke-width:5;stroke-miterlimit:10;}
	.st4{fill:#333333;}
	.st5{fill:#42210B;}
	.st6{fill:url(#SVGID_00000094589252454050771040000004326961762257470125_);}
	.st7{fill:url(#SVGID_00000004511943337697322360000003877469209744358800_);}
	.st8{fill:url(#SVGID_00000145742329438918044690000008760280110871772574_);}
	.st9{fill:#FCBF95;}
	.st10{fill:url(#SVGID_00000139280213993244335110000016565978639205345964_);}
	.st11{fill:#FF9D5A;}
	.st12{fill:#303047;}
	.st13{fill:url(#SVGID_00000060024187462083695480000017719684202109179539_);}
	.st14{fill:url(#SVGID_00000054972156689836543430000013709925088518356896_);}
	.st15{fill:url(#SVGID_00000111180629757637876090000016174852337066668945_);}
	.st16{clip-path:url(#SVGID_00000064332640113955759550000016154838484247715228_);}
	.st17{fill:#772C29;}
	.st18{fill:#F7C4A6;}
	.st19{fill:#E6A486;}
	.st20{fill:#F15A24;}
	.st21{fill:#C1272D;}
	.st22{fill:#CF7D73;}
	.st23{fill:#581C2C;}
	.st24{fill:#8B3B29;}
	.st25{clip-path:url(#SVGID_00000159431693858655113060000013778649655816955293_);}
	.st26{clip-path:url(#SVGID_00000159462010704160778940000017990301814427103661_);}
	.st27{clip-path:url(#SVGID_00000118356518714778582650000013687259694455678336_);}
	.st28{fill:#0C0C0C;}
	.st29{fill:#575757;}
	.st30{fill:#201D1E;}
	.st31{fill:#DB262D;}
	
		.st32{fill:url(#SVGID_00000158015069278393118400000003760819301126784443_);stroke:#2A6880;stroke-width:0.2596;stroke-miterlimit:10;}
	
		.st33{fill:url(#SVGID_00000165233290625473714050000009355352331036891807_);stroke:#2A6880;stroke-width:0.2596;stroke-miterlimit:10;}
	
		.st34{fill:url(#SVGID_00000067202015766540714880000013226719032652473247_);stroke:#2A6880;stroke-width:0.2596;stroke-miterlimit:10;}
	.st35{fill:#343433;}
	.st36{fill:#1C1B17;}
	.st37{fill:#4B443F;}
	.st38{fill:#B9272A;}
	.st39{fill:#264A90;}
	.st40{fill:#D41F26;}
	.st41{fill:#E66725;}
	.st42{clip-path:url(#SVGID_00000111177968034765294120000014310191117123650731_);}
	.st43{fill:#EF8C71;}
	.st44{fill:#EF8C73;}
	.st45{fill:#828080;}
	.st46{fill:none;}
	.st47{fill:none;stroke:#42210B;stroke-miterlimit:10;}
	.st48{clip-path:url(#SVGID_00000108298128657435093700000008177062301809141693_);}
	.st49{clip-path:url(#SVGID_00000101824642827073720880000008564815509072143239_);}
	.st50{fill:#FBB617;}
</style>
<g>
	<g>
		<path class="st0" d="M52.5,205.71c3.71-0.17,6.54,2.01,9.42,3.8c5.59,3.47,9.63,8.43,12.8,14.15c0.32,0.57,0.67,1.13,1.2,1.64
			c-1.12-5.38-0.8-10.85-1.37-16.24c-0.27-2.52-1.12-4.34-3.97-5.22c-3.65-1.14-5.94-4.17-7.59-7.5
			c-4.25-8.59-6.16-17.71-5.82-27.29c0.04-1.03-0.19-2.42,0.81-2.9c1.08-0.52,1.85,0.73,2.64,1.37c7.51,6.1,12.28,13.85,13.96,23.43
			c0.06,0.34,0.28,0.66,0.61,1.39c0.54-5.15,1.07-9.85,1.51-14.55c0.17-1.79-0.33-3.53-1.69-4.74c-7.91-7.08-8.34-16.41-7.89-25.98
			c0.21-4.41,0.74-8.79,2.13-13.02c0.23-0.71,0.36-1.67,1.21-1.81c0.87-0.14,1.22,0.79,1.68,1.36c6.43,7.9,9.05,16.97,8.56,27.17
			c1.54-4.39,3.21-8.75,4.56-13.2c0.56-1.84,0.07-3.75-1.43-5.3c-2.3-2.38-3.42-5.43-3.54-8.62c-0.37-9.94,1.5-19.46,6.14-28.35
			c0.43-0.82,0.74-2.01,1.82-2.03c1.19-0.01,1.25,1.32,1.63,2.12c3.83,8.01,4.37,16.4,2.76,25.02c-0.15,0.8-0.61,1.58-0.1,2.62
			c2.72-4.18,5.46-8.19,7.96-12.35c0.83-1.37,1.16-3.31,0.21-4.69c-3.85-5.64-2.86-11.56-1.18-17.46
			c2.01-7.06,5.88-13.08,11.1-18.23c0.58-0.57,1.14-1.63,2.09-1.18c0.8,0.38,0.76,1.46,0.88,2.31c1.33,9.75-0.13,19.06-4.23,28.08
			c3.3-3.58,6.79-6.93,10.34-10.2c0.54-0.49,0.72-1.08,0.72-1.79c0.06-6.55,4.09-10.6,9.12-13.73c4.32-2.69,9.32-4.01,14.05-5.84
			c1.42-0.55,2.24-0.27,1.72,1.58c-2.79,9.85-10.37,19.49-21.79,20.72c-3.97,0.43-5.62,4.28-8.36,6.65
			c6.83-2.58,13.51-0.56,20.19,0.31c1.91,0.25,2.53,1.02,1.09,2.82c-5.92,7.38-16.52,11.36-25.48,7.51
			c-3.54-1.52-4.46-1.08-6.69,2.11c-1.76,2.5-3.45,5.05-5.03,7.83c6.7-3.93,14.12-3.65,21.39-4.14c0.7-0.05,1.62-0.43,2.09,0.43
			c0.44,0.82-0.25,1.45-0.65,2.07c-3.37,5.31-7.68,9.53-13.63,11.92c-3.68,1.48-7.41,1.79-11.28,1.09
			c-3.01-0.54-5.04,0.33-6.21,3.52c-1.34,3.67-3.13,7.17-4.54,11.55c6.09-6.02,13.71-7.88,20.64-11.09
			c0.67-0.31,1.43-0.92,2.13-0.33c0.8,0.67,0.03,1.45-0.22,2.09c-2.06,5.19-4.43,10.23-8.15,14.47c-3.57,4.07-7.84,6.97-13.43,7.61
			c-4.74,0.54-5.44,1.25-6.38,5.86c-0.88,4.31-1.89,8.6-1.84,13.18c3.99-7.98,11.37-12.48,17.86-17.87
			c0.59-0.49,1.13-1.57,2.11-0.95c0.75,0.48,0.36,1.4,0.31,2.15c-0.58,8.33-3,15.99-8.26,22.61c-2.24,2.82-4.79,5.29-8.17,6.65
			c-4.16,1.67-5.81,4.56-5.3,9.04c0.47,4.09,0.51,8.22,0.77,12.75c1.49-1.38,1.31-3.02,1.83-4.32c2.74-6.9,7.62-12.39,11.92-18.26
			c0.85-1.17,1.52-3.42,3.05-2.96c1.47,0.44,0.87,2.69,1.03,4.16c0.94,8.77-0.89,16.95-5.22,24.62c-1.59,2.81-3.81,5.05-6.15,7.18
			c-2.79,2.54-3.93,5.27-2.54,9.17c1.62,4.56,2.81,9.28,4.92,13.72c-0.33-10.24,4.18-19.1,7.67-28.24c0.23-0.59,0.32-1.46,1.18-1.39
			c0.76,0.06,0.97,0.87,1.21,1.47c4.87,12.2,5.5,24.29-1.42,35.95c-2.23,3.76-2.57,6.92,0.22,10.51c1.92,2.46,3.38,5.28,5.7,7.62
			c-2.1-8.75,0.18-17.29,0.75-25.88c0.04-0.57,0.03-1.17,0.18-1.72c0.21-0.79-0.12-1.96,0.87-2.24c1.14-0.32,1.6,0.82,2.16,1.55
			c8.17,10.72,10.68,22.5,6.57,35.5c-0.88,2.8-0.51,5.06,2.04,7.09c3.73,2.96,7.28,6.12,12.01,8.81
			c-6.17-8.59-6.24-18.31-8.06-27.52c-0.11-0.56-0.26-1.19,0.34-1.55c0.72-0.43,1.3,0.13,1.85,0.44
			c9.96,5.79,15.59,14.38,16.02,25.93c0.39,10.45-0.71,7.8,8.7,11.45c1.6,0.62,3.35,0.84,4.97,1.42c0.81,0.29,2.53,0,1.91,1.74
			c-0.45,1.28-1.22,2.48-2.99,1.94c-2.84-0.87-5.69-1.7-8.51-2.63c-3.48-1.14-4.66-0.79-6.81,2.11c-3.03,4.08-7.43,5.68-12.19,6.26
			c-6.89,0.84-13.6-0.15-19.98-2.96c-4.91-2.16-5.08-3.36-0.93-6.39c7.15-5.23,15.05-7.79,24.12-6.44
			c-4.2-2.77-7.98-5.98-11.92-8.97c-1.06-0.8-2.61-1.05-3.74-0.01c-4.65,4.3-10.15,4.23-15.71,2.84
			c-7.19-1.8-13.67-5.06-18.56-10.86c-1.98-2.35-1.8-2.82,1.17-3.9c8.98-3.25,17.79-3.15,26.53,1.32
			c-3.46-4.36-6.35-9.05-9.62-13.48c-1.05-1.42-2.66-2.02-4.83-1.24c-4.66,1.67-9.17,0.48-13.18-2.09
			c-6.71-4.29-11.73-10.17-14.91-17.47c-1.67-3.83-1.06-4.41,3.17-3.89c8.73,1.07,16.68,3.69,22.48,11.03
			c-2.77-6.38-4.57-13.02-7.16-19.36c-0.68-1.67-1.96-2.58-4.07-2.5c-4.15,0.17-7.24-2.09-9.94-5c-5.89-6.34-9.49-13.87-11.6-22.19
			c-0.11-0.44-0.35-0.85-0.53-1.27C52.5,208.02,52.5,206.87,52.5,205.71z"/>
		<path class="st0" d="M157.96,258.41c1.19-7.03,2.39-14.21,3.62-21.39c1-5.86,1.97-11.73,3.1-17.56c0.31-1.61-0.34-2.48-1.35-3.46
			c-8.95-8.69-17.87-17.43-26.82-26.12c-1.5-1.46-2.94-2.92-2.08-5.22c0.81-2.15,2.78-2.34,4.73-2.61
			c12.25-1.74,24.48-3.55,36.73-5.27c1.79-0.25,2.79-1.02,3.6-2.7c5.39-11.13,10.93-22.18,16.39-33.27
			c0.91-1.85,1.76-3.73,4.26-3.65c2.33,0.08,3.11,1.9,3.98,3.65c5.47,11.09,11,22.15,16.39,33.27c0.81,1.68,1.81,2.45,3.6,2.7
			c12.35,1.73,24.68,3.54,37.02,5.3c1.87,0.27,3.7,0.56,4.45,2.58c0.8,2.15-0.41,3.61-1.86,5.02c-8.82,8.56-17.57,17.18-26.43,25.69
			c-1.6,1.54-2.17,2.89-1.74,5.22c2.25,12.16,4.24,24.37,6.34,36.56c0.32,1.87,0.44,3.67-1.34,4.94c-1.68,1.2-3.28,0.57-4.86-0.27
			c-11.12-5.84-22.26-11.64-33.33-17.56c-1.72-0.92-3.01-0.9-4.72,0.01c-11.16,5.97-22.37,11.84-33.59,17.69
			C160.63,263.75,157.83,262.14,157.96,258.41z"/>
		<path class="st0" d="M298.16,279.26c3.25-3.26,5.53-7.14,7.66-11.07c1.02-1.89-0.01-3.96-1.09-5.71
			c-7.24-11.73-7.23-23.92-2.38-36.42c0.34-0.87,0.42-2.18,1.49-2.25c1.2-0.08,1.2,1.33,1.51,2.14c2.89,7.5,6.38,14.82,7.08,22.99
			c0.12,1.42,0.02,2.87,0.5,4.49c0.96-2.57,1.98-5.12,2.86-7.71c0.68-1.99,0.97-4.14,1.8-6.06c1.57-3.67,0.49-6.52-2.33-8.93
			c-6.45-5.51-9.65-12.73-11.19-20.87c-0.83-4.38-0.7-8.78-0.21-13.18c0.09-0.82-0.07-1.96,0.87-2.25c1.02-0.32,1.41,0.81,1.88,1.47
			c5.39,7.6,12.14,14.38,14.5,23.9c0.99-5.24,1.27-10.44,1.16-15.66c-0.05-2.36-1.5-3.92-3.51-4.89
			c-12.9-6.24-16.98-17.69-18.25-30.81c-0.06-0.57-0.14-1.17,0.38-1.6c0.51-0.43,0.92-0.03,1.25,0.26
			c5.41,4.58,11.48,8.43,15.82,14.19c1.02,1.35,1.81,2.88,3.08,4.94c-0.06-5.21-1.2-9.59-2.1-13.99c-0.86-4.21-1.56-5.03-5.74-5.48
			c-6.25-0.67-10.91-3.89-14.72-8.6c-3.42-4.22-5.67-9.09-7.63-14.11c-0.58-1.47-0.18-2.24,1.33-1.54
			c7.17,3.34,15.13,5.18,21.33,11.34c-1.44-5-3.42-9.31-5.52-13.54c-1.13-2.27-3.54-1.72-5.44-1.4c-7.47,1.27-13.54-1.48-18.98-6.22
			c-2.4-2.1-4.27-4.66-5.95-7.37c-0.9-1.46-0.51-2.15,1.21-2.02c7.41,0.53,15,0.12,22.23,4.71c-2.07-4.16-4.38-7.4-6.93-10.42
			c-1.24-1.46-3.25-0.89-4.85-0.16c-9.15,4.16-19.93-0.22-25.34-7.01c-1.76-2.21-1.66-2.85,1.03-3.24
			c6.51-0.92,13.02-2.8,19.62-0.09c-2.19-3.86-5.73-6.44-9.56-7.16c-10-1.87-15.74-8.5-19.27-17.48c-0.56-1.43-2.04-3.26-0.84-4.44
			c1.06-1.05,2.85,0.42,4.23,0.97c4.45,1.76,9.17,2.97,13.04,5.94c4.15,3.19,7.49,6.94,7.4,12.64c-0.01,0.86,0.36,1.44,0.95,1.98
			c3.48,3.16,6.86,6.42,10.12,9.93c-2.52-5.51-3.95-11.23-4.52-17.2c-0.37-3.86-0.15-7.67,0.38-11.48c0.26-1.87,1.02-2.38,2.54-0.86
			c7.68,7.68,12.51,16.67,12.88,27.73c0.09,2.66-0.61,5.16-2.12,7.35c-1.26,1.8-1.25,3.87-0.35,5.46c2.44,4.29,5.49,8.21,8.09,12.47
			c-0.35-3.8-1.04-7.45-1-11.2c0.06-5.75,1.1-11.25,3.64-16.43c0.38-0.78,0.42-2.12,1.67-2.06c0.94,0.05,1.23,1.11,1.65,1.84
			c3.41,5.83,4.77,12.3,5.81,18.85c0.42,2.64,0.51,5.36,0.51,8.04c0.01,3.85-0.99,7.46-3.67,10.33c-1.66,1.78-1.92,3.87-1.3,5.88
			c1.3,4.19,2.95,8.28,4.75,13.19c-0.13-6.78,0.19-12.67,2.52-18.29c1.49-3.59,3.76-6.67,5.96-9.81c1.28-1.81,2.15-1.21,2.62,0.53
			c2.65,9.88,3.43,19.83,0.62,29.82c-0.99,3.51-3.19,6.31-5.79,8.8c-1.82,1.73-2.55,3.86-2.15,6.27c0.72,4.37,0.94,8.77,1.25,13.23
			c1.03-0.33,0.8-1.21,0.93-1.87c1.98-9.62,7.03-17.3,14.71-23.33c1.71-1.34,2.39-0.65,2.48,1.17c0.56,10.99-1.5,21.39-7.25,30.88
			c-1.41,2.32-3.42,4.35-6.07,5.06c-2.9,0.77-3.7,2.7-3.97,5.22c-0.58,5.34-0.2,10.76-1.29,16.15c1.51-2.44,3.04-4.84,4.73-7.12
			c4.06-5.45,9.25-9.41,15.53-11.95c2.8-1.13,3.39-0.72,2.87,2.17c-1.78,9.79-6.03,18.35-13.07,25.43
			c-2.37,2.38-5.23,4.07-8.69,3.85c-2.55-0.17-3.82,1.24-4.53,3.16c-2.29,6.17-4.13,12.5-6.82,18.64
			c5.84-7.17,13.69-9.9,22.39-10.95c4.36-0.53,5.12,0.11,3.18,4.03c-4.49,9.07-10.4,16.84-20.82,19.71
			c-2.36,0.65-4.85,0.73-7.08-0.26c-2.38-1.06-4.08-0.08-5.24,1.55c-3.11,4.34-5.95,8.87-9.34,13.13c8.49-4.3,17.09-4.63,25.9-1.53
			c3.8,1.34,4.12,1.85,1.33,4.67c-7.11,7.18-15.63,11.32-25.96,10.94c-2.77-0.1-5.23-1.2-7.27-3.09c-1.45-1.35-3.09-1.32-4.45-0.29
			c-3.87,2.95-7.6,6.07-11.71,8.87c7.39-1.15,14.07,0.55,20.43,4.02c2.04,1.12,3.75,2.67,5.68,3.91c1.72,1.11,1.3,2.01-0.04,3.04
			c-3.95,3.03-8.65,4.13-13.4,4.74c-5.95,0.77-11.89,0.62-17.37-2.41c-1.89-1.04-3.52-2.39-4.62-4.23
			c-1.39-2.31-3.29-2.64-5.65-1.89c-3.02,0.95-6.04,1.86-9.07,2.77c-0.95,0.28-1.86,0.43-2.58-0.56c-1.01-1.4-1.51-2.44,0.86-2.98
			c3.55-0.81,6.96-2.15,10.43-3.2c2.76-0.84,3.57-2.51,3.52-5.05c-0.08-4.32-0.07-8.63,1.38-12.8c2.62-7.54,7.17-13.5,14.17-17.46
			c0.72-0.41,1.44-1.26,2.32-0.76c1,0.56,0.34,1.55,0.22,2.35c-0.78,5.12-1.55,10.24-2.72,15.29c-0.92,3.95-2.34,7.64-5.36,11.45
			c5.66-2.98,9.82-6.64,13.83-10.41c1.48-1.39,1.02-3.59,0.43-5.46c-4.03-12.87-1.73-24.6,6.37-35.27c0.61-0.81,1.1-2.12,2.33-1.78
			c1.08,0.29,0.82,1.62,0.91,2.5c0.61,5.73,1.15,11.46,1.7,17.19C299.26,272.58,298.57,275.88,298.16,279.26z"/>
	</g>
</g>
</svg>
